<svg width="77" height="77" viewBox="0 0 77 77" fill="none" xmlns="http://www.w3.org/2000/svg">
<circle cx="38.5" cy="38.5" r="38.5" fill="#17871B"/>
<g clip-path="url(#clip0_860_10494)">
<path d="M23.5259 46.9534L23.3398 46.1903H22.5544H16.5862C16.5023 46.1903 16.4346 46.1226 16.4346 46.0387V45.5731C16.4346 40.3701 20.6915 36.1132 25.8945 36.1132H26.5529H27.4461L27.5466 35.2256C28.0713 30.5883 32.0383 27.0376 36.7147 27.0376H43.4643C48.1406 27.0376 52.1072 30.5882 52.6325 35.2257L52.733 36.1132H53.6261H55.4489C58.2201 36.1132 60.4875 38.3805 60.4875 41.1517C60.4875 43.923 58.2206 46.1903 55.4489 46.1903H54.3676H53.582L53.3961 46.9536C52.9783 48.6686 51.4337 49.884 49.6603 49.884C47.8864 49.884 46.3422 48.6687 45.9239 46.9534L45.7378 46.1903H44.9524H31.9697H31.1842L30.9981 46.9534C30.5799 48.6687 29.0356 49.884 27.2617 49.884C25.4885 49.884 23.9442 48.6688 23.5259 46.9534ZM36.0974 45.887H37.0974V44.887V37.4164V36.4164H36.0974H25.8945C21.1541 36.4164 17.1686 40.087 16.7702 44.8029L16.6786 45.887H17.7666H22.5544H23.3398L23.5259 45.124C23.9442 43.4085 25.488 42.1933 27.2617 42.1933C29.0356 42.1933 30.5799 43.4086 30.9981 45.124L31.1842 45.887H31.9697H36.0974ZM38.4006 36.4164H37.4006V37.4164V44.887V45.887H38.4006H44.9524H45.7378L45.9239 45.124C46.3422 43.4086 47.8864 42.1933 49.6603 42.1933C51.4337 42.1933 52.9783 43.4087 53.3961 45.1237L53.582 45.887H54.3676H55.4489C58.0535 45.887 60.1842 43.7556 60.1842 41.1517C60.1842 38.5472 58.0534 36.4164 55.4489 36.4164H55.4156H55.3823H55.349H55.3157H55.2824H55.2491H55.2158H55.1825H55.1492H55.1159H55.0826H55.0493H55.016H54.9827H54.9494H54.9161H54.8828H54.8495H54.8162H54.7829H54.7496H54.7163H54.683H54.6498H54.6165H54.5832H54.5499H54.5166H54.4833H54.45H54.4167H54.3834H54.3501H54.3168H54.2835H54.2502H54.2169H54.1836H54.1503H54.117H54.0837H54.0504H54.0171H53.9838H53.9505H53.9172H53.8839H53.8506H53.8173H53.784H53.7507H53.7174H53.6841H53.6508H53.6175H53.5842H53.5509H53.5176H53.4843H53.451H53.4177H53.3844H53.3512H53.3179H53.2846H53.2513H53.218H53.1847H53.1514H53.1181H53.0848H53.0515H53.0182H52.9849H52.9516H52.9183H52.885H52.8517H52.8184H52.7851H52.7518H52.7185H52.6852H52.6519H52.6186H52.5853H52.552H52.5187H52.4854H52.4521H52.4188H52.3855H52.3522H52.3189H52.2856H52.2523H52.219H52.1857H52.1524H52.1191H52.0858H52.0526H52.0193H51.986H51.9527H51.9194H51.8861H51.8528H51.8195H51.7862H51.7529H51.7196H51.6863H51.653H51.6197H51.5864H51.5531H51.5198H51.4865H51.4532H51.4199H51.3866H51.3533H51.32H51.2867H51.2534H51.2201H51.1868H51.1535H51.1202H51.0869H51.0536H51.0203H50.987H50.9537H50.9204H50.8871H50.8538H50.8205H50.7873H50.754H50.7207H50.6874H50.6541H50.6208H50.5875H50.5542H50.5209H50.4876H50.4543H50.421H50.3877H50.3544H50.3211H50.2878H50.2545H50.2212H50.1879H50.1546H50.1213H50.088H50.0547H50.0214H49.9881H49.9548H49.9215H49.8882H49.8549H49.8216H49.7883H49.755H49.7217H49.6884H49.6551H49.6218H49.5885H49.5552H49.5219H49.4887H49.4554H49.4221H49.3888H49.3555H49.3222H49.2889H49.2556H49.2223H49.189H49.1557H49.1224H49.0891H49.0558H49.0225H48.9892H48.9559H48.9226H48.8893H48.856H48.8227H48.7894H48.7561H48.7228H48.6895H48.6562H48.6229H48.5896H48.5563H48.523H48.4897H48.4564H48.4231H48.3898H48.3565H48.3232H48.2899H48.2566H48.2233H48.1901H48.1568H48.1235H48.0902H48.0569H48.0236H47.9903H47.957H47.9237H47.8904H47.8571H47.8238H47.7905H47.7572H47.7239H47.6906H47.6573H47.624H47.5907H47.5574H47.5241H47.4908H47.4575H47.4242H47.3909H47.3576H47.3243H47.291H47.2577H47.2244H47.1911H47.1578H47.1245H47.0912H47.0579H47.0246H46.9913H46.958H46.9247H46.8915H46.8582H46.8249H46.7916H46.7583H46.725H46.6917H46.6584H46.6251H46.5918H46.5585H46.5252H46.4919H46.4586H46.4253H46.392H46.3587H46.3254H46.2921H46.2588H46.2255H46.1922H46.1589H46.1256H46.0923H46.059H46.0257H45.9924H45.9591H45.9258H45.8925H45.8592H45.8259H45.7926H45.7593H45.726H45.6927H45.6594H45.6261H45.5929H45.5596H45.5263H45.493H45.4597H45.4264H45.3931H45.3598H45.3265H45.2932H45.2599H45.2266H45.1933H45.16H45.1267H45.0934H45.0601H45.0268H44.9935H44.9602H44.9269H44.8936H44.8603H44.827H44.7937H44.7604H44.7271H44.6938H44.6605H44.6272H44.5939H44.5606H44.5273H44.494H44.4607H44.4274H44.3941H44.3608H44.3275H44.2943H44.261H44.2277H44.1944H44.1611H44.1278H44.0945H44.0612H44.0279H43.9946H43.9613H43.928H43.8947H43.8614H43.8281H43.7948H43.7615H43.7282H43.6949H43.6616H43.6283H43.595H43.5617H43.5284H43.4951H43.4618H43.4285H43.3952H43.3619H43.3286H43.2953H43.262H43.2287H43.1954H43.1621H43.1288H43.0955H43.0622H43.0289H42.9957H42.9624H42.9291H42.8958H42.8625H42.8292H42.7959H42.7626H42.7293H42.696H42.6627H42.6294H42.5961H42.5628H42.5295H42.4962H42.4629H42.4296H42.3963H42.363H42.3297H42.2964H42.2631H42.2298H42.1965H42.1632H42.1299H42.0966H42.0633H42.03H41.9967H41.9634H41.9301H41.8968H41.8635H41.8302H41.7969H41.7636H41.7303H41.6971H41.6638H41.6305H41.5972H41.5639H41.5306H41.4973H41.464H41.4307H41.3974H41.3641H41.3308H41.2975H41.2642H41.2309H41.1976H41.1643H41.131H41.0977H41.0644H41.0311H40.9978H40.9645H40.9312H40.8979H40.8646H40.8313H40.798H40.7647H40.7314H40.6981H40.6648H40.6315H40.5982H40.5649H40.5316H40.4983H40.465H40.4317H40.3985H40.3652H40.3319H40.2986H40.2653H40.232H40.1987H40.1654H40.1321H40.0988H40.0655H40.0322H39.9989H39.9656H39.9323H39.899H39.8657H39.8324H39.7991H39.7658H39.7325H39.6992H39.6659H39.6326H39.5993H39.566H39.5327H39.4994H39.4661H39.4328H39.3995H39.3662H39.3329H39.2996H39.2663H39.233H39.1997H39.1664H39.1331H39.0998H39.0666H39.0333H39H38.9667H38.9334H38.9001H38.8668H38.8335H38.8002H38.7669H38.7336H38.7003H38.667H38.6337H38.6004H38.5671H38.5338H38.5005H38.4672H38.4339H38.4006ZM41.2414 27.3409H40.2414V28.3409V35.1132V36.1132H41.2414H51.3035H52.4617L52.2928 34.9673C51.651 30.6143 47.8778 27.3409 43.4643 27.3409H41.2414ZM38.9376 36.1132H39.9376V35.1132V28.3409V27.3409H38.9376H36.7147C32.3012 27.3409 28.5281 30.6143 27.8863 34.9673L27.7173 36.1132H28.8756H38.9376ZM27.2617 42.4966C25.3057 42.4966 23.7196 44.0826 23.7196 46.0387C23.7196 47.9947 25.3057 49.5808 27.2617 49.5808C29.2181 49.5808 30.8044 47.9956 30.8044 46.0387C30.8044 44.0825 29.2182 42.4966 27.2617 42.4966ZM49.6603 42.4966C47.7038 42.4966 46.1176 44.0825 46.1176 46.0387C46.1176 47.9949 47.7038 49.5808 49.6603 49.5808C51.6162 49.5808 53.2024 47.9954 53.2024 46.0387C53.2024 44.0826 51.6163 42.4966 49.6603 42.4966Z" stroke="white" stroke-width="2"/>
</g>
<defs>
<clipPath id="clip0_860_10494">
<rect width="46.9219" height="46.9219" fill="white" transform="translate(15 15)"/>
</clipPath>
</defs>
</svg>
