<svg width="277" height="115" viewBox="0 0 277 115" fill="none" xmlns="http://www.w3.org/2000/svg">
<path d="M0 10C0 4.47715 4.47715 0 10 0H267C272.523 0 277 4.47715 277 10V105C277 110.523 272.523 115 267 115H10C4.47716 115 0 110.523 0 105V10Z" fill="url(#paint0_linear_744_7376)"/>
<path fill-rule="evenodd" clip-rule="evenodd" d="M277 54.7103L273.028 54.611L273.236 59.9231L270.436 60.1297L270.54 62.0613L268.466 62.1303L268.57 51.4379L255.195 50.6098L249.182 51.2999L249.337 60.3367L245.553 60.5438L245.19 62.3028L242.754 62.4754L242.391 57.8189L223.365 57.9574L223.21 53.4731L220.151 53.3699L219.736 52.0936L217.041 51.9206L213.048 52.2312L213.152 53.1966L209.42 53.0935L203.251 53.6107V56.4041L199.466 56.5767L199.051 44.1593L186.921 43.7461L180.855 45.9878L174.219 46.0223L172.25 46.505L159.497 46.3674L158.356 46.954L158.408 44.3664C158.408 44.3664 156.438 43.9527 154.779 43.9527C153.12 43.9527 147.106 44.4009 147.106 44.4009L146.847 46.7807L145.81 47.1262L146.121 58.8533L144.566 58.7153L143.944 57.6115L140.315 57.5425L138.137 59.0259L138.085 60.0943L135.079 60.0603L134.042 53.2307L133.575 59.9222L132.901 59.9567L129.272 62.5095L128.805 58.5428L127.069 58.4908L126.939 57.9906H124.632L124.425 55.6283L122.143 55.4558L121.832 56.9392L120.951 57.0423L120.691 58.5257L119.136 58.6288L118.877 63.1127H117.218L117.166 70.3219H115.663L115.352 54.818L111.153 54.8006L110.868 53.6452L110.298 53.387L101.251 53.4036L101.044 39.7449L100.318 38.6415L96.6895 37.1581L87.2538 37.3996L85.9064 38.6419L85.8544 52.6798H79.271L79.1671 56.5775H75.356L75.2261 53.0423L74.6298 52.8523L74.3709 51.904L71.5716 51.8687L71.4936 52.7314L70.8973 52.7825C70.8973 52.7825 70.8713 54.2767 70.8713 54.4904C70.8713 54.7045 65.428 54.6629 65.428 54.6629L65.1171 59.8715L62.5252 59.9405L62.4602 62.8204L61.9159 62.7947L61.6955 64.8639L59.9977 64.9071L59.7123 65.4759L57.9365 65.4937L57.9105 64.9416C57.9105 64.9416 55.9148 64.9936 55.7854 65.0281C55.6554 65.0626 55.5265 64.0448 55.5265 64.0448L54.1785 63.9064L54.0486 59.474L51.6635 59.06L42.2803 59.3028L42.0734 52.7842L41.3997 52.474L41.3477 47.8521L40.9329 47.4039L40.9848 44.6445L39.0661 43.8164C39.0661 43.8164 39.3249 38.0557 38.7552 37.1248C38.1849 36.1935 37.6147 36.366 37.6147 36.366C37.6147 36.366 37.5112 36.1245 37.5112 35.5379C37.5112 34.9517 36.9404 33.6059 36.9404 33.6059C36.9404 33.6059 36.9404 32.813 36.837 32.0888C36.7335 31.3641 36.1113 30.8124 36.1113 30.8124C36.1113 30.8124 35.9558 30.2603 35.7484 29.467C35.541 28.6738 34.375 28.105 34.375 28.105C34.375 28.105 34.4524 27.6564 34.2716 27.0182C34.0901 26.3801 33.4159 25.8629 33.4159 25.8629C33.4159 25.8629 33.4679 25.2933 33.3384 24.7245C33.209 24.1554 32.5873 23.3276 32.5873 23.3276L31.4451 12.4806C31.4451 12.4806 31.2371 19.9313 31.0817 21.0002C30.9263 22.0695 31.0292 23.3114 31.0292 23.3114C31.0292 23.3114 30.8478 23.4149 30.6149 23.9321C30.3815 24.4497 30.4069 25.6396 30.4069 25.6396C30.4069 25.6396 30.0695 25.8467 29.9141 26.2944C29.7592 26.743 29.6812 28.0543 29.6812 28.0543C29.6812 28.0543 28.955 28.3474 28.5927 28.9162C28.2298 29.4853 28.3078 30.7617 28.3078 30.7617C28.3078 30.7617 27.9964 30.9687 27.6595 31.3134C27.3227 31.6576 27.4261 33.176 27.4261 33.176C27.4261 33.176 27.3487 33.2446 27.0373 33.5547C26.7259 33.8657 26.9338 35.5034 26.7779 35.6077C26.6224 35.7108 26.5699 36.9872 26.5699 36.9872C26.5699 36.9872 26.2076 37.2632 26.1036 37.4009C26.0002 37.5393 26.2071 44.1959 26.2071 44.1959L23.4082 44.5235L23.7445 58.1653L20.7118 58.1307L20.6078 61.6663L19.7006 61.6834L19.7396 66.7285H19.2214L18.9999 55.1219L17.5999 54.2775V52.6037L16.5633 52.0869L16.0965 50.4655L12.7789 50.5004L12.572 52.2595L9.09836 52.5006L5.36586 52.4661L4.48419 52.8461L0 52.8149V115H277V54.7103Z" fill="url(#paint1_linear_744_7376)" fill-opacity="0.5"/>
<defs>
<linearGradient id="paint0_linear_744_7376" x1="12.0873" y1="57.9458" x2="269.949" y2="57.9458" gradientUnits="userSpaceOnUse">
<stop stop-color="#B5E0B7"/>
<stop offset="1" stop-color="#DFC47E" stop-opacity="0.69"/>
</linearGradient>
<linearGradient id="paint1_linear_744_7376" x1="138.5" y1="119.959" x2="138.5" y2="-5.02359" gradientUnits="userSpaceOnUse">
<stop stop-color="#A5D7EE"/>
<stop offset="0.2736" stop-color="#9AD7EE"/>
<stop offset="1" stop-color="#588CEE"/>
</linearGradient>
</defs>
</svg>
