<svg width="22" height="22" viewBox="0 0 22 22" fill="none" xmlns="http://www.w3.org/2000/svg">
<path d="M2.72058 4.44871L2.72059 4.44871L2.72184 4.44555C2.90754 3.97354 3.20376 3.53302 3.6294 3.13148L3.62949 3.13158L3.63857 3.12263C4.13468 2.63428 4.63149 2.43337 5.12433 2.43337C5.29698 2.43337 5.46418 2.47064 5.60719 2.53929L5.60716 2.53935L5.61539 2.54315C5.76459 2.61201 5.88865 2.71018 5.98768 2.85323L5.98765 2.85326L5.99165 2.85889L8.11831 5.85639L8.1183 5.8564L8.12074 5.85979C8.26401 6.05877 8.3578 6.22844 8.419 6.37805L8.41893 6.37808L8.42284 6.38723C8.48195 6.52515 8.50266 6.63648 8.50266 6.71004C8.50266 6.80927 8.47461 6.92246 8.39764 7.0489L8.3926 7.05719L8.38783 7.06564C8.30217 7.21719 8.16538 7.39463 7.97257 7.58744L7.97249 7.58736L7.96444 7.59573L7.27108 8.31646C7.05182 8.53825 6.9535 8.81249 6.9535 9.10254C6.9535 9.23271 6.97073 9.34616 6.99891 9.4589L7.0072 9.49205L7.0192 9.52405C7.03648 9.57012 7.05382 9.61102 7.06527 9.63803C7.06642 9.64073 7.0675 9.64329 7.06852 9.6457C7.07473 9.66037 7.07854 9.66951 7.08153 9.67702C7.08411 9.68352 7.08504 9.68622 7.08512 9.68644C7.08512 9.68645 7.08513 9.68646 7.08513 9.68646L7.10201 9.73712L7.12759 9.78402C7.32095 10.1385 7.63485 10.5684 8.0488 11.0576L8.04877 11.0576L8.05313 11.0627C8.47173 11.5464 8.92031 12.0418 9.40771 12.5386L9.40769 12.5386L9.41173 12.5426C9.46277 12.5937 9.51537 12.6438 9.56194 12.6881L9.56429 12.6904C9.6134 12.7371 9.65614 12.7779 9.6959 12.8176L9.69587 12.8177L9.7013 12.823C9.8313 12.9497 9.83264 13.1524 9.70507 13.2799L8.00923 14.9758C7.88924 15.0958 7.69537 15.1044 7.5584 14.9781C7.50537 14.9253 7.45316 14.8754 7.40605 14.8305L7.40403 14.8285C7.35325 14.7801 7.30815 14.737 7.26379 14.6926C6.34095 13.7607 5.50892 12.7854 4.76709 11.7666C4.03772 10.7525 3.45721 9.74749 3.03782 8.76089C2.63152 7.77452 2.4335 6.8543 2.4335 5.99504C2.4335 5.44281 2.53081 4.92314 2.72058 4.44871Z" stroke="#17871B" stroke-width="1.2"/>
<path d="M19.373 17.5333L19.3731 17.5333C19.3931 17.4934 19.41 17.4501 19.4379 17.3757C19.506 17.1835 19.539 16.9873 19.539 16.8025C19.539 16.641 19.5063 16.4908 19.4393 16.3207C19.389 16.2104 19.3038 16.1029 19.1466 15.9941L19.1408 15.9901L19.1408 15.9901L16.1117 13.8395C15.907 13.7006 15.7352 13.6059 15.5851 13.5445C15.4457 13.4874 15.3394 13.47 15.2531 13.47C15.147 13.47 15.0429 13.4967 14.9143 13.575L14.8974 13.5853L14.8798 13.5944C14.7426 13.6661 14.5715 13.7952 14.3666 14.0001L14.3638 14.0029L14.3637 14.0029L13.6683 14.6892C13.4613 14.8954 13.1924 15.0192 12.8698 15.0192C12.7408 15.0192 12.591 15.0047 12.43 14.9443L12.417 14.9394L12.4043 14.934C12.3675 14.9182 12.3334 14.9026 12.3084 14.8911C12.3059 14.89 12.3036 14.8889 12.3013 14.8878C12.2718 14.8743 12.2598 14.8691 12.2528 14.8662L12.2244 14.8549L12.1972 14.8407C12.0928 14.7859 11.9824 14.7216 11.8669 14.648L9.69902 16.816C9.86507 16.943 10.0354 17.0697 10.2095 17.1992C11.221 17.9354 12.2351 18.5163 13.2425 18.9455C14.2364 19.369 15.1555 19.5667 15.9956 19.5667C16.5509 19.5667 17.0607 19.4624 17.5296 19.2717L17.6383 19.2275H17.6392C18.0733 19.0351 18.4694 18.7442 18.8419 18.3337L19.373 17.5333ZM19.373 17.5333L19.3673 17.5455M19.373 17.5333L19.3673 17.5455M19.3673 17.5455C19.2353 17.8249 19.0659 18.0865 18.8421 18.3335L19.3673 17.5455ZM17.5011 19.2862C17.5002 19.2867 17.5013 19.2861 17.5027 19.2854L17.5011 19.2862Z" stroke="black" stroke-width="1.2"/>
</svg>
