<svg width="18" height="18" viewBox="0 0 18 18" fill="none" xmlns="http://www.w3.org/2000/svg">
<path d="M6.33068 4.32124C6.61067 3.13472 7.69949 2.25 9 2.25C10.3005 2.25 11.3893 3.13472 11.6693 4.32124L11.7863 4.34504C13.5752 4.70916 14.9999 6.02873 15.4661 7.75354C15.8446 9.15367 15.8446 10.6257 15.4661 12.0258C14.9999 13.7506 13.5752 15.0702 11.7863 15.4343L11.4445 15.5039C9.83216 15.832 8.16784 15.832 6.55554 15.5039L6.2137 15.4343C4.42476 15.0702 3.00015 13.7506 2.53388 12.0258C2.15537 10.6257 2.15537 9.15366 2.53388 7.75354C3.00015 6.02873 4.42476 4.70916 6.2137 4.34505L6.33068 4.32124Z" stroke="#17871B" stroke-width="1.5" stroke-linejoin="round"/>
<path d="M9 2.25C7.69949 2.25 6.61067 3.13472 6.33068 4.32124L6.2137 4.34505C4.42476 4.70916 3.00015 6.02873 2.53388 7.75354C2.15537 9.15366 2.15537 10.6257 2.53388 12.0258C3.00015 13.7506 4.42476 15.0702 6.2137 15.4343L6.55554 15.5039C8.16784 15.832 9.83216 15.832 11.4445 15.5039L11.7863 15.4343C13.5752 15.0702 14.9999 13.7506 15.4661 12.0258C15.8446 10.6257 15.8446 9.15367 15.4661 7.75354" stroke="black" stroke-width="1.5" stroke-linecap="round" stroke-linejoin="round"/>
<path d="M7.125 9.75C7.125 8.71447 7.96447 7.875 9 7.875C10.0355 7.875 10.875 8.71447 10.875 9.75C10.875 10.7855 10.0355 11.625 9 11.625C7.96447 11.625 7.125 10.7855 7.125 9.75Z" stroke="#17871B" stroke-width="1.5"/>
</svg>
