<svg width="30" height="39" viewBox="0 0 30 39" fill="none" xmlns="http://www.w3.org/2000/svg">
<g clip-path="url(#clip0_860_10612)">
<path d="M21.6708 0.675063L21.7199 0.70324C21.8623 0.784892 21.9713 0.911211 22.0304 1.0606C22.0895 1.2099 22.0956 1.37431 22.0479 1.52734L22.0478 1.5277L17.6325 15.7209L17.4308 16.3694H18.1099H26.2565H26.2567C26.3996 16.3694 26.539 16.4108 26.6576 16.4879C26.7762 16.565 26.8685 16.6742 26.9241 16.8014C26.9796 16.9286 26.9961 17.0687 26.9719 17.2047C26.9477 17.3408 26.8837 17.4675 26.7869 17.5691L26.7866 17.5694L7.17413 38.185L7.17399 38.1851C7.06208 38.3029 6.91231 38.3804 6.74871 38.404C6.58509 38.4275 6.41852 38.3955 6.27637 38.3136C6.13432 38.2319 6.02558 38.1056 5.96668 37.9563L5.50158 38.1398L5.96668 37.9563C5.90782 37.8071 5.9018 37.6429 5.94949 37.4901L5.94962 37.4897L10.3649 23.294L10.5666 22.6455H9.88743H1.74092H1.74072C1.5978 22.6456 1.4584 22.6042 1.33978 22.5271C1.22121 22.45 1.12886 22.3408 1.07333 22.2136C1.01782 22.0864 1.00128 21.9463 1.02547 21.8102C1.04967 21.6742 1.11371 21.5475 1.2105 21.4459L1.21081 21.4456L20.8232 0.829999L20.8234 0.829878C20.9351 0.7123 21.0847 0.63479 21.248 0.611139C21.3929 0.590158 21.5402 0.61281 21.6708 0.675063Z" fill="#17721A" stroke="black"/>
</g>
<defs>
<clipPath id="clip0_860_10612">
<rect width="29.4187" height="38.808" fill="white" transform="translate(0.514648 0.103516)"/>
</clipPath>
</defs>
</svg>
