<svg width="115" height="115" viewBox="0 0 115 115" fill="none" xmlns="http://www.w3.org/2000/svg">
<g clip-path="url(#clip0_939_18473)">
<path d="M77.0356 11.305V10.1064C77.0356 4.53371 72.5019 0 66.9292 0H55.6999C53.8395 0 52.3312 1.50832 52.3312 3.36879V3.59337H48.5132C46.6527 3.59337 45.1444 5.10169 45.1444 6.96216C45.1444 8.82262 46.6527 10.3309 48.5132 10.3309H52.3312V18.1914H48.5132C46.6527 18.1914 45.1444 19.6998 45.1444 21.5602C45.1444 23.4207 46.6527 24.929 48.5132 24.929H52.3312C52.3312 26.7895 53.8395 28.2978 55.6999 28.2978H66.9292C72.3608 28.2978 76.8034 23.9902 77.0248 18.6121C93.5974 26.1822 104.435 42.789 104.435 61.3119C104.435 87.1938 83.3786 108.25 57.4966 108.25C31.6147 108.25 10.5582 87.1938 10.5582 61.3119C10.5582 44.607 19.552 29.027 34.0299 20.6516C35.6404 19.72 36.1906 17.6592 35.2593 16.0487C34.3277 14.4382 32.2662 13.8879 30.6564 14.8195C0.242103 32.4133 -5.49472 74.2298 19.5421 99.2664C40.5191 120.244 74.4724 120.245 95.4512 99.2664C105.589 89.1284 111.173 75.6492 111.173 61.3119C111.173 39.1085 97.5526 19.3132 77.0356 11.305Z" fill="#CFCFCF"/>
<path d="M31.3838 51.3767L28.8024 48.9673C27.4428 47.6978 25.3106 47.7712 24.0412 49.1315C22.7719 50.4916 22.8453 52.6234 24.2054 53.893L27.8309 57.2768L25.9828 58.5089C25.0456 59.1337 24.4825 60.1856 24.4825 61.3119V72.9904C24.4825 74.8508 25.9909 76.3592 27.8513 76.3592H87.142C89.0024 76.3592 90.5107 74.8508 90.5107 72.9904V61.3119C90.5107 60.1856 89.9477 59.1337 89.0105 58.5089L87.1015 57.2361L90.6048 53.8537C91.9434 52.5614 91.9806 50.4287 90.6884 49.0902C89.3961 47.7519 87.2632 47.7144 85.9249 49.0066L83.582 51.2687L80.9207 40.845C79.7773 36.3665 75.7507 33.2387 71.1285 33.2387H43.8652C39.2432 33.2387 35.2164 36.3665 34.0728 40.845L31.3838 51.3767ZM40.6013 42.5116C40.9822 41.0188 42.3245 39.9763 43.8652 39.9763H71.1288C72.6694 39.9763 74.0118 41.0188 74.3927 42.5119L77.4154 54.3498H37.5786L40.6013 42.5116Z" fill="#CFCFCF"/>
<path d="M37.7331 92.5293C41.7016 92.5293 44.9199 89.311 44.9199 85.3425V83.0967H30.5464V85.3425C30.5464 89.311 33.7647 92.5293 37.7331 92.5293Z" fill="#CFCFCF"/>
<path d="M77.26 92.5293C81.2284 92.5293 84.4467 89.311 84.4467 85.3425V83.0967H70.0732V85.3425C70.0732 89.311 73.2916 92.5293 77.26 92.5293Z" fill="#CFCFCF"/>
</g>
<defs>
<clipPath id="clip0_939_18473">
<rect width="115" height="115" fill="white"/>
</clipPath>
</defs>
</svg>
