<svg width="73" height="73" viewBox="0 0 73 73" fill="none" xmlns="http://www.w3.org/2000/svg">
<path d="M9.125 9.125H18.25V18.25H9.125V9.125Z" fill="black"/>
<path d="M27.375 0V27.375H0V0H27.375ZM22.8125 4.5625H4.5625V22.8125H22.8125V4.5625ZM18.25 54.75H9.125V63.875H18.25V54.75Z" fill="black"/>
<path d="M27.375 45.625V73H0V45.625H27.375ZM4.5625 50.1875V68.4375H22.8125V50.1875H4.5625ZM54.75 9.125H63.875V18.25H54.75V9.125Z" fill="black"/>
<path d="M45.625 0V27.375H73V0H45.625ZM68.4375 4.5625V22.8125H50.1875V4.5625H68.4375ZM36.5 4.5625V0H41.0625V9.125H36.5V18.25H31.9375V4.5625H36.5ZM36.5 27.375V18.25H41.0625V27.375H36.5ZM27.375 36.5V31.9375H31.9375V27.375H36.5V36.5H41.0625V31.9375H63.875V36.5H45.625V41.0625H31.9375V36.5H27.375ZM27.375 36.5V41.0625H9.125V36.5H4.5625V41.0625H0V31.9375H13.6875V36.5H27.375ZM73 41.0625H68.4375V31.9375H73V41.0625ZM68.4375 41.0625H63.875V50.1875H73V45.625H68.4375V41.0625ZM50.1875 41.0625H59.3125V45.625H54.75V50.1875H50.1875V41.0625ZM59.3125 54.75V50.1875H54.75V54.75H50.1875V59.3125H41.0625V63.875H54.75V54.75H59.3125ZM59.3125 54.75H73V59.3125H63.875V63.875H59.3125V54.75ZM41.0625 50.1875V54.75H45.625V45.625H31.9375V50.1875H41.0625Z" fill="black"/>
<path d="M31.9375 54.75H36.5V68.4375H54.75V73H31.9375V54.75ZM73 63.875V73H59.3125V68.4375H68.4375V63.875H73Z" fill="black"/>
</svg>
