<svg width="77" height="77" viewBox="0 0 77 77" fill="none" xmlns="http://www.w3.org/2000/svg">
<circle cx="38.5" cy="38.5" r="38.5" fill="#17871B"/>
<path d="M52.2589 25.3962L39.0621 19.531C38.8731 19.446 38.6682 19.4021 38.4609 19.4021C38.2537 19.4021 38.0488 19.446 37.8598 19.531L24.663 25.3962C24.4057 25.5119 24.1873 25.6993 24.0338 25.9359C23.8804 26.1726 23.7984 26.4485 23.7979 26.7306V39.2822C23.808 41.0673 24.193 42.8303 24.9281 44.457C25.6631 46.0838 26.7318 47.5379 28.0648 48.7252L37.4932 57.0978C37.7608 57.3329 38.1048 57.4626 38.4609 57.4626C38.8171 57.4626 39.1611 57.3329 39.4287 57.0978L48.8571 48.7252C50.1901 47.5379 51.2587 46.0838 51.9938 44.457C52.7289 42.8303 53.1139 41.0673 53.124 39.2822V26.7306C53.1234 26.4485 53.0415 26.1726 52.8881 25.9359C52.7346 25.6993 52.5162 25.5119 52.2589 25.3962ZM50.1914 39.2822C50.1942 40.6671 49.9029 42.0369 49.3367 43.3008C48.7704 44.5647 47.9422 45.6939 46.9069 46.6137L38.4609 54.0919L30.015 46.5844C28.9796 45.6646 28.1514 44.5353 27.5852 43.2714C27.019 42.0075 26.7276 40.6378 26.7305 39.2529V27.6837L38.4609 22.4636L50.1914 27.6837V39.2822Z" fill="white"/>
<path d="M34.0622 35.9537C33.7861 35.6776 33.4116 35.5225 33.0211 35.5225C32.6307 35.5225 32.2562 35.6776 31.9801 35.9537C31.7039 36.2299 31.5488 36.6043 31.5488 36.9948C31.5488 37.3853 31.7039 37.7598 31.9801 38.0359L35.6458 41.7017C35.7821 41.8391 35.9443 41.9482 36.123 42.0226C36.3017 42.0971 36.4933 42.1354 36.6869 42.1354C36.8805 42.1354 37.0721 42.0971 37.2508 42.0226C37.4295 41.9482 37.5917 41.8391 37.728 41.7017L45.0595 34.3701C45.3356 34.0785 45.4846 33.6891 45.4736 33.2876C45.4626 32.8861 45.2925 32.5054 45.0009 32.2293C44.7092 31.9532 44.3198 31.8043 43.9183 31.8153C43.5168 31.8263 43.1362 31.9963 42.8601 32.288L36.5696 38.5931L34.0622 35.9537Z" fill="white"/>
</svg>
