<svg width="22" height="22" viewBox="0 0 22 22" fill="none" xmlns="http://www.w3.org/2000/svg">
<path d="M7.48544 20.8032L18.1521 10.1788C18.2414 10.09 18.3011 9.97858 18.3236 9.85836C18.3462 9.73815 18.3307 9.61437 18.2791 9.50231C18.2275 9.39025 18.142 9.29481 18.0332 9.22777C17.9244 9.16074 17.797 9.12504 17.6668 9.12509L7.48544 20.8032ZM7.48544 20.8032C7.38223 20.9061 7.24489 20.9731 7.0958 20.9935C6.94672 21.0138 6.79468 20.9862 6.66446 20.9152C6.53425 20.8442 6.43354 20.7339 6.37876 20.6023C6.32397 20.4707 6.31834 20.3257 6.36277 20.1907M7.48544 20.8032L6.36277 20.1907M6.36277 20.1907L8.63281 13.2749M6.36277 20.1907L8.63281 13.2749M8.63281 13.2749H8.7641V12.8749M8.63281 13.2749L8.7641 12.8749M8.7641 12.8749L8.38405 12.7501L8.34311 12.8749M8.7641 12.8749H8.34311M8.34311 12.8749H4.33344C4.20323 12.8749 4.07586 12.8392 3.96704 12.7722C3.85823 12.7052 3.77274 12.6097 3.72112 12.4977C3.66951 12.3856 3.65403 12.2618 3.67659 12.1416C3.69916 12.0214 3.75878 11.91 3.8481 11.8212L8.34311 12.8749ZM15.1214 1.42484L15.1438 1.437C15.1977 1.46629 15.2338 1.50869 15.2521 1.55256L15.6212 1.39845L15.2521 1.55256C15.2702 1.59581 15.2718 1.64197 15.2575 1.68544L15.2574 1.68574L12.8561 9.00032L12.6838 9.52509H13.2361H17.6668H17.6669C17.7245 9.52507 17.7789 9.54095 17.8234 9.56833C17.8676 9.59559 17.8984 9.63187 17.9158 9.66965C17.933 9.70707 17.9376 9.74664 17.9305 9.78457C17.9233 9.82271 17.9038 9.8616 17.8701 9.89513L17.8698 9.89538L7.20316 20.5198L7.20304 20.5199C7.16371 20.5591 7.10744 20.5882 7.04173 20.5972C6.97593 20.6061 6.91013 20.5936 6.85603 20.564C6.80227 20.5347 6.76627 20.4924 6.74802 20.4485C6.73003 20.4053 6.72841 20.3592 6.74271 20.3158L6.74282 20.3155L9.14415 12.9996L9.3164 12.4749H8.7641H4.33344H4.33329C4.27575 12.4749 4.2213 12.459 4.17685 12.4316C4.13261 12.4044 4.10184 12.3681 4.08444 12.3303C4.0672 12.2929 4.06261 12.2533 4.06973 12.2154C4.07689 12.1773 4.09641 12.1384 4.13014 12.1048L4.13038 12.1046L14.7971 1.48019L14.7971 1.4801C14.8364 1.44094 14.8926 1.41188 14.9582 1.40288C15.0151 1.39507 15.072 1.40338 15.1214 1.42484Z" stroke="#17871B" stroke-width="0.8"/>
</svg>
