<svg width="77" height="77" viewBox="0 0 77 77" fill="none" xmlns="http://www.w3.org/2000/svg">
<circle cx="38.5" cy="38.5" r="38.5" fill="#17871B"/>
<path d="M30.3328 25.7322L31.2405 26.1518L30.3328 25.7322ZM32.2399 23.1744L31.5725 22.4297L31.5725 22.4297L32.2399 23.1744ZM35.0941 21.4654L35.4421 22.4029L35.0941 21.4654ZM41.8277 21.4654L42.1757 20.5279L42.1757 20.5279L41.8277 21.4654ZM46.5891 25.7322L47.4968 25.3126L46.5891 25.7322ZM30.6631 28.7493C30.6631 27.8615 30.858 26.9792 31.2405 26.1518L29.4251 25.3126C28.9233 26.3982 28.6631 27.5664 28.6631 28.7493H30.6631ZM31.2405 26.1518C31.6232 25.3239 32.1875 24.5642 32.9073 23.9191L31.5725 22.4297C30.6584 23.2489 29.9267 24.2274 29.4251 25.3126L31.2405 26.1518ZM32.9073 23.9191C33.6273 23.2739 34.4878 22.7571 35.4421 22.4029L34.7462 20.5279C33.5657 20.9661 32.4865 21.6107 31.5725 22.4297L32.9073 23.9191ZM35.4421 22.4029C36.3965 22.0486 37.4226 21.8652 38.4609 21.8652V19.8652C37.1886 19.8652 35.9266 20.0897 34.7462 20.5279L35.4421 22.4029ZM38.4609 21.8652C39.4993 21.8652 40.5254 22.0486 41.4797 22.4029L42.1757 20.5279C40.9953 20.0897 39.7333 19.8652 38.4609 19.8652V21.8652ZM41.4797 22.4029C42.4341 22.7571 43.2946 23.2739 44.0146 23.9191L45.3493 22.4297C44.4354 21.6107 43.3562 20.9661 42.1757 20.5279L41.4797 22.4029ZM44.0146 23.9191C44.7344 24.5642 45.2987 25.3239 45.6814 26.1518L47.4968 25.3126C46.9952 24.2274 46.2635 23.2489 45.3493 22.4297L44.0146 23.9191ZM45.6814 26.1518C46.0638 26.9792 46.2588 27.8615 46.2588 28.7493H48.2588C48.2588 27.5664 47.9986 26.3983 47.4968 25.3126L45.6814 26.1518Z" fill="white"/>
<path d="M20.8652 27.7493C20.3129 27.7493 19.8652 28.197 19.8652 28.7493C19.8652 29.3016 20.3129 29.7493 20.8652 29.7493V27.7493ZM56.0566 29.7493C56.6089 29.7493 57.0566 29.3016 57.0566 28.7493C57.0566 28.197 56.6089 27.7493 56.0566 27.7493V29.7493ZM24.7754 28.7493V27.7493H23.7754V28.7493H24.7754ZM52.1465 28.7493H53.1465V27.7493H52.1465V28.7493ZM50.8597 47.9045L51.8205 48.1819L50.8597 47.9045ZM41.8314 55.7738L41.998 56.7598H41.998L41.8314 55.7738ZM35.0904 55.7738L35.257 54.7878L35.257 54.7878L35.0904 55.7738ZM34.782 55.7217L34.6154 56.7077L34.6154 56.7077L34.782 55.7217ZM26.0621 47.9045L25.1014 48.1818L26.0621 47.9045ZM42.1399 55.7217L41.9732 54.7357H41.9732L42.1399 55.7217ZM20.8652 29.7493H56.0566V27.7493H20.8652V29.7493ZM41.9732 54.7357L41.6648 54.7878L41.998 56.7598L42.3065 56.7077L41.9732 54.7357ZM35.257 54.7878L34.9486 54.7357L34.6154 56.7077L34.9238 56.7598L35.257 54.7878ZM51.1465 28.7493V38.8047H53.1465V28.7493H51.1465ZM25.7754 38.8047V28.7493H23.7754V38.8047H25.7754ZM51.1465 38.8047C51.1465 41.7903 50.7264 44.7607 49.8989 47.6272L51.8205 48.1819C52.7 45.135 53.1465 41.9778 53.1465 38.8047H51.1465ZM41.6648 54.7878C39.5436 55.1462 37.3782 55.1462 35.257 54.7878L34.9238 56.7598C37.2655 57.1556 39.6563 57.1556 41.998 56.7598L41.6648 54.7878ZM34.9486 54.7357C31.1769 54.0983 28.0943 51.3387 27.0229 47.6271L25.1014 48.1818C26.3839 52.6249 30.0788 55.9411 34.6154 56.7077L34.9486 54.7357ZM27.0229 47.6271C26.1954 44.7607 25.7754 41.7903 25.7754 38.8047H23.7754C23.7754 41.9778 24.2218 45.135 25.1014 48.1818L27.0229 47.6271ZM42.3065 56.7077C46.8431 55.9411 50.5379 52.6249 51.8205 48.1819L49.8989 47.6272C48.8275 51.3388 45.745 54.0983 41.9732 54.7357L42.3065 56.7077ZM24.7754 29.7493H52.1465V27.7493H24.7754V29.7493Z" fill="white"/>
<path d="M35.5508 38.4609C35.5508 37.9087 35.1031 37.4609 34.5508 37.4609C33.9985 37.4609 33.5508 37.9087 33.5508 38.4609H35.5508ZM33.5508 46.2812C33.5508 46.8335 33.9985 47.2812 34.5508 47.2812C35.1031 47.2812 35.5508 46.8335 35.5508 46.2812H33.5508ZM43.3711 38.4609C43.3711 37.9087 42.9234 37.4609 42.3711 37.4609C41.8188 37.4609 41.3711 37.9087 41.3711 38.4609H43.3711ZM41.3711 46.2812C41.3711 46.8335 41.8188 47.2812 42.3711 47.2812C42.9234 47.2812 43.3711 46.8335 43.3711 46.2812H41.3711ZM33.5508 38.4609V46.2812H35.5508V38.4609H33.5508ZM41.3711 38.4609V46.2812H43.3711V38.4609H41.3711Z" fill="white"/>
</svg>
