<svg width="24" height="24" viewBox="0 0 24 24" fill="none" xmlns="http://www.w3.org/2000/svg">
<path d="M12 0.888916C9.80246 0.888916 7.65424 1.54057 5.82703 2.76148C3.99982 3.98238 2.57568 5.7177 1.7347 7.74799C0.89373 9.77828 0.673693 12.0124 1.10242 14.1677C1.53114 16.323 2.58937 18.3029 4.14329 19.8568C5.69721 21.4107 7.67702 22.4689 9.83236 22.8976C11.9877 23.3264 14.2218 23.1063 16.2521 22.2654C18.2824 21.4244 20.0177 20.0002 21.2386 18.173C22.4595 16.3458 23.1111 14.1976 23.1111 12C23.1111 10.5409 22.8237 9.09605 22.2654 7.74799C21.707 6.39993 20.8885 5.17505 19.8568 4.14329C18.825 3.11152 17.6001 2.29308 16.2521 1.7347C14.904 1.17631 13.4592 0.888916 12 0.888916ZM16.9667 7.73336L14.7445 14.4C14.7185 14.4807 14.6738 14.554 14.6139 14.6139C14.554 14.6738 14.4807 14.7185 14.4 14.7445L7.73336 16.9667C7.67458 16.9773 7.61437 16.9773 7.55559 16.9667C7.48273 16.9676 7.41048 16.9532 7.34351 16.9245C7.27653 16.8958 7.2163 16.8534 7.1667 16.8C7.09196 16.7286 7.03957 16.6371 7.0159 16.5365C6.99223 16.4359 6.9983 16.3306 7.03337 16.2334L9.25559 9.56669C9.28152 9.48605 9.32629 9.41275 9.38619 9.35285C9.44609 9.29295 9.51939 9.24818 9.60003 9.22225L16.2667 7.00003C16.3641 6.96838 16.4684 6.96429 16.568 6.98821C16.6677 7.01213 16.7587 7.06313 16.8312 7.13557C16.9036 7.20801 16.9546 7.29907 16.9785 7.39869C17.0024 7.4983 16.9983 7.60259 16.9667 7.70003V7.73336Z" fill="#17721A"/>
</svg>
