<svg width="22" height="22" viewBox="0 0 22 22" fill="none" xmlns="http://www.w3.org/2000/svg">
<path d="M5.49574 4.00001H11.0437C11.2388 3.99955 11.4321 4.03986 11.6125 4.1186C11.7928 4.19734 11.9566 4.31297 12.0945 4.45883C12.2323 4.60469 12.3415 4.7779 12.4157 4.96849C12.49 5.15908 12.5278 5.3633 12.527 5.56938V10.014H13.202C14.1973 10.014 15.0166 10.8854 15.0166 11.9366V14.1549C15.0166 14.5166 15.1527 14.8635 15.3949 15.1192C15.6371 15.375 15.9656 15.5187 16.3081 15.5187C16.6506 15.5187 16.9791 15.375 17.2213 15.1192C17.4635 14.8635 17.5996 14.5166 17.5996 14.1549V9.18917C17.0705 9.11293 16.666 8.64603 16.666 8.08298V6.8013C16.6688 6.72928 16.6976 6.66113 16.7465 6.61079C16.7953 6.56045 16.8606 6.53173 16.9288 6.53051H17.0705V5.80751C17.0705 5.73778 17.0968 5.67091 17.1435 5.6216C17.1901 5.5723 17.2535 5.5446 17.3195 5.5446C17.3855 5.5446 17.4489 5.5723 17.4955 5.6216C17.5422 5.67091 17.5685 5.73778 17.5685 5.80751V6.53051H18.0975V5.80751C18.0975 5.73778 18.1237 5.67091 18.1704 5.6216C18.2171 5.5723 18.2804 5.5446 18.3465 5.5446C18.4125 5.5446 18.4758 5.5723 18.5225 5.6216C18.5692 5.67091 18.5954 5.73778 18.5954 5.80751V6.53051H18.7491C18.8161 6.53224 18.8798 6.56154 18.9267 6.61214C18.9735 6.66275 18.9998 6.73068 19 6.80147V8.08315C18.9984 8.35064 18.9067 8.6088 18.7414 8.81144C18.576 9.01409 18.3478 9.14798 18.0975 9.18917V14.1549C18.0975 14.656 17.909 15.1367 17.5734 15.4911C17.2378 15.8454 16.7827 16.0445 16.3081 16.0445C15.8335 16.0445 15.3784 15.8454 15.0428 15.4911C14.7072 15.1367 14.5187 14.656 14.5187 14.1549V11.9366C14.5187 11.1755 13.9227 10.5399 13.202 10.5399H12.527V17.7451C12.528 17.7786 12.5226 17.812 12.511 17.8432C12.4994 17.8744 12.4819 17.9028 12.4596 17.9266C12.4373 17.9505 12.4106 17.9693 12.3812 17.9819C12.3517 17.9945 12.3202 18.0006 12.2885 17.9999H4.25092C4.21854 18.0008 4.1863 17.995 4.15608 17.9826C4.12586 17.9703 4.09828 17.9517 4.07492 17.928C4.05157 17.9043 4.03292 17.8759 4.02006 17.8445C4.00719 17.8131 4.00038 17.7793 4 17.7451V5.56938C4.0006 5.36261 4.03976 5.15799 4.11526 4.9672C4.19075 4.77642 4.3011 4.60322 4.44 4.45748C4.5789 4.31174 4.74363 4.19633 4.92477 4.11784C5.10592 4.03934 5.29993 3.9993 5.49574 4.00001ZM18.5021 7.05632H17.1639V7.18778H18.5021V7.05632ZM18.5021 8.08302V7.7136H17.1639V8.08302C17.1639 8.40919 17.4291 8.66664 17.7379 8.66664H17.9399C18.0132 8.66748 18.0859 8.65303 18.1538 8.62411C18.2218 8.5952 18.2836 8.55241 18.3359 8.49818C18.3881 8.44395 18.4297 8.37935 18.4582 8.30811C18.4867 8.23686 18.5016 8.16037 18.5021 8.08302ZM11.0437 4.52583H5.49574C5.3653 4.52504 5.236 4.55142 5.11523 4.60346C4.99446 4.6555 4.88459 4.73218 4.79192 4.8291C4.69924 4.92603 4.62557 5.0413 4.57512 5.16833C4.52467 5.29535 4.49844 5.43164 4.49792 5.56938V15.6666H12.029V5.56938C12.0299 5.43233 12.0051 5.29645 11.9559 5.16962C11.9067 5.04278 11.8342 4.92751 11.7426 4.83046C11.6509 4.73341 11.542 4.65652 11.422 4.60423C11.302 4.55194 11.1734 4.52529 11.0437 4.52583ZM12.029 17.4741V16.1924H4.49792V17.4741H12.029Z" fill="#9B9B9B"/>
<path d="M10.7091 10H4.28725C4.13102 10 4 9.8782 4 9.70563V6.10687C4.00083 5.81502 4.10562 5.53526 4.2917 5.32811C4.47778 5.12097 4.73019 5.0031 4.99432 5H10.0021C10.2666 5.00295 10.5194 5.12064 10.7061 5.32771C10.8928 5.53477 10.9984 5.81461 11 6.10687V9.70563C11 9.8782 10.8653 10 10.7091 10ZM10.4343 6.10687C10.4329 5.98031 10.387 5.85933 10.3063 5.76943C10.2257 5.67954 10.1166 5.62775 10.0021 5.625H4.99432C4.88017 5.62791 4.77155 5.67988 4.69151 5.76985C4.61147 5.85982 4.56633 5.98072 4.56566 6.10687V9.375H10.4343V6.10687Z" fill="#9B9B9B"/>
<path d="M7.2811 12.0327H7.82921L7.49504 11.3384C7.47738 11.3013 7.47051 11.2611 7.47503 11.2212C7.47955 11.1813 7.49532 11.1429 7.52096 11.1095C7.5466 11.0761 7.58133 11.0487 7.62209 11.0296C7.66286 11.0105 7.70843 11.0003 7.75479 11H9.5056C9.5761 11.0009 9.64372 11.0243 9.6954 11.0658C9.74709 11.1073 9.77918 11.1638 9.78549 11.2245L9.9988 13.2035C10.0024 13.2365 9.99785 13.2698 9.98542 13.3011C9.97299 13.3325 9.95297 13.3612 9.9267 13.3853C9.9001 13.4098 9.86785 13.429 9.83206 13.442C9.79626 13.4549 9.75772 13.4611 9.71894 13.4603H9.22248L9.30853 14.7388C9.31057 14.772 9.30487 14.8052 9.29176 14.8365C9.27866 14.8677 9.25842 14.8964 9.23224 14.9208C9.20607 14.9451 9.17449 14.9647 9.13939 14.9783C9.1043 14.9919 9.06639 14.9993 9.02793 15C8.97983 15.0001 8.9325 14.9896 8.89049 14.9693C8.84848 14.949 8.81321 14.9198 8.78806 14.8843L7.04123 12.413C7.01517 12.3752 7.00098 12.3322 7.00005 12.2882C6.99912 12.2442 7.01148 12.2008 7.03592 12.1622C7.06003 12.1239 7.09539 12.0917 7.13843 12.069C7.18147 12.0463 7.23068 12.0338 7.2811 12.0327ZM8.68174 13.797L8.64387 13.2395C8.64161 13.2059 8.64718 13.1722 8.66026 13.1404C8.67334 13.1087 8.69365 13.0795 8.72 13.0546C8.74604 13.03 8.77758 13.0102 8.81272 12.9964C8.84786 12.9826 8.88587 12.9751 8.92446 12.9743H9.41042L9.24953 11.486H8.17495L8.50912 12.1899C8.52675 12.2262 8.53358 12.2658 8.529 12.305C8.52442 12.3442 8.50858 12.3818 8.48291 12.4143C8.45701 12.4471 8.4221 12.4737 8.38133 12.492C8.34056 12.5102 8.29519 12.5194 8.24929 12.5187H7.78224L8.68174 13.797Z" fill="#9B9B9B"/>
</svg>
