<svg width="22" height="22" viewBox="0 0 22 22" fill="none" xmlns="http://www.w3.org/2000/svg">
<path d="M3 19.0039H14.8203V20H3V19.0039Z" fill="#17871B"/>
<path d="M7.08398 6.30678V8.84384H10.7363V6.30678C9.53453 6.02339 8.28578 6.02339 7.08398 6.30678Z" fill="#17871B"/>
<path d="M13.7246 4.49414C13.7246 3.67029 13.0543 3 12.2305 3H5.58984C4.76599 3 4.0957 3.67029 4.0957 4.49414V18.0078H13.7246V4.49414ZM9.37254 16.6654L8.44778 16.2955L9.03778 14.8203H7.31122L8.44778 11.9791L9.37267 12.349L8.78253 13.8242H10.5091L9.37254 16.6654ZM11.7324 9.83984H6.08789V5.54626L6.4491 5.44302C8.05907 4.98298 9.76125 4.98298 11.3712 5.44302L11.7324 5.54626V9.83984Z" fill="#17871B"/>
<path d="M19.502 4.66016V3H18.5059V4.66016H17.1777V3H16.1816V4.66016H15.6836V6.51953C15.6836 7.53819 16.3932 8.39356 17.3438 8.61911V15.501C17.3438 15.858 17.0534 16.1484 16.6963 16.1484C16.3392 16.1484 16.0488 15.858 16.0488 15.501V11.6826C16.0488 10.8842 15.4765 10.2173 14.7207 10.0698V11.1176C14.9185 11.2287 15.0527 11.4401 15.0527 11.6826V15.501C15.0527 16.4072 15.7901 17.1445 16.6963 17.1445C17.6025 17.1445 18.3398 16.4072 18.3398 15.501V8.61911C19.2904 8.39356 20 7.53819 20 6.51953V4.66016H19.502Z" fill="#17871B"/>
</svg>
