<svg width="18" height="18" viewBox="0 0 18 18" fill="none" xmlns="http://www.w3.org/2000/svg">
<rect width="18" height="18" transform="matrix(-1 0 0 1 18 0)" fill="white"/>
<g clip-path="url(#clip0_880_15228)">
<path d="M12.5468 0.88817C12.6535 0.946194 12.7362 1.03645 12.7811 1.14418C12.8261 1.25192 12.8308 1.37077 12.7944 1.48132L10.8297 7.46598H14.4548C14.5613 7.46594 14.6655 7.49514 14.7545 7.54999C14.8436 7.60484 14.9135 7.68292 14.9557 7.77461C14.998 7.8663 15.0106 7.96757 14.9922 8.06593C14.9737 8.16429 14.9249 8.25542 14.8519 8.32809L6.12458 17.0208C6.04014 17.105 5.92777 17.1598 5.80579 17.1765C5.68381 17.1931 5.55941 17.1705 5.45288 17.1124C5.34634 17.0543 5.26394 16.9641 5.21912 16.8564C5.17429 16.7488 5.16968 16.6301 5.20604 16.5197L7.17076 10.534H3.54567C3.43914 10.534 3.33493 10.5048 3.2459 10.45C3.15687 10.3951 3.08692 10.317 3.04469 10.2254C3.00246 10.1337 2.98979 10.0324 3.00825 9.93403C3.02672 9.83567 3.0755 9.74454 3.14858 9.67187L11.8759 0.979187C11.9602 0.895123 12.0724 0.840277 12.1942 0.823566C12.316 0.806856 12.4403 0.829264 12.5468 0.887147V0.88817Z" fill="#17871B"/>
</g>
<defs>
<clipPath id="clip0_880_15228">
<rect width="13.0909" height="16.3636" fill="white" transform="translate(2.45459 0.818176)"/>
</clipPath>
</defs>
</svg>
