<svg width="171" height="79" viewBox="0 0 171 79" fill="none" xmlns="http://www.w3.org/2000/svg">
<path d="M89.3829 17.0945H78.4358V70.4244H89.3829V17.0945Z" fill="#C4D9ED"/>
<path d="M91.8416 17.0941H80.8945V70.4241H91.8416V17.0941Z" fill="#D5E7F7"/>
<path d="M91.8416 17.08H80.8973V20.1617H91.8416V17.08Z" fill="#C4D9ED"/>
<path d="M91.8416 23.7637H80.8973V26.8454H91.8416V23.7637Z" fill="#C4D9ED"/>
<path d="M91.8416 30.4475H80.8973V33.5293H91.8416V30.4475Z" fill="#C4D9ED"/>
<path d="M91.8416 37.1313H80.8973V40.213H91.8416V37.1313Z" fill="#C4D9ED"/>
<path d="M91.8416 43.8149H80.8973V46.8967H91.8416V43.8149Z" fill="#C4D9ED"/>
<path d="M91.8416 50.4988H80.8973V53.5805H91.8416V50.4988Z" fill="#C4D9ED"/>
<path d="M91.8416 57.1826H80.8973V60.2643H91.8416V57.1826Z" fill="#C4D9ED"/>
<path d="M91.8416 63.8663H80.8973V66.948H91.8416V63.8663Z" fill="#C4D9ED"/>
<path d="M106.883 24.6406H95.9358V70.4243H106.883V24.6406Z" fill="#C4D9ED"/>
<path d="M109.341 24.6404H98.3944V70.4241H109.341V24.6404Z" fill="#D5E7F7"/>
<path d="M109.342 24.6282H98.3972V27.2739H109.342V24.6282Z" fill="#C4D9ED"/>
<path d="M109.342 30.3662H98.3972V33.0118H109.342V30.3662Z" fill="#C4D9ED"/>
<path d="M109.342 36.1042H98.3972V38.7498H109.342V36.1042Z" fill="#C4D9ED"/>
<path d="M109.342 41.8422H98.3972V44.4879H109.342V41.8422Z" fill="#C4D9ED"/>
<path d="M109.342 47.5803H98.3972V50.2259H109.342V47.5803Z" fill="#C4D9ED"/>
<path d="M109.342 53.3182H98.3972V55.9638H109.342V53.3182Z" fill="#C4D9ED"/>
<path d="M109.342 59.0563H98.3972V61.7018H109.342V59.0563Z" fill="#C4D9ED"/>
<path d="M109.342 64.7943H98.3972V67.4399H109.342V64.7943Z" fill="#C4D9ED"/>
<path d="M77.0953 68.7883H72.5111V75.485H77.0953V68.7883Z" fill="#DCEAF9"/>
<path d="M73.9109 59.6526V78.2449H25.3521L25.0215 78.2418L12.6288 78.1252C12.6186 78.1071 12.6059 78.0852 12.5914 78.0605C12.5709 78.0248 12.5468 77.9825 12.5191 77.9342C12.5099 77.9173 12.4997 77.8997 12.4889 77.881C12.4521 77.8151 12.4104 77.7408 12.364 77.6556C12.3072 77.5522 12.2439 77.4343 12.1739 77.3032V77.3025C11.9133 76.813 11.5676 76.1343 11.1748 75.2911C11.0457 75.0143 10.9124 74.7194 10.7742 74.4075C10.7194 74.283 10.6645 74.1567 10.6083 74.0273V74.0267C10.554 73.9016 10.4996 73.774 10.4454 73.6436C10.4436 73.6394 10.4418 73.6351 10.4399 73.6309C10.4026 73.5414 10.3646 73.4508 10.3265 73.3584C10.2867 73.2641 10.2476 73.1686 10.2077 73.0719C10.005 72.5727 9.79749 72.0426 9.59107 71.4835C9.58563 71.469 9.5802 71.454 9.57484 71.4394C9.57484 71.4394 9.57484 71.4394 9.57484 71.4388C9.43969 71.0731 9.30515 70.6954 9.17179 70.3062C9.09819 70.0922 9.02579 69.8752 8.95338 69.6546C8.94914 69.6414 8.9443 69.6281 8.94013 69.6136C8.9082 69.5156 8.8768 69.4178 8.8448 69.3187C8.8183 69.2352 8.79174 69.1518 8.76584 69.0678C8.71158 68.895 8.65719 68.7203 8.60354 68.5438C8.53477 68.3172 8.4666 68.0869 8.39963 67.8542C8.30914 67.5381 8.22043 67.2165 8.13418 66.8896C8.10821 66.7916 8.08231 66.6931 8.05694 66.5946C7.98095 66.2991 7.90616 65.9999 7.83369 65.6972C7.81024 65.5998 7.78725 65.5025 7.76493 65.4046C7.75049 65.3442 7.73657 65.2837 7.72273 65.2233C7.61355 64.744 7.50975 64.2557 7.41316 63.7583C7.30644 63.2107 7.20806 62.6522 7.11996 62.0848C7.03854 61.5607 6.96494 61.0282 6.90154 60.4885C6.84126 59.9789 6.78992 59.4635 6.74831 58.9419C6.64934 57.7215 6.6041 56.4686 6.62337 55.1928C6.65716 52.971 6.88948 50.6786 7.38905 48.3577C7.40706 48.2732 7.42581 48.1891 7.44456 48.1045C7.56818 47.5521 7.70637 46.9991 7.86145 46.4448C7.97903 46.0224 8.10636 45.5993 8.24336 45.1763C8.34292 44.8699 8.44726 44.5628 8.55703 44.2558C8.80559 43.5607 9.0813 42.8657 9.38656 42.1712H9.64598V41.5946C11.3027 38.0137 13.7449 34.4665 17.2206 31.1108C17.2857 31.048 17.3509 30.9857 17.4155 30.9235H17.6188V38.0354H23.9017V26.4466H30.8343V33.9695H32.415V24.9882H39.3476V41.8271H48.1157V51.6461H51.3916V54.1199H58.9168V49.8601H63.2371V38.2854H68.5741V59.6526H73.9109Z" fill="#D5E7F7"/>
<path d="M39.3517 26.125H32.4152V27.8407H39.3517V26.125Z" fill="#C4D9ED"/>
<path d="M39.3517 29.348H32.4152V31.0638H39.3517V29.348Z" fill="#C4D9ED"/>
<path d="M39.3517 32.2479H32.4152V33.9637H39.3517V32.2479Z" fill="#C4D9ED"/>
<path d="M30.8399 32.2479H23.9034V33.9637H30.8399V32.2479Z" fill="#C4D9ED"/>
<path d="M30.8399 29.348H23.9034V31.0638H30.8399V29.348Z" fill="#C4D9ED"/>
<path d="M30.8399 26.4526H23.9034V28.1684H30.8399V26.4526Z" fill="#C4D9ED"/>
<path d="M39.3517 35.0596H23.9015V36.7752H39.3517V35.0596Z" fill="#C4D9ED"/>
<path d="M39.3517 37.8712H23.9015V39.5869H39.3517V37.8712Z" fill="#C4D9ED"/>
<path d="M68.5716 38.2869H63.1877V40.9352H68.5716V38.2869Z" fill="#C4D9ED"/>
<path d="M68.5716 42.2253H63.1877V44.8737H68.5716V42.2253Z" fill="#C4D9ED"/>
<path d="M68.5716 46.1639H63.1877V48.8123H68.5716V46.1639Z" fill="#C4D9ED"/>
<path d="M68.5716 50.2925H63.1877V52.9408H68.5716V50.2925Z" fill="#C4D9ED"/>
<path d="M68.5716 54.293H63.1877V56.9413H68.5716V54.293Z" fill="#C4D9ED"/>
<path d="M68.5716 58.2936H63.1877V60.9419H68.5716V58.2936Z" fill="#C4D9ED"/>
<path d="M68.5716 62.479H63.1877V65.1273H68.5716V62.479Z" fill="#C4D9ED"/>
<path d="M39.3517 40.619H23.9015V41.7082H39.3517V40.619Z" fill="#C4D9ED"/>
<path d="M63.2625 38.2869H61.2775V49.8605H63.2625V38.2869Z" fill="#C4D9ED"/>
<path d="M58.9166 49.8604H54.9236V54.12H58.9166V49.8604Z" fill="#C4D9ED"/>
<path d="M23.9035 26.4526V28.1686L23.9023 35.0593L23.9018 36.7751V38.0352H22.5256V26.5893C22.5878 26.5434 22.6492 26.498 22.7108 26.4526H23.9035Z" fill="#C4D9ED"/>
<path d="M32.4151 24.9882H31.5692V33.9636H32.4151V24.9882Z" fill="#C4D9ED"/>
<g opacity="0.8">
<g opacity="0.8">
<g opacity="0.8">
<g opacity="0.8">
<path opacity="0.8" d="M46.6831 43.5166H45.5078V45.1761H46.6831V43.5166Z" fill="#C4D9ED"/>
<path opacity="0.8" d="M44.4853 43.5166H43.3101V45.1761H44.4853V43.5166Z" fill="#C4D9ED"/>
<path opacity="0.8" d="M42.3368 43.5166H41.1615V45.1761H42.3368V43.5166Z" fill="#C4D9ED"/>
<path opacity="0.8" d="M40.2996 43.5166H39.1244V45.1761H40.2996V43.5166Z" fill="#C4D9ED"/>
<path opacity="0.8" d="M38.2233 43.5166H37.0481V45.1761H38.2233V43.5166Z" fill="#C4D9ED"/>
</g>
<g opacity="0.8">
<path opacity="0.8" d="M36.1233 43.5166H34.948V45.1761H36.1233V43.5166Z" fill="#C4D9ED"/>
<path opacity="0.8" d="M33.9256 43.5166H32.7502V45.1761H33.9256V43.5166Z" fill="#C4D9ED"/>
<path opacity="0.8" d="M31.777 43.5166H30.6017V45.1761H31.777V43.5166Z" fill="#C4D9ED"/>
<path opacity="0.8" d="M29.7398 43.5166H28.5646V45.1761H29.7398V43.5166Z" fill="#C4D9ED"/>
<path opacity="0.8" d="M27.6635 43.5166H26.4883V45.1761H27.6635V43.5166Z" fill="#C4D9ED"/>
</g>
</g>
<g opacity="0.8">
<g opacity="0.8">
<path opacity="0.8" d="M25.5 43.5166H24.3247V45.1761H25.5V43.5166Z" fill="#C4D9ED"/>
<path opacity="0.8" d="M23.3022 43.5166H22.127V45.1761H23.3022V43.5166Z" fill="#C4D9ED"/>
<path opacity="0.8" d="M21.1536 43.5166H19.9784V45.1761H21.1536V43.5166Z" fill="#C4D9ED"/>
<path opacity="0.8" d="M19.1164 43.5166H17.9412V45.1761H19.1164V43.5166Z" fill="#C4D9ED"/>
<path opacity="0.8" d="M17.0403 43.5166H15.865V45.1761H17.0403V43.5166Z" fill="#C4D9ED"/>
</g>
<g opacity="0.8">
<path opacity="0.8" d="M14.9401 43.5166H13.7649V45.1761H14.9401V43.5166Z" fill="#C4D9ED"/>
<path opacity="0.8" d="M12.7424 43.5166H11.5671V45.1761H12.7424V43.5166Z" fill="#C4D9ED"/>
<path opacity="0.8" d="M10.5939 43.5166H9.41858V45.1761H10.5939V43.5166Z" fill="#C4D9ED"/>
<path opacity="0.8" d="M8.55696 44.2557V45.1762H8.24329C8.34285 44.8698 8.44719 44.5627 8.55696 44.2557Z" fill="#C4D9ED"/>
</g>
</g>
</g>
<g opacity="0.8">
<g opacity="0.8">
<g opacity="0.8">
<path opacity="0.8" d="M46.6831 46.4451H45.5078V48.1046H46.6831V46.4451Z" fill="#C4D9ED"/>
<path opacity="0.8" d="M44.4853 46.4451H43.3101V48.1046H44.4853V46.4451Z" fill="#C4D9ED"/>
<path opacity="0.8" d="M42.3368 46.4451H41.1615V48.1046H42.3368V46.4451Z" fill="#C4D9ED"/>
<path opacity="0.8" d="M40.2996 46.4451H39.1244V48.1046H40.2996V46.4451Z" fill="#C4D9ED"/>
<path opacity="0.8" d="M38.2233 46.4451H37.0481V48.1046H38.2233V46.4451Z" fill="#C4D9ED"/>
</g>
<g opacity="0.8">
<path opacity="0.8" d="M36.1234 46.4451H34.9481V48.1046H36.1234V46.4451Z" fill="#C4D9ED"/>
<path opacity="0.8" d="M33.9257 46.4451H32.7504V48.1046H33.9257V46.4451Z" fill="#C4D9ED"/>
<path opacity="0.8" d="M31.7771 46.4451H30.6018V48.1046H31.7771V46.4451Z" fill="#C4D9ED"/>
<path opacity="0.8" d="M29.74 46.4451H28.5647V48.1046H29.74V46.4451Z" fill="#C4D9ED"/>
<path opacity="0.8" d="M27.6636 46.4451H26.4884V48.1046H27.6636V46.4451Z" fill="#C4D9ED"/>
</g>
</g>
<g opacity="0.8">
<g opacity="0.8">
<path opacity="0.8" d="M25.5 46.4451H24.3247V48.1046H25.5V46.4451Z" fill="#C4D9ED"/>
<path opacity="0.8" d="M23.3022 46.4451H22.127V48.1046H23.3022V46.4451Z" fill="#C4D9ED"/>
<path opacity="0.8" d="M21.1536 46.4451H19.9784V48.1046H21.1536V46.4451Z" fill="#C4D9ED"/>
<path opacity="0.8" d="M19.1164 46.4451H17.9412V48.1046H19.1164V46.4451Z" fill="#C4D9ED"/>
<path opacity="0.8" d="M17.0403 46.4451H15.865V48.1046H17.0403V46.4451Z" fill="#C4D9ED"/>
</g>
<g opacity="0.8">
<path opacity="0.8" d="M14.9402 46.4451H13.765V48.1046H14.9402V46.4451Z" fill="#C4D9ED"/>
<path opacity="0.8" d="M12.7425 46.4451H11.5673V48.1046H12.7425V46.4451Z" fill="#C4D9ED"/>
<path opacity="0.8" d="M10.594 46.4451H9.4187V48.1046H10.594V46.4451Z" fill="#C4D9ED"/>
<path opacity="0.8" d="M8.55705 46.4448V48.1045H7.44458C7.5682 47.5521 7.70638 46.9991 7.86147 46.4448H8.55705Z" fill="#C4D9ED"/>
</g>
</g>
</g>
<g opacity="0.8">
<g opacity="0.8">
<g opacity="0.8">
<path opacity="0.8" d="M46.6831 49.3286H45.5078V50.9881H46.6831V49.3286Z" fill="#C4D9ED"/>
<path opacity="0.8" d="M44.4853 49.3286H43.3101V50.9881H44.4853V49.3286Z" fill="#C4D9ED"/>
<path opacity="0.8" d="M42.3368 49.3286H41.1615V50.9881H42.3368V49.3286Z" fill="#C4D9ED"/>
<path opacity="0.8" d="M40.2996 49.3286H39.1244V50.9881H40.2996V49.3286Z" fill="#C4D9ED"/>
<path opacity="0.8" d="M38.2233 49.3286H37.0481V50.9881H38.2233V49.3286Z" fill="#C4D9ED"/>
</g>
<g opacity="0.8">
<path opacity="0.8" d="M36.1234 49.3286H34.9481V50.9881H36.1234V49.3286Z" fill="#C4D9ED"/>
<path opacity="0.8" d="M33.9257 49.3286H32.7504V50.9881H33.9257V49.3286Z" fill="#C4D9ED"/>
<path opacity="0.8" d="M31.7771 49.3286H30.6018V50.9881H31.7771V49.3286Z" fill="#C4D9ED"/>
<path opacity="0.8" d="M29.74 49.3286H28.5647V50.9881H29.74V49.3286Z" fill="#C4D9ED"/>
<path opacity="0.8" d="M27.6636 49.3286H26.4884V50.9881H27.6636V49.3286Z" fill="#C4D9ED"/>
</g>
</g>
<g opacity="0.8">
<g opacity="0.8">
<path opacity="0.8" d="M25.5 49.3286H24.3247V50.9881H25.5V49.3286Z" fill="#C4D9ED"/>
<path opacity="0.8" d="M23.3022 49.3286H22.127V50.9881H23.3022V49.3286Z" fill="#C4D9ED"/>
<path opacity="0.8" d="M21.1536 49.3286H19.9784V50.9881H21.1536V49.3286Z" fill="#C4D9ED"/>
<path opacity="0.8" d="M19.1164 49.3286H17.9412V50.9881H19.1164V49.3286Z" fill="#C4D9ED"/>
<path opacity="0.8" d="M17.0403 49.3286H15.865V50.9881H17.0403V49.3286Z" fill="#C4D9ED"/>
</g>
<g opacity="0.8">
<path opacity="0.8" d="M14.9401 49.3286H13.7649V50.9881H14.9401V49.3286Z" fill="#C4D9ED"/>
<path opacity="0.8" d="M12.7424 49.3286H11.5671V50.9881H12.7424V49.3286Z" fill="#C4D9ED"/>
<path opacity="0.8" d="M10.5939 49.3286H9.41858V50.9881H10.5939V49.3286Z" fill="#C4D9ED"/>
<path opacity="0.8" d="M8.55674 49.3286H7.38147V50.9881H8.55674V49.3286Z" fill="#C4D9ED"/>
</g>
</g>
</g>
<g opacity="0.8">
<g opacity="0.8">
<g opacity="0.8">
<g opacity="0.8">
<path opacity="0.8" d="M46.6831 52.3922H45.5078V54.0517H46.6831V52.3922Z" fill="#C4D9ED"/>
<path opacity="0.8" d="M44.4853 52.3922H43.3101V54.0517H44.4853V52.3922Z" fill="#C4D9ED"/>
<path opacity="0.8" d="M42.3368 52.3922H41.1615V54.0517H42.3368V52.3922Z" fill="#C4D9ED"/>
<path opacity="0.8" d="M40.2996 52.3922H39.1244V54.0517H40.2996V52.3922Z" fill="#C4D9ED"/>
<path opacity="0.8" d="M38.2233 52.3922H37.0481V54.0517H38.2233V52.3922Z" fill="#C4D9ED"/>
</g>
<g opacity="0.8">
<path opacity="0.8" d="M36.1234 52.3922H34.9481V54.0517H36.1234V52.3922Z" fill="#C4D9ED"/>
<path opacity="0.8" d="M33.9257 52.3922H32.7504V54.0517H33.9257V52.3922Z" fill="#C4D9ED"/>
<path opacity="0.8" d="M31.7771 52.3922H30.6018V54.0517H31.7771V52.3922Z" fill="#C4D9ED"/>
<path opacity="0.8" d="M29.74 52.3922H28.5647V54.0517H29.74V52.3922Z" fill="#C4D9ED"/>
<path opacity="0.8" d="M27.6636 52.3922H26.4884V54.0517H27.6636V52.3922Z" fill="#C4D9ED"/>
</g>
</g>
<g opacity="0.8">
<g opacity="0.8">
<path opacity="0.8" d="M25.5 52.3922H24.3247V54.0517H25.5V52.3922Z" fill="#C4D9ED"/>
<path opacity="0.8" d="M23.3022 52.3922H22.127V54.0517H23.3022V52.3922Z" fill="#C4D9ED"/>
<path opacity="0.8" d="M21.1536 52.3922H19.9784V54.0517H21.1536V52.3922Z" fill="#C4D9ED"/>
<path opacity="0.8" d="M19.1164 52.3922H17.9412V54.0517H19.1164V52.3922Z" fill="#C4D9ED"/>
<path opacity="0.8" d="M17.0403 52.3922H15.865V54.0517H17.0403V52.3922Z" fill="#C4D9ED"/>
</g>
<g opacity="0.8">
<path opacity="0.8" d="M14.9401 52.3922H13.7649V54.0517H14.9401V52.3922Z" fill="#C4D9ED"/>
<path opacity="0.8" d="M12.7424 52.3922H11.5671V54.0517H12.7424V52.3922Z" fill="#C4D9ED"/>
<path opacity="0.8" d="M10.5939 52.3922H9.41858V54.0517H10.5939V52.3922Z" fill="#C4D9ED"/>
<path opacity="0.8" d="M8.55674 52.3922H7.38147V54.0517H8.55674V52.3922Z" fill="#C4D9ED"/>
</g>
</g>
</g>
<g opacity="0.8">
<g opacity="0.8">
<g opacity="0.8">
<path opacity="0.8" d="M46.6831 55.3207H45.5078V56.9801H46.6831V55.3207Z" fill="#C4D9ED"/>
<path opacity="0.8" d="M44.4853 55.3207H43.3101V56.9801H44.4853V55.3207Z" fill="#C4D9ED"/>
<path opacity="0.8" d="M42.3368 55.3207H41.1615V56.9801H42.3368V55.3207Z" fill="#C4D9ED"/>
<path opacity="0.8" d="M40.2996 55.3207H39.1244V56.9801H40.2996V55.3207Z" fill="#C4D9ED"/>
<path opacity="0.8" d="M38.2233 55.3207H37.0481V56.9801H38.2233V55.3207Z" fill="#C4D9ED"/>
</g>
<g opacity="0.8">
<path opacity="0.8" d="M36.1234 55.3207H34.9481V56.9801H36.1234V55.3207Z" fill="#C4D9ED"/>
<path opacity="0.8" d="M33.9257 55.3207H32.7504V56.9801H33.9257V55.3207Z" fill="#C4D9ED"/>
<path opacity="0.8" d="M31.7771 55.3207H30.6018V56.9801H31.7771V55.3207Z" fill="#C4D9ED"/>
<path opacity="0.8" d="M29.74 55.3207H28.5647V56.9801H29.74V55.3207Z" fill="#C4D9ED"/>
<path opacity="0.8" d="M27.6636 55.3207H26.4884V56.9801H27.6636V55.3207Z" fill="#C4D9ED"/>
</g>
</g>
<g opacity="0.8">
<g opacity="0.8">
<path opacity="0.8" d="M25.5 55.3207H24.3247V56.9801H25.5V55.3207Z" fill="#C4D9ED"/>
<path opacity="0.8" d="M23.3022 55.3207H22.127V56.9801H23.3022V55.3207Z" fill="#C4D9ED"/>
<path opacity="0.8" d="M21.1536 55.3207H19.9784V56.9801H21.1536V55.3207Z" fill="#C4D9ED"/>
<path opacity="0.8" d="M19.1164 55.3207H17.9412V56.9801H19.1164V55.3207Z" fill="#C4D9ED"/>
<path opacity="0.8" d="M17.0403 55.3207H15.865V56.9801H17.0403V55.3207Z" fill="#C4D9ED"/>
</g>
<g opacity="0.8">
<path opacity="0.8" d="M14.9401 55.3207H13.7649V56.9801H14.9401V55.3207Z" fill="#C4D9ED"/>
<path opacity="0.8" d="M12.7424 55.3207H11.5671V56.9801H12.7424V55.3207Z" fill="#C4D9ED"/>
<path opacity="0.8" d="M10.5939 55.3207H9.41858V56.9801H10.5939V55.3207Z" fill="#C4D9ED"/>
<path opacity="0.8" d="M8.55674 55.3207H7.38147V56.9801H8.55674V55.3207Z" fill="#C4D9ED"/>
</g>
</g>
</g>
<g opacity="0.8">
<g opacity="0.8">
<g opacity="0.8">
<path opacity="0.8" d="M46.6831 58.2041H45.5078V59.8636H46.6831V58.2041Z" fill="#C4D9ED"/>
<path opacity="0.8" d="M44.4853 58.2041H43.3101V59.8636H44.4853V58.2041Z" fill="#C4D9ED"/>
<path opacity="0.8" d="M42.3368 58.2041H41.1615V59.8636H42.3368V58.2041Z" fill="#C4D9ED"/>
<path opacity="0.8" d="M40.2996 58.2041H39.1244V59.8636H40.2996V58.2041Z" fill="#C4D9ED"/>
<path opacity="0.8" d="M38.2233 58.2041H37.0481V59.8636H38.2233V58.2041Z" fill="#C4D9ED"/>
</g>
<g opacity="0.8">
<path opacity="0.8" d="M36.1234 58.2041H34.9481V59.8636H36.1234V58.2041Z" fill="#C4D9ED"/>
<path opacity="0.8" d="M33.9257 58.2041H32.7504V59.8636H33.9257V58.2041Z" fill="#C4D9ED"/>
<path opacity="0.8" d="M31.7771 58.2041H30.6018V59.8636H31.7771V58.2041Z" fill="#C4D9ED"/>
<path opacity="0.8" d="M29.74 58.2041H28.5647V59.8636H29.74V58.2041Z" fill="#C4D9ED"/>
<path opacity="0.8" d="M27.6636 58.2041H26.4884V59.8636H27.6636V58.2041Z" fill="#C4D9ED"/>
</g>
</g>
<g opacity="0.8">
<g opacity="0.8">
<path opacity="0.8" d="M25.5 58.2041H24.3247V59.8636H25.5V58.2041Z" fill="#C4D9ED"/>
<path opacity="0.8" d="M23.3022 58.2041H22.127V59.8636H23.3022V58.2041Z" fill="#C4D9ED"/>
<path opacity="0.8" d="M21.1536 58.2041H19.9784V59.8636H21.1536V58.2041Z" fill="#C4D9ED"/>
<path opacity="0.8" d="M19.1164 58.2041H17.9412V59.8636H19.1164V58.2041Z" fill="#C4D9ED"/>
<path opacity="0.8" d="M17.0403 58.2041H15.865V59.8636H17.0403V58.2041Z" fill="#C4D9ED"/>
</g>
<g opacity="0.8">
<path opacity="0.8" d="M14.9401 58.2041H13.7649V59.8636H14.9401V58.2041Z" fill="#C4D9ED"/>
<path opacity="0.8" d="M12.7424 58.2041H11.5671V59.8636H12.7424V58.2041Z" fill="#C4D9ED"/>
<path opacity="0.8" d="M10.5939 58.2041H9.41858V59.8636H10.5939V58.2041Z" fill="#C4D9ED"/>
<path opacity="0.8" d="M8.55674 58.2041H7.38147V59.8636H8.55674V58.2041Z" fill="#C4D9ED"/>
</g>
</g>
</g>
</g>
</g>
<path d="M27.6454 78.4329L54.9235 78.4462V63.4034H27.6836L27.6454 78.4329Z" fill="#C4D9ED"/>
<path d="M75.579 70.7643H48.339V78.1252H75.579V70.7643Z" fill="#C4D9ED"/>
<path d="M25.4998 65.6971V78.4328L12.7886 78.4509C12.7784 78.4328 12.6058 78.0853 12.5913 78.0606C12.5708 78.0249 12.5468 77.9826 12.519 77.9343C12.5099 77.9174 12.4997 77.8998 12.4888 77.8811C12.452 77.8152 12.4104 77.7409 12.3639 77.6557C12.3071 77.5523 12.2438 77.4344 12.1739 77.3033V77.3026C11.9132 76.8131 11.5676 76.1344 11.1747 75.2912C11.0456 75.0144 10.9123 74.7195 10.7741 74.4076C10.7193 74.2831 10.6644 74.1568 10.6083 74.0274V74.0268C10.5539 73.9017 10.4996 73.7741 10.4454 73.6437C10.4435 73.6394 10.4417 73.6352 10.4399 73.631C10.4025 73.5415 10.3645 73.4509 10.3265 73.3585C10.2866 73.2642 10.2475 73.1687 10.2076 73.072C10.0049 72.5728 9.79742 72.0427 9.59099 71.4836C9.58556 71.4691 9.58013 71.4541 9.57476 71.4395C9.57476 71.4395 9.57476 71.4395 9.57476 71.4389C9.43962 71.0732 9.30507 70.6955 9.17172 70.3063C9.09812 70.0923 9.02571 69.8753 8.95331 69.6547C8.94907 69.6415 8.94423 69.6282 8.94006 69.6137C8.90813 69.5158 8.87673 69.4179 8.84473 69.3188C8.81823 69.2353 8.79167 69.1519 8.76577 69.0679C8.71151 68.8951 8.65712 68.7204 8.60346 68.5439C8.5347 68.3173 8.46653 68.087 8.39956 67.8543C8.30907 67.5382 8.22036 67.2166 8.13411 66.8897C8.10814 66.7917 8.08224 66.6932 8.05687 66.5947C7.98088 66.2992 7.90609 66 7.83362 65.6973H25.4998V65.6971Z" fill="#C4D9ED"/>
<path d="M53.1039 65.1273H48.0288V67.8539H53.1039V65.1273Z" fill="#D5E7F7"/>
<path d="M46.589 65.1273H41.5138V67.8539H46.589V65.1273Z" fill="#D5E7F7"/>
<path d="M40.1985 65.1273H35.1233V67.8539H40.1985V65.1273Z" fill="#D5E7F7"/>
<path d="M33.9306 65.1273H28.8555V67.8539H33.9306V65.1273Z" fill="#D5E7F7"/>
<path d="M27.9668 63.4034H25.3522V78.433H27.9668V63.4034Z" fill="#ADC9E0"/>
<path d="M67.5 37.1343H67.3584V38.2868H67.5V37.1343Z" fill="#DCEAF9"/>
<path d="M62.413 37.1343H62.2714V38.2868H62.413V37.1343Z" fill="#DCEAF9"/>
<path d="M6.90149 60.4885C6.96489 61.0282 7.03842 61.5607 7.1199 62.0847C7.20801 62.6522 7.30638 63.2107 7.41311 63.7583C7.50969 64.2557 7.61344 64.7441 7.72268 65.2233C7.73652 65.2837 7.75043 65.3442 7.76487 65.4046C7.7872 65.5025 7.81019 65.5998 7.83364 65.6972C7.90611 66 7.9809 66.2991 8.05689 66.5946C8.08226 66.6931 8.10816 66.7916 8.13413 66.8896C8.22038 67.2165 8.30909 67.5381 8.39958 67.8542C8.46655 68.0869 8.53472 68.3172 8.60348 68.5438C8.65721 68.7203 8.71153 68.8949 8.76579 69.0678C8.79175 69.1519 8.81825 69.2352 8.84475 69.3187C8.87675 69.4178 8.90815 69.5157 8.94008 69.6136C8.94425 69.6281 8.94915 69.6414 8.95333 69.6546C9.02573 69.8752 9.09808 70.0922 9.17174 70.3062C9.30509 70.6954 9.43964 71.0732 9.57478 71.4388C9.57478 71.4394 9.57478 71.4394 9.57478 71.4394C9.58015 71.454 9.58558 71.469 9.59101 71.4835C9.79737 72.0426 10.0049 72.5726 10.2076 73.0719C10.2475 73.1685 10.2867 73.264 10.3265 73.3584C10.3645 73.4509 10.4025 73.5415 10.4399 73.6309C10.4417 73.6351 10.4435 73.6393 10.4454 73.6436V60.4883H6.90149V60.4885Z" fill="#D5E7F7"/>
<path d="M10.4454 65.4047V73.6438C10.4436 73.6395 10.4418 73.6353 10.4399 73.6311C10.4025 73.5416 10.3645 73.451 10.3265 73.3585C10.2867 73.2642 10.2475 73.1687 10.2077 73.072C10.0049 72.5728 9.79745 72.0428 9.59103 71.4837C9.5856 71.4691 9.58017 71.4541 9.5748 71.4396C9.5748 71.4396 9.5748 71.4396 9.5748 71.4389C9.43966 71.0733 9.30511 70.6956 9.17176 70.3063C9.09816 70.0923 9.02575 69.8754 8.95335 69.6548C8.94911 69.6416 8.94427 69.6282 8.9401 69.6138C8.90817 69.5158 8.87677 69.4179 8.84477 69.3188C8.81827 69.2354 8.79171 69.152 8.7658 69.068C8.71155 68.8952 8.65716 68.7205 8.6035 68.544C8.53474 68.3173 8.46657 68.0871 8.3996 67.8544C8.30911 67.5382 8.2204 67.2167 8.13415 66.8898C8.10818 66.7918 8.08228 66.6933 8.05691 66.5948C7.98092 66.2993 7.90613 66.0001 7.83366 65.6973C7.81021 65.6 7.78722 65.5026 7.76489 65.4048H10.4454V65.4047Z" fill="#D5E7F7"/>
<path d="M10.4454 63.7583V67.8543H8.39956C8.30907 67.5382 8.22036 67.2166 8.13411 66.8897C8.10814 66.7917 8.08224 66.6932 8.05687 66.5947C7.98088 66.2992 7.90609 66 7.83362 65.6973C7.81017 65.5999 7.78718 65.5026 7.76485 65.4047C7.75041 65.3443 7.7365 65.2838 7.72265 65.2234C7.61348 64.7441 7.50967 64.2558 7.41309 63.7584H10.4454V63.7583Z" fill="#C4D9ED"/>
<path d="M9.17182 69.0679V70.3063C9.09822 70.0923 9.02582 69.8753 8.95341 69.6547C8.94917 69.6415 8.94434 69.6282 8.94016 69.6137C8.90823 69.5158 8.87683 69.4179 8.84483 69.3188C8.81834 69.2353 8.79177 69.152 8.76587 69.0679H9.17182V69.0679Z" fill="#C4D9ED"/>
<path d="M9.01863 64.9092H8.21143V66.3081H9.01863V64.9092Z" fill="#ADC9E0"/>
<path d="M89.1259 65.4048H70.4225V78.0057H89.1259V65.4048Z" fill="#D5E7F7"/>
<path d="M89.1259 63.7584H70.4225V67.854H89.1259V63.7584Z" fill="#C4D9ED"/>
<path d="M87.8525 69.0677H86.892V70.4241H87.8525V69.0677Z" fill="#C4D9ED"/>
<path d="M86.056 69.0677H85.0955V70.4241H86.056V69.0677Z" fill="#C4D9ED"/>
<path d="M84.3 69.0677H83.3395V70.4241H84.3V69.0677Z" fill="#C4D9ED"/>
<path d="M82.635 69.0677H81.6744V70.4241H82.635V69.0677Z" fill="#C4D9ED"/>
<path d="M80.9381 69.0677H79.9775V70.4241H80.9381V69.0677Z" fill="#C4D9ED"/>
<path d="M79.2217 69.0677H78.2611V70.4241H79.2217V69.0677Z" fill="#C4D9ED"/>
<path d="M77.4254 69.0677H76.4648V70.4241H77.4254V69.0677Z" fill="#C4D9ED"/>
<path d="M75.6693 69.0677H74.7087V70.4241H75.6693V69.0677Z" fill="#C4D9ED"/>
<path d="M74.0044 69.0677H73.0438V70.4241H74.0044V69.0677Z" fill="#C4D9ED"/>
<path d="M72.3074 69.0677H71.3468V70.4241H72.3074V69.0677Z" fill="#C4D9ED"/>
<path d="M87.8525 71.4613H86.892V72.8177H87.8525V71.4613Z" fill="#C4D9ED"/>
<path d="M86.056 71.4613H85.0955V72.8177H86.056V71.4613Z" fill="#C4D9ED"/>
<path d="M84.3 71.4613H83.3395V72.8177H84.3V71.4613Z" fill="#C4D9ED"/>
<path d="M82.635 71.4613H81.6744V72.8177H82.635V71.4613Z" fill="#C4D9ED"/>
<path d="M80.9381 71.4613H79.9775V72.8177H80.9381V71.4613Z" fill="#C4D9ED"/>
<path d="M79.2217 71.4613H78.2611V72.8177H79.2217V71.4613Z" fill="#C4D9ED"/>
<path d="M77.4254 71.4613H76.4648V72.8177H77.4254V71.4613Z" fill="#C4D9ED"/>
<path d="M75.6693 71.4613H74.7087V72.8177H75.6693V71.4613Z" fill="#C4D9ED"/>
<path d="M74.0044 71.4613H73.0438V72.8177H74.0044V71.4613Z" fill="#C4D9ED"/>
<path d="M72.3074 71.4613H71.3468V72.8177H72.3074V71.4613Z" fill="#C4D9ED"/>
<path d="M87.8525 73.818H86.892V75.1744H87.8525V73.818Z" fill="#C4D9ED"/>
<path d="M86.056 73.818H85.0955V75.1744H86.056V73.818Z" fill="#C4D9ED"/>
<path d="M84.3 73.818H83.3395V75.1744H84.3V73.818Z" fill="#C4D9ED"/>
<path d="M82.635 73.818H81.6744V75.1744H82.635V73.818Z" fill="#C4D9ED"/>
<path d="M80.9381 73.818H79.9775V75.1744H80.9381V73.818Z" fill="#C4D9ED"/>
<path d="M79.2217 73.818H78.2611V75.1744H79.2217V73.818Z" fill="#C4D9ED"/>
<path d="M77.4254 73.818H76.4648V75.1744H77.4254V73.818Z" fill="#C4D9ED"/>
<path d="M75.6693 73.818H74.7087V75.1744H75.6693V73.818Z" fill="#C4D9ED"/>
<path d="M74.0044 73.818H73.0438V75.1744H74.0044V73.818Z" fill="#C4D9ED"/>
<path d="M72.3074 73.818H71.3468V75.1744H72.3074V73.818Z" fill="#C4D9ED"/>
<path d="M87.6991 64.9091H86.892V66.308H87.6991V64.9091Z" fill="#ADC9E0"/>
<path d="M79.6855 64.9091H78.8782V66.308H79.6855V64.9091Z" fill="#ADC9E0"/>
<path d="M73.3107 64.9091H72.5034V66.308H73.3107V64.9091Z" fill="#ADC9E0"/>
<path d="M109.004 65.4048H90.3005V78.0057H109.004V65.4048Z" fill="#D5E7F7"/>
<path d="M109.004 63.7584H90.3005V67.854H109.004V63.7584Z" fill="#C4D9ED"/>
<path d="M107.73 69.0677H106.77V70.4241H107.73V69.0677Z" fill="#C4D9ED"/>
<path d="M105.934 69.0677H104.974V70.4241H105.934V69.0677Z" fill="#C4D9ED"/>
<path d="M104.178 69.0677H103.218V70.4241H104.178V69.0677Z" fill="#C4D9ED"/>
<path d="M102.513 69.0677H101.552V70.4241H102.513V69.0677Z" fill="#C4D9ED"/>
<path d="M100.816 69.0677H99.8556V70.4241H100.816V69.0677Z" fill="#C4D9ED"/>
<path d="M99.0997 69.0677H98.1392V70.4241H99.0997V69.0677Z" fill="#C4D9ED"/>
<path d="M97.3035 69.0677H96.3429V70.4241H97.3035V69.0677Z" fill="#C4D9ED"/>
<path d="M95.5474 69.0677H94.5868V70.4241H95.5474V69.0677Z" fill="#C4D9ED"/>
<path d="M93.8823 69.0677H92.9218V70.4241H93.8823V69.0677Z" fill="#C4D9ED"/>
<path d="M92.1854 69.0677H91.2249V70.4241H92.1854V69.0677Z" fill="#C4D9ED"/>
<path d="M107.73 71.4613H106.77V72.8177H107.73V71.4613Z" fill="#C4D9ED"/>
<path d="M105.934 71.4613H104.974V72.8177H105.934V71.4613Z" fill="#C4D9ED"/>
<path d="M104.178 71.4613H103.218V72.8177H104.178V71.4613Z" fill="#C4D9ED"/>
<path d="M102.513 71.4613H101.552V72.8177H102.513V71.4613Z" fill="#C4D9ED"/>
<path d="M100.816 71.4613H99.8556V72.8177H100.816V71.4613Z" fill="#C4D9ED"/>
<path d="M99.0997 71.4613H98.1392V72.8177H99.0997V71.4613Z" fill="#C4D9ED"/>
<path d="M97.3035 71.4613H96.3429V72.8177H97.3035V71.4613Z" fill="#C4D9ED"/>
<path d="M95.5474 71.4613H94.5868V72.8177H95.5474V71.4613Z" fill="#C4D9ED"/>
<path d="M93.8823 71.4613H92.9218V72.8177H93.8823V71.4613Z" fill="#C4D9ED"/>
<path d="M92.1854 71.4613H91.2249V72.8177H92.1854V71.4613Z" fill="#C4D9ED"/>
<path d="M107.73 73.818H106.77V75.1744H107.73V73.818Z" fill="#C4D9ED"/>
<path d="M105.934 73.818H104.974V75.1744H105.934V73.818Z" fill="#C4D9ED"/>
<path d="M104.178 73.818H103.218V75.1744H104.178V73.818Z" fill="#C4D9ED"/>
<path d="M102.513 73.818H101.552V75.1744H102.513V73.818Z" fill="#C4D9ED"/>
<path d="M100.816 73.818H99.8556V75.1744H100.816V73.818Z" fill="#C4D9ED"/>
<path d="M99.0997 73.818H98.1392V75.1744H99.0997V73.818Z" fill="#C4D9ED"/>
<path d="M97.3035 73.818H96.3429V75.1744H97.3035V73.818Z" fill="#C4D9ED"/>
<path d="M95.5474 73.818H94.5868V75.1744H95.5474V73.818Z" fill="#C4D9ED"/>
<path d="M93.8823 73.818H92.9218V75.1744H93.8823V73.818Z" fill="#C4D9ED"/>
<path d="M92.1854 73.818H91.2249V75.1744H92.1854V73.818Z" fill="#C4D9ED"/>
<path d="M107.577 64.9091H106.77V66.308H107.577V64.9091Z" fill="#ADC9E0"/>
<path d="M99.5634 64.9091H98.7562V66.308H99.5634V64.9091Z" fill="#ADC9E0"/>
<path d="M93.1886 64.9091H92.3815V66.308H93.1886V64.9091Z" fill="#ADC9E0"/>
<path d="M128.926 65.4048H110.223V78.4299H128.926V65.4048Z" fill="#D5E7F7"/>
<path d="M128.926 63.7584H110.223V67.854H128.926V63.7584Z" fill="#C4D9ED"/>
<path d="M127.652 69.0677H126.692V70.4241H127.652V69.0677Z" fill="#C4D9ED"/>
<path d="M125.856 69.0677H124.896V70.4241H125.856V69.0677Z" fill="#C4D9ED"/>
<path d="M124.1 69.0677H123.14V70.4241H124.1V69.0677Z" fill="#C4D9ED"/>
<path d="M122.435 69.0677H121.474V70.4241H122.435V69.0677Z" fill="#C4D9ED"/>
<path d="M120.738 69.0677H119.778V70.4241H120.738V69.0677Z" fill="#C4D9ED"/>
<path d="M119.022 69.0677H118.061V70.4241H119.022V69.0677Z" fill="#C4D9ED"/>
<path d="M117.225 69.0677H116.265V70.4241H117.225V69.0677Z" fill="#C4D9ED"/>
<path d="M115.469 69.0677H114.509V70.4241H115.469V69.0677Z" fill="#C4D9ED"/>
<path d="M113.804 69.0677H112.844V70.4241H113.804V69.0677Z" fill="#C4D9ED"/>
<path d="M112.107 69.0677H111.147V70.4241H112.107V69.0677Z" fill="#C4D9ED"/>
<path d="M127.652 71.4613H126.692V72.8177H127.652V71.4613Z" fill="#C4D9ED"/>
<path d="M125.856 71.4613H124.896V72.8177H125.856V71.4613Z" fill="#C4D9ED"/>
<path d="M124.1 71.4613H123.14V72.8177H124.1V71.4613Z" fill="#C4D9ED"/>
<path d="M122.435 71.4613H121.474V72.8177H122.435V71.4613Z" fill="#C4D9ED"/>
<path d="M120.738 71.4613H119.778V72.8177H120.738V71.4613Z" fill="#C4D9ED"/>
<path d="M119.022 71.4613H118.061V72.8177H119.022V71.4613Z" fill="#C4D9ED"/>
<path d="M117.225 71.4613H116.265V72.8177H117.225V71.4613Z" fill="#C4D9ED"/>
<path d="M115.469 71.4613H114.509V72.8177H115.469V71.4613Z" fill="#C4D9ED"/>
<path d="M113.804 71.4613H112.844V72.8177H113.804V71.4613Z" fill="#C4D9ED"/>
<path d="M112.107 71.4613H111.147V72.8177H112.107V71.4613Z" fill="#C4D9ED"/>
<path d="M127.652 73.818H126.692V75.1744H127.652V73.818Z" fill="#C4D9ED"/>
<path d="M125.856 73.818H124.896V75.1744H125.856V73.818Z" fill="#C4D9ED"/>
<path d="M124.1 73.818H123.14V75.1744H124.1V73.818Z" fill="#C4D9ED"/>
<path d="M122.435 73.818H121.474V75.1744H122.435V73.818Z" fill="#C4D9ED"/>
<path d="M120.738 73.818H119.778V75.1744H120.738V73.818Z" fill="#C4D9ED"/>
<path d="M119.022 73.818H118.061V75.1744H119.022V73.818Z" fill="#C4D9ED"/>
<path d="M117.225 73.818H116.265V75.1744H117.225V73.818Z" fill="#C4D9ED"/>
<path d="M115.469 73.818H114.509V75.1744H115.469V73.818Z" fill="#C4D9ED"/>
<path d="M113.804 73.818H112.844V75.1744H113.804V73.818Z" fill="#C4D9ED"/>
<path d="M112.107 73.818H111.147V75.1744H112.107V73.818Z" fill="#C4D9ED"/>
<path d="M127.499 64.9091H126.692V66.308H127.499V64.9091Z" fill="#ADC9E0"/>
<path d="M119.486 64.9091H118.678V66.308H119.486V64.9091Z" fill="#ADC9E0"/>
<path d="M113.111 64.9091H112.303V66.308H113.111V64.9091Z" fill="#ADC9E0"/>
<path d="M170.298 78.3956H160.24C159.701 77.9376 160.613 76.8974 161.566 76.8275C161.98 76.7962 162.503 76.883 163.101 77.0095C163.239 75.1678 164.03 66.8889 167.009 67.2215C170.358 67.5939 167.009 70.8675 166.062 72.8055C165.361 74.241 164.621 76.2996 164.283 77.2711C164.554 77.3302 164.836 77.388 165.124 77.441C165.567 76.0755 167.219 71.4822 169.32 71.7497C171.786 72.0631 170.795 73.9048 169.047 74.9979C167.764 75.8018 166.19 76.9445 165.441 77.4964C166.075 77.6001 166.737 77.67 167.408 77.6543C169.131 77.6133 169.972 78.1219 170.298 78.3956Z" fill="#A8D29F"/>
<path d="M125.01 23.264C125.01 23.264 124.686 21.7092 123.878 21.353C123.07 20.9966 122.585 19.5714 122.262 19.9601C121.938 20.3488 122.359 22.9401 122.973 23.264C123.587 23.5879 123.878 23.9226 123.878 23.9226L125.01 23.264Z" fill="#9C5F33"/>
<path d="M138.886 17.0762C138.886 17.0762 133.733 26.0795 131.864 27.736L125.01 22.6167C125.01 22.6167 124.015 22.9223 123.58 23.9225C123.58 23.9225 127.742 32.4177 131.84 32.7778C135.938 33.138 141.69 22.5954 141.69 22.5954L138.886 17.0762Z" fill="#E58638"/>
<path d="M154.832 72.7824C154.832 72.7824 156.023 73.8885 155.791 74.6744C155.558 75.4604 154.483 75.9843 154.338 76.9448C154.193 77.9054 153.611 78.4293 153.088 78.4293C152.565 78.4293 150.595 78.4293 150.595 78.4293C150.595 78.4293 150.21 77.7533 151.14 77.5496C152.07 77.3459 152.42 76.2171 152.362 75.1693C152.304 74.1214 152.449 72.7242 152.449 72.7242L154.425 72.2584L154.832 72.7824Z" fill="#233862"/>
<path d="M139.984 78.3889C139.949 78.4064 139.889 78.4224 139.807 78.4367H133.231C133.282 78.2068 133.485 77.7332 134.289 77.6026C135.331 77.4333 137.136 76.8275 137.538 75.4928C137.551 75.4498 137.562 75.4062 137.572 75.3616C137.892 73.9351 140.216 75.798 140.216 75.798C140.216 75.798 140.223 75.8548 140.233 75.9519C140.287 76.4755 140.426 78.1675 139.984 78.3889Z" fill="#233862"/>
<path d="M134.566 40.2395C134.566 40.2395 134.919 44.652 135.334 49.9561C135.897 57.1611 136.576 66.0115 136.643 67.6881C136.759 70.5994 137.224 75.2564 137.224 75.2564C137.224 75.2564 138.328 76.3628 140.537 75.8965C140.537 75.8965 142.505 69.2485 143.067 62.2147C143.076 62.0994 143.085 61.9832 143.093 61.8671C143.616 54.7065 144.43 39.6283 144.43 39.6283L134.566 40.2395Z" fill="#2B478B"/>
<path d="M134.566 40.2395C134.566 40.2395 134.919 44.652 135.334 49.9561L143.067 62.2147C143.076 62.0994 143.085 61.9832 143.093 61.8671C143.616 54.7065 144.43 39.6283 144.43 39.6283L134.566 40.2395Z" fill="#233862"/>
<path d="M136.178 40.7636C136.178 40.7636 142.541 56.7438 146.725 64.2537C150.909 71.7636 152.217 73.8593 152.217 73.8593C152.217 73.8593 154.614 72.8988 154.832 72.2438C154.832 72.2438 153.232 57.7457 150.43 54.2114C148.846 52.2143 146.987 46.2213 146.899 44.1255C146.812 42.0297 146.333 37.8818 146.333 37.8818L136.178 40.7636Z" fill="#2B478B"/>
<path d="M139.441 16.0964C139.158 14.4229 139.15 13.4311 139.15 13.4311L142.378 10.8245C142.258 14.4087 144.551 16.1321 144.551 16.1321C144.551 16.1321 140.249 18.2537 137.762 17.4679C137.762 17.4678 138.374 16.6839 139.441 16.0964Z" fill="#9C5F33"/>
<path d="M138.389 13.372C138.389 13.372 142.497 14.0556 142.882 11.4866C143.268 8.91763 144.057 7.27578 141.451 6.73072C138.845 6.18567 138.187 7.08896 137.85 7.91513C137.514 8.74124 137.331 13.1279 138.389 13.372Z" fill="#AB7041"/>
<path d="M134.291 40.6071C134.366 40.6694 134.453 40.7069 134.553 40.7069C135.486 40.6942 138.209 41.2137 140.513 40.9768C142.456 40.7899 144.175 40.2136 146.021 39.3845C146.266 39.2744 146.83 38.9727 146.818 38.6981C146.81 38.3976 146.78 37.9616 146.742 37.4125C146.612 35.5035 146.384 32.22 146.606 28.4319C146.646 27.7264 146.667 27.0268 146.669 26.3379C146.688 21.2038 145.672 16.6881 143.63 15.1596C143.456 15.0345 142.385 15.5588 141.401 16.0449C140.492 16.4942 139.583 16.5438 138.724 16.3697L137.865 17.1303C136.819 18.1032 135.673 19.4257 135.175 21.4338C134.752 23.1427 134.503 26.2241 134.366 29.4174C134.304 30.8645 134.254 32.3242 134.241 33.7089V33.7585C134.229 33.8957 134.229 34.0457 134.229 34.183C134.179 37.7378 134.229 40.5569 134.291 40.6071Z" fill="#EE9849"/>
<path d="M146.742 37.4125C146.612 35.5034 146.384 32.22 146.606 28.4318C146.646 27.7264 146.667 27.0268 146.669 26.3379C145.819 24.2707 145.123 22.7716 145.123 22.7716H142.979C142.979 22.7716 141.407 33.5278 146.742 37.4125Z" fill="#E58638"/>
<path d="M160.793 46.9977L160.221 42.9816C160.051 41.785 158.934 40.9453 157.74 41.1159L154.597 41.5645L154.475 40.7082C154.419 40.3123 154.052 40.0361 153.656 40.0925L150.925 40.4824C150.734 40.5096 150.565 40.6102 150.449 40.7655C150.332 40.9207 150.283 41.1116 150.31 41.3029L150.432 42.1592L148.612 42.4191C148.539 42.4293 148.468 42.4433 148.399 42.4604L147.4 42.603C146.209 42.773 145.375 43.8875 145.544 45.0797L146.109 49.0496C146.278 50.2418 147.391 51.0783 148.581 50.9084L149.328 50.8018C149.483 50.8138 149.642 50.8096 149.802 50.7867L158.93 49.4836C160.125 49.313 160.963 48.1944 160.793 46.9977ZM150.989 40.9324L153.72 40.5425C153.748 40.5386 153.775 40.539 153.801 40.5433C153.915 40.5616 154.009 40.6523 154.026 40.7724L154.148 41.6287L150.882 42.0949L150.76 41.2386C150.739 41.0909 150.842 40.9535 150.989 40.9324Z" fill="#233862"/>
<path d="M150.914 38.0812L151.321 38.784C151.321 38.784 150.523 40.4757 152.415 41.1077C152.415 41.1077 153.229 41.3135 153.299 40.7482C153.368 40.183 153.248 40.4053 153.366 39.6072C153.484 38.8093 153.173 38.0986 152.586 37.9086L152.122 37.464L150.914 38.0812Z" fill="#AB7041"/>
<path d="M151.993 38.2734C151.221 38.4241 150.384 38.3631 150.384 38.3631C150.384 38.3631 148.092 31.2694 147.797 30.6215C147.501 29.9734 140.988 22.3039 140.988 22.3039L143.701 15.5011C143.701 15.5011 150.747 27.2901 151.462 28.9466C152.644 31.684 153.054 37.8212 153.054 37.8212C153.054 37.8212 152.599 38.1549 151.993 38.2734Z" fill="#EE9849"/>
<path d="M142.885 11.2393C142.885 11.2393 142.464 11.1687 142.532 10.5871C142.6 10.0055 142.599 9.24537 142.127 9.38706C141.655 9.52875 141.632 9.90729 141.438 9.68623C141.244 9.46517 141.24 8.53374 139.836 8.46884C138.431 8.404 137.861 8.8937 137.207 8.60601C136.554 8.31839 136.52 7.3281 136.52 7.3281C136.52 7.3281 136.706 7.68169 136.986 7.79411C136.986 7.79411 135.896 6.30117 137.158 5.27737C138.42 4.25363 139.706 4.92384 140.436 4.96811C142.044 5.06566 143.083 5.16236 143.609 6.2212C144.134 7.28012 143.918 10.2201 142.885 11.2393Z" fill="#2B478B"/>
<path d="M124.735 21.8985L123.064 18.5028C123.032 18.437 122.952 18.4097 122.886 18.4421L121.956 18.9014C121.891 18.9338 121.863 19.0142 121.896 19.0799L123.567 22.4757C123.599 22.5414 123.679 22.5687 123.745 22.5363L124.675 22.077C124.74 22.0447 124.768 21.9643 124.735 21.8985Z" fill="#2B478B"/>
<path d="M123.869 22.3616L122.17 18.9087C122.146 18.8586 122.085 18.8379 122.035 18.8626L121.49 19.1318C121.44 19.1565 121.419 19.2177 121.443 19.2678L123.142 22.7205C123.167 22.7706 123.228 22.7914 123.278 22.7667L123.823 22.4975C123.873 22.4728 123.894 22.4117 123.869 22.3616Z" fill="#233862"/>
<path d="M117.262 53.6714C110.01 55.4367 104.211 63.9946 100.915 70.0769C100.515 69.6444 100.151 69.1381 99.7996 68.5875C101.19 65.4348 103.887 58.6613 101.276 58.8873C99.0037 59.0841 98.7877 63.7926 98.8943 67.0686C97.0486 63.8604 94.9633 60.1424 89.0516 60.3791C79.2696 60.7708 76.2524 70.9618 69.4591 70.7641C62.6659 70.5666 41.9138 67.9664 37.8278 78.4328H109.342C109.108 77.79 108.697 75.1981 106.786 73.3172C107.136 73.198 107.499 73.0768 107.876 72.9537C113.937 70.9765 111.671 68.9308 111.671 68.9308C108.829 68.9308 106.228 70.2098 104.154 71.7122C103.86 71.6133 103.548 71.5286 103.217 71.4612C102.845 71.3852 102.504 71.2584 102.188 71.0895C105.775 66.9603 110.945 61.6961 114.989 60.3657C117.756 59.4554 119.144 58.2088 119.804 57.0185C120.78 55.2596 119.214 53.1962 117.262 53.6714Z" fill="#A8D29F"/>
<path d="M33.3594 16.6453C28.1503 16.6453 23.9274 20.8757 23.9274 26.0941C23.9274 31.3126 33.3594 42.9145 33.3594 42.9145C33.3594 42.9145 42.7914 31.3126 42.7914 26.0941C42.7914 20.8757 38.5685 16.6453 33.3594 16.6453ZM33.3594 30.4148C30.9245 30.4148 28.9507 28.4374 28.9507 25.9982C28.9507 23.5589 30.9245 21.5816 33.3594 21.5816C35.7942 21.5816 37.7682 23.5589 37.7682 25.9982C37.7681 28.4374 35.7942 30.4148 33.3594 30.4148Z" fill="#17721A"/>
<path d="M14.6839 67.49C12.6578 67.49 8.70923 69.9809 8.70923 73.0538C8.70923 76.1264 10.3517 78.6177 12.3777 78.6177C12.6592 78.6177 14.684 78.6177 14.684 78.6177C16.71 78.6177 18.3525 76.1264 18.3525 73.0538C18.3525 69.9809 16.71 67.49 14.6839 67.49Z" fill="#661717"/>
<path d="M58.1654 74.1654H38.0863C38.1846 73.5877 38.2337 72.9881 38.2337 72.3669C38.2337 67.8159 35.5066 64.1248 32.1468 64.1248C28.787 64.1248 26.0659 67.8159 26.0659 72.3669C26.0659 72.988 26.1151 73.5877 26.2134 74.1654H17.6571C17.6571 74.1654 14.9976 67.5415 17.6571 65.2518C20.3168 62.969 35.1626 61.4016 35.1626 61.4016C35.1626 61.4016 40.795 54.0553 44.2409 51.7725C44.8305 51.3824 45.9054 51.101 47.2935 50.8915C54.4984 51.8303 54.7626 59.4151 58.8778 60.6791C63.1775 62.0011 58.1654 74.1654 58.1654 74.1654Z" fill="#661717"/>
<path d="M39.039 71.5793C39.039 74.9266 37.3156 78.6176 37.3156 78.6176C37.3156 78.6176 34.7542 78.6176 34.3982 78.6176C31.8353 78.6176 29.7574 75.4665 29.7574 71.5793C29.7574 67.6921 34.7525 64.541 37.3156 64.541C39.8787 64.541 39.039 67.6922 39.039 71.5793Z" fill="#631818"/>
<path d="M37.3155 78.6176C39.8785 78.6176 41.9563 75.4664 41.9563 71.5793C41.9563 67.6922 39.8785 64.541 37.3155 64.541C34.7525 64.541 32.6748 67.6922 32.6748 71.5793C32.6748 75.4664 34.7525 78.6176 37.3155 78.6176Z" fill="#822121"/>
<path d="M37.2571 76.8809C39.1876 76.8809 40.7527 74.5073 40.7527 71.5793C40.7527 68.6513 39.1876 66.2777 37.2571 66.2777C35.3265 66.2777 33.7615 68.6513 33.7615 71.5793C33.7615 74.5073 35.3265 76.8809 37.2571 76.8809Z" fill="#661717"/>
<path d="M63.8749 74.1654H43.7958C43.8941 73.5877 43.9433 72.9881 43.9433 72.3669C43.9433 67.8159 41.2162 64.1248 37.8563 64.1248C34.4965 64.1248 31.7755 67.8159 31.7755 72.3669C31.7755 72.988 31.8246 73.5877 31.9229 74.1654H1.53097C1.53097 74.1654 -1.13478 67.5415 1.53097 65.2518C4.19055 62.969 19.6532 60.744 19.6532 60.744C19.6532 60.744 26.7018 55.5048 30.1538 53.222C33.6057 50.9322 51.9958 50.8047 51.9958 50.8047C52.3459 50.8192 52.6837 50.8481 53.0031 50.8915C60.2079 51.8304 60.4721 59.4151 64.5874 60.6791C68.887 62.0011 63.8749 74.1654 63.8749 74.1654Z" fill="#C94C43"/>
<path d="M63.8748 74.1654H43.7958C43.8941 73.5877 43.9432 72.9881 43.9432 72.3669C43.9432 67.8159 41.2161 64.1248 37.8563 64.1248C34.4964 64.1248 31.7754 67.8159 31.7754 72.3669C31.7754 72.988 31.8246 73.5877 31.9229 74.1654H23.3666C23.3666 74.1654 20.707 67.5415 23.3666 65.2518C26.0262 62.969 40.8721 61.4016 40.8721 61.4016C40.8721 61.4016 46.5045 54.0553 49.9504 51.7725C50.54 51.3824 51.6149 51.101 53.003 50.8915C60.2079 51.8303 60.4721 59.4151 64.5874 60.6791C68.887 62.0011 63.8748 74.1654 63.8748 74.1654Z" fill="#A8302D"/>
<path d="M43.8464 60.6791C43.8464 60.6791 49.6856 51.8514 53.3094 52.3495C59.2213 53.1622 61.1415 59.5794 61.1415 59.5794C61.1415 59.5794 55.9774 59.9116 43.8464 60.6791Z" fill="#A2C2DD"/>
<path d="M48.4128 51.9872C48.4128 51.9872 48.3983 52.0017 48.3696 52.0235C47.9009 52.3918 43.6467 55.7796 40.683 59.6586L22.1879 59.9764C22.7142 59.5574 23.356 59.0516 24.0482 58.5028C26.8242 56.3213 30.4584 53.5258 31.1434 53.3018C31.9365 53.0492 34.9794 52.5505 37.8276 52.3269C38.0655 52.305 38.3107 52.2905 38.5559 52.269C41.1877 52.0884 43.9061 52.0235 45.8168 52.0018H45.9972C47.461 51.9802 48.4128 51.9872 48.4128 51.9872Z" fill="#C4D9ED"/>
<path d="M20.632 68.0305V68.2615C20.632 69.0272 20.0214 69.6487 19.2689 69.6487H12.3186C11.5732 69.6487 10.9556 69.0272 10.9556 68.2615V68.0305C10.9556 67.2648 11.5732 66.6437 12.3186 66.6437H19.2689C20.0214 66.6437 20.632 67.2648 20.632 68.0305Z" fill="#A2C2DD"/>
<path d="M20.632 68.0305V68.2615C20.632 69.0272 20.0214 69.6487 19.2689 69.6487H13.1066C12.3541 69.6487 11.7435 69.0272 11.7435 68.2615V68.0305C11.7435 67.2648 12.3541 66.6437 13.1066 66.6437H19.2688C20.0214 66.6437 20.632 67.2648 20.632 68.0305Z" fill="#C4D9ED"/>
<path d="M6.61902 68.0305V68.2615C6.61902 69.0272 6.27932 69.6487 5.86064 69.6487H1.99379C1.57909 69.6487 1.23547 69.0272 1.23547 68.2615V68.0305C1.23547 67.2648 1.57916 66.6437 1.99379 66.6437H5.86064C6.27932 66.6437 6.61902 67.2648 6.61902 68.0305Z" fill="#A2C2DD"/>
<path d="M6.61908 68.0305V68.2615C6.61908 69.0272 6.27938 69.6487 5.8607 69.6487H2.43227C2.01359 69.6487 1.67395 69.0272 1.67395 68.2615V68.0305C1.67395 67.2648 2.01359 66.6437 2.43227 66.6437H5.8607C6.27938 66.6437 6.61908 67.2648 6.61908 68.0305Z" fill="#C4D9ED"/>
<path d="M48.3696 52.0235C47.9009 52.3918 43.6467 55.7796 40.683 59.6587L22.1879 59.9764C22.7142 59.5574 23.356 59.0516 24.0482 58.5028C28.2447 57.4482 35.0156 55.3679 38.5559 52.269C41.1878 52.0884 43.9062 52.0235 45.8169 52.0017H45.9972C46.8265 52.0087 47.6196 52.0162 48.3696 52.0235Z" fill="#A2C2DD"/>
<path d="M90.029 78.4298H52.9913C51.8302 78.4298 50.88 77.478 50.88 76.3147V2.1151C50.88 0.9518 51.8302 0 52.9913 0H90.029C91.1903 0 92.1404 0.9518 92.1404 2.1151V76.3147C92.1404 77.478 91.1903 78.4298 90.029 78.4298Z" fill="#DF8A50"/>
<path d="M94.0286 78.4298H56.9908C55.8296 78.4298 54.8795 77.478 54.8795 76.3147V2.1151C54.8795 0.9518 55.8296 0 56.9908 0H94.0286C95.1898 0 96.1399 0.9518 96.1399 2.1151V76.3147C96.1399 77.478 95.1898 78.4298 94.0286 78.4298Z" fill="#BB7338"/>
<path opacity="0.4" d="M81.5566 2.96875H70.831C70.6014 2.96875 70.4136 3.15689 70.4136 3.38685C70.4136 3.61673 70.6014 3.80488 70.831 3.80488H81.5566C81.7862 3.80488 81.974 3.61673 81.974 3.38685C81.9739 3.15689 81.7861 2.96875 81.5566 2.96875Z" fill="#DF8A50"/>
<path opacity="0.4" d="M68.9259 2.96875C68.6964 2.96875 68.5087 3.15689 68.5087 3.38685C68.5087 3.61673 68.6964 3.80488 68.9259 3.80488C69.1555 3.80488 69.3432 3.61673 69.3432 3.38685C69.3432 3.15689 69.1555 2.96875 68.9259 2.96875Z" fill="#DF8A50"/>
<path opacity="0.4" d="M76.0207 76.7927C77.5071 76.7927 78.7121 75.5855 78.7121 74.0964C78.7121 72.6073 77.5071 71.4001 76.0207 71.4001C74.5342 71.4001 73.3292 72.6073 73.3292 74.0964C73.3292 75.5855 74.5342 76.7927 76.0207 76.7927Z" fill="#D86713"/>
<path d="M92.6184 6.21912H58.314V69.6564H92.6184V6.21912Z" fill="#D5E7F7"/>
<path d="M92.6184 62.2971H58.314V69.6613H92.6184V62.2971Z" fill="#D5E7F7"/>
<path d="M93.6427 49.8002L86.5212 38.1087C88.1134 37.0151 89.1476 35.5195 89.6003 33.6504C90.9092 28.2466 86.8591 21.3011 85.5125 19.1926C86.415 18.3152 86.9769 17.088 86.9769 15.7317C86.9769 13.0713 84.8163 10.9069 82.1606 10.9069C79.505 10.9069 77.3445 13.0713 77.3445 15.7317C77.3445 16.2284 77.4199 16.7079 77.5596 17.1592C72.3791 20.1667 66.7866 23.3306 64.8098 24.3177L58.8845 14.4144C58.6009 13.9404 57.9875 13.7864 57.5143 14.0705C57.0411 14.3546 56.8875 14.9692 57.171 15.4433L66.0495 30.2826C67.0327 31.9258 69.1215 32.5013 70.805 31.5928L76.4545 28.5444C77.2567 28.1116 78.2567 28.3828 78.7314 29.1619L83.7411 37.3866C73.665 42.7371 59.1897 50.3683 58.0739 50.8039C57.5719 50.9549 57.268 51.4738 57.3899 51.9916C57.4984 52.4523 57.9085 52.7628 58.3613 52.7628C58.4372 52.7628 58.5143 52.754 58.5913 52.7359C58.8451 52.676 59.2286 52.5853 72.5274 45.5802C77.681 42.8655 82.8232 40.1384 84.7834 39.0979L91.9374 50.8427C92.1256 51.1516 92.4543 51.3223 92.791 51.3223C92.9683 51.3222 93.1479 51.2749 93.3103 51.1756C93.7813 50.8877 93.9301 50.2719 93.6427 49.8002ZM82.1606 12.9081C83.7148 12.9081 84.9792 14.1747 84.9792 15.7317C84.9792 17.2887 83.7148 18.5553 82.1606 18.5553C80.6064 18.5553 79.3421 17.2887 79.3421 15.7317C79.3421 14.1747 80.6064 12.9081 82.1606 12.9081ZM75.5072 26.7825L69.8578 29.8309C69.1161 30.231 68.1961 29.9776 67.763 29.2538L65.8377 26.0357C66.8441 25.5278 68.7471 24.5006 72.4727 22.3854C74.9576 20.9745 77.3914 19.5681 78.5357 18.9049C79.4192 19.9165 80.7167 20.5565 82.1606 20.5565C82.7438 20.5565 83.303 20.4521 83.8208 20.2611C84.3199 21.0464 85.2563 22.6062 86.0988 24.4904C87.1837 26.9168 88.3348 30.3941 87.6585 33.1813C87.3308 34.5316 86.6145 35.5906 85.4789 36.3975L80.4368 28.1198C79.4093 26.4327 77.244 25.8455 75.5072 26.7825Z" fill="#BB7338"/>
<path d="M85.2994 14.1861C85.1963 14.1861 85.0964 14.1318 85.0426 14.0353C84.9635 13.8934 85.0142 13.7141 85.1558 13.6349L93.088 9.19587C93.2297 9.11663 93.4087 9.16733 93.4878 9.30928C93.5669 9.45117 93.5162 9.63049 93.3746 9.70973L85.4423 14.1487C85.3969 14.1741 85.3478 14.1861 85.2994 14.1861Z" fill="#BB7338"/>
<path d="M80.1334 12.8667C80.039 12.8667 79.9462 12.8212 79.8895 12.7368L76.9878 8.42036C76.8971 8.28557 76.9328 8.10267 77.0673 8.01189C77.2019 7.9211 77.3844 7.95681 77.4751 8.09159L80.3768 12.408C80.4675 12.5428 80.4318 12.7257 80.2973 12.8165C80.247 12.8505 80.1899 12.8667 80.1334 12.8667Z" fill="#BB7338"/>
<path d="M79.3785 62.8763C79.2796 62.8763 79.183 62.8263 79.1276 62.7356L69.2086 46.4915C69.124 46.3528 69.1675 46.1717 69.3059 46.0868C69.4444 46.0021 69.6252 46.0457 69.7098 46.1843L79.6289 62.4284C79.7135 62.5671 79.67 62.7482 79.5315 62.8331C79.4837 62.8623 79.4308 62.8763 79.3785 62.8763Z" fill="#BB7338"/>
<path d="M82.1606 17.1265C82.9295 17.1265 83.5529 16.502 83.5529 15.7317C83.5529 14.9614 82.9295 14.3369 82.1606 14.3369C81.3917 14.3369 80.7683 14.9614 80.7683 15.7317C80.7683 16.502 81.3917 17.1265 82.1606 17.1265Z" fill="#BB7338"/>
<path d="M75.4089 62.2207L70.9821 54.9521C69.8244 53.0515 67.3954 52.3734 65.4235 53.4004L58.3622 57.0777V62.3261L75.4089 62.2207Z" fill="#C4D9ED"/>
<path d="M58.3622 47.2221C58.3226 46.8675 72.176 39.7041 77.1393 37.1496C78.0711 36.67 78.3843 35.4885 77.8128 34.6088L77.5464 34.1985C77.188 33.6466 76.4725 33.4531 75.8855 33.7494L69.2073 37.1204C67.8896 37.7855 66.2832 37.3413 65.4928 36.0932L58.3141 24.1884L58.3622 47.2221Z" fill="#C4D9ED"/>
<path d="M61.9516 12.3073L65.2664 17.9799C65.9467 19.1441 67.4316 19.5494 68.6074 18.8917L72.0978 16.9394C72.8148 16.5383 73.2835 15.807 73.3565 14.9876C73.4278 14.1866 73.6206 13.1367 74.1147 12.2429C74.5435 11.4673 74.515 10.5187 74.0528 9.76257L74.0518 9.76111C73.6022 9.02546 72.803 8.5769 71.942 8.5769H64.0865C62.1756 8.57697 60.9863 10.6551 61.9516 12.3073Z" fill="#C4D9ED"/>
<path d="M92.6187 14.5437V28.1807C91.8432 25.3266 90.4859 22.7562 89.6322 21.3078C89.2092 20.5902 89.1533 19.7203 89.4566 18.9446C89.7439 18.2089 89.8855 17.4467 89.9536 16.8175C90.0494 15.9287 90.6622 15.1812 91.5106 14.9045L92.6187 14.5437Z" fill="#C4D9ED"/>
<path d="M91.3367 37.8777C91.9025 37.1985 92.322 36.4652 92.6187 35.6952V43.3505L91.06 40.0803C90.7146 39.3551 90.8232 38.4946 91.3367 37.8777Z" fill="#C4D9ED"/>
<path d="M92.6186 56.188V62.3258H85.3544L77.6213 50.4311C76.6284 48.9037 77.1324 46.8543 78.7193 45.9637L80.8974 44.7412C82.7922 43.6776 85.1864 44.2915 86.3385 46.1356L92.6186 56.188Z" fill="#C4D9ED"/>
<path d="M69.5942 25.9075L76.8509 21.9883C77.2085 21.7952 77.6345 21.7772 78.0071 21.9396C78.9401 22.346 80.8281 23.0766 82.3261 23.0686C82.8359 23.066 83.3014 23.3563 83.5242 23.8156C84.0675 24.9355 85.0056 27.0137 85.5169 28.9811C85.8858 30.4011 84.0149 31.2776 83.1601 30.0861L79.9048 25.549C79.5446 25.0468 78.8855 24.8609 78.3164 25.1007L70.7356 28.297C70.1158 28.5584 69.3988 28.3124 69.0688 27.7255C68.7055 27.079 68.9422 26.2596 69.5942 25.9075Z" fill="#C4D9ED"/>
<path d="M84.3619 64.1487H66.6575C66.4528 64.1487 66.2854 64.3164 66.2854 64.5214C66.2854 64.7265 66.4528 64.8942 66.6575 64.8942H84.3619C84.5666 64.8942 84.734 64.7265 84.734 64.5214C84.734 64.3164 84.5666 64.1487 84.3619 64.1487Z" fill="#699FF0"/>
<path d="M84.3619 65.7819H66.6575C66.4528 65.7819 66.2854 65.9496 66.2854 66.1546C66.2854 66.3596 66.4528 66.5274 66.6575 66.5274H84.3619C84.5666 66.5274 84.734 66.3596 84.734 66.1546C84.734 65.9496 84.5666 65.7819 84.3619 65.7819Z" fill="#699FF0"/>
<path d="M61.887 63.0884C61.0124 63.0884 60.3033 63.7987 60.3033 64.6748C60.3033 65.551 61.887 67.499 61.887 67.499C61.887 67.499 63.4706 65.551 63.4706 64.6748C63.4706 63.7987 62.7616 63.0884 61.887 63.0884ZM61.887 65.4002C61.4782 65.4002 61.1468 65.0682 61.1468 64.6587C61.1468 64.2491 61.4782 63.9171 61.887 63.9171C62.2958 63.9171 62.6273 64.2491 62.6273 64.6587C62.6272 65.0683 62.2958 65.4002 61.887 65.4002Z" fill="#17721A"/>
<path d="M73.6102 33.2463C72.7355 33.2463 72.0265 33.9566 72.0265 34.8328C72.0265 35.709 73.6102 37.657 73.6102 37.657C73.6102 37.657 75.1938 35.7091 75.1938 34.8328C75.1938 33.9566 74.4848 33.2463 73.6102 33.2463ZM73.6102 35.5581C73.2013 35.5581 72.8699 35.2262 72.8699 34.8167C72.8699 34.4071 73.2013 34.075 73.6102 34.075C74.019 34.075 74.3504 34.4071 74.3504 34.8167C74.3504 35.2262 74.019 35.5581 73.6102 35.5581Z" fill="#17721A"/>
<path d="M75.1939 32.1649C75.1519 32.1649 75.1099 32.1501 75.0762 32.1198C75.0037 32.0548 74.9976 31.9431 75.0626 31.8704C75.1209 31.8054 75.179 31.7407 75.2372 31.6762C75.3024 31.6039 75.4139 31.5982 75.4862 31.6637C75.5583 31.7291 75.564 31.8407 75.4987 31.9131C75.4408 31.9772 75.383 32.0415 75.3251 32.1063C75.2903 32.1451 75.2421 32.1649 75.1939 32.1649ZM75.9673 31.3161C75.9244 31.3161 75.8813 31.3005 75.8473 31.2689C75.776 31.2024 75.7721 31.0907 75.8383 31.0193C76.0405 30.8016 76.246 30.5835 76.449 30.3712C76.5164 30.3009 76.6279 30.2984 76.6983 30.366C76.7686 30.4334 76.771 30.5451 76.7035 30.6156C76.5017 30.8267 76.2974 31.0434 76.0965 31.2598C76.0617 31.2973 76.0146 31.3161 75.9673 31.3161ZM77.1948 30.0332C77.15 30.0332 77.1052 30.0162 77.0709 29.9823C77.0016 29.9138 77.0009 29.802 77.0693 29.7325C77.278 29.5208 77.49 29.3091 77.6993 29.1032C77.7688 29.0349 77.8804 29.0359 77.9486 29.1055C78.0168 29.1751 78.0158 29.2868 77.9463 29.3552C77.7382 29.5599 77.5276 29.7704 77.3203 29.9807C77.2856 30.0156 77.2402 30.0332 77.1948 30.0332ZM78.4606 28.7883C78.414 28.7883 78.3675 28.7699 78.3328 28.7334C78.2657 28.6628 78.2685 28.551 78.339 28.4837C78.5543 28.2787 78.7729 28.0738 78.9887 27.8747C79.0603 27.8085 79.1718 27.8131 79.2377 27.8849C79.3037 27.9566 79.2991 28.0684 79.2275 28.1344C79.0131 28.3322 78.7959 28.5358 78.5821 28.7396C78.548 28.7722 78.5042 28.7883 78.4606 28.7883ZM79.7655 27.5846C79.7169 27.5846 79.6686 27.5647 79.6339 27.5255C79.569 27.4527 79.5754 27.3411 79.6482 27.2762C79.8696 27.0786 80.0947 26.8811 80.3177 26.6889C80.3915 26.6253 80.5028 26.6336 80.5663 26.7075C80.6298 26.7814 80.6214 26.8929 80.5477 26.9565C80.3263 27.1474 80.1025 27.3437 79.8827 27.5398C79.849 27.5699 79.8072 27.5846 79.7655 27.5846ZM81.11 26.4255C81.0594 26.4255 81.0093 26.4039 80.9744 26.3618C80.9122 26.2868 80.9224 26.1755 80.9973 26.1131C81.225 25.9235 81.4571 25.7338 81.6868 25.5494C81.7628 25.4885 81.8736 25.5007 81.9346 25.5768C81.9955 25.6528 81.9832 25.7639 81.9073 25.825C81.6792 26.0081 81.4488 26.1965 81.2226 26.3848C81.1897 26.4122 81.1498 26.4255 81.11 26.4255ZM82.4942 25.3144C82.4415 25.3144 82.3893 25.2908 82.3547 25.2457C82.2952 25.1686 82.3093 25.0577 82.3865 24.998C82.6215 24.8163 82.8602 24.6351 83.096 24.4597C83.1742 24.4015 83.2846 24.4178 83.3427 24.4961C83.4007 24.5744 83.3845 24.685 83.3063 24.7432C83.0722 24.9174 82.8352 25.0972 82.6018 25.2777C82.5698 25.3024 82.5319 25.3144 82.4942 25.3144ZM83.9182 24.2549C83.8633 24.2549 83.809 24.2292 83.7746 24.1809C83.7181 24.1016 83.7365 23.9913 83.8157 23.9347C84.0568 23.7622 84.3022 23.5902 84.5453 23.4235C84.6256 23.3684 84.7353 23.3888 84.7903 23.4693C84.8453 23.5497 84.8248 23.6596 84.7446 23.7147C84.5033 23.8802 84.2598 24.0509 84.0205 24.222C83.9894 24.2443 83.9536 24.2549 83.9182 24.2549ZM85.3816 23.2507C85.3242 23.2507 85.268 23.2227 85.2341 23.1711C85.1806 23.0895 85.2032 22.9801 85.2847 22.9265C85.5322 22.7637 85.7844 22.6013 86.0339 22.4443C86.1162 22.3925 86.2251 22.4173 86.2769 22.4999C86.3287 22.5824 86.3039 22.6915 86.2214 22.7434C85.9739 22.8992 85.7238 23.06 85.4782 23.2216C85.4484 23.2414 85.4148 23.2507 85.3816 23.2507ZM86.8836 22.3055C86.8238 22.3055 86.7654 22.275 86.7323 22.2198C86.6822 22.1362 86.7093 22.0277 86.7927 21.9776C87.0467 21.8248 87.3052 21.673 87.5611 21.5264C87.6455 21.4779 87.7532 21.5073 87.8016 21.5919C87.85 21.6766 87.8207 21.7845 87.7362 21.8329C87.4826 21.9782 87.2261 22.1288 86.9742 22.2803C86.9457 22.2974 86.9144 22.3055 86.8836 22.3055ZM88.4231 21.4232C88.3607 21.4232 88.3002 21.3898 88.2682 21.3309C88.2216 21.2453 88.2531 21.1381 88.3387 21.0915C88.5988 20.9495 88.8635 20.8088 89.1254 20.6732C89.2119 20.6283 89.3182 20.6624 89.363 20.749C89.4077 20.8356 89.3738 20.9421 89.2873 20.9869C89.0276 21.1213 88.7652 21.2609 88.5073 21.4017C88.4805 21.4162 88.4516 21.4232 88.4231 21.4232ZM89.9989 20.6073C89.9337 20.6073 89.8711 20.5709 89.8404 20.5083C89.7976 20.4207 89.8338 20.3149 89.9212 20.2721C90.1869 20.1417 90.4575 20.0126 90.7256 19.8885C90.814 19.8477 90.9188 19.8861 90.9596 19.9746C91.0004 20.0632 90.9619 20.1681 90.8736 20.209C90.6078 20.3321 90.3396 20.4601 90.0763 20.5892C90.0513 20.6014 90.025 20.6073 89.9989 20.6073ZM91.6088 19.8614C91.5408 19.8614 91.4759 19.8217 91.4471 19.7552C91.4082 19.6658 91.449 19.5618 91.5383 19.5229C91.8102 19.4042 92.0863 19.2875 92.3591 19.1757C92.4492 19.1388 92.5522 19.1821 92.5889 19.2724C92.6258 19.3625 92.5827 19.4657 92.4926 19.5026C92.2223 19.6133 91.9486 19.7291 91.6791 19.8467C91.6561 19.8567 91.6322 19.8614 91.6088 19.8614ZM120.102 19.3832C120.076 19.3832 120.05 19.3775 120.026 19.3655C120.023 19.3641 119.74 19.2272 119.22 19.0195C119.13 18.9835 119.086 18.8807 119.122 18.7901C119.158 18.6996 119.26 18.6554 119.351 18.6916C119.884 18.9046 120.168 19.042 120.18 19.0478C120.267 19.0904 120.304 19.1959 120.261 19.2837C120.231 19.3466 120.168 19.3832 120.102 19.3832ZM93.2505 19.1889C93.1797 19.1889 93.1128 19.1457 93.0859 19.0753C93.0511 18.9843 93.0967 18.8821 93.1876 18.8474C93.4646 18.7412 93.7459 18.6372 94.0234 18.5382C94.1151 18.5054 94.216 18.5534 94.2486 18.6453C94.2812 18.7371 94.2334 18.8381 94.1418 18.8709C93.8667 18.9691 93.588 19.0721 93.3134 19.1772C93.2927 19.1852 93.2715 19.1889 93.2505 19.1889ZM118.455 18.7182C118.435 18.7182 118.415 18.7149 118.395 18.7079C118.125 18.611 117.844 18.5153 117.56 18.4233C117.467 18.3932 117.417 18.2937 117.446 18.2008C117.476 18.1081 117.576 18.057 117.669 18.0872C117.956 18.1803 118.24 18.2773 118.514 18.3753C118.606 18.4082 118.653 18.5092 118.621 18.6011C118.595 18.6733 118.527 18.7182 118.455 18.7182ZM94.9215 18.5928C94.8475 18.5928 94.7786 18.5458 94.7542 18.4715C94.7237 18.379 94.7739 18.2791 94.8664 18.2486C95.1478 18.1556 95.4336 18.0647 95.7158 17.9788C95.8088 17.9504 95.9074 18.003 95.9356 18.0963C95.964 18.1896 95.9115 18.2883 95.8183 18.3166C95.5387 18.4018 95.2556 18.4917 94.9767 18.5839C94.9584 18.59 94.9398 18.5928 94.9215 18.5928ZM116.766 18.17C116.75 18.17 116.733 18.1677 116.716 18.1629C116.437 18.0808 116.15 18.0009 115.866 17.9254C115.772 17.9005 115.716 17.8038 115.74 17.7095C115.765 17.6153 115.862 17.559 115.956 17.5839C116.244 17.6602 116.533 17.741 116.815 17.8239C116.909 17.8514 116.962 17.9495 116.935 18.0431C116.913 18.1201 116.842 18.17 116.766 18.17ZM96.6185 18.0757C96.5414 18.0757 96.4706 18.0246 96.4488 17.9466C96.4227 17.8526 96.4776 17.7553 96.5713 17.7291C96.8562 17.6497 97.1459 17.5726 97.4327 17.4999C97.5271 17.4757 97.6228 17.5331 97.6468 17.6278C97.6706 17.7223 97.6134 17.8183 97.519 17.8421C97.2351 17.9142 96.948 17.9906 96.6659 18.0693C96.65 18.0737 96.6341 18.0757 96.6185 18.0757ZM115.05 17.7146C115.037 17.7146 115.023 17.7131 115.009 17.7099C114.725 17.6421 114.435 17.5769 114.148 17.5159C114.052 17.4957 113.992 17.4021 114.012 17.3067C114.032 17.2113 114.125 17.1501 114.221 17.1705C114.51 17.2319 114.803 17.2978 115.091 17.3662C115.186 17.3889 115.244 17.484 115.222 17.5789C115.202 17.66 115.13 17.7146 115.05 17.7146ZM98.3383 17.6399C98.2578 17.6399 98.1851 17.5844 98.1665 17.5025C98.145 17.4074 98.2044 17.3128 98.2993 17.2912C98.5879 17.2253 98.881 17.1621 99.1706 17.1034C99.2657 17.0841 99.359 17.1458 99.3783 17.2414C99.3976 17.337 99.336 17.4301 99.2406 17.4495C98.9538 17.5077 98.6634 17.5702 98.3776 17.6355C98.3644 17.6385 98.3512 17.6399 98.3383 17.6399ZM113.314 17.3464C113.303 17.3464 113.292 17.3454 113.281 17.3434C112.994 17.2897 112.701 17.2388 112.411 17.1919C112.315 17.1764 112.25 17.0856 112.265 16.9894C112.281 16.8932 112.371 16.8275 112.468 16.8432C112.76 16.8906 113.056 16.942 113.346 16.9962C113.442 17.014 113.505 17.1063 113.487 17.2022C113.471 17.2871 113.397 17.3464 113.314 17.3464ZM100.077 17.2871C99.9929 17.2871 99.9186 17.227 99.9035 17.1415C99.8865 17.0455 99.9503 16.9538 100.046 16.9367C100.338 16.8848 100.634 16.8358 100.925 16.7912C101.022 16.7762 101.112 16.8426 101.126 16.939C101.141 17.0354 101.075 17.1255 100.979 17.1403C100.69 17.1845 100.397 17.233 100.108 17.2845C100.097 17.2863 100.087 17.2871 100.077 17.2871ZM111.562 17.0631C111.554 17.0631 111.546 17.0625 111.538 17.0614C111.247 17.0216 110.953 16.9848 110.662 16.9519C110.565 16.941 110.495 16.8537 110.506 16.7567C110.517 16.6598 110.604 16.59 110.701 16.601C110.995 16.6341 111.293 16.6714 111.586 16.7115C111.682 16.7247 111.75 16.8138 111.736 16.9104C111.724 16.9988 111.649 17.0631 111.562 17.0631ZM101.83 17.0185C101.743 17.0185 101.667 16.9536 101.656 16.8644C101.643 16.7677 101.712 16.6792 101.808 16.6668C102.102 16.6291 102.4 16.5944 102.694 16.5638C102.791 16.5539 102.877 16.6243 102.887 16.7212C102.897 16.8183 102.827 16.9051 102.73 16.9152C102.439 16.9453 102.144 16.9797 101.853 17.0171C101.845 17.018 101.838 17.0185 101.83 17.0185ZM109.799 16.864C109.793 16.864 109.788 16.8637 109.783 16.8633C109.491 16.8373 109.194 16.8147 108.903 16.7958C108.805 16.7895 108.732 16.7055 108.738 16.6081C108.744 16.5109 108.828 16.4371 108.925 16.4434C109.22 16.4624 109.519 16.4854 109.814 16.5115C109.911 16.5201 109.983 16.6058 109.974 16.703C109.966 16.7948 109.889 16.864 109.799 16.864ZM103.595 16.835C103.504 16.835 103.427 16.7648 103.42 16.6724C103.412 16.5752 103.484 16.4902 103.581 16.4824C103.876 16.459 104.176 16.4387 104.471 16.4223C104.568 16.4171 104.651 16.4915 104.656 16.589C104.662 16.6863 104.587 16.7697 104.49 16.7751C104.198 16.7912 103.902 16.8112 103.609 16.8345C103.605 16.8348 103.6 16.835 103.595 16.835ZM108.028 16.7494C108.025 16.7494 108.023 16.7494 108.021 16.7492C107.728 16.7373 107.431 16.7288 107.138 16.7239C107.041 16.7223 106.963 16.6419 106.965 16.5444C106.966 16.4479 107.045 16.3708 107.141 16.3708C107.142 16.3708 107.143 16.3708 107.144 16.3708C107.44 16.3757 107.74 16.3844 108.035 16.3964C108.132 16.4004 108.208 16.4826 108.204 16.5801C108.2 16.675 108.122 16.7494 108.028 16.7494ZM105.367 16.7368C105.272 16.7368 105.194 16.6613 105.191 16.5657C105.188 16.4683 105.264 16.3868 105.361 16.3838C105.656 16.3745 105.956 16.3687 106.252 16.3666C106.349 16.366 106.429 16.4443 106.43 16.5419C106.431 16.6394 106.352 16.719 106.255 16.7198C105.961 16.7219 105.664 16.7277 105.372 16.7368C105.37 16.7368 105.368 16.7368 105.367 16.7368Z" fill="#699FF0"/>
<path d="M35.9462 42.5925C35.8936 42.5925 35.8416 42.569 35.8069 42.5241C35.7472 42.4471 35.7612 42.3361 35.8383 42.2764C35.8486 42.2684 36.0965 42.0762 36.5667 41.7461C36.6465 41.6901 36.7562 41.7096 36.8122 41.7894C36.8681 41.8692 36.8488 41.9793 36.7691 42.0353C36.3068 42.36 36.0567 42.5537 36.0542 42.5556C36.022 42.5805 35.9839 42.5925 35.9462 42.5925ZM37.4023 41.5649C37.3454 41.5649 37.2894 41.5373 37.2555 41.4862C37.2015 41.4051 37.2235 41.2955 37.3044 41.2414C37.5463 41.0798 37.7979 40.9157 38.0522 40.7532C38.1343 40.7009 38.2432 40.7248 38.2955 40.8072C38.3479 40.8894 38.3238 40.9986 38.2417 41.051C37.9893 41.2122 37.7398 41.3751 37.4998 41.5353C37.4699 41.5553 37.4359 41.5649 37.4023 41.5649ZM38.9008 40.6071C38.8415 40.6071 38.7836 40.5772 38.7504 40.5228C38.6995 40.4395 38.7257 40.3308 38.8087 40.2799C39.0597 40.126 39.317 39.9714 39.5731 39.8204C39.657 39.771 39.7651 39.799 39.8144 39.883C39.8638 39.9671 39.8358 40.0753 39.7519 40.1247C39.4975 40.2746 39.242 40.4282 38.9928 40.5811C38.9639 40.5987 38.9322 40.6071 38.9008 40.6071ZM40.432 39.7044C40.3705 39.7044 40.3109 39.6722 40.2785 39.6147C40.2305 39.5298 40.2604 39.4221 40.345 39.3741C40.6015 39.2289 40.8636 39.083 41.1243 38.941C41.2098 38.8945 41.3168 38.926 41.3633 39.0117C41.4099 39.0974 41.3783 39.2046 41.2928 39.2512C41.0339 39.3924 40.7734 39.537 40.5187 39.6814C40.4912 39.6971 40.4614 39.7044 40.432 39.7044ZM41.9922 38.8541C41.9287 38.8541 41.8673 38.8196 41.8358 38.7593C41.7908 38.6729 41.8241 38.5662 41.9104 38.521C42.1715 38.3843 42.4383 38.2473 42.7033 38.114C42.7903 38.0701 42.896 38.1053 42.9398 38.1925C42.9835 38.2796 42.9484 38.3858 42.8613 38.4296C42.5981 38.562 42.3332 38.6981 42.0737 38.834C42.0476 38.8477 42.0197 38.8541 41.9922 38.8541ZM43.5791 38.0558C43.5135 38.0558 43.4506 38.019 43.4203 37.9558C43.378 37.868 43.4149 37.7625 43.5025 37.7201C43.7682 37.5918 44.0393 37.4639 44.3081 37.3395C44.3967 37.2988 44.5013 37.3373 44.5421 37.4259C44.5828 37.5145 44.5442 37.6193 44.4559 37.6602C44.1888 37.7836 43.9194 37.9109 43.6555 38.0383C43.6309 38.0502 43.6048 38.0558 43.5791 38.0558ZM45.1913 37.3107C45.1235 37.3107 45.059 37.2714 45.0299 37.2053C44.9906 37.1161 45.0309 37.0119 45.12 36.9725C45.3899 36.8531 45.6651 36.7342 45.9379 36.6191C46.0276 36.5815 46.1309 36.6234 46.1687 36.7133C46.2065 36.8032 46.1644 36.9067 46.0747 36.9445C45.8038 37.0589 45.5304 37.177 45.2623 37.2956C45.2392 37.3059 45.2151 37.3107 45.1913 37.3107ZM46.8273 36.6203C46.7574 36.6203 46.6913 36.5783 46.6637 36.5094C46.6274 36.4189 46.6712 36.316 46.7615 36.2797C47.0353 36.1697 47.3144 36.0603 47.5911 35.9547C47.6819 35.9201 47.7839 35.9656 47.8187 36.0568C47.8533 36.1479 47.8077 36.2499 47.7167 36.2847C47.4419 36.3896 47.1647 36.4983 46.8929 36.6075C46.8715 36.6162 46.8492 36.6203 46.8273 36.6203ZM48.486 35.987C48.4139 35.987 48.3462 35.9422 48.3202 35.8703C48.2872 35.7786 48.3346 35.6774 48.4263 35.6443C48.7042 35.5438 48.9869 35.4443 49.2667 35.3488C49.3589 35.3173 49.459 35.3668 49.4904 35.459C49.5218 35.5513 49.4725 35.6516 49.3804 35.6831C49.1027 35.778 48.8219 35.8766 48.5459 35.9765C48.5262 35.9836 48.506 35.987 48.486 35.987ZM50.1663 35.4136C50.0916 35.4136 50.0224 35.3658 49.9984 35.2908C49.9688 35.198 50.0198 35.0986 50.1126 35.0688C50.3951 34.9781 50.6813 34.8893 50.9634 34.8046C51.0565 34.7765 51.1549 34.8296 51.1828 34.923C51.2108 35.0164 51.1579 35.1148 51.0646 35.1429C50.7846 35.227 50.5004 35.3152 50.2201 35.4052C50.2022 35.4109 50.184 35.4136 50.1663 35.4136ZM51.8663 34.9032C51.7892 34.9032 51.7184 34.852 51.6966 34.774C51.6704 34.6801 51.7253 34.5827 51.8191 34.5565C52.1048 34.4766 52.3944 34.3988 52.6795 34.3252C52.7736 34.3006 52.8698 34.3575 52.8941 34.4519C52.9184 34.5464 52.8617 34.6427 52.7675 34.667C52.4846 34.7402 52.1974 34.8175 51.9137 34.8967C51.898 34.9012 51.882 34.9032 51.8663 34.9032ZM53.5847 34.4592C53.5048 34.4592 53.4325 34.4045 53.4133 34.3232C53.3908 34.2283 53.4495 34.1332 53.5443 34.1107C53.8327 34.0423 54.1251 33.976 54.4133 33.9138C54.5085 33.8933 54.6022 33.9539 54.6226 34.0493C54.6431 34.1447 54.5826 34.2386 54.4874 34.2591C54.2017 34.3207 53.9116 34.3864 53.6254 34.4543C53.6119 34.4576 53.5982 34.4592 53.5847 34.4592ZM70.2883 34.2224C70.2751 34.2224 70.2617 34.2209 70.2483 34.2178C69.9635 34.1517 69.6735 34.0885 69.3863 34.0301C69.2909 34.0107 69.2293 33.9174 69.2487 33.8218C69.2681 33.7263 69.3612 33.6645 69.4565 33.684C69.7468 33.7432 70.04 33.8069 70.3278 33.8737C70.4227 33.8957 70.4817 33.9906 70.4598 34.0856C70.441 34.1672 70.3684 34.2224 70.2883 34.2224ZM55.3195 34.085C55.2368 34.085 55.163 34.0263 55.1467 33.942C55.1282 33.8463 55.1907 33.7535 55.2861 33.7351C55.578 33.6784 55.8729 33.6244 56.1627 33.5747C56.2588 33.5581 56.3498 33.6228 56.3662 33.7188C56.3827 33.815 56.3182 33.9062 56.2223 33.9227C55.9349 33.9721 55.6424 34.0257 55.3531 34.0818C55.3419 34.0839 55.3306 34.085 55.3195 34.085ZM68.5503 33.8685C68.5402 33.8685 68.5299 33.8675 68.5196 33.8658C68.2315 33.8151 67.9384 33.7676 67.6488 33.7248C67.5524 33.7105 67.4859 33.6208 67.5002 33.5243C67.5143 33.4277 67.6038 33.361 67.7003 33.3754C67.9931 33.4188 68.2893 33.4668 68.5805 33.5179C68.6764 33.5347 68.7406 33.6262 68.7237 33.7223C68.7086 33.808 68.6342 33.8685 68.5503 33.8685ZM57.0683 33.7845C56.9824 33.7845 56.9073 33.7217 56.8942 33.634C56.8799 33.5376 56.9462 33.4476 57.0424 33.4332C57.3361 33.3894 57.6331 33.3484 57.9253 33.3113C58.0221 33.2991 58.11 33.3676 58.1222 33.4643C58.1345 33.5611 58.0661 33.6494 57.9695 33.6617C57.68 33.6984 57.3856 33.739 57.0945 33.7826C57.0858 33.7838 57.0769 33.7845 57.0683 33.7845ZM66.7956 33.6084C66.7886 33.6084 66.7815 33.608 66.7744 33.607C66.4837 33.5719 66.1886 33.5402 65.8971 33.5125C65.8001 33.5034 65.729 33.4172 65.7381 33.3202C65.7473 33.2232 65.8333 33.1516 65.9301 33.1611C66.2248 33.1889 66.523 33.221 66.8166 33.2566C66.9133 33.2683 66.9822 33.3562 66.9705 33.453C66.9597 33.5425 66.8835 33.6084 66.7956 33.6084ZM58.8286 33.5615C58.7394 33.5615 58.6629 33.4938 58.6535 33.403C58.6435 33.306 58.7138 33.2192 58.8106 33.2092C59.1056 33.1785 59.4042 33.1511 59.6981 33.1274C59.7949 33.1202 59.8801 33.1921 59.8878 33.2894C59.8956 33.3866 59.8233 33.4717 59.7263 33.4795C59.435 33.5029 59.1392 33.5302 58.8469 33.5605C58.8407 33.5611 58.8346 33.5615 58.8286 33.5615ZM65.0297 33.4415C65.0257 33.4415 65.0217 33.4413 65.0175 33.4411C64.726 33.4212 64.4295 33.4048 64.1365 33.3924C64.0391 33.3882 63.9637 33.3059 63.9678 33.2085C63.9719 33.111 64.0532 33.0339 64.1514 33.0396C64.4474 33.0521 64.7469 33.0686 65.0415 33.0888C65.1386 33.0954 65.212 33.1796 65.2054 33.277C65.1991 33.3701 65.1216 33.4415 65.0297 33.4415ZM60.5971 33.4194C60.5044 33.4194 60.4267 33.3468 60.4213 33.2528C60.4158 33.1554 60.4902 33.072 60.5874 33.0665C60.8832 33.0498 61.1828 33.0364 61.4778 33.0269C61.5764 33.0245 61.6565 33.1002 61.6597 33.1976C61.6628 33.2951 61.5865 33.3766 61.4892 33.3799C61.197 33.3893 60.9003 33.4025 60.6073 33.4191C60.6038 33.4194 60.6005 33.4194 60.5971 33.4194ZM63.2574 33.3662C63.2563 33.3662 63.2553 33.3661 63.2543 33.3661C62.9619 33.3612 62.665 33.3599 62.3718 33.362C62.3713 33.362 62.3708 33.362 62.3704 33.362C62.2737 33.362 62.1949 33.2839 62.1941 33.1868C62.1934 33.0893 62.2717 33.0097 62.3691 33.0089C62.6652 33.0066 62.965 33.0078 63.2604 33.013C63.3577 33.0145 63.4352 33.0949 63.4336 33.1925C63.4319 33.2891 63.3534 33.3661 63.2574 33.3662Z" fill="#699FF0"/>
<path d="M122.492 22.4933C122.492 22.4933 123.667 21.0037 123.055 20.1417C122.92 19.9517 122.15 20.8145 122.15 20.8145C122.15 20.8145 122.375 22.2003 122.492 22.4933Z" fill="#9C5F33"/>
</svg>
