<svg width="165" height="90" viewBox="0 0 165 90" fill="none" xmlns="http://www.w3.org/2000/svg">
<path opacity="0.31" d="M164.583 69.4602V73.4932C163.614 75.5008 160.46 76.6014 159.301 77.4479C158.796 77.8164 158.139 78.1528 157.359 78.4583C148.231 82.0344 122.031 81.5476 122.031 81.5476C122.031 81.5476 106.244 86.9722 95.6736 88.2322C85.6775 89.4246 76.5891 90.0623 66.3946 89.8339C57.4376 89.6318 53.7528 89.6796 38.3147 88.5408C18.3987 87.0718 16.7886 86.3661 16.7886 86.3661C16.7886 86.3661 14.5657 84.8561 11.8304 82.8647C7.44843 79.6755 1.75172 75.2536 1.78432 73.8393C1.80003 73.1649 2.00988 71.8043 2.22039 70.594C2.29017 70.1886 2.36047 69.8004 2.42331 69.4602H164.583Z" fill="#526473" fill-opacity="0.85"/>
<path d="M163.027 61.8256C163.004 62.0059 162.982 62.1788 162.96 62.3442C162.793 63.6133 162.642 64.4096 162.642 64.4096C162.642 64.4096 151.921 64.5692 142.999 64.7863C144.155 62.5543 144.791 60.0107 144.711 57.3063C144.467 49.0168 137.583 42.3833 129.276 42.4261C120.83 42.4697 113.996 49.3183 113.996 57.7598C113.996 60.5536 114.757 63.1656 116.065 65.423C96.414 65.6254 66.6456 65.6387 46.8315 65.454C48.196 63.1144 48.9725 60.3913 48.9187 57.4754C48.7646 49.1286 41.8689 42.3969 33.5061 42.4258C25.0479 42.4551 18.1997 49.3093 18.1997 57.7597C18.1997 60.1397 18.7591 62.3855 19.7285 64.3962C10.0938 63.3914 1.0318 61.9393 1.0318 61.9393C1.0318 61.9393 0.192648 53.0955 0.161621 50.2175C0.843943 50.2589 1.53661 50.3077 2.23215 50.3594C2.392 50.3712 2.5504 50.3846 2.71025 50.3963C2.7236 50.3963 2.73682 50.3979 2.75017 50.3994C3.08021 50.4259 3.41024 50.4525 3.74027 50.4791C3.75507 50.4791 3.76986 50.4805 3.78465 50.4821C4.02292 50.5028 4.2583 50.522 4.49499 50.5427C4.95227 50.581 5.4051 50.621 5.85217 50.6609C7.15018 50.7761 8.40067 50.8928 9.54184 50.9934C9.59211 50.9964 9.64107 51.0007 9.6899 51.0051C9.8631 51.0214 10.0347 51.0362 10.202 51.0495C10.3131 51.0598 10.4211 51.0688 10.5291 51.0777C10.7023 51.0924 10.8709 51.1072 11.0367 51.1205C11.0693 51.1219 11.1018 51.1249 11.1344 51.1279C12.8393 51.2638 14.1521 51.3347 14.7811 51.2609C14.9971 51.2358 15.2147 51.1131 15.4426 50.9077C15.4441 50.9077 15.4441 50.9077 15.4441 50.9077C15.4826 50.8753 15.5211 50.8384 15.5595 50.7999C15.6187 50.7423 15.6779 50.6803 15.7372 50.6138C15.7564 50.5916 15.7771 50.5679 15.7978 50.5443C15.8393 50.497 15.8807 50.4497 15.9206 50.3995C15.9621 50.3492 16.005 50.2975 16.0464 50.2428C16.2595 49.9725 16.4844 49.6577 16.7286 49.3077C16.7774 49.2368 16.8263 49.1658 16.8765 49.0934C16.9269 49.021 16.9786 48.9472 17.0305 48.8718C17.0823 48.7964 17.134 48.7196 17.1889 48.6429C17.2422 48.5646 17.2969 48.4862 17.3516 48.4065C17.3798 48.3666 17.4079 48.3268 17.4361 48.2869C17.4924 48.2056 17.55 48.1243 17.6077 48.0416C17.6654 47.9588 17.7246 47.8747 17.7853 47.7904C17.846 47.7062 17.9067 47.6205 17.9689 47.5347C18.0311 47.449 18.0947 47.3618 18.1597 47.2748C18.256 47.1448 18.3551 47.0118 18.4573 46.8774C21.0354 43.4897 25.2948 39.3294 33.5606 39.0324C39.9185 38.8049 44.1262 41.1259 47.1868 44.1515C47.2385 44.2032 47.2904 44.2535 47.3408 44.3052C47.391 44.3554 47.4413 44.4071 47.4917 44.4589C47.5908 44.5608 47.6901 44.6642 47.7877 44.7691C48.9095 45.9673 49.8702 47.2511 50.7284 48.5158C51.026 48.9547 51.3131 49.3919 51.5883 49.8233C51.6579 49.9311 51.7274 50.039 51.7955 50.1469C51.9302 50.3596 52.0634 50.571 52.1936 50.7792C52.3253 50.9875 52.4556 51.1958 52.583 51.3996C52.7102 51.6021 52.836 51.8015 52.9589 51.998C53.1454 52.2934 53.3289 52.5801 53.5109 52.8578C53.9918 53.5964 54.4582 54.2628 54.9272 54.8212C54.9582 54.8567 54.9908 54.8936 55.0278 54.9276C58.873 58.731 96.198 60.8723 107.622 61.4424C109.373 61.5297 110.874 60.2157 111.021 58.4724C111.023 58.4532 111.024 58.4338 111.026 58.4144C111.034 58.3199 111.042 58.2224 111.051 58.1249C111.195 56.6091 111.483 54.7313 112.05 52.7649C112.072 52.6836 112.096 52.6023 112.121 52.5212C112.204 52.2404 112.293 51.9583 112.389 51.6761C112.423 51.5727 112.46 51.4693 112.497 51.3659C112.537 51.2491 112.58 51.1324 112.623 51.0172C112.665 50.9034 112.707 50.7911 112.752 50.6774C113.634 48.4095 114.936 46.1521 116.853 44.3024C117.042 44.1193 117.239 43.9405 117.441 43.7662C117.441 43.7662 117.442 43.7662 117.442 43.7647C117.577 43.648 117.714 43.5342 117.853 43.4219C118.065 43.2536 118.283 43.088 118.508 42.9284C118.657 42.822 118.808 42.7186 118.962 42.6182C118.963 42.6182 118.963 42.6168 118.963 42.6168C119.119 42.5148 119.276 42.4173 119.437 42.3213C119.598 42.2253 119.763 42.1308 119.931 42.0377C120.264 41.8544 120.612 41.6817 120.97 41.5221C121.42 41.3197 121.891 41.1365 122.382 40.971C122.871 40.807 123.381 40.6623 123.914 40.5396C124.022 40.5159 124.132 40.4909 124.24 40.4672C125.551 40.1895 126.991 40.0388 128.573 40.0418C130.72 40.0463 132.625 40.2766 134.312 40.6904C134.629 40.7672 134.937 40.8514 135.239 40.9416C135.44 41.0022 135.637 41.0642 135.832 41.1292C136.124 41.2267 136.408 41.3301 136.685 41.4394C136.868 41.5118 137.05 41.5872 137.229 41.6654C137.318 41.7039 137.407 41.7437 137.494 41.7836C137.669 41.8635 137.842 41.9446 138.011 42.0304C138.18 42.1145 138.347 42.2017 138.51 42.2905C138.673 42.3791 138.832 42.4707 138.989 42.5638C139.147 42.6568 139.301 42.7515 139.452 42.849C139.68 42.9952 139.901 43.1444 140.115 43.2995C140.187 43.3512 140.257 43.4029 140.327 43.4546C140.537 43.6112 140.741 43.7723 140.94 43.9378C141.072 44.0471 141.2 44.1594 141.328 44.2717C141.517 44.4416 141.701 44.6145 141.88 44.7903C146.508 49.3669 147.261 56.0952 147.312 59.5829C147.33 60.8477 148.359 61.8647 149.627 61.8612L162.961 61.8262H163.027V61.8256Z" fill="#2E79CC"/>
<path d="M144.718 57.7598C144.718 60.295 144.09 62.6796 142.999 64.7863C142.487 64.7981 141.981 64.8115 141.482 64.8247C138.441 64.903 135.709 64.9873 133.829 65.0729C133.473 65.0891 133.079 65.1053 132.649 65.1201C132.535 65.1246 132.418 65.129 132.299 65.1333C130.784 65.185 128.863 65.2323 126.609 65.2751C126.518 65.2767 126.428 65.2781 126.336 65.281C123.751 65.3282 120.74 65.3712 117.412 65.4081C116.97 65.4125 116.52 65.4184 116.065 65.4229C114.757 63.1655 113.996 60.5533 113.996 57.7597C113.996 49.2912 120.874 42.4257 129.357 42.4257C137.84 42.4259 144.718 49.2913 144.718 57.7598Z" fill="#3E2219"/>
<path d="M48.9212 57.7598C48.9212 60.5684 48.1516 63.1907 46.8314 65.4541C46.1196 65.4483 45.4211 65.4408 44.7358 65.4335C41.5434 65.401 38.65 65.3625 36.1489 65.3183C36.0423 65.3168 35.9373 65.3138 35.8336 65.3124C33.1667 65.2637 30.963 65.209 29.3454 65.1484C29.2078 65.1425 29.0761 65.1366 28.9473 65.1321C28.4885 65.1129 28.0845 65.0937 27.7368 65.073C25.4458 64.94 22.8913 64.7184 20.282 64.4525C20.0985 64.4347 19.9135 64.4156 19.7285 64.3964C18.7591 62.3856 18.1997 60.14 18.1997 57.7599C18.1997 49.2914 25.0773 42.4259 33.5605 42.4259C42.0437 42.4259 48.9212 49.2913 48.9212 57.7598Z" fill="#3E2219"/>
<path d="M163.12 51.7811C163.077 51.4924 163.024 51.213 162.96 50.9428C161.991 46.734 158.837 44.4258 157.678 42.6521C157.173 41.8793 156.516 41.1746 155.737 40.5334C147.413 33.6967 124.897 33.9425 120.989 34.0391C120.612 34.0483 120.241 33.9358 119.932 33.7186C117.223 31.8139 103.536 22.4122 94.0508 20.0418C84.0544 17.5422 74.9657 16.2048 64.7717 16.6838C55.815 17.1075 52.13 17.0069 36.692 19.3949C21.6255 21.725 17.0354 23.1388 15.693 23.6893C15.3787 23.8185 15.1088 24.0342 14.9147 24.3135C14.2608 25.2541 12.3982 27.9508 10.2077 31.2954C9.80004 31.9172 9.38151 32.5608 8.95696 33.2202C4.82153 39.6417 0.14569 47.5045 0.161662 50.2053L2.23193 50.3598C2.39164 50.3716 2.55044 50.3834 2.71016 50.3967C2.72364 50.3967 2.73699 50.3984 2.74969 50.3992C3.07999 50.4243 3.41041 50.4512 3.73979 50.4789C3.75498 50.4789 3.77003 50.4806 3.7843 50.4823C4.02139 50.5017 4.25834 50.5217 4.49451 50.5428C4.95179 50.5814 5.40475 50.6208 5.85195 50.6611C6.22597 50.6946 6.5958 50.7274 6.96066 50.7601C7.86174 50.8415 8.72917 50.9212 9.54188 50.9933C9.5915 50.9967 9.64111 51.0009 9.68981 51.0051C9.86301 51.0202 10.0344 51.0344 10.2017 51.0496C10.3126 51.0597 10.4211 51.0689 10.5287 51.0774C10.7019 51.0924 10.8708 51.1059 11.0364 51.121C11.0691 51.1217 11.1011 51.1251 11.1339 51.1276C12.8393 51.2636 14.1515 51.3333 14.7793 51.2594C14.9953 51.2343 15.2131 51.1118 15.4425 50.9079C15.4442 50.9079 15.4442 50.9079 15.4442 50.9079C15.4821 50.8727 15.5207 50.8365 15.5595 50.7996C15.6174 50.7425 15.6747 50.6805 15.7368 50.6141C15.7562 50.5915 15.7772 50.5679 15.7973 50.5445C15.8376 50.4983 15.8789 50.4497 15.9209 50.3993C15.9621 50.3489 16.0033 50.2962 16.0462 50.2433C16.258 49.9724 16.4841 49.6568 16.7288 49.3078C16.7758 49.2373 16.8263 49.166 16.8767 49.0938C16.9271 49.0208 16.9784 48.9469 17.0305 48.8723C17.0826 48.7968 17.134 48.7196 17.1895 48.6433C17.2423 48.5643 17.2971 48.4863 17.3517 48.4066C17.3802 48.3663 17.408 48.3269 17.4366 48.2866C17.4929 48.2061 17.5501 48.1247 17.6081 48.0415C17.6653 47.9585 17.7249 47.8745 17.7855 47.7906C17.846 47.7058 17.9066 47.6203 17.9688 47.5347C18.031 47.4491 18.0949 47.3619 18.1604 47.2746C18.2563 47.1429 18.3555 47.0121 18.458 46.8778C21.036 43.4896 25.2948 39.3296 33.5607 39.0325C39.9185 38.8051 44.1262 41.126 47.1874 44.1516C47.2387 44.202 47.2891 44.2532 47.3412 44.3052C47.3916 44.3554 47.4412 44.4075 47.4916 44.4587C47.5909 44.5611 47.69 44.6642 47.7875 44.7692C48.9096 45.9674 49.8703 47.2511 50.7285 48.5156C51.0277 48.9561 51.3135 49.3933 51.5883 49.8238C51.6581 49.9311 51.7279 50.0394 51.7959 50.1468C51.9304 50.3599 52.0633 50.5715 52.1935 50.7794C52.3255 50.9876 52.4557 51.1956 52.5827 51.3995C52.7105 51.6025 52.8366 51.8013 52.9592 51.9977C53.1458 52.2939 53.3291 52.58 53.5106 52.8578C53.9931 53.597 54.4596 54.2615 54.9286 54.8212C54.958 54.8573 54.9907 54.8925 55.0278 54.9278C59.059 58.9151 99.8802 61.0756 109.09 61.5144C110.068 61.5606 110.898 60.8037 110.937 59.827C110.953 59.4134 110.981 58.9376 111.027 58.414C111.033 58.32 111.043 58.2228 111.051 58.1246C111.195 56.6092 111.484 54.7314 112.05 52.7646C112.072 52.6832 112.097 52.6027 112.122 52.5213C112.204 52.2402 112.293 51.9583 112.389 51.6763C112.424 51.5723 112.461 51.4691 112.498 51.3659C112.537 51.2492 112.58 51.1326 112.623 51.0168C112.665 50.9035 112.708 50.7911 112.752 50.677C113.634 48.409 114.937 46.1519 116.853 44.3025C117.042 44.1205 117.239 43.9401 117.441 43.7655C117.441 43.7655 117.443 43.7655 117.443 43.7647C117.577 43.6481 117.715 43.5339 117.854 43.4215C118.065 43.2529 118.283 43.0876 118.508 42.9282C118.657 42.8216 118.809 42.7183 118.962 42.6177C118.964 42.6177 118.964 42.6169 118.964 42.6169C119.12 42.5145 119.276 42.4171 119.437 42.3207C119.599 42.225 119.763 42.1302 119.931 42.037C120.264 41.8557 120.611 41.683 120.97 41.5218C121.42 41.3196 121.891 41.1358 122.382 40.9705C122.872 40.8077 123.383 40.6634 123.914 40.5392C124.022 40.5156 124.132 40.4905 124.24 40.4671C125.553 40.1902 126.993 40.04 128.573 40.0426C130.72 40.046 132.625 40.2775 134.313 40.6895C134.629 40.7684 134.938 40.8523 135.239 40.9412C135.44 41.0016 135.637 41.0637 135.833 41.1284C136.124 41.2265 136.408 41.3314 136.685 41.4388C136.868 41.511 137.051 41.5865 137.229 41.6654C137.319 41.7031 137.407 41.7434 137.494 41.7828C137.669 41.8633 137.842 41.944 138.011 42.0296C138.18 42.1143 138.347 42.2016 138.51 42.2896C138.673 42.3787 138.832 42.47 138.989 42.5632C139.147 42.6564 139.301 42.7512 139.453 42.8486C139.68 42.9945 139.901 43.1456 140.116 43.2991C140.186 43.3511 140.258 43.4022 140.327 43.4543C140.537 43.6121 140.741 43.7732 140.94 43.9376C141.072 44.0466 141.2 44.1591 141.328 44.2715C141.517 44.441 141.7 44.6139 141.879 44.7901C146.748 49.603 147.329 56.7971 147.315 60.0972C147.31 61.0738 148.107 61.865 149.085 61.8618L162.961 61.8241H163.027C163.124 61.0387 163.218 60.1133 163.289 59.1072C163.311 58.7967 163.332 58.4779 163.348 58.1532C163.451 56.1232 163.433 53.8578 163.12 51.7811Z" fill="#3791F4"/>
<path d="M157.299 45.2984C154.776 43.452 149.966 42.6357 145.161 42.2581C142.077 42.0157 143.258 44.4012 144.499 46.1411C145.191 47.1119 145.442 47.8817 147.704 47.9617C150.719 48.0682 159.716 48.0984 159.716 48.0984C159.716 48.0984 158.114 45.8943 157.299 45.2984Z" fill="#2E79CC"/>
<path d="M157.457 45.1766C155.173 43.5058 150.821 42.7671 146.473 42.4255C143.682 42.2063 144.75 44.3648 145.873 45.9392C146.5 46.8178 146.727 47.5144 148.774 47.5868C151.502 47.6831 159.681 48.0711 159.681 48.0711C159.681 48.0711 158.194 45.7159 157.457 45.1766Z" fill="#BDD3D9"/>
<path d="M157.909 46.4138C157.785 47.2153 156.717 47.7157 155.525 47.5315C154.332 47.3474 153.465 46.5485 153.59 45.747C153.714 44.9456 154.781 44.4452 155.974 44.6293C157.167 44.8135 158.033 45.6125 157.909 46.4138Z" fill="#E2F9FF"/>
<path d="M154.314 45.938C154.141 47.0542 152.654 47.7512 150.993 47.4948C149.332 47.2384 148.125 46.1256 148.298 45.0095C148.471 43.8934 149.958 43.1963 151.619 43.4528C153.281 43.7091 154.487 44.8218 154.314 45.938Z" fill="#E2F9FF"/>
<path d="M148.047 47.025C148.182 47.216 148.299 47.3983 148.423 47.5655C146.699 47.4287 146.464 46.7668 145.873 45.9396C144.751 44.3638 143.681 42.2061 146.473 42.4254C150.741 42.7597 155.012 43.478 157.327 45.0865C154.96 44.2161 151.802 43.7582 148.647 43.5106C145.855 43.2915 146.925 45.4492 148.047 47.025Z" fill="#8BAAB0"/>
<path d="M110.97 35.1761L111.27 45.1435C111.27 50.7324 110.827 52.9423 109.488 55.2169C108.997 56.0525 107.691 58.2591 103.214 57.912C95.8937 57.3259 78.8917 55.904 76.0578 55.4991C72.6793 55.0156 72.6464 54.1879 72.5239 51.1098C72.5079 50.7178 72.491 50.2921 72.4662 49.8305C72.2415 45.7722 72.3294 34.8567 72.3303 34.747L71.4821 34.7302C71.4812 34.84 71.5029 46.1082 71.7275 50.1844C71.7533 50.643 71.7701 51.066 71.7853 51.4547C71.9115 54.6097 72.2424 55.4672 76.001 56.0055C78.8439 56.4125 95.8574 57.8344 103.183 58.4205C103.515 58.4475 103.832 58.4605 104.133 58.4605C108.124 58.4605 109.421 56.2578 109.868 55.498C111.226 53.1916 111.963 50.8633 111.963 45.1768L111.735 35.1781L110.97 35.1761Z" fill="#2E79CC"/>
<path d="M83.2795 39.3906C83.2795 39.5307 83.2525 39.665 83.2037 39.7883C83.0364 40.2129 82.6083 40.5158 82.1106 40.5158H75.5547C75.1833 40.5158 74.8513 40.3472 74.6359 40.0845C74.4799 39.8931 74.3857 39.6524 74.3857 39.3906C74.3857 38.7723 74.9123 38.2662 75.5547 38.2662H82.1106C82.7539 38.2664 83.2795 38.7723 83.2795 39.3906Z" fill="#2E79CC"/>
<path d="M83.2795 38.9711C83.2795 39.1113 83.2535 39.2454 83.2063 39.3687C83.0449 39.7933 82.6323 40.0962 82.1523 40.0962H75.8307C75.4726 40.0962 75.1524 39.9276 74.9448 39.6649C74.7943 39.4736 74.7035 39.2329 74.7035 38.9711C74.7035 38.3527 75.2112 37.8467 75.8307 37.8467H82.1523C82.7726 37.8468 83.2795 38.3527 83.2795 38.9711Z" fill="#CCCCCC"/>
<path d="M83.2063 39.3689C83.0448 39.7935 82.6322 40.0964 82.1523 40.0964H75.8306C75.4725 40.0964 75.1523 39.9278 74.9447 39.6651C75.1061 39.2414 75.5188 38.9376 75.9987 38.9376H82.3204C82.6784 38.9376 82.9994 39.1062 83.2063 39.3689Z" fill="#B0B0B0"/>
<path d="M159.046 56.6727C157.915 56.6374 157.059 58.5575 159.046 59.1538C161.033 59.7501 163.314 59.6139 163.314 59.6139L163.391 56.6727C163.391 56.6727 160.177 56.7081 159.046 56.6727Z" fill="#2E79CC"/>
<path d="M159.499 56.4709C158.486 56.4392 157.719 58.1592 159.499 58.6933C161.279 59.2274 163.322 59.1054 163.322 59.1054L163.391 56.4709C163.391 56.4709 160.512 56.5026 159.499 56.4709Z" fill="#FFD08F"/>
<path d="M38.8659 20.9149L38.805 22.1109L38.2136 33.7215L22.1078 31.7613L20.3835 31.5507C20.3835 28.831 22.3623 25.0216 24.9498 24.1706L38.8659 20.9149Z" fill="#B06E59"/>
<path opacity="0.37" d="M24.2975 30.9438C24.2975 28.8229 25.8396 25.8534 27.8575 25.1898L38.7074 22.6514L38.1988 32.6361L24.2975 30.9438Z" fill="#FFD09A"/>
<path d="M71.9169 19.3954C71.8757 20.8238 71.8343 22.2889 71.7929 23.767C71.6929 27.4288 71.5929 31.1818 71.4906 34.7328C71.4884 34.8153 71.4863 34.8978 71.4841 34.9804C71.4819 34.9956 71.4819 35.0085 71.4819 35.0238C71.0732 35 70.6535 34.9783 70.2229 34.9543C70.2141 34.9543 70.2034 34.9521 70.1925 34.9521C63.7345 34.6048 54.8717 34.2574 47.2417 33.9102C44.6193 33.7908 42.1427 33.6714 39.9596 33.5541C39.6616 33.5367 39.3703 33.5195 39.0833 33.5043C39.4159 30.1333 39.9269 25.3146 40.2879 21.6939C40.3227 21.3489 40.3553 21.0167 40.3879 20.6977C44.4781 19.9033 67.3506 18.9613 71.9169 19.3954Z" fill="#B06E59"/>
<path opacity="0.37" d="M70.8297 21.1167C70.7057 25.4426 70.5819 30.1399 70.4579 34.468C67.5029 34.2986 63.8216 34.1316 59.9774 33.9645C58.0508 33.8798 56.0808 33.7951 54.1412 33.7105C51.5885 33.5998 49.0857 33.4913 46.8005 33.3805C45.361 33.3089 44.0085 33.2394 42.78 33.1701C43.0887 30.0162 43.5845 25.382 43.8955 22.2281C47.2876 21.5703 65.82 20.7911 70.4558 21.0885C70.5926 21.097 70.7188 21.1058 70.8297 21.1167Z" fill="#FFD09A"/>
<path d="M113.231 35.892C104.809 35.6641 96.3898 35.4383 87.9705 35.2104C82.9824 35.0759 77.9921 34.9413 73.004 34.8067C73.1497 31.3642 73.2954 27.9216 73.4411 24.4791C73.5129 22.7838 73.5846 21.0907 73.6564 19.3955C78.0052 19.3955 83.6587 19.6125 91.4865 21.5661C100.032 23.6998 105.381 27.8739 107.36 29.5974C109.995 31.8938 111.915 34.1533 113.231 35.892Z" fill="#B06E59"/>
<path opacity="0.37" d="M108.156 35.8919C105.418 35.8181 102.683 35.7443 99.9472 35.6706C99.4362 35.6575 98.9251 35.6424 98.4142 35.6293C94.3481 35.5186 90.2841 35.4101 86.218 35.2993C86.0723 35.295 85.9245 35.2907 85.7788 35.2885C81.5931 35.1734 77.4074 35.0627 73.2216 34.9499C73.3478 31.9588 73.4738 28.9698 73.6021 25.9809C73.6152 25.6488 73.6304 25.3145 73.6434 24.9824C73.6913 23.8428 73.7413 22.7055 73.7891 21.5659C77.5638 21.5659 82.4736 21.7548 89.273 23.45C96.6921 25.3037 101.339 28.9286 103.057 30.4264C105.346 32.419 107.012 34.3813 108.156 35.8919Z" fill="#FFD09A"/>
<path d="M46.3622 58.986C46.3622 61.3188 45.7732 63.5143 44.7357 65.4334C42.4358 69.6853 37.9307 72.5751 32.7492 72.5751C27.1786 72.5751 22.3894 69.2361 20.2818 64.4523C19.5448 62.7799 19.1349 60.9302 19.1349 58.9859C19.1349 51.4792 25.231 45.3953 32.7492 45.3953C40.2676 45.3954 46.3622 51.4794 46.3622 58.986Z" fill="#554341"/>
<path d="M32.7488 66.0212C37.468 66.0212 41.2936 62.2024 41.2936 57.4915C41.2936 52.7807 37.468 48.9618 32.7488 48.9618C28.0297 48.9618 24.2041 52.7807 24.2041 57.4915C24.2041 62.2024 28.0297 66.0212 32.7488 66.0212Z" fill="#2C2120"/>
<path d="M32.7488 66.0212C36.6414 66.0212 39.7969 62.8712 39.7969 58.9854C39.7969 55.0996 36.6414 51.9496 32.7488 51.9496C28.8562 51.9496 25.7007 55.0996 25.7007 58.9854C25.7007 62.8712 28.8562 66.0212 32.7488 66.0212Z" fill="#968684"/>
<path d="M37.6656 58.8982C37.6656 61.7764 35.3281 64.1098 32.4426 64.1098C29.5594 64.1098 27.2219 61.7764 27.2219 58.8982C27.2219 58.6768 27.235 58.4597 27.2633 58.2469C27.5829 60.819 29.7813 62.8074 32.4428 62.8074C35.1065 62.8074 37.3048 60.8192 37.6244 58.2469C37.6526 58.4597 37.6656 58.6768 37.6656 58.8982Z" fill="#5F7478"/>
<path d="M32.5602 63.0247C35.3223 63.0247 37.5614 60.7895 37.5614 58.0322C37.5614 55.275 35.3223 53.0398 32.5602 53.0398C29.7982 53.0398 27.5591 55.275 27.5591 58.0322C27.5591 60.7895 29.7982 63.0247 32.5602 63.0247Z" fill="#AF9794"/>
<path d="M142.906 58.7689C142.906 60.9451 142.394 63.0016 141.483 64.8247C139.252 69.2908 134.632 72.3579 129.292 72.3579C124.189 72.3579 119.743 69.5553 117.412 65.4082C116.308 63.4448 115.679 61.1799 115.679 58.7687C115.679 51.2621 121.774 45.1781 129.292 45.1781C136.812 45.1782 142.906 51.2622 142.906 58.7689Z" fill="#554341"/>
<path d="M129.292 65.8042C134.012 65.8042 137.837 61.9853 137.837 57.2745C137.837 52.5636 134.012 48.7448 129.292 48.7448C124.573 48.7448 120.748 52.5636 120.748 57.2745C120.748 61.9853 124.573 65.8042 129.292 65.8042Z" fill="#2C2120"/>
<path d="M129.292 65.8042C133.185 65.8042 136.341 62.6542 136.341 58.7684C136.341 54.8826 133.185 51.7325 129.292 51.7325C125.4 51.7325 122.244 54.8826 122.244 58.7684C122.244 62.6542 125.4 65.8042 129.292 65.8042Z" fill="#968684"/>
<path d="M134.209 58.6811C134.209 61.5593 131.872 63.8927 128.986 63.8927C126.103 63.8927 123.766 61.5592 123.766 58.6811C123.766 58.4596 123.779 58.2426 123.807 58.0299C124.127 60.6021 126.325 62.5904 128.986 62.5904C131.65 62.5904 133.848 60.6021 134.168 58.0299C134.196 58.2426 134.209 58.4596 134.209 58.6811Z" fill="#5F7478"/>
<path d="M129.104 62.8075C131.866 62.8075 134.105 60.5723 134.105 57.8151C134.105 55.0578 131.866 52.8226 129.104 52.8226C126.342 52.8226 124.102 55.0578 124.102 57.8151C124.102 60.5723 126.342 62.8075 129.104 62.8075Z" fill="#AF9794"/>
<path opacity="0.51" d="M24.9497 24.1708L38.8658 20.9149L38.8049 22.1109C34.8779 23.2874 31.1488 24.9848 27.7764 27.2096C25.4324 28.7551 23.5538 30.3635 22.1077 31.7613L20.3834 31.5507C20.3836 28.831 22.3622 25.0216 24.9497 24.1708Z" fill="#78C6CC"/>
<path d="M38.8659 20.9149L38.8247 21.7288L25.6022 24.822C23.1907 25.6143 21.3077 28.9766 21.0642 31.6333L20.3835 31.5509C20.3835 28.8311 22.3623 25.0217 24.9498 24.1708L38.8659 20.9149Z" fill="#87391E"/>
<path opacity="0.51" d="M71.9169 19.3954C71.8757 20.8238 71.8343 22.2889 71.793 23.767C61.9234 19.7362 50.5165 18.9959 40.2881 21.6941C40.3229 21.349 40.3555 21.0168 40.3881 20.6978C44.4781 19.9033 67.3507 18.9613 71.9169 19.3954Z" fill="#78C6CC"/>
<path d="M47.2418 33.9102C55.324 34.1858 63.4085 34.4593 71.4908 34.7328C71.4886 34.8153 71.4865 34.8978 71.4843 34.9803C71.0646 34.9717 70.645 34.9629 70.223 34.9543C70.2143 34.9543 70.2035 34.9521 70.1927 34.9521C63.7346 34.6048 54.8717 34.2574 47.2418 33.9102Z" fill="#A55432"/>
<path opacity="0.37" d="M45.6066 32.636L46.8004 33.3805C45.3609 33.3089 44.0084 33.2394 42.7799 33.1701C43.0886 30.0162 43.5844 25.382 43.8954 22.2281C47.2875 21.5703 65.8199 20.7911 70.4557 21.0885L45.6066 32.636Z" fill="#FFD09A"/>
<path d="M47.2418 33.9101C44.6195 33.7908 42.1428 33.6714 39.9597 33.5541C40.3489 30.6151 40.7381 27.6717 41.1273 24.7327C43.1496 23.9796 44.4324 24.4636 44.8238 24.6372C47.2396 25.7096 48.592 29.5668 47.2418 33.9101Z" fill="#3E2219"/>
<path d="M80.5268 35.1688C77.9045 35.0494 75.4279 34.9301 73.2448 34.8128C73.634 31.8738 74.0232 28.9304 74.4124 25.9914C76.4346 25.2382 77.7174 25.7223 78.1088 25.8959C80.5246 26.9681 81.8771 30.8253 80.5268 35.1688Z" fill="#87391E"/>
<path d="M71.9169 19.3954C71.9081 19.682 71.8995 19.9706 71.8929 20.2614C67.2744 19.8317 44.4715 20.7738 40.3881 21.5659C40.3555 21.885 40.3229 22.2171 40.288 22.5622C39.9575 25.8832 39.4988 30.2136 39.1682 33.5086C39.1399 33.5064 39.1117 33.5064 39.0834 33.5043C39.416 30.1334 39.927 25.3146 40.288 21.6939C40.3229 21.3489 40.3555 21.0167 40.3881 20.6977C44.4781 19.9033 67.3506 18.9613 71.9169 19.3954Z" fill="#87391E"/>
<path d="M99.9471 35.6705C99.4361 35.6574 98.925 35.6424 98.4141 35.6293C99.123 32.5991 99.9514 30.3091 100.33 30.3916C100.697 30.4742 100.521 32.7533 99.9471 35.6705Z" fill="#A55432"/>
<path opacity="0.51" d="M113.231 35.892C104.809 35.6641 96.3898 35.4383 87.9705 35.2104C85.4742 32.367 82.9867 30.2723 80.8319 28.7291C78.5248 27.0773 76.0439 25.6576 73.441 24.4791C73.5128 22.7838 73.5845 21.0907 73.6563 19.3955C78.0051 19.3955 83.6586 19.6125 91.4864 21.5661C100.032 23.6998 105.381 27.8739 107.36 29.5974C109.995 31.8938 111.915 34.1533 113.231 35.892Z" fill="#78C6CC"/>
<path d="M113.231 35.8919C112.615 35.8745 111.998 35.8593 111.382 35.842C110.102 34.2184 108.349 32.2475 106.055 30.2484C104.076 28.5249 98.7273 24.3509 90.1819 22.2171C83.0977 20.4501 77.7944 20.1029 73.6282 20.053C73.6368 19.8338 73.6477 19.6145 73.6565 19.3953C78.0053 19.3953 83.6588 19.6123 91.4866 21.5659C100.032 23.6996 105.381 27.8737 107.36 29.5972C109.995 31.8937 111.915 34.1532 113.231 35.8919Z" fill="#87391E"/>
<path d="M155.736 40.5333C151.73 39.1224 144.561 36.24 134.757 35.2413C130.333 34.7906 126.335 34.8227 122.938 35.061C119.408 35.3088 116.726 34.1651 113.975 31.9422C107.857 26.9999 101.373 23.3401 97.5744 21.8611C90.5741 19.1354 84.6955 18.4453 78.6571 17.7377C72.2251 16.9812 65.6303 16.7759 56.6956 17.3034C48.8531 17.766 38.1599 19.5333 25.235 22.4675C19.4614 23.7782 14.2353 26.8405 10.2681 31.2283L10.2076 31.2952C12.9427 27.1201 15.1656 23.954 15.1656 23.954C15.1656 23.954 16.7758 22.4751 36.692 19.3948C52.1297 17.0073 55.8149 17.1078 64.7718 16.6837C74.9659 16.205 84.0546 17.5421 94.0503 20.0418C104.62 22.6834 120.407 34.0564 120.407 34.0564C120.407 34.0564 146.608 33.0356 155.736 40.5333Z" fill="#6EAEF4"/>
<path d="M109.751 35.0237L112.378 37.8996L113.883 35.8919L110.065 32.4971L109.751 35.0237Z" fill="#3A2E2C"/>
<path d="M111.215 34.5598C110.794 35.9354 108.219 36.3695 105.463 35.5296C102.707 34.6895 102.437 33.795 101.955 32.4396C100.393 28.0452 104.231 29.7082 106.987 30.5481C109.743 31.3881 111.636 33.1842 111.215 34.5598Z" fill="#3791F4"/>
<path d="M111.214 34.5598C110.794 35.9361 108.219 36.3689 105.464 35.5291C104.619 35.2729 104.008 35.0099 103.553 34.7319C103.905 34.8275 104.314 34.9098 104.792 34.9828C107.641 35.4135 110.124 34.6095 110.34 33.1875C110.39 32.8607 110.315 32.5312 110.136 32.2097C111.006 32.9752 111.438 33.8259 111.214 34.5598Z" fill="#2E79CC"/>
<path d="M7.56349 47.6327C8.04513 48.0734 9.89284 49.0834 11.6822 48.5557C12.9531 48.1808 13.8319 47.6436 14.1196 47.4649C17.2268 45.5357 19.9936 42.0688 21.096 41.088C25.8606 36.8495 31.5186 37.6213 31.5186 36.8927C31.5186 36.641 28.0977 36.4152 23.4495 38.403C20.523 39.6545 16.1369 43.1856 13.3631 44.0248C8.74211 45.4226 3.52887 43.9408 7.56349 47.6327Z" fill="#6EAEF4"/>
<path d="M106.928 31.4995C106.826 31.9039 105.74 31.9792 104.502 31.6677C103.264 31.3562 102.343 30.7758 102.446 30.3713C102.548 29.9668 103.634 29.8916 104.872 30.2031C106.11 30.5146 107.03 31.095 106.928 31.4995Z" fill="#6EAEF4"/>
<path d="M143.057 43.1857C143.174 43.2106 143.211 42.3094 143.898 41.7594C144.469 41.3023 145.196 41.3251 145.579 41.3399C150.039 41.5129 154.909 43.0181 154.909 43.0181C155.386 43.1656 156.06 43.3791 156.842 43.8571C157.726 44.3974 159.7 45.6191 159.7 45.6191C159.7 45.6191 160.372 46.4581 159.7 45.6191C158.859 44.6122 158.775 44.6122 157.346 43.4375C153.081 39.9305 146.295 39.8661 144.57 40.5007C144.343 40.5845 143.784 40.7982 143.394 41.3397C142.828 42.1243 142.934 43.1596 143.057 43.1857Z" fill="#6EAEF4"/>
<path d="M6.96078 50.76C6.59593 50.7273 6.22609 50.6946 5.85207 50.6611C5.40487 50.6207 4.95178 50.5813 4.49463 50.5427C4.25846 50.5218 4.02138 50.5016 3.78442 50.4822C3.77016 50.4805 3.75497 50.4788 3.73991 50.4788C3.4104 50.4511 3.08011 50.4243 2.74981 50.3991C2.73725 50.3983 2.72376 50.3966 2.71028 50.3966C2.55056 50.3832 2.39177 50.3715 2.23205 50.3597L0.161784 50.2053C0.145813 47.5044 4.82165 39.6415 8.95708 33.2202C8.96886 33.2135 8.98065 33.2076 8.99243 33.2009C5.96649 39.1583 4.28543 41.4237 2.68842 44.9478C2.2513 45.9127 1.76966 46.9943 2.01604 47.9684C2.37318 49.3822 4.3484 50.2431 6.96078 50.76Z" fill="#2E79CC"/>
<path d="M58.6202 24.5566C58.7818 24.5577 58.8091 25.2355 59.4075 25.8867C59.764 26.2746 60.1751 26.492 60.4912 26.6191C59.62 27.3813 58.7488 28.1435 57.8777 28.9057C58.1887 25.4259 58.4368 24.5555 58.6202 24.5566Z" fill="#5A2B2B"/>
<path d="M63.0342 35.3383C63.0659 35.6047 62.2237 37.6769 62.2011 37.8392L62.1927 38.1238L62.0246 43.9268C61.9882 44.1907 61.7951 44.4062 61.5368 44.4719L57.5734 45.4779L56.7403 45.6893C56.5372 45.741 56.322 45.6926 56.1609 45.56L56.0142 45.4391C55.7989 45.2613 55.7201 44.9672 55.8172 44.7058C55.8566 44.6011 55.8677 44.4896 55.8515 44.381C55.8443 44.333 55.8314 44.2852 55.8134 44.2388C55.1819 42.6331 54.017 39.6291 53.0975 37.2511C52.8861 36.705 52.6879 36.1923 52.5115 35.7369C52.0603 34.5697 51.7558 33.7808 51.7558 33.7808C40.7214 31.5093 51.2033 32.2604 51.975 32.0745C54.0276 31.5798 56.2979 30.3777 59.2262 30.5335C59.4211 30.5437 59.6005 30.643 59.7161 30.8004L63.0275 35.3167C63.0311 35.3215 63.0333 35.3287 63.0342 35.3383Z" fill="#7D5959"/>
<path d="M58.008 30.5531L57.8445 32.6645C57.8445 32.6645 55.3396 32.8966 54.1999 32.0784C54.1999 32.0784 54.943 31.0768 54.4347 29.0312C54.3553 28.711 54.2481 28.3686 54.105 28.0043C54.012 27.7663 53.9041 27.5195 53.7789 27.2633L55.3123 27.8238L56.9103 28.4075C56.9103 28.4075 56.9058 29.5363 57.2692 30.1616C57.4316 30.4401 57.6669 30.6188 58.008 30.5531Z" fill="#FFA471"/>
<path d="M56.9103 28.4072C56.9103 28.4072 56.9059 29.5361 57.2693 30.1614C57.1871 30.2908 57.0827 30.3909 56.9612 30.4445C56.59 30.6071 56.1358 30.2946 55.3682 29.7667C54.9969 29.5113 54.6864 29.2571 54.4347 29.031C54.3554 28.7108 54.2482 28.3684 54.1051 28.0041C54.3533 27.8587 54.8116 27.7924 55.3123 27.8236L56.9103 28.4072Z" fill="#E07F4F"/>
<path d="M57.8701 22.2675C57.8886 22.3026 57.9076 22.3448 57.9277 22.3931C57.9881 22.5365 58.0553 22.7321 58.1223 22.939C58.2447 23.3165 58.3693 23.7328 58.4604 23.9421C58.6031 24.2698 58.8517 24.6467 58.8791 24.7094C59.7863 27.1042 58.3545 29.2831 58.3545 29.2831C58.3545 29.2831 54.6459 29.811 53.3278 27.4885C51.9593 25.0781 51.2642 21.1079 54.8443 19.9409C56.0135 19.5597 57.0366 20.6837 57.8701 22.2675Z" fill="#FFA471"/>
<path d="M56.6774 27.5687C56.6876 27.4911 57.0328 27.5764 57.5378 27.4248C58.3693 27.1755 58.8251 26.5269 58.9185 26.6079C58.9686 26.6514 58.8561 26.8552 58.8013 26.9549C58.6748 27.1842 58.404 27.6754 57.8646 27.8271C57.2781 27.992 56.6636 27.674 56.6774 27.5687Z" fill="#E07F4F"/>
<path d="M56.3652 24.628C56.4199 24.7268 56.3362 24.8783 56.1653 25.0232C56.0747 25.1003 55.9596 25.1754 55.8276 25.2402C55.8198 25.2439 55.8122 25.248 55.8049 25.2514C55.432 25.4285 55.068 25.4539 54.986 25.3054C54.902 25.1547 55.1422 24.8804 55.523 24.6934C55.9042 24.5061 56.2809 24.4767 56.3652 24.628Z" fill="white"/>
<path d="M56.1653 25.0232C56.0747 25.1003 55.9596 25.1754 55.8276 25.2402C55.8198 25.2439 55.8122 25.2481 55.8049 25.2515C55.7344 25.2341 55.6671 25.193 55.6144 25.1309C55.4918 24.9859 55.4968 24.7809 55.6255 24.6719C55.755 24.5631 55.9583 24.5924 56.0808 24.7375C56.1527 24.8226 56.1806 24.9284 56.1653 25.0232Z" fill="#257FA7"/>
<path d="M55.9064 24.8045C55.9386 24.7773 55.9399 24.7259 55.9094 24.6897C55.8788 24.6534 55.8279 24.6461 55.7957 24.6732C55.7634 24.7004 55.7621 24.7518 55.7927 24.7881C55.8232 24.8243 55.8741 24.8317 55.9064 24.8045Z" fill="white"/>
<path d="M56.3883 24.6279C56.2827 24.6028 55.8661 24.5716 55.4536 24.8194C55.1008 25.0313 54.9217 25.4151 54.9217 25.4151L54.5068 25.3583C54.5068 25.3583 54.9924 24.8432 55.3608 24.675C55.8355 24.4584 56.2794 24.4203 56.2794 24.4203C56.2794 24.4203 56.3746 24.5588 56.3883 24.6279Z" fill="#643C3A"/>
<path d="M57.072 24.4126C57.1189 24.5154 57.2905 24.5387 57.509 24.488C57.625 24.4613 57.7541 24.4139 57.8849 24.3469C57.8925 24.3429 57.9003 24.3392 57.9074 24.3354C58.2721 24.1422 58.5097 23.8655 58.439 23.7113C58.368 23.5541 58.0041 23.5832 57.6267 23.7769C57.2489 23.9706 57.0007 24.2549 57.072 24.4126Z" fill="white"/>
<path d="M57.9753 24.3256C58.0791 24.2674 58.1895 24.1856 58.2961 24.0845C58.3022 24.0784 58.3088 24.0728 58.3144 24.0671C58.3224 23.9951 58.3071 23.9179 58.267 23.847C58.173 23.682 57.9786 23.6158 57.8317 23.6987C57.6847 23.7823 57.6419 23.983 57.7359 24.1479C57.7911 24.2446 57.8809 24.3073 57.9753 24.3256Z" fill="#257FA7"/>
<path d="M57.8178 23.8103C57.7768 23.82 57.7523 23.8652 57.7631 23.9113C57.7739 23.9573 57.8159 23.9869 57.857 23.9773C57.898 23.9676 57.9225 23.9225 57.9117 23.8764C57.9009 23.8303 57.8588 23.8007 57.8178 23.8103Z" fill="white"/>
<path d="M57.0582 24.4311C57.101 24.3315 57.3242 23.979 57.7695 23.7961C58.1504 23.6397 58.5658 23.7249 58.5658 23.7249L58.7674 23.3585C58.7674 23.3585 58.0636 23.4406 57.7088 23.6356C57.2515 23.8868 56.9562 24.2201 56.9562 24.2201C56.9562 24.2201 57.0109 24.3788 57.0582 24.4311Z" fill="#643C3A"/>
<path d="M58.3167 25.5666C58.2271 25.1886 57.7401 25.3026 57.4086 24.7896C57.1864 24.4459 57.1034 23.9278 57.1241 23.8392C57.1249 23.8359 57.1288 23.8202 57.1235 23.8171C57.1002 23.8033 56.9301 24.0462 56.8962 24.0986C56.6517 24.4769 56.7818 25.3241 57.3116 25.803C57.3586 25.8456 57.8224 26.2647 58.1168 26.1024C58.2758 26.0148 58.3648 25.769 58.3167 25.5666Z" fill="#FFA471"/>
<path d="M57.1753 23.5801C57.1837 23.5814 57.1542 23.7379 57.1545 23.8652C57.1551 24.2101 57.3742 24.4717 57.5224 24.6487C57.9368 25.1439 58.5118 25.3432 58.7643 25.4156C58.4535 25.9942 58.2687 26.2713 58.2097 26.2468C58.164 26.2278 58.1938 26.0274 58.2995 25.6456C58.0954 25.5527 57.6537 25.3159 57.3604 24.8204C57.2664 24.6618 57.0619 24.3162 57.1063 23.8961C57.121 23.7569 57.1661 23.5786 57.1753 23.5801Z" fill="#E07F4F"/>
<path d="M53.7193 24.2341C53.6696 24.1208 54.2714 23.7563 54.6716 23.5584C54.9783 23.4067 55.7353 23.0325 55.9599 23.2772C56.0296 23.3531 56.0349 23.4742 56.0089 23.5589C55.9398 23.7834 55.6203 23.8482 54.9684 23.9945C53.8944 24.2355 53.7432 24.2882 53.7193 24.2341Z" fill="#643C3A"/>
<path d="M58.035 22.3046C58.201 22.3547 58.3639 22.59 58.2382 22.8504C57.7237 23.0774 57.4547 23.1788 57.285 23.0575C57.2125 23.0054 57.146 22.9038 57.1631 22.7982C57.2019 22.5601 57.6474 22.4023 58.035 22.3046Z" fill="#643C3A"/>
<path d="M57.387 20.5225C57.8119 21.2838 58.0219 22.1807 57.8815 22.244C57.8025 22.2798 57.5664 22.0696 56.8371 20.8327C56.8335 20.827 56.8299 20.8204 56.8259 20.8141C56.7571 20.863 56.3082 21.1724 55.7416 21.0334C55.3557 20.9382 55.128 20.688 55.0502 20.5932C55.0301 20.742 54.9805 20.9749 54.833 21.208C54.4428 21.825 53.7863 21.7864 53.3077 22.1176C53.2837 22.1343 53.2596 22.1519 53.2369 22.1705C52.691 22.6066 52.4994 23.4782 52.5162 24.3046C52.5244 24.7397 52.5905 25.1621 52.6931 25.5013C53.4144 27.893 55.4992 29.5468 55.4992 29.5468L54.8381 30.2864L54.6015 30.5515L54.3684 30.8124L54.1302 31.0791L53.7977 31.4513L53.4071 31.8885L53.0849 32.2492C53.0849 32.2492 50.5919 30.0696 49.1957 26.5196C49.1154 26.3155 48.9089 25.8078 48.7476 25.1453C48.5718 24.4263 48.4507 23.5247 48.6045 22.6324C48.6901 22.1325 48.8627 21.6346 49.161 21.1735C49.1928 21.1245 49.2276 21.075 49.2665 21.0263C49.8164 20.3212 51.0036 19.665 52.2472 19.4129C52.9508 19.2697 53.6729 19.2568 54.3075 19.4379C54.3212 19.4264 54.3348 19.4149 54.35 19.4025C54.6043 19.1933 55.0635 18.8956 55.6191 18.937C56.5407 19.0066 57.0741 19.9619 57.387 20.5225Z" fill="#753C3C"/>
<path d="M51.9712 29.5654C52.6001 30.378 53.2476 30.9966 53.7976 31.4515L53.4069 31.8887C53.1181 31.6206 52.8242 31.3161 52.5349 30.971C51.3507 29.5582 50.7642 28.0824 50.4585 27.0015C50.7647 27.7117 51.2389 28.6194 51.9712 29.5654Z" fill="#5A2B2B"/>
<path d="M52.7319 29.6897C53.3047 30.1889 53.8729 30.5505 54.3683 30.8126L54.1302 31.0794C53.6689 30.7825 53.1216 30.3633 52.5873 29.7824C52.2199 29.3825 51.9359 28.9897 51.7173 28.6412C51.9858 28.9699 52.3201 29.331 52.7319 29.6897Z" fill="#5A2B2B"/>
<path d="M54.838 30.2865L54.6014 30.5516C54.3795 30.4403 54.1347 30.2949 53.8845 30.1059C53.3154 29.6761 52.9567 29.1988 52.746 28.8649C52.9413 29.1379 53.3369 29.6121 53.9982 29.965C54.3006 30.1262 54.589 30.2254 54.838 30.2865Z" fill="#5A2B2B"/>
<path d="M53.2368 22.1706C52.7739 22.6636 52.7566 22.7427 52.5668 23.6118C52.0755 24.3011 50.3242 25.5304 49.8811 25.469C49.3579 25.3964 49.2509 24.8828 48.5807 24.3997C48.5295 23.685 48.4505 23.5251 48.6043 22.6327C48.6899 22.1329 48.8624 21.6349 49.1608 21.1738C49.1926 21.1248 49.2274 21.0754 49.2663 21.0267C49.8161 20.3215 48.802 22.6269 49.4899 23.2732C50.1644 23.8243 53.2806 21.0755 53.2368 22.1706Z" fill="#8E4B4B"/>
<path d="M57.387 20.5225C57.8119 21.2837 58.0219 22.1806 57.8816 22.244C57.8025 22.2797 57.5665 22.0695 56.8371 20.8327C56.829 20.7332 56.3022 21.6933 55.0019 20.624C54.9376 20.5712 54.5757 19.5381 53.9116 19.3521C54.1659 19.143 55.0634 18.896 55.619 18.9375C56.5408 19.0066 57.0741 19.9618 57.387 20.5225Z" fill="#5A2B2B"/>
<path d="M52.8058 36.4989C52.9197 36.2897 52.9658 36.0431 52.9226 35.7931C52.7938 35.0449 52.6225 34.0613 52.6565 33.653C52.7732 34.0973 53.0429 35.0194 53.5802 35.8644C53.9638 36.4671 54.4911 37.0881 55.2166 37.6082C55.7213 37.97 56.2223 38.2108 56.6633 38.3755C60.2553 37.6088 62.0318 36.708 63.034 35.3389C63.0658 35.6052 62.2236 37.6768 62.201 37.8393L62.1925 38.124C61.6574 38.0675 60.8789 38.0619 60.0168 38.3381C59.7182 38.4341 56.9918 39.3569 56.5558 41.9181C56.2749 43.5679 57.1158 44.8963 57.5736 45.4783L56.7406 45.6896C56.5374 45.7412 56.3223 45.6931 56.1609 45.5603L56.0144 45.4395C55.7993 45.2614 55.7206 44.9675 55.8176 44.7061C55.8565 44.6015 55.8679 44.4898 55.8515 44.3811C55.8445 44.333 55.8318 44.285 55.8133 44.239C55.1819 42.6331 54.017 39.6289 53.0976 37.2514L52.8058 36.4989Z" fill="#B63232"/>
<path d="M64.4318 34.7593L46.5251 33.9822L57.3541 49.0314L64.4318 48.7488V34.7593Z" fill="#3791F4"/>
<path d="M46.3127 33.9115C47.2196 34.5664 48.6204 35.4121 50.4886 35.9605C53.1582 36.7441 55.4512 36.5296 56.7171 36.3138C57.3163 36.4235 58.1517 36.671 58.9112 37.303C59.4165 37.7234 59.6934 38.1521 59.8313 38.0802C60.0146 37.9847 59.8641 37.0509 59.4066 36.3845C58.8261 35.5389 57.8448 35.2602 56.2924 34.9714C53.7935 34.5064 51.8073 34.386 50.2056 34.2648C49.3353 34.1989 47.9862 34.0881 46.3127 33.9115Z" fill="#2E79CC"/>
<path d="M56.7416 34.7511L59.4842 35.3382L60.9302 36.4695L61.5299 38.0635L61.341 38.0197C61.042 37.7821 60.8164 37.4645 60.6907 37.1043C60.6344 36.9429 60.5889 36.8098 60.5889 36.8098L60.0706 36.3464L60.3843 36.8779L60.6291 38.5672C60.3141 38.3661 60.0901 38.0504 60.0047 37.6871L59.8656 37.0955L60.1105 38.4443C59.7699 38.2087 59.537 37.8475 59.463 37.4405L59.4151 37.1771C59.4151 37.1771 58.5557 36.7136 58.1463 36.509C57.7371 36.3044 56.5913 35.1188 56.5913 35.1188L56.7416 34.7511Z" fill="#FFA471"/>
<path d="M44.5869 33.2125C44.5869 33.2125 47.73 36.4712 56.7687 35.4005C56.7687 35.4005 56.8489 35.186 56.8574 34.7095C51.3356 34.1849 46.6217 29.7861 44.5869 33.2125Z" fill="#A07676"/>
<path d="M132.477 71.0931L133.173 72.1039C133.173 72.1039 130.332 73.4403 130.234 73.1642C130.136 72.8883 132.112 71.4421 132.112 71.4421L131.974 71.0557L132.477 71.0931Z" fill="#855656"/>
<path d="M121.972 71.7248L122.226 72.925C122.226 72.925 119.056 73.2286 119.056 72.9358C119.056 72.643 121.403 71.9401 121.403 71.9401V71.5302L121.972 71.7248Z" fill="#855656"/>
<path d="M137.025 39.7414C135.912 40.9625 133.597 41.2267 131.979 40.5028C131.138 40.1262 130.64 39.5516 130.454 39.3314C130.041 38.8448 129.659 38.1688 129.313 37.3606C127.016 32.004 126.278 20.8332 128.576 20.3553C129.451 20.1731 130.61 21.5741 131.686 22.8737C132.639 24.0252 133.16 25.1544 133.446 25.9192C132.82 25.9971 132.194 26.0756 131.568 26.1535C132.769 27.1545 134.617 28.956 135.969 31.7176C136.544 32.8937 137.616 35.0835 137.769 37.0327C137.85 38.0658 137.672 39.031 137.025 39.7414Z" fill="#663F38"/>
<path d="M137.025 39.7414C135.912 40.9626 133.597 41.2267 131.979 40.5029C131.138 40.1263 130.64 39.5517 130.454 39.3315C130.041 38.8448 129.659 38.1689 129.313 37.3606C129.529 36.4628 129.96 35.5895 130.63 34.8217C130.746 35.2562 131.23 36.8669 132.801 37.8087C133.801 38.4089 135.953 39.1628 137.201 37.9258C137.451 37.6775 137.641 37.3729 137.769 37.0326C137.85 38.0659 137.672 39.0311 137.025 39.7414Z" fill="#4D2D2B"/>
<path d="M119.399 22.4989C119.345 23.2608 119.232 23.73 119.232 23.73C119.232 23.73 118.964 23.761 118.519 23.8107C116.414 24.0462 110.343 24.7033 109.911 24.4995C109.91 24.499 109.909 24.4983 109.908 24.4978C109.578 24.3268 109.437 23.9501 109.43 23.5051C109.414 22.5451 110.024 21.2672 110.717 21.0516C110.849 21.0106 111.046 21.003 111.296 21.0206C112.97 21.1413 116.999 22.4133 119.399 22.4989Z" fill="#526473"/>
<path d="M111.176 23.8384C110.963 24.1811 110.66 24.4318 110.26 24.495C110.16 24.5109 110.043 24.512 109.911 24.4997C108.711 24.392 106.278 23.2019 104.449 22.2226C103.127 21.5151 102.12 20.9177 102.12 20.9177C101.715 20.3039 103.656 15.5867 104.617 15.4075C106.062 15.1399 109.26 20.9423 110.887 20.8046C111.049 20.7906 111.187 20.8725 111.296 21.0207C111.692 21.5618 111.707 22.9857 111.176 23.8384Z" fill="#526473"/>
<path opacity="0.31" d="M118.519 23.8108C116.414 24.0463 110.343 24.7034 109.911 24.4996C108.711 24.3918 106.278 23.2018 104.449 22.2224C103.653 19.2851 104.886 16.3082 104.991 16.3141C105.094 16.32 104.393 19.2959 106.105 21.4681C106.824 22.38 107.693 22.8016 108.217 23.0494C108.612 23.2357 109.018 23.3862 109.43 23.505C110.005 23.6719 110.591 23.7786 111.176 23.8383C114.263 24.1534 117.308 23.1647 118.309 22.8151C118.392 23.1121 118.47 23.4524 118.519 23.8108Z" fill="#455464"/>
<path d="M118.697 22.6284C118.79 22.6621 119.074 22.7085 119.252 22.721C119.344 22.7273 119.439 22.7264 119.535 22.7193C119.555 22.7111 119.578 22.703 119.606 22.6943C120.661 22.3731 121.423 21.8419 122.064 21.7027C122.43 21.6232 123.093 21.4155 123.593 21.6254C123.694 21.6675 123.896 21.7524 123.886 21.8354C123.875 21.9245 123.76 21.9777 123.637 22.008C123.609 22.0147 123.58 22.0206 123.552 22.0253C123.357 22.0155 123.326 22.0366 123.326 22.0417C123.327 22.0469 123.432 22.0455 123.552 22.0253C123.582 22.0268 123.615 22.0289 123.653 22.0323C123.783 22.0431 123.964 22.0649 124.214 22.1039C124.52 22.1515 124.756 22.2179 124.781 22.365C124.798 22.466 124.518 22.5749 124.299 22.6376C124.343 22.6587 124.869 22.6404 124.87 22.8996C124.87 23.0437 124.387 23.2212 124.027 23.2602C124.387 23.2756 124.469 23.3943 124.44 23.5445C124.399 23.7652 123.432 23.6309 122.392 23.6767L122.392 23.6802C122.392 23.6802 121.552 23.7307 121.507 24.0713C121.479 24.2785 121.711 24.3377 121.957 24.7178C122.064 24.8824 122.345 25.3008 122.215 25.7206C122.195 25.7881 122.097 26.1031 121.926 26.1156C121.669 26.1354 121.659 25.438 121.066 24.952C120.684 24.6382 120.515 24.7854 120.096 24.4187C119.804 24.1628 119.852 23.834 119.413 23.6112C119.032 23.4179 118.866 23.4243 118.566 23.3357C118.631 23.0578 118.632 22.9062 118.697 22.6284Z" fill="#FFA471"/>
<path d="M132.609 71.2072C132.388 71.2652 132.228 71.3097 132.006 71.3677C130.821 68.0316 130.154 65.6573 129.369 63.5875C129.218 63.1898 129.05 62.7037 128.873 62.1584V62.1577C127.987 59.419 126.877 55.1886 126.595 53.2038C126.21 50.5067 125.468 46.886 124.938 46.9452C124.67 46.975 124.411 48.4141 124.325 49.0565C124.066 50.9829 123.767 53.2419 123.41 57.3199C123.532 58.0713 123.776 59.1724 123.968 59.9987C124.144 60.7578 124.154 61.545 123.997 62.3081C123.537 64.5484 122.541 69.4365 122.105 71.9075L121.352 71.8929C121.291 70.8316 121.234 69.7657 121.18 68.7138C120.949 64.238 120.766 60.0018 120.494 57.3586C120.225 54.7564 120.016 54.3681 119.859 52.1753C119.626 48.9137 119.528 45.9284 119.575 43.4358C119.58 43.1002 119.59 42.7733 119.601 42.4559C119.602 42.4465 119.602 42.4372 119.602 42.4278C119.633 41.5903 119.683 40.8183 119.752 40.1231C119.762 40.0147 119.774 39.9075 119.785 39.8027C119.787 39.788 119.788 39.7728 119.79 39.7582C119.809 39.5913 119.829 39.4301 119.85 39.2732C119.959 39.2726 120.069 39.272 120.179 39.2726H120.201C120.81 39.2732 121.433 39.282 122.065 39.296C123.897 39.3346 125.798 39.4125 127.626 39.4489C128.313 39.4624 128.99 39.4699 129.649 39.4671C129.759 39.9643 129.908 40.687 130.049 41.5632C130.052 41.5767 130.054 41.5902 130.056 41.6037C130.058 41.6218 130.061 41.6399 130.064 41.6588C130.068 41.6798 130.071 41.7009 130.074 41.7215C130.206 42.5683 130.299 43.3544 130.364 44.0701C130.51 45.6948 130.513 46.9593 130.517 47.7629C130.545 52.8988 129.941 55.5426 130.157 56.7062C130.372 57.8648 131.093 59.3072 131.627 60.2625C132.032 60.9875 132.268 61.7946 132.311 62.6246C132.439 65.0805 132.688 70.1736 132.609 71.2072Z" fill="#D6B07B"/>
<path d="M130.364 44.0702C130.253 44.2248 130.112 44.3725 129.926 44.4854C128.29 45.4781 125.795 42.2457 122.533 42.377C121.757 42.408 120.749 42.6371 119.575 43.4359C119.581 43.1003 119.59 42.7735 119.601 42.456C119.602 42.4466 119.602 42.4373 119.602 42.4279C119.633 41.5904 119.683 40.8184 119.752 40.1232C120.438 39.7876 121.229 39.5019 122.065 39.2962C123.918 38.8394 125.989 38.7779 127.626 39.4491C128.177 39.674 128.677 39.9821 129.104 40.3857C129.527 40.7852 129.842 41.2449 130.075 41.7216C130.207 42.5686 130.299 43.3545 130.364 44.0702Z" fill="#C2996C"/>
<path d="M119.071 18.1882C122.885 18.4225 118.149 34.4639 117.29 34.3717C116.431 34.28 115.058 33.4248 115.273 32.0648C115.487 30.7052 116.753 18.0458 119.071 18.1882Z" fill="#B53424"/>
<path d="M130.809 42.9639C130.639 43.474 126.961 41.3509 123.361 41.4728C121.277 41.5448 119.793 42.8854 119.186 42.3871C118.624 41.9232 119.234 39.1904 119.541 36.4031C119.846 33.6153 116.435 20.6634 118.667 18.3096C119.073 17.8814 119.605 17.5669 120.212 17.3484C121.777 16.7867 123.841 16.8623 125.522 17.2788C126.018 17.4012 126.48 17.554 126.887 17.7285C127.092 17.8158 127.282 17.9089 127.455 18.0073C127.81 18.2071 128.094 18.4267 128.283 18.6568C129.031 19.5723 130.152 25.9627 130.753 32.0549C130.792 32.4556 130.83 32.8544 130.864 33.2509C131.237 37.5 131.322 41.4112 130.809 42.9639Z" fill="#E05337"/>
<path d="M127.641 19.7622C130.532 24.5447 131.451 38.5633 128.87 40.8543C128.342 41.3229 126.764 40.722 123.165 40.8443C121.168 40.9124 119.723 42.1423 119.073 41.8064C119.047 42.0899 119.074 42.2941 119.187 42.3869C119.793 42.8856 121.278 41.5446 123.361 41.473C126.961 41.3509 130.639 43.4741 130.809 42.9639C131.937 39.552 130.336 24.2209 127.641 19.7622Z" fill="#B53424"/>
<path d="M127.285 18.5533C129.49 16.7843 135.224 31.8893 134.477 32.3386C133.733 32.7871 131.661 32.7606 131.04 31.5419C130.418 30.3232 125.457 20.0193 127.285 18.5533Z" fill="#E05337"/>
<path d="M128.658 18.9365C131.14 22.1637 134.421 32.1783 133.829 32.5353C133.603 32.6707 133.229 32.841 132.802 32.9799C133.558 32.865 134.325 32.5482 134.695 32.3253C135.316 31.9515 131.295 21.4284 128.658 18.9365Z" fill="#B53424"/>
<path d="M132.599 33.6111C131.791 33.0856 126.985 29.1106 127.522 27.476C127.545 27.4052 127.579 27.3466 127.623 27.3016C128.395 26.4921 132.188 29.4275 133.619 30.65C133.902 30.8919 134.093 31.0663 134.15 31.1319C135.997 33.266 133.739 34.3531 132.599 33.6111Z" fill="#E05337"/>
<path d="M109.181 34.8868C108.201 33.5543 115.419 31.6545 115.957 31.7691C116.997 31.9905 117.944 33.8122 117.134 34.3331C116.323 34.8538 110.201 36.2736 109.181 34.8868Z" fill="#E05337"/>
<path d="M116.075 31.6881C116.033 31.6792 115.496 31.343 115.551 31.7946C116.263 32.4519 116.872 33.6631 116.254 34.0606C115.598 34.4816 111.416 35.4089 109.3 35.0147C110.605 36.1891 116.433 34.9606 117.217 34.4572C118.027 33.9365 117.115 31.9099 116.075 31.6881Z" fill="#B53424"/>
<path d="M125.136 47.0731C125.067 46.9834 125.001 46.9384 124.938 46.9453C124.67 46.9752 124.411 48.4142 124.325 49.0567C124.066 50.983 123.767 53.242 123.41 57.32C123.532 58.0715 123.776 59.1726 123.968 59.9989C124.144 60.7579 124.155 61.5451 123.997 62.3083C123.537 64.5485 122.541 69.4366 122.105 71.9077L121.352 71.893C121.291 70.8317 121.234 69.7658 121.181 68.714C122.036 67.1994 122.612 65.8552 123.002 64.8086C123.893 62.4208 123.938 61.2658 123.882 60.4746C123.797 59.257 123.486 59.0707 123.12 57.6047C122.64 55.6849 122.878 53.6894 123.354 49.698C123.511 48.3861 123.685 46.9136 124.645 46.5939C124.775 46.5507 124.942 46.7252 125.136 47.0731Z" fill="#C2996C"/>
<path d="M125.434 47.6955C125.329 47.4508 125.229 47.2416 125.136 47.073C125.232 47.1994 125.332 47.4138 125.434 47.6955Z" fill="#C2996C"/>
<path d="M127.663 43.7111C127.476 43.6602 127.881 44.2181 128.429 44.7686C129.013 45.3554 129.914 46.0888 130.11 46.1384C130.321 46.192 129.723 45.4527 128.947 44.7342C128.557 44.3729 127.845 43.7603 127.663 43.7111Z" fill="#C2996C"/>
<path d="M123.472 42.0841C123.4 42.0891 123.414 43.314 123.513 45.759C123.523 46.0136 123.703 46.2302 123.952 46.2871C124.501 46.4127 124.791 46.4369 124.821 46.3597C124.855 46.2729 124.562 46.0582 123.941 45.7154C123.7 43.2897 123.543 42.0791 123.472 42.0841Z" fill="#C2996C"/>
<path d="M125.522 17.2788L121.536 20.5311L120.212 17.3485C121.777 16.7867 123.841 16.8623 125.522 17.2788Z" fill="#FCE28B"/>
<path d="M121.301 14.0885L120.849 17.1604L121.77 19.3011L124.873 17.1387L123.706 12.7415L121.301 14.0885Z" fill="#E07F4F"/>
<path d="M121.52 16.4216C121.525 16.4204 121.53 16.4191 121.535 16.4175C122.966 15.8501 123.51 13.8393 123.918 12.3759C123.918 12.3749 123.919 12.3738 123.918 12.373C124.081 11.626 124.214 11.0177 124.435 10.8151C125.044 10.2592 126.997 8.47237 126.422 7.06591C126.422 7.06591 126.422 7.06539 126.422 7.06499C126.351 6.8909 126.24 6.72258 126.084 6.56302C124.681 5.13025 121.332 3.2455 120.479 3.80756C119.639 4.36111 118.312 5.88263 117.86 8.0971C117.707 8.84346 118.074 9.64309 117.604 10.36C116.993 11.291 117.403 14.5845 117.55 15.5377C117.555 15.5714 117.559 15.6022 117.564 15.6298C117.81 17.1626 120.32 16.7258 121.52 16.4216Z" fill="#FFA471"/>
<path d="M121.52 16.4216C121.525 16.4204 121.53 16.4191 121.535 16.4175C122.966 15.8501 123.51 13.8393 123.918 12.3759C123.919 12.3749 123.919 12.3738 123.919 12.373C124.081 11.626 124.214 11.0177 124.435 10.8151C125.044 10.2592 126.997 8.47238 126.422 7.06592C126.566 8.39842 124.894 9.92766 124.34 10.4346C123.665 11.0518 123.813 15.4374 121.424 16.0411C120.306 16.3245 118.052 16.7228 117.55 15.5378C117.555 15.5716 117.559 15.6023 117.564 15.6299C117.81 17.1626 120.32 16.7258 121.52 16.4216Z" fill="#E07F4F"/>
<path d="M121.923 9.05003C122.124 9.07516 122.26 9.32465 122.339 9.46902C122.364 9.51471 122.437 9.65568 122.496 9.97938C122.533 10.1782 122.568 10.4698 122.55 10.8343C121.969 10.771 121.389 10.7079 120.809 10.6447C120.859 10.4583 120.956 10.1621 121.142 9.83658C121.321 9.52518 121.614 9.01142 121.923 9.05003Z" fill="#E07F4F"/>
<path d="M118.798 8.80405C118.907 8.84659 118.961 8.9678 119.048 9.16453C119.17 9.43771 119.198 9.683 119.221 9.90592C119.237 10.0542 119.22 10.1869 119.209 10.4364C118.72 10.3473 118.261 10.3322 117.772 10.2431C117.893 9.90971 118.014 9.57632 118.136 9.24294C118.349 8.91452 118.614 8.73245 118.798 8.80405Z" fill="#E07F4F"/>
<path d="M117.809 8.36133C117.809 8.36133 118.089 8.19706 118.503 8.05936C118.72 7.98697 119.127 7.89325 119.707 8.00242C119.636 7.67426 119.497 7.50895 119.421 7.43578C118.995 7.02241 118.285 7.21509 117.873 7.62217C117.529 7.96197 117.346 8.4968 117.418 8.57233C117.457 8.6133 117.56 8.50754 117.809 8.36133Z" fill="#643C3A"/>
<path d="M123.092 9.15155C123.092 9.15155 122.846 8.93309 122.461 8.71267C122.258 8.59696 121.87 8.42116 121.267 8.4082C121.406 8.10178 121.581 7.96879 121.671 7.91277C122.184 7.59627 122.855 7.93175 123.182 8.41488C123.455 8.81843 123.527 9.37957 123.44 9.43874C123.392 9.47094 123.311 9.34606 123.092 9.15155Z" fill="#643C3A"/>
<path d="M121.174 13.7351C121.164 13.7847 121.152 13.8341 121.139 13.8821C121.112 13.976 121.079 14.066 121.038 14.1518C120.851 14.5528 120.52 14.8545 120.125 14.9556C119.404 15.1392 118.535 14.6329 118.293 13.7223C118.386 13.7223 118.479 13.7229 118.573 13.7229C119.44 13.7273 120.307 13.7309 121.174 13.7351Z" fill="#84381E"/>
<path d="M121.174 13.7351C121.164 13.7847 121.152 13.834 121.139 13.8821C120.387 14.0552 119.446 14.1696 118.659 14.1776C118.63 14.0257 118.6 13.8742 118.573 13.7229C119.439 13.7272 120.307 13.7309 121.174 13.7351Z" fill="white"/>
<path d="M118.426 10.4742C118.791 10.5248 119.11 10.4058 119.137 10.2084C119.164 10.011 118.891 9.80993 118.525 9.75929C118.16 9.70865 117.842 9.82764 117.815 10.0251C117.787 10.2225 118.061 10.4235 118.426 10.4742Z" fill="white"/>
<path d="M118.181 10.4585C118.354 10.4825 118.516 10.342 118.544 10.1445C118.571 9.94713 118.453 9.76764 118.28 9.74365C118.107 9.71965 117.944 9.86023 117.917 10.0576C117.89 10.2551 118.008 10.4345 118.181 10.4585Z" fill="#41552D"/>
<path d="M118.34 10.0529C118.385 10.0592 118.428 10.0221 118.435 9.97007C118.443 9.91802 118.411 9.87069 118.366 9.86436C118.32 9.85803 118.277 9.8951 118.27 9.94716C118.263 9.99922 118.294 10.0465 118.34 10.0529Z" fill="white"/>
<path d="M121.663 10.9237C122.113 10.986 122.504 10.8396 122.538 10.5966C122.572 10.3537 122.235 10.1062 121.785 10.0439C121.336 9.98155 120.944 10.128 120.911 10.3709C120.877 10.6139 121.214 10.8614 121.663 10.9237Z" fill="white"/>
<path d="M121.39 10.9011C121.603 10.9306 121.803 10.7576 121.836 10.5147C121.87 10.2717 121.725 10.0508 121.512 10.0213C121.299 9.99172 121.099 10.1647 121.065 10.4077C121.031 10.6506 121.177 10.8715 121.39 10.9011Z" fill="#41552D"/>
<path d="M121.583 10.4066C121.64 10.4144 121.692 10.3687 121.701 10.3046C121.71 10.2406 121.672 10.1823 121.616 10.1745C121.559 10.1667 121.507 10.2124 121.498 10.2764C121.489 10.3405 121.527 10.3988 121.583 10.4066Z" fill="white"/>
<path d="M118.825 9.23926C118.897 9.4157 119.109 10.002 118.901 10.7071C118.725 11.3039 118.346 11.6554 118.19 11.7854C117.685 11.7141 117.587 11.8145 117.561 11.8663C117.463 12.0655 117.844 12.5259 118.28 12.7508C118.591 12.9112 118.916 12.9445 118.934 12.8974C118.962 12.8213 118.184 12.5472 118.224 12.3505C118.243 12.2535 118.396 12.2028 118.592 12.1214C119.206 11.867 119.544 10.7692 119.237 9.91271C119.179 9.75236 119.07 9.49738 118.825 9.23926Z" fill="#E07F4F"/>
<path d="M119.745 4.57333C119.723 4.55919 119.335 5.01523 119.524 5.84196C119.627 6.29315 120.041 6.72942 120.537 6.88531C122.028 7.35379 123.881 5.17086 124.268 5.54404C124.346 5.61917 124.322 5.75727 124.312 5.82376C124.217 6.44171 123.12 10.5744 124.668 10.5066C125.202 10.1958 126.167 9.53017 126.821 8.32018C127.117 7.77369 127.442 7.17119 127.346 6.45323C127.187 5.25738 125.968 4.56783 124.892 3.9593C123.975 3.44031 121.002 2.07665 119.642 3.06883C119.241 3.36138 119.036 3.80511 118.627 4.69257C118.208 5.59784 118.208 6.81241 118.263 6.67745C119.071 4.71129 119.781 4.59571 119.745 4.57333Z" fill="#643C3A"/>
<path d="M120.078 3.57711C120.025 3.56951 119.795 4.10815 119.871 4.68565C120.001 5.67011 120.958 6.29015 121.003 6.25023C121.045 6.21384 120.3 5.64838 120.114 4.61615C120.01 4.04034 120.127 3.58391 120.078 3.57711Z" fill="#855656"/>
<path d="M120.623 4.03398C120.553 4.05191 120.464 4.65952 120.775 5.16045C121.306 6.01441 122.74 6.14465 122.783 6.0864C122.821 6.03326 121.674 5.85485 121.055 4.9827C120.709 4.4963 120.687 4.01762 120.623 4.03398Z" fill="#855656"/>
<path d="M124.285 10.6924C124.699 10.3179 125.401 10.0235 125.661 10.2569C125.986 10.5485 125.618 11.6614 124.912 12.288C124.622 12.5456 124.004 12.9612 123.727 12.7655C123.381 12.5219 123.572 11.3373 124.285 10.6924Z" fill="#FFA471"/>
<path d="M125.408 10.6802C125.34 10.6144 125.216 10.6425 125.048 10.6807C124.837 10.7285 124.406 10.8839 124.392 11.1152C124.377 11.3572 124.832 11.4808 124.795 11.6432C124.749 11.8469 124.018 11.7186 123.863 12.0568C123.816 12.1593 123.823 12.3036 123.896 12.3634C124.074 12.5105 124.674 12.1636 125.039 11.7168C125.329 11.36 125.56 10.8284 125.408 10.6802Z" fill="#E07F4F"/>
<path d="M130.864 33.2509C129.908 32.4222 129.222 31.625 128.756 31.0189C126.243 27.7478 125.814 24.4176 125.562 22.4603C125.383 21.0681 125.643 20.2728 125.877 19.2426C126.074 18.3817 126.225 18.0495 126.445 17.6091C126.592 17.6489 126.74 17.6887 126.887 17.7286C127.098 17.7854 127.309 17.8428 127.519 17.8997C127.498 17.9355 127.476 17.9717 127.456 18.0074C126.443 19.7341 126.385 21.4395 126.444 22.4686C126.665 26.3276 128.484 29.2062 129.305 30.3419C129.777 30.9944 130.268 31.5625 130.753 32.055C130.792 32.4556 130.83 32.8544 130.864 33.2509Z" fill="#B53424"/>
<path d="M119.717 24.1622C120.494 24.1622 121.125 23.7951 121.125 23.3423C121.125 22.8894 120.494 22.5223 119.717 22.5223C118.939 22.5223 118.309 22.8894 118.309 23.3423C118.309 23.7951 118.939 24.1622 119.717 24.1622Z" fill="#FCE28B"/>
<path d="M120.303 24.0451C121.081 24.0451 121.712 23.7173 121.712 23.313C121.712 22.9087 121.081 22.5809 120.303 22.5809C119.526 22.5809 118.895 22.9087 118.895 23.313C118.895 23.7173 119.526 24.0451 120.303 24.0451Z" fill="#FDB455"/>
<path d="M107.453 70.9547L107.336 72.1846C107.336 72.1846 110.621 72.4774 110.621 72.1846C110.621 71.8918 108.274 71.1889 108.274 71.1889L108.157 70.8374L107.453 70.9547Z" fill="#2F3C48"/>
<path d="M91.4968 71.1305L91.259 72.3599C91.259 72.3599 94.5438 72.6609 94.5446 72.3681C94.5454 72.0753 92.2003 71.3665 92.2003 71.3665L92.2013 70.9565L91.4968 71.1305Z" fill="#2F3C48"/>
<path d="M132.599 33.6111C131.791 33.0857 126.985 29.1107 127.522 27.4761C127.545 27.4053 127.579 27.3467 127.623 27.3016C127.761 27.5875 127.961 27.9828 128.224 28.4378C128.504 28.9221 131.054 33.33 132.859 32.889C133.378 32.7619 133.663 32.2758 133.68 32.2447C133.981 31.7129 133.786 31.1091 133.619 30.6499C133.902 30.8918 134.093 31.0663 134.15 31.1319C135.997 33.2661 133.739 34.3532 132.599 33.6111Z" fill="#B53424"/>
<path d="M126.523 17.4855C126.277 17.9127 126.064 18.2186 125.819 19.0668C125.525 20.082 125.426 21.1221 125.525 22.5223C125.665 24.4909 125.902 27.84 128.224 31.249C128.823 32.1282 129.825 33.4001 131.392 34.646C131.392 34.3142 131.392 33.9822 131.392 33.6503C130.573 32.9093 129.646 31.9104 128.811 30.6047C128.056 29.4238 126.405 26.4464 126.405 22.5809C126.405 21.5285 126.405 19.5354 127.579 17.8369C127.227 17.7198 126.875 17.6026 126.523 17.4855Z" fill="#663F38"/>
<path d="M128.459 26.8564C128.447 26.8832 129.129 27.1689 129.867 27.5592C130.908 28.11 131.696 28.6755 132.214 29.082C131.455 27.3267 131.243 26.9042 131.216 26.9151C131.18 26.9297 131.563 27.7241 131.334 27.9106C131.182 28.0343 130.863 27.8075 130.219 27.5007C129.279 27.0531 128.471 26.8279 128.459 26.8564Z" fill="#B53424"/>
<path d="M109.821 35.4359C110.04 35.3779 110.13 35.0013 110.023 34.5948C109.915 34.1882 109.65 33.9057 109.431 33.9638C109.212 34.0218 109.121 34.3984 109.229 34.8049C109.336 35.2114 109.601 35.4939 109.821 35.4359Z" fill="#B53424"/>
<path d="M127.669 26.9502C127.994 26.6825 128.375 26.6071 128.519 26.7817C128.663 26.9563 128.517 27.3148 128.192 27.5825C127.867 27.8502 127.487 27.9256 127.343 27.751C127.198 27.5764 127.344 27.2178 127.669 26.9502Z" fill="#B53424"/>
<path d="M128.165 26.8565C128.165 26.8565 127.491 26.1947 127.492 25.9432C127.492 25.466 127.587 25.3171 127.607 24.8734C127.629 24.3833 127.632 23.9075 127.431 23.6782C127.205 23.4187 126.782 23.3228 126.432 23.4448C126.352 23.4728 126.282 23.51 126.223 23.5505C126.096 23.6366 126.128 23.8331 126.276 23.8802C126.385 23.9154 126.496 23.9579 126.605 23.99C126.759 24.035 126.841 24.2062 126.774 24.3508C126.716 24.473 126.625 24.5966 126.479 24.6532C126.398 24.6849 126.324 24.6864 126.28 24.6868C126 24.6894 125.716 24.5518 125.58 24.4856C124.654 24.0366 123.882 23.3633 123.727 23.5586C123.616 23.6984 123.63 23.8653 123.635 23.928C123.661 24.2329 124.085 24.3061 124.356 24.4449C124.49 24.5137 124.574 24.5417 124.64 24.5874C124.384 24.4289 124.156 24.3797 124.088 24.4593C124.003 24.558 124.171 24.8459 124.186 24.8721C124.25 24.9798 124.326 25.0546 124.384 25.1022C124.095 24.8315 124.016 24.8509 123.991 24.8671C123.896 24.9309 124.066 25.338 124.133 25.4907C124.206 25.5975 124.278 25.7043 124.35 25.8111C124.241 25.6427 124.106 25.4525 124.052 25.4757C124.009 25.4941 124.036 25.641 124.052 25.7296C124.084 25.9084 124.133 26.1803 124.323 26.3744C124.469 26.5231 124.645 26.5712 124.9 26.6229C125.892 26.8236 126.175 26.7548 126.859 27.0082C127.014 27.0654 127.52 27.4425 127.52 27.4425L128.165 26.8565Z" fill="#FFA471"/>
<path d="M126.405 23.108L126.464 24.1037L125.877 24.0451L126.405 23.108Z" fill="#663F38"/>
<path d="M118.338 9.87163C118.678 9.87163 118.954 9.81918 118.954 9.75448C118.954 9.68978 118.678 9.63733 118.338 9.63733C117.998 9.63733 117.722 9.68978 117.722 9.75448C117.722 9.81918 117.998 9.87163 118.338 9.87163Z" fill="#643C3A"/>
<path d="M121.764 10.2487C122.186 10.3225 122.538 10.3306 122.549 10.2669C122.56 10.2031 122.227 10.0917 121.804 10.0179C121.382 9.94419 121.031 9.93607 121.02 9.9998C121.009 10.0635 121.342 10.175 121.764 10.2487Z" fill="#643C3A"/>
<path d="M91.398 71.0718L92.1605 71.1087L92.4545 71.1231C92.4545 71.1231 94.2653 59.9349 95.1716 57.1178C96.4283 53.2113 98.2734 44.4254 99.1921 44.4271C100.11 44.4289 103.346 53.9651 103.492 55.2327C103.624 56.3815 102.68 56.644 103.052 59.5113C103.436 61.9112 107.354 71.1931 107.354 71.1931L108.234 70.866C108.234 70.866 106.146 57.2642 106.832 54.6824C106.485 52.3444 106.051 47.5323 105.494 43.0866C105.476 42.9433 105.457 42.8005 105.439 42.6576C105.433 42.6067 105.426 42.5565 105.42 42.5061C105.263 41.2889 105.096 40.1093 104.919 39.027C104.805 38.3308 104.687 37.6752 104.564 37.0762C104.562 37.0657 104.56 37.0551 104.557 37.0446C104.33 35.9392 104.086 35.0266 103.826 34.4076C103.826 34.4076 94.0777 33.3788 93.4328 36.3158C93.3739 36.5417 93.318 36.7699 93.2651 36.9999C93.2595 37.0257 93.2532 37.0514 93.2475 37.0774C93.1097 37.6845 92.992 38.3067 92.8914 38.9383C92.6451 40.4886 92.5044 42.0961 92.4293 43.6862C92.4236 43.7993 92.4185 43.9117 92.4141 44.0243C92.3964 44.4438 92.3836 44.8615 92.3747 45.2762C92.3679 45.5538 92.3633 45.8309 92.3599 46.1057C92.3088 50.4876 92.622 54.4266 92.4139 56.2437C92.3321 56.9606 90.9985 58.3193 90.7948 60.2406C90.4852 63.1583 91.398 71.0718 91.398 71.0718Z" fill="#54788F"/>
<path d="M92.3744 45.2761C94.1933 44.2702 96.9496 43.0615 100.47 42.6025C102.348 42.3576 104.028 42.3805 105.42 42.5062C105.263 41.289 105.096 40.1094 104.919 39.0271C104.805 38.3309 104.687 37.6752 104.564 37.0763C101.343 36.1252 95.7914 36.7459 92.8912 38.9382C92.6276 40.5981 92.4848 42.3241 92.4138 44.0243C92.3961 44.4437 92.3833 44.8615 92.3744 45.2761Z" fill="#47687C"/>
<path d="M96.2501 15.7123L96.5372 9.83557L100.283 10.0284L100.438 15.9061C100.438 15.9059 97.1322 16.8177 96.2501 15.7123Z" fill="#E07F4F"/>
<path d="M94.0374 37.0836C96.7235 37.194 104.346 34.8999 103.767 33.6656C101.006 27.77 107.011 16.5703 104.166 15.559C99.6519 13.9547 93.6919 15.3194 90.9173 18.4863C88.702 20.8962 94.9972 26.1084 94.0374 37.0836Z" fill="#F2E2BB"/>
<path d="M95.942 15.809L97.8301 17.3187L98.8119 15.0863L96.6378 14.9558L95.942 15.809Z" fill="#DBC28A"/>
<path d="M101.574 15.109L100.116 17.01L98.5764 14.9707L100.984 14.5856L101.574 15.109Z" fill="#DBC28A"/>
<path d="M105.581 38.7499C105.77 39.868 105.754 40.5322 105.151 40.6962C101.111 41.7926 94.8081 41.1601 92.4918 42.7168C91.6686 43.2691 92.9171 37.8462 92.6907 31.0612C92.6701 30.4409 92.6372 29.8089 92.5892 29.1694C92.2278 24.3603 89.4609 20.3051 90.3879 18.6587C91.1189 17.3609 96.0133 14.9425 96.0133 14.9425C97.9594 19.5735 100.825 24.6894 100.825 24.6894C100.825 24.6894 100.58 18.3336 100.837 14.6566C100.837 14.6566 104.062 14.7503 104.719 15.3501C106.224 16.7241 106.431 19.3275 105.66 23.8595C105.626 24.0645 105.589 24.273 105.55 24.4856C105.435 25.1187 105.302 25.787 105.152 26.4922C103.937 32.2242 105.193 36.4482 105.581 38.7499Z" fill="#455464"/>
<path d="M95.473 5.79048C95.473 5.79048 96.5368 11.9885 97.9081 12.8134C99.0354 13.4922 100.42 13.9664 101.605 14.0879C102.003 14.1287 102.369 13.8672 102.462 13.479C103.125 10.7239 104.607 9.64977 102.914 6.83096C102.865 6.32205 103.342 6.29286 103.198 5.8935C102.255 3.28648 100.542 1.48681 99.0041 1.66273C96.7871 1.91614 95.2813 3.6624 95.473 5.79048Z" fill="#FFA471"/>
<path d="M101.865 14.7155L101.294 26.2706L95.0275 15.4657L96.1116 14.8707L100.707 23.8107L100.804 14.6038L101.865 14.7155Z" fill="#293440"/>
<path d="M95.7306 15.2666L96.1769 14.541L98.8107 14.9105L97.7391 16.751L95.7306 15.2666Z" fill="#F2E2BB"/>
<path d="M101.15 14.6355L100.565 14.4375L98.8108 14.9106L100.114 16.6586L101.15 14.6355Z" fill="#F2E2BB"/>
<path d="M95.7819 26.5284L95.7881 27.4069L95.3728 26.7655L95.7819 26.5284Z" fill="#293644"/>
<path d="M97.0469 22.8297L97.0531 23.7081L96.6379 23.0668L97.0469 22.8297Z" fill="#293644"/>
<path d="M93.3406 21.3911L93.3466 22.2697L92.9315 21.6283L93.3406 21.3911Z" fill="#293644"/>
<path d="M96.604 35.0739L96.6102 35.9524L96.1951 35.3109L96.604 35.0739Z" fill="#293644"/>
<path d="M97.8692 31.3751L97.8752 32.2537L97.4601 31.6123L97.8692 31.3751Z" fill="#293644"/>
<path d="M94.1628 29.9366L94.1689 30.8151L93.7537 30.1737L94.1628 29.9366Z" fill="#293644"/>
<path d="M102.214 31.8722L102.221 32.7508L101.805 32.1094L102.214 31.8722Z" fill="#293644"/>
<path d="M103.479 28.1735L103.486 29.052L103.07 28.4106L103.479 28.1735Z" fill="#293644"/>
<path d="M105.66 23.8595C105.626 24.0645 105.589 24.273 105.55 24.4856L105.286 24.0768L105.66 23.8595Z" fill="#293644"/>
<path d="M99.7731 26.735L99.7793 27.6135L99.364 26.972L99.7731 26.735Z" fill="#293644"/>
<path d="M101.863 40.3672L101.869 41.2458L101.454 40.6044L101.863 40.3672Z" fill="#293644"/>
<path d="M104.07 37.1306L104.076 38.0092L103.661 37.3678L104.07 37.1306Z" fill="#293644"/>
<path d="M100.363 35.692L100.369 36.5704L99.9543 35.9291L100.363 35.692Z" fill="#293644"/>
<path d="M97.2201 39.2865L97.2263 40.1651L96.811 39.5237L97.2201 39.2865Z" fill="#293644"/>
<path d="M93.5137 37.848L93.5199 38.7266L93.1047 38.0852L93.5137 37.848Z" fill="#293644"/>
<path d="M102.688 24.0791L102.694 24.9577L102.279 24.3163L102.688 24.0791Z" fill="#293644"/>
<path d="M103.953 20.3805L103.959 21.2591L103.544 20.6177L103.953 20.3805Z" fill="#293644"/>
<path d="M102.109 16.7618L102.115 17.6404L101.7 16.999L102.109 16.7618Z" fill="#293644"/>
<path d="M95.0754 17.7478L95.0815 18.6264L94.6664 17.985L95.0754 17.7478Z" fill="#293644"/>
<path d="M91.398 71.0717L92.1605 71.1086C91.6882 68.0692 91.4033 65.4127 91.2262 63.2246C91.1035 61.7056 90.9951 59.948 91.8943 58.0658C92.056 57.7273 92.2304 57.4264 92.4028 57.1631C92.8139 56.5352 93.0089 55.7916 92.9625 55.043C92.9494 54.8322 92.9365 54.6068 92.9248 54.3688C92.7297 50.4589 92.6323 48.5033 93.2214 46.4013C93.6995 44.6953 94.3579 43.6927 93.9629 43.3505C93.6643 43.092 92.9686 43.3885 92.4293 43.6863C92.4236 43.7993 92.4185 43.9118 92.4141 44.0244C92.3964 44.4439 92.3836 44.8616 92.3747 45.2762C92.3679 45.5539 92.3633 45.831 92.3599 46.1057C92.3088 50.4877 92.622 54.4267 92.4139 56.2437C92.3321 56.9606 90.9985 58.3193 90.7948 60.2406C90.4852 63.1582 91.398 71.0717 91.398 71.0717Z" fill="#47687C"/>
<path d="M94.7484 5.82656C95.1062 7.39755 95.5157 8.78569 95.9138 9.96766C96.3014 9.73336 96.6892 9.49958 97.0768 9.26528C96.1527 6.08455 96.1426 5.15101 96.4004 5.03792C96.5109 4.98949 96.6142 5.11619 96.7771 5.05441C97.2897 4.85899 96.8391 3.377 97.405 3.03694C97.5312 2.96115 97.7078 2.94204 98.7922 3.36692C99.7785 3.75306 99.9952 3.91105 100.327 4.02624C100.48 4.07977 100.639 4.11747 100.799 4.14064C102.289 4.35832 103.93 3.36535 103.871 3.10553C103.851 3.01312 103.598 2.94335 102.69 2.99989C103.555 2.5847 103.964 2.27971 103.916 2.08507C103.856 1.83873 103.069 1.76857 101.553 1.87381C102.053 1.3662 102.25 0.980326 102.144 0.715789C101.866 0.0255832 99.7011 0.135536 98.162 0.541046C97.7665 0.645369 97.2456 0.782808 96.7157 0.992631C95.8092 1.3522 94.8762 1.92473 94.4997 2.90971C94.3368 3.33564 94.289 3.8083 94.7484 5.82656Z" fill="#5A3D31"/>
<path d="M96.1977 8.23188C95.8981 7.79797 95.3308 7.46419 95.0618 7.74456C94.7257 8.0947 94.8581 9.40038 95.3715 10.1259C95.5826 10.4242 96.0549 10.9026 96.3324 10.6665C96.6779 10.3727 96.7137 8.97903 96.1977 8.23188Z" fill="#FFA471"/>
<path d="M95.2121 8.23892C95.283 8.15999 95.3874 8.19088 95.5288 8.23264C95.7055 8.28486 96.0586 8.46 96.0313 8.73252C96.0026 9.01774 95.5812 9.1722 95.5858 9.36304C95.5914 9.60245 96.256 9.43713 96.3341 9.83321C96.3578 9.95324 96.3273 10.1234 96.253 10.1954C96.0704 10.3724 95.6021 9.97471 95.3588 9.45454C95.1642 9.03921 95.0528 8.41667 95.2121 8.23892Z" fill="#E07F4F"/>
<path d="M99.6411 6.4173C99.5024 6.53131 99.4023 6.52542 98.8769 6.61207C98.0511 6.7482 97.923 6.82451 97.7981 6.71286C97.6078 6.54296 97.6187 6.10983 97.8214 5.89438C97.9757 5.73023 98.153 5.78665 98.7086 5.72631C99.5219 5.63809 99.7675 5.44934 99.8966 5.59764C100.041 5.76361 99.907 6.19857 99.6411 6.4173Z" fill="#5A3D31"/>
<path d="M99.1189 6.60738C98.9059 6.62897 98.7462 6.83133 98.6536 6.94848C98.6243 6.98553 98.5382 7.09993 98.4548 7.36159C98.4036 7.52233 98.3474 7.75807 98.3436 8.05205C98.9592 7.99708 99.5747 7.94224 100.19 7.88726C100.149 7.73712 100.066 7.49863 99.8908 7.23711C99.7232 6.98671 99.4466 6.574 99.1189 6.60738Z" fill="#E07F4F"/>
<path d="M101.874 6.16967C101.748 6.21823 101.692 6.3308 101.6 6.51327C101.473 6.76681 101.454 6.98606 101.439 7.18528C101.429 7.31775 101.456 7.43319 101.483 7.65231C102.05 7.52403 102.585 7.46409 103.152 7.33581C102.992 7.05386 102.832 6.77179 102.671 6.48984C102.403 6.22164 102.085 6.08773 101.874 6.16967Z" fill="#E07F4F"/>
<path d="M102.215 6.79974C101.792 6.89163 101.49 7.15145 101.54 7.38004C101.589 7.60864 101.972 7.71947 102.395 7.62757C102.818 7.53568 103.12 7.27587 103.07 7.04727C103.021 6.81867 102.638 6.70784 102.215 6.79974Z" fill="white"/>
<path d="M102.306 6.81987C102.106 6.86342 101.984 7.08404 102.034 7.31264C102.083 7.54124 102.286 7.69125 102.486 7.6477C102.687 7.60415 102.809 7.38353 102.759 7.15493C102.709 6.92633 102.507 6.77632 102.306 6.81987Z" fill="#5A3D31"/>
<path d="M102.221 6.96579C102.168 6.97728 102.136 7.03543 102.149 7.09569C102.162 7.15595 102.215 7.19549 102.268 7.184C102.321 7.17252 102.353 7.11436 102.34 7.0541C102.327 6.99384 102.274 6.9543 102.221 6.96579Z" fill="white"/>
<path d="M99.1695 7.22181C98.6918 7.27316 98.327 7.52421 98.3548 7.78254C98.3826 8.04087 98.7923 8.20866 99.2701 8.15731C99.7478 8.10596 100.112 7.85491 100.085 7.59658C100.057 7.33825 99.6472 7.17045 99.1695 7.22181Z" fill="white"/>
<path d="M99.39 7.20548C99.1636 7.22982 99.0026 7.45896 99.0304 7.71729C99.0582 7.97563 99.2642 8.16532 99.4906 8.14099C99.717 8.11665 99.878 7.8875 99.8502 7.62917C99.8224 7.37084 99.6164 7.18115 99.39 7.20548Z" fill="#5A3D31"/>
<path d="M99.2772 7.35458C99.2174 7.36099 99.1749 7.42143 99.1823 7.48958C99.1896 7.55772 99.2439 7.60776 99.3037 7.60134C99.3634 7.59492 99.4059 7.53448 99.3986 7.46634C99.3913 7.3982 99.3369 7.34816 99.2772 7.35458Z" fill="white"/>
<path d="M103.22 6.93057C103.21 6.96434 102.887 6.81382 102.422 6.86578C101.786 6.93699 101.407 7.32941 101.378 7.28961C101.348 7.24904 101.692 6.77533 102.239 6.68122C102.762 6.59143 103.231 6.88908 103.22 6.93057Z" fill="#5A3D31"/>
<path d="M100.012 7.33974C100.002 7.3718 99.6967 7.21565 99.2483 7.24903C98.6343 7.29471 98.256 7.65846 98.2293 7.6192C98.202 7.57914 98.55 7.13607 99.0789 7.06512C99.5842 6.99745 100.025 7.30021 100.012 7.33974Z" fill="#5A3D31"/>
<path d="M101.633 6.18262L101.341 7.7273L102.411 9.93942L101.465 10.4665L100.8 7.69798L101.285 6.49205L101.633 6.18262Z" fill="#FFA471"/>
<path d="M100.178 11.0698C100.178 11.0698 101.09 12.4014 101.74 12.3224C102.391 12.2433 102.777 10.8073 102.777 10.8073L102.718 10.8133L100.178 11.0698Z" fill="#84381E"/>
<path d="M101.851 6.13823C102.003 6.21794 102.095 6.19281 102.604 6.17134C103.403 6.13744 103.538 6.18391 103.633 6.05511C103.778 5.8589 103.683 5.45574 103.451 5.2937C103.275 5.17013 103.12 5.25757 102.588 5.30967C101.809 5.38585 101.543 5.25718 101.451 5.42119C101.348 5.60457 101.559 5.98547 101.851 6.13823Z" fill="#5A3D31"/>
<path d="M100.178 11.0698C100.384 11.2941 102.476 11.1761 102.476 11.1761L102.718 10.8132L100.178 11.0698Z" fill="white"/>
<path d="M101.558 6.66357L101.515 7.63036L102.672 9.5549C102.869 9.86512 102.71 10.278 102.355 10.376L101.226 10.5238L101.973 10.2138C102.222 10.0577 102.314 9.73894 102.186 9.47414L101.244 7.67238L101.558 6.66357Z" fill="#E07F4F"/>
<path d="M101.804 1.07756C101.897 1.5192 101.104 1.98963 101.062 2.01372C102.608 1.84159 103.415 1.87693 103.483 2.12001C103.537 2.31229 103.128 2.6356 102.255 3.08862C102.847 3.1453 103.149 3.23064 103.16 3.34361C103.178 3.5317 102.391 3.79742 100.799 4.14088C102.289 4.35856 103.93 3.3656 103.871 3.10577C103.851 3.01336 103.598 2.94359 102.69 3.00014C103.555 2.58494 103.964 2.27996 103.916 2.08532C103.857 1.83898 103.069 1.76882 101.553 1.87406C102.053 1.36645 102.25 0.98057 102.144 0.716033C101.866 0.0258273 99.7012 0.13578 98.162 0.54129C97.7665 0.645613 97.2456 0.783052 96.7157 0.992875C97.9187 0.64522 99.7496 0.212222 101.018 0.559092C101.251 0.622183 101.738 0.761455 101.804 1.07756Z" fill="#7C544A"/>
<path d="M103.665 34.1536C103.77 34.1679 104.063 34.2665 104.238 34.344C104.329 34.3841 104.418 34.4326 104.505 34.4871C104.52 34.5048 104.538 34.5242 104.561 34.5467C105.399 35.3798 105.966 36.469 106.539 36.8782C106.914 37.245 107.005 36.8587 107.169 36.835C107.334 36.8113 107.445 36.8875 107.596 36.8493C107.851 36.7851 107.906 36.4311 108.111 36.3996C109.668 36.1621 109.233 35.4069 107.764 34.9954C107.764 34.9954 107.094 34.5386 107.174 34.1785C107.212 34.0069 107.544 34.6886 107.778 34.5692C107.852 34.5314 108.271 33.8049 107.266 33.4815C106.761 33.3188 106.466 33.2857 106.118 33.4138C105.726 33.5577 105.367 33.589 104.838 33.5801C104.38 33.5725 104.226 33.4833 103.897 33.417C103.819 33.7133 103.744 33.8575 103.665 34.1536Z" fill="#FFA471"/>
<path d="M104.993 35.054C105.499 34.6117 105.895 34.4683 105.983 34.6597C105.985 34.664 106.029 34.763 105.974 34.9193C105.822 35.354 105.041 35.8719 104.9 35.6182C104.886 35.5922 104.637 35.4445 104.993 35.054Z" fill="#FFA471"/>
<path d="M105.404 35.5855C105.994 34.9984 106.434 34.7815 106.506 35.0004C106.508 35.0052 106.542 35.1188 106.466 35.3119C106.254 35.8494 105.361 36.5584 105.24 36.2711C105.227 36.2418 104.979 36.0936 105.404 35.5855Z" fill="#FFA471"/>
<path d="M105.709 36.0884C106.215 35.6461 106.612 35.5028 106.7 35.6941C106.702 35.6984 106.745 35.7974 106.69 35.9537C106.539 36.3884 105.758 36.9063 105.617 36.6527C105.602 36.6266 105.353 36.4791 105.709 36.0884Z" fill="#FFA471"/>
<path d="M106.064 36.584C106.555 36.2994 106.891 36.2374 106.912 36.4002C106.912 36.4039 106.921 36.4878 106.842 36.6044C106.621 36.9287 105.903 37.2375 105.857 37.0185C105.852 36.9959 105.699 36.8469 106.064 36.584Z" fill="#FFA471"/>
<path d="M105.639 35.3651C105.634 35.3705 105.63 35.3757 105.625 35.3812C105.625 35.3812 105.625 35.3812 105.625 35.3816C105.594 35.4192 105.56 35.4562 105.524 35.4918C105.523 35.4922 105.523 35.4927 105.522 35.4931C105.477 35.5384 105.429 35.5807 105.379 35.6206C105.376 35.6232 105.372 35.6259 105.369 35.6285C105.38 35.6147 105.392 35.6001 105.404 35.5855C105.458 35.5316 105.511 35.481 105.563 35.4336C105.588 35.4096 105.613 35.3871 105.639 35.3651Z" fill="#F88B63"/>
<path d="M105.379 35.6205C105.428 35.5747 105.475 35.5322 105.522 35.493C105.477 35.5383 105.429 35.5806 105.379 35.6205Z" fill="#F88B63"/>
<path d="M106.04 35.9048C106.017 35.9277 105.994 35.9499 105.971 35.9716C105.988 35.9533 106.003 35.9356 106.018 35.917C106.026 35.9125 106.033 35.9087 106.04 35.9048Z" fill="#F88B63"/>
<path d="M106.342 36.4148C106.331 36.4285 106.319 36.442 106.307 36.4556C106.297 36.4603 106.286 36.4649 106.275 36.4705C106.298 36.4524 106.32 36.4343 106.342 36.4148Z" fill="#F88B63"/>
<path d="M105.974 34.9192C105.93 35.0476 105.83 35.1835 105.707 35.3047C105.707 35.3051 105.706 35.3056 105.706 35.306C105.68 35.3317 105.653 35.3567 105.625 35.3811C105.625 35.3811 105.625 35.3811 105.624 35.3815C105.605 35.3992 105.583 35.417 105.563 35.4336C105.588 35.4097 105.613 35.387 105.638 35.3652C105.707 35.2801 105.76 35.1915 105.79 35.1064C105.845 34.9502 105.802 34.851 105.8 34.8466C105.717 34.6682 105.367 34.781 104.91 35.1557C104.933 35.1238 104.961 35.0896 104.993 35.054C105.498 34.6117 105.895 34.4682 105.983 34.6595C105.986 34.6638 106.028 34.7631 105.974 34.9192Z" fill="#E07F4F"/>
<path d="M106.466 35.312C106.414 35.4464 106.317 35.5921 106.202 35.7297C106.151 35.7902 106.097 35.8491 106.04 35.9047C106.017 35.9275 105.994 35.9496 105.971 35.9712C105.987 35.953 106.003 35.9353 106.018 35.9169C106.058 35.8695 106.096 35.8205 106.13 35.772C106.195 35.6797 106.248 35.587 106.283 35.4992C106.359 35.3059 106.324 35.1924 106.322 35.1877C106.263 35.0081 105.957 35.1213 105.524 35.4919C105.523 35.4923 105.523 35.4928 105.522 35.4932C105.477 35.5385 105.429 35.5807 105.379 35.6207C105.374 35.6247 105.37 35.6284 105.366 35.6324C105.367 35.6315 105.368 35.63 105.369 35.6285C105.38 35.6148 105.392 35.6001 105.404 35.5856C105.458 35.5317 105.511 35.481 105.563 35.4336C105.588 35.4097 105.613 35.387 105.638 35.3652C105.661 35.3447 105.683 35.3248 105.706 35.3061C105.706 35.3057 105.706 35.3052 105.707 35.3048C106.141 34.9341 106.447 34.8209 106.506 35.0006C106.507 35.0053 106.542 35.1187 106.466 35.312Z" fill="#E07F4F"/>
<path d="M106.342 36.4149C106.416 36.3251 106.475 36.2307 106.507 36.1407C106.561 35.9845 106.518 35.8857 106.516 35.8815C106.461 35.7624 106.287 35.7726 106.04 35.9049C106.017 35.9277 105.994 35.9498 105.971 35.9714C105.988 35.9532 106.003 35.9355 106.018 35.9171C106.058 35.8697 106.096 35.8207 106.13 35.7722C106.155 35.7566 106.179 35.7429 106.202 35.73C106.46 35.5866 106.643 35.5718 106.7 35.6946C106.702 35.6989 106.745 35.7977 106.691 35.9537C106.636 36.1095 106.5 36.2769 106.342 36.4149Z" fill="#E07F4F"/>
<path d="M106.842 36.6045C106.797 36.6712 106.73 36.7367 106.653 36.7974C106.655 36.7956 106.657 36.7935 106.658 36.7914C106.737 36.6746 106.728 36.5906 106.728 36.5868C106.711 36.4484 106.466 36.4723 106.092 36.6572C106.169 36.5965 106.243 36.5274 106.307 36.4553C106.663 36.2843 106.895 36.2658 106.911 36.3999C106.912 36.4038 106.921 36.4878 106.842 36.6045Z" fill="#E07F4F"/>
<path d="M107.773 34.0138C107.071 33.6659 106.416 33.7971 106.101 33.8451C105.712 33.9045 105.448 34.0552 105.437 34.185C105.425 34.3104 105.947 34.3576 106.236 34.3809C107.139 34.4538 107.522 34.8417 108.116 35.3932C108.252 35.5196 108.454 35.5432 108.617 35.4534C108.893 35.3012 109.169 35.2397 109.639 35.1068C109.476 34.8491 109.534 34.4781 109.37 34.2204C109.315 34.2777 108.689 34.3466 108.239 34.2871C108.129 34.2725 107.848 34.0535 107.773 34.0138Z" fill="#FFA471"/>
<path d="M108.394 35.4371C108.42 35.4621 108.449 35.4836 108.479 35.5008C108.35 35.5231 108.215 35.4854 108.116 35.3932C107.521 34.8417 107.138 34.4539 106.236 34.3807C105.947 34.3573 105.425 34.3105 105.436 34.1849C105.448 34.0552 105.712 33.9044 106.101 33.8449C106.303 33.8144 106.642 33.7497 107.044 33.7977C106.779 33.7938 106.558 33.8295 106.411 33.8493C106.021 33.9008 105.754 34.0464 105.739 34.176C105.726 34.3007 106.246 34.3583 106.535 34.3878C107.436 34.479 107.811 34.874 108.394 35.4371Z" fill="#E07F4F"/>
<path d="M108.464 34.306C108.387 34.3027 108.311 34.2965 108.239 34.2871C108.129 34.2726 107.848 34.0535 107.773 34.0139C107.52 33.8888 107.273 33.8255 107.046 33.7981C107.35 33.8022 107.709 33.8586 108.079 34.0515C108.14 34.0851 108.335 34.2403 108.464 34.306Z" fill="#E07F4F"/>
<path opacity="0.31" d="M105.151 40.6961C101.111 41.7925 94.8081 41.16 92.4918 42.7167C91.6686 43.269 92.9172 37.8461 92.6907 31.0611C92.703 31.0453 92.7153 31.0301 92.7282 31.0148C93.9181 31.0687 103.027 31.5331 103.465 34.2361C103.504 34.4744 103.477 34.7457 103.348 35.056C99.6855 35.3588 96.9913 35.5503 95.3097 35.5831C95.058 35.5878 94.5229 35.5954 94.019 35.9346C92.9658 36.6439 92.7665 38.2333 92.9043 39.2729C92.9776 39.8258 93.0568 40.4225 93.5497 40.8542C94.2691 41.4844 95.4302 41.2015 95.9553 41.0885C101.04 39.9933 104.116 41.516 105.284 39.5657C105.395 39.3806 105.517 39.1177 105.581 38.7498C105.77 39.8679 105.754 40.5321 105.151 40.6961Z" fill="#455464"/>
<path d="M95.8308 28.6246C95.8138 28.778 95.7944 28.9245 95.7722 29.0627C95.761 29.133 95.7487 29.2016 95.7358 29.2672C95.4048 30.9486 92.4519 32.4029 91.9673 31.5261C91.9668 31.5256 91.9668 31.525 91.9668 31.5244C91.9597 31.5128 91.9538 31.501 91.9486 31.4887C91.4282 30.3091 89.7683 19.4395 90.5669 18.7858C91.062 18.3817 92.6737 17.8996 93.9458 18.497C94.7267 18.8637 95.3797 19.6362 95.5681 21.0829C95.5679 21.0827 96.1212 25.9363 95.8308 28.6246Z" fill="#526473"/>
<path d="M103.697 34.6501C103.697 34.6501 92.6519 32.6747 92.0247 31.6572C91.9994 31.6163 91.98 31.5723 91.9672 31.5261C91.9667 31.5256 91.9667 31.5249 91.9667 31.5244C91.7126 30.647 93.4985 28.8941 95.0856 28.6276C95.3426 28.5842 95.5937 28.5802 95.8307 28.6247C95.9686 28.6505 96.1012 28.6931 96.2274 28.7541C96.9038 29.0815 100.315 31.5315 102.746 32.5242C103.307 32.7532 103.816 32.9048 104.227 32.9348C104.245 33.911 103.697 34.6501 103.697 34.6501Z" fill="#526473"/>
<path opacity="0.31" d="M102.746 32.524C101.287 32.1157 99.6661 31.4955 98.0087 30.5462C97.1726 30.0676 96.4292 29.5628 95.7721 29.0626C95.7551 29.0498 95.7376 29.0363 95.7205 29.0233C95.5123 29.1282 95.1914 29.2605 94.7818 29.3161C94.3775 29.3713 93.8583 29.3548 93.843 29.2576C93.833 29.1926 94.0442 29.0655 95.075 28.7892C95.0785 28.7406 95.0821 28.6867 95.0856 28.6275C95.1589 27.5089 95.335 24.5581 95.3097 21.7024C95.305 21.1372 95.2856 20.2376 94.723 19.3597C94.493 19.0013 94.219 18.7183 93.9456 18.4969C94.7265 18.8636 95.3795 19.6361 95.5679 21.0828C95.5679 21.0828 96.1211 25.9363 95.8308 28.6246C95.9686 28.6504 96.1012 28.6931 96.2274 28.7541C96.9039 29.0813 100.315 31.5313 102.746 32.524Z" fill="#455464"/>
</svg>
