<svg width="350" height="255" viewBox="0 0 350 255" fill="none" xmlns="http://www.w3.org/2000/svg">
<path d="M340.213 103.458C340.213 114.388 332.911 123.626 322.9 126.608C320.687 127.274 318.345 127.626 315.916 127.626C309.58 127.626 303.807 125.21 299.482 121.254C298.242 122.386 296.88 123.397 295.424 124.257C293.745 125.253 291.928 126.049 290.018 126.615C287.813 127.274 285.47 127.626 283.049 127.626C269.628 127.626 258.751 116.803 258.751 103.458C258.751 96.5699 261.656 90.3631 266.305 85.9624C264.229 82.9379 263.011 79.2826 263.011 75.3406C263.011 67.256 268.129 60.3539 275.322 57.6734C275.495 48.8935 280.382 41.2532 287.568 37.1679C291.121 35.1539 295.23 34 299.605 34C313.025 34 323.909 44.8154 323.909 58.1607C323.909 58.2324 323.902 58.3041 323.902 58.3686C330.216 61.4362 334.569 67.8795 334.569 75.3406C334.569 78.9457 333.553 82.3071 331.787 85.174C336.948 89.6034 340.213 96.1542 340.213 103.458Z" fill="#A6E489"/>
<path d="M314.621 71.0559C314.339 70.7757 313.884 70.7757 313.602 71.0559L300.203 84.3798V45.9262C300.203 45.5306 299.88 45.2095 299.483 45.2095C299.085 45.2095 298.762 45.5306 298.762 45.9262V58.7656L294.734 54.7605C294.452 54.4803 293.997 54.4803 293.715 54.7605C293.433 55.0408 293.433 55.4937 293.715 55.774L298.762 60.7917V102.175L284.055 87.5506C283.773 87.2704 283.318 87.2704 283.036 87.5506C282.754 87.8308 282.754 88.2838 283.036 88.564L298.762 104.202V175.095C298.762 175.492 299.085 175.812 299.483 175.812C299.88 175.812 300.203 175.492 300.203 175.095V86.4067L314.621 72.0694C314.902 71.7891 314.902 71.3362 314.621 71.0559Z" fill="#6CD83A"/>
<path d="M268.516 97.75C268.239 97.75 267.97 97.7772 267.697 97.7909C267.452 97.7643 267.202 97.75 266.95 97.75H237.371C230.07 97.75 224.152 103.727 224.152 111.101V204.517H252.432H261.96H279.111V108.287C279.112 102.467 274.368 97.75 268.516 97.75Z" fill="#2E89E5"/>
<path d="M243.948 109.061H232.371C230.504 109.061 228.99 107.556 228.99 105.699C228.99 103.843 230.504 102.338 232.371 102.338H243.948C245.815 102.338 247.329 103.843 247.329 105.699C247.329 107.556 245.815 109.061 243.948 109.061Z" fill="#9CC7F3"/>
<path d="M252.432 204.518H279.111V108.287C279.111 102.468 274.367 97.751 268.516 97.751C259.633 97.751 252.432 104.912 252.432 113.745V204.518Z" fill="#005BC9"/>
<path d="M267.136 135.507C269.636 135.507 271.663 133.491 271.663 131.005V122.27C271.663 119.784 269.636 117.769 267.136 117.769C264.636 117.769 262.609 119.784 262.609 122.27V131.005C262.609 133.491 264.636 135.507 267.136 135.507Z" fill="#112356"/>
<path d="M245.978 116.685V131.484C245.978 133.552 244.291 135.222 242.219 135.222H231.768C229.689 135.222 228.009 133.551 228.009 131.484V116.685C228.009 114.624 229.689 112.947 231.768 112.947H242.219C244.292 112.947 245.978 114.624 245.978 116.685Z" fill="#5A5A60"/>
<path d="M245.978 116.685V131.484C245.978 133.552 244.291 135.222 242.22 135.222H234.099C232.027 135.222 230.34 133.551 230.34 131.484V116.685C230.34 114.624 232.027 112.947 234.099 112.947H242.22C244.292 112.947 245.978 114.624 245.978 116.685Z" fill="#B7B7B7"/>
<path d="M233.755 141.779C232.95 141.779 232.297 141.13 232.297 140.329C232.297 139.529 232.95 138.879 233.755 138.879C234.561 138.879 235.214 139.529 235.214 140.329C235.214 141.13 234.561 141.779 233.755 141.779Z" fill="#1D1D1B"/>
<path d="M240.143 141.779C239.337 141.779 238.685 141.13 238.685 140.329C238.685 139.529 239.338 138.879 240.143 138.879C240.948 138.879 241.601 139.529 241.601 140.329C241.601 141.13 240.948 141.779 240.143 141.779Z" fill="#1D1D1B"/>
<path d="M233.755 147.52C232.949 147.52 232.296 146.871 232.296 146.071C232.296 145.27 232.949 144.621 233.755 144.621C234.56 144.621 235.213 145.27 235.213 146.071C235.213 146.871 234.56 147.52 233.755 147.52Z" fill="#1D1D1B"/>
<path d="M240.144 147.52C239.338 147.52 238.686 146.871 238.686 146.071C238.686 145.27 239.339 144.621 240.144 144.621C240.949 144.621 241.602 145.27 241.602 146.071C241.602 146.871 240.949 147.52 240.144 147.52Z" fill="#1D1D1B"/>
<path d="M241.645 129.737H234.15C233.223 129.737 232.472 128.99 232.472 128.069V121.173C232.472 120.251 233.223 119.504 234.15 119.504H241.645C242.572 119.504 243.323 120.251 243.323 121.173V128.069C243.323 128.99 242.571 129.737 241.645 129.737Z" fill="white"/>
<path d="M259.168 197.953C258.521 197.953 257.997 197.432 257.997 196.788V180.06C257.997 179.417 258.521 178.895 259.168 178.895C259.815 178.895 260.339 179.417 260.339 180.06V196.788C260.339 197.432 259.815 197.953 259.168 197.953Z" fill="#112356"/>
<path d="M265.344 197.953C264.697 197.953 264.172 197.432 264.172 196.788V180.06C264.172 179.417 264.697 178.895 265.344 178.895C265.99 178.895 266.515 179.417 266.515 180.06V196.788C266.515 197.432 265.99 197.953 265.344 197.953Z" fill="#112356"/>
<path d="M271.518 197.953C270.871 197.953 270.347 197.432 270.347 196.788V180.06C270.347 179.417 270.871 178.895 271.518 178.895C272.165 178.895 272.69 179.417 272.69 180.06V196.788C272.69 197.432 272.165 197.953 271.518 197.953Z" fill="#112356"/>
<path d="M238.983 163.578L239.975 156.933C240.036 156.527 239.54 156.279 239.248 156.569L232.439 163.339C232.169 163.608 232.361 164.067 232.743 164.067H234.786C235.047 164.067 235.248 164.298 235.209 164.555L234.217 171.2C234.156 171.607 234.651 171.855 234.944 171.564L241.753 164.794C242.023 164.525 241.831 164.067 241.449 164.067H239.406C239.144 164.066 238.944 163.835 238.983 163.578Z" fill="#5DB3F9"/>
<path d="M223.568 171.358C216.122 169.777 208.043 165.753 199.387 159.301C198.663 158.762 198.506 157.683 199.034 156.891C199.563 156.1 200.576 155.893 201.301 156.434C217.028 168.158 230.52 171.464 241.407 166.268C260.831 156.993 265.933 123.513 265.982 123.176C266.121 122.224 266.951 121.549 267.836 121.666C268.722 121.784 269.325 122.649 269.187 123.599C269.134 123.962 267.845 132.591 263.985 142.566C258.807 155.946 251.428 165.235 242.646 169.428C236.863 172.188 230.489 172.828 223.568 171.358Z" fill="#EBB41C"/>
<path d="M90.4612 111.498C90.4612 122.428 83.1599 131.667 73.1484 134.648C70.9356 135.315 68.5931 135.666 66.1641 135.666C59.8286 135.666 54.0552 133.251 49.7306 129.294C48.4909 130.427 47.1286 131.437 45.6727 132.297C43.9933 133.294 42.177 134.089 40.2669 134.655C38.0614 135.315 35.7189 135.666 33.2971 135.666C19.8764 135.666 9 124.844 9 111.498C9 104.61 11.9047 98.4036 16.5537 94.003C14.4778 90.9784 13.2597 87.3231 13.2597 83.3811C13.2597 75.2965 18.3772 68.3944 25.5705 65.7139C25.7434 56.934 30.6303 49.2938 37.8163 45.2084C41.3697 43.1945 45.4781 42.0405 49.8531 42.0405C63.2739 42.0405 74.1575 52.8559 74.1575 66.2013C74.1575 66.2729 74.1502 66.3446 74.1502 66.4091C80.4642 69.4767 84.8176 75.92 84.8176 83.3811C84.8176 86.9862 83.8013 90.3477 82.0355 93.2146C87.1962 97.6439 90.4612 104.195 90.4612 111.498Z" fill="#A6E489"/>
<path d="M64.8694 79.0979C64.5876 78.8177 64.132 78.8177 63.8502 79.0979L50.4519 92.4218V53.9682C50.4519 53.5726 50.129 53.2515 49.7311 53.2515C49.3332 53.2515 49.0103 53.5726 49.0103 53.9682V66.8076L44.9827 62.8025C44.7009 62.5223 44.2453 62.5223 43.9635 62.8025C43.6817 63.0827 43.6817 63.5357 43.9635 63.816L49.0103 68.8337V110.217L34.3038 95.5926C34.022 95.3124 33.5664 95.3124 33.2846 95.5926C33.0028 95.8728 33.0028 96.3258 33.2846 96.606L49.0103 112.244V183.137C49.0103 183.534 49.3332 183.854 49.7311 183.854C50.129 183.854 50.4519 183.534 50.4519 183.137V94.4487L64.8694 80.1114C65.1505 79.8311 65.1505 79.3782 64.8694 79.0979Z" fill="#6CD83A"/>
<g clip-path="url(#clip0_860_9306)">
<path d="M207.496 190.796H97.0732V166.053H202.884L209.266 175.377V187.564L207.496 190.796Z" fill="black"/>
<path d="M123.286 201.443C128.588 201.447 132.891 194.524 132.898 185.979C132.904 177.435 128.612 170.505 123.31 170.5C118.008 170.496 113.705 177.42 113.699 185.964C113.692 194.509 117.985 201.439 123.286 201.443Z" fill="#031C30"/>
<path d="M131.385 196.889H123.287V201.446H131.385V196.889Z" fill="#031C30"/>
<path d="M131.405 170.504H123.308V175.06H131.405V170.504Z" fill="#031C30"/>
<path d="M131.384 201.449C136.686 201.453 140.989 194.53 140.995 185.985C141.002 177.44 136.709 170.51 131.408 170.506C126.106 170.502 121.803 177.426 121.796 185.97C121.79 194.515 126.082 201.445 131.384 201.449Z" fill="#051423"/>
<path d="M131.389 195.302C134.593 195.305 137.194 191.12 137.198 185.955C137.202 180.791 134.608 176.602 131.403 176.6C128.198 176.597 125.597 180.782 125.593 185.947C125.589 191.111 128.184 195.3 131.389 195.302Z" fill="#FFD00B"/>
<path d="M130.545 176.701C127.746 177.368 125.597 181.252 125.593 185.947C125.589 190.642 127.733 194.53 130.531 195.2C133.329 194.534 135.479 190.65 135.482 185.955C135.486 181.259 133.342 177.372 130.545 176.701Z" fill="#D8D8D8"/>
<path d="M130.83 182.681C129.841 182.916 129.081 184.29 129.079 185.95C129.078 187.61 129.836 188.984 130.825 189.222C131.814 188.986 132.574 187.612 132.575 185.952C132.577 184.292 131.819 182.918 130.83 182.681Z" fill="#051423"/>
<path d="M134.063 163.086L133.916 149.416H101.416V164.41H108.066V185.975C110.959 185.916 116.734 186.267 116.734 186.001C116.734 175.833 121.849 167.59 128.159 167.59H138.528V163.086H134.063Z" fill="#FFCE00"/>
<path d="M173.28 145.39H122.01V149.416H173.28V145.39Z" fill="#031C30"/>
<path d="M172.105 149.427H195.376C192.391 139.607 184.865 124.743 168.526 123.878H151.185C151.185 137.988 160.551 149.427 172.105 149.427Z" fill="#051423"/>
<path d="M162.788 123.878H114.704C99.1744 123.878 84.625 131.55 76.1379 144.399C75.0703 146.016 74.1104 147.694 73.269 149.427H125.819C139.366 149.427 145.246 143.835 147.736 135.509C151.201 143.772 158.243 149.427 166.367 149.427H189.638H190.978C188.029 138.28 177.303 123.878 162.788 123.878Z" fill="#031C30"/>
<path d="M182.987 147.774C182.987 147.774 175.693 128.753 165.772 128.753H102.113C98.3955 128.753 94.7618 129.873 91.7229 131.988C85.6634 136.205 80.7325 141.529 77.5264 147.573L182.987 147.774Z" fill="#8ABF4D"/>
<path d="M190.442 145.072H152.794L150.661 136.387C149.945 133.47 152.182 130.66 155.22 130.66H180.885L190.442 145.072Z" fill="#B5FF4D"/>
<path d="M157.713 171.776H146.978C144.209 171.776 142.174 169.208 142.837 166.552L149.151 141.283C149.621 139.401 151.331 138.079 153.292 138.079H164.027C166.796 138.079 168.831 140.646 168.168 143.302L161.854 168.572C161.383 170.453 159.675 171.776 157.713 171.776Z" fill="#73A632"/>
<path d="M132.829 171.776H122.095C119.325 171.776 117.29 169.208 117.953 166.552L124.268 141.283C124.738 139.401 126.447 138.079 128.409 138.079H139.143C141.913 138.079 143.948 140.646 143.284 143.302L136.97 168.572C136.499 170.453 134.791 171.776 132.829 171.776Z" fill="#73A632"/>
<path d="M85.4353 147.774L85.9724 140.153C92.4608 132.409 97.112 130.591 108.31 127.546C107.749 126.422 102.174 124.628 101.004 125.112C88.8871 130.124 81.5191 135.951 76.103 147.774C76.104 147.774 85.7825 148.13 85.4353 147.774Z" fill="#73A632"/>
<g opacity="0.25">
<path opacity="0.25" d="M181.354 120.531L173.826 115.994L144.139 164.071L151.667 168.608L181.354 120.531Z" fill="white"/>
</g>
<path d="M134.391 150.367C133.783 150.367 133.167 150.35 132.541 150.315L132.702 147.504C140.162 147.919 145.958 145.701 152.702 139.84L154.584 141.955C147.871 147.788 141.733 150.367 134.391 150.367Z" fill="white"/>
<path d="M137.349 148.622H87.4199C87.4199 146.868 88.8593 145.446 90.6346 145.446H137.349V148.622H137.349Z" fill="#73A632"/>
<g opacity="0.25">
<path opacity="0.25" d="M111.577 120.529L104.049 115.992L74.3617 164.069L81.8899 168.606L111.577 120.529Z" fill="white"/>
</g>
<g opacity="0.25">
<path opacity="0.25" d="M129.639 121.152L122.111 116.615L92.4242 164.692L99.9524 169.229L129.639 121.152Z" fill="white"/>
</g>
<path d="M187.803 201.443C193.105 201.447 197.408 194.524 197.414 185.979C197.421 177.435 193.128 170.505 187.827 170.5C182.525 170.496 178.222 177.42 178.215 185.964C178.209 194.509 182.501 201.439 187.803 201.443Z" fill="#031C30"/>
<path d="M195.902 196.889H187.804V201.446H195.902V196.889Z" fill="#031C30"/>
<path d="M195.922 170.504H187.824V175.06H195.922V170.504Z" fill="#031C30"/>
<path d="M195.9 201.449C201.202 201.453 205.505 194.53 205.512 185.985C205.519 177.44 201.226 170.51 195.924 170.506C190.623 170.502 186.319 177.426 186.313 185.97C186.306 194.515 190.599 201.445 195.9 201.449Z" fill="#051423"/>
<path d="M195.905 195.302C199.11 195.305 201.711 191.12 201.715 185.955C201.719 180.791 199.124 176.602 195.92 176.6C192.715 176.597 190.114 180.782 190.11 185.947C190.106 191.111 192.701 195.3 195.905 195.302Z" fill="#FFD00B"/>
<path d="M195.062 176.701C192.264 177.368 190.114 181.252 190.11 185.947C190.106 190.642 192.25 194.53 195.047 195.2C197.845 194.534 199.995 190.65 199.999 185.955C200.002 181.259 197.859 177.372 195.062 176.701Z" fill="#D8D8D8"/>
<path d="M195.346 182.681C194.357 182.916 193.597 184.29 193.596 185.95C193.594 187.61 194.352 188.984 195.341 189.222C196.33 188.986 197.091 187.612 197.092 185.952C197.093 184.292 196.336 182.918 195.346 182.681Z" fill="#051423"/>
<path d="M179.982 190.796C181.71 190.796 183.035 189.301 182.831 187.605C182.722 186.704 182.666 185.779 182.666 184.835C182.666 175.311 187.17 167.589 195.483 167.589C203.474 167.589 208.301 175.31 208.301 184.835C208.301 186.931 208.022 188.938 207.513 190.796C207.513 190.796 211.572 190.849 212.216 185.445C212.216 185.445 214.897 172.782 204.601 165.998C204.584 156.838 199.989 149.417 195.377 149.417H133.917L134.246 164.842L142.186 171.1L157.93 190.797H179.982V190.796Z" fill="#FFCE00"/>
<path d="M120.682 149.734H125.329L125.336 149.417H71.6318C62.5854 149.417 54.1021 156.852 54.1021 166.025V168.279H100.314C100.774 157.968 110.416 149.734 120.682 149.734Z" fill="#FFDA40"/>
<path d="M153.158 201.443C158.46 201.447 162.763 194.524 162.769 185.979C162.776 177.435 158.483 170.505 153.182 170.5C147.88 170.496 143.577 177.42 143.57 185.964C143.564 194.509 147.856 201.439 153.158 201.443Z" fill="#031C30"/>
<path d="M161.257 196.889H153.159V201.446H161.257V196.889Z" fill="#031C30"/>
<path d="M161.277 170.504H153.179V175.06H161.277V170.504Z" fill="#031C30"/>
<path d="M161.255 201.449C166.557 201.453 170.86 194.53 170.867 185.985C170.874 177.44 166.581 170.51 161.279 170.506C155.978 170.502 151.674 177.426 151.668 185.97C151.661 194.515 155.954 201.445 161.255 201.449Z" fill="#051423"/>
<path d="M161.26 195.302C164.465 195.305 167.066 191.12 167.07 185.955C167.074 180.791 164.479 176.602 161.275 176.6C158.07 176.597 155.469 180.782 155.465 185.947C155.461 191.111 158.056 195.3 161.26 195.302Z" fill="black"/>
<path d="M160.417 176.701C157.618 177.368 155.469 181.252 155.465 185.947C155.461 190.642 157.605 194.53 160.402 195.2C163.2 194.534 165.35 190.65 165.354 185.955C165.357 181.259 163.214 177.372 160.417 176.701Z" fill="#9EA097"/>
<path d="M160.701 182.681C159.712 182.916 158.952 184.29 158.951 185.95C158.949 187.61 159.707 188.984 160.697 189.222C161.686 188.986 162.446 187.612 162.447 185.952C162.449 184.292 161.691 182.918 160.701 182.681Z" fill="#051423"/>
<path d="M179.704 147.975C179.704 147.975 157.193 170.496 151.133 184.28H144.213V190.797H162.769C162.769 190.797 164.885 190.75 165.943 190.774C169.583 190.858 173.54 190.83 176.417 188.326C178.433 186.572 179.58 183.869 180.596 181.243C184.5 171.146 187.532 160.624 189.638 149.874C189.865 148.717 189.231 147.897 189.231 147.897L179.704 147.975Z" fill="#031C30"/>
<path d="M63.8217 201.449C68.9878 201.449 73.1757 194.523 73.1757 185.978C73.1757 177.434 68.9878 170.507 63.8217 170.507C58.6557 170.507 54.4678 177.434 54.4678 185.978C54.4678 194.523 58.6557 201.449 63.8217 201.449Z" fill="#031C30"/>
<path d="M71.7123 196.893H63.8218V201.449H71.7123V196.893Z" fill="#031C30"/>
<path d="M71.7123 170.507H63.8218V175.063H71.7123V170.507Z" fill="#031C30"/>
<path d="M71.7124 201.449C76.8784 201.449 81.0663 194.523 81.0663 185.978C81.0663 177.434 76.8784 170.507 71.7124 170.507C66.5463 170.507 62.3584 177.434 62.3584 185.978C62.3584 194.523 66.5463 201.449 71.7124 201.449Z" fill="#051423"/>
<path d="M71.7122 195.303C74.8349 195.303 77.3664 191.116 77.3664 185.951C77.3664 180.787 74.8349 176.6 71.7122 176.6C68.5896 176.6 66.0581 180.787 66.0581 185.951C66.0581 191.116 68.5896 195.303 71.7122 195.303Z" fill="black"/>
<path d="M70.8761 176.702C68.1499 177.37 66.0581 181.256 66.0581 185.951C66.0581 190.646 68.1499 194.533 70.8761 195.201C73.6023 194.533 75.6941 190.646 75.6941 185.951C75.6941 181.257 73.6023 177.37 70.8761 176.702Z" fill="#9EA097"/>
<path d="M71.1585 182.681C70.1949 182.917 69.4551 184.292 69.4551 185.951C69.4551 187.611 70.1949 188.985 71.1585 189.222C72.1222 188.985 72.862 187.611 72.862 185.951C72.862 184.291 72.1222 182.917 71.1585 182.681Z" fill="#051423"/>
<g opacity="0.5">
<g opacity="0.5">
<path opacity="0.5" d="M101.969 165.453H64.0308C63.5745 165.453 63.2041 165.087 63.2041 164.636C63.2041 164.185 63.5745 163.819 64.0308 163.819H101.969C102.425 163.819 102.795 164.185 102.795 164.636C102.795 165.087 102.425 165.453 101.969 165.453Z" fill="white"/>
</g>
</g>
<path d="M108.549 165.464H99.7007C99.7007 159.64 104.479 154.919 110.374 154.919H119.222C119.222 160.743 114.443 165.464 108.549 165.464Z" fill="white"/>
<path d="M108.957 163.08H104.073C104.073 159.864 106.711 157.258 109.965 157.258H114.85C114.85 160.473 112.212 163.08 108.957 163.08Z" fill="#D8D8D8"/>
<path d="M108.344 171.473V165.47H54.1022V171.852C51.3491 173.667 49.5034 177.002 49.5034 180.816V181.914C49.5034 187.668 53.703 192.332 58.8834 192.332H104.19C109.37 192.332 113.57 192.364 113.57 186.61V180.816C113.57 176.719 111.441 173.175 108.344 171.473Z" fill="#FFDA40"/>
<path d="M93.9414 175.167H69.8633C66.2381 175.167 63.2988 172.263 63.2988 168.681V168.597H100.505V168.681C100.505 172.263 97.5666 175.167 93.9414 175.167Z" fill="#031C30"/>
<path d="M104.85 185.975C104.564 184.144 102.963 182.743 101.03 182.743H62.0947C60.1621 182.743 58.5612 184.144 58.2754 185.975H49.5034C49.5242 185.975 49.4241 192.438 53.8518 192.438H110.477C114.905 192.438 116.914 190.107 116.914 185.975H104.85Z" fill="#031C30"/>
<path d="M202.062 157.47H199.844C198.857 157.47 198.057 156.679 198.057 155.704V154.626C198.057 153.65 198.857 152.86 199.844 152.86H202.062C203.049 152.86 203.849 153.651 203.849 154.626V155.704C203.849 156.679 203.049 157.47 202.062 157.47Z" fill="#CD4D4C"/>
<path d="M203.992 163.881H201.775C200.788 163.881 199.987 163.09 199.987 162.115V161.037C199.987 160.061 200.788 159.271 201.775 159.271H203.992C204.98 159.271 205.779 160.061 205.779 161.037V162.115C205.78 163.09 204.98 163.881 203.992 163.881Z" fill="#CD4D4C"/>
<path d="M125.335 149.428L128.212 167.577L130.537 167.601C138.153 167.601 143.589 174.648 143.589 186.702C143.589 186.968 143.586 187.233 143.579 187.497C148.977 187.606 153.249 187.344 158.649 187.454C162.288 187.527 166.246 187.503 169.123 185.298C171.139 183.753 172.286 181.372 173.302 179.059C177.627 169.209 181.037 159.908 183.149 149.375L125.335 149.428Z" fill="#FFDA40"/>
<path d="M171.779 149.22V150.427C171.779 155.554 175.5 159.83 180.443 160.81C181.596 157.087 182.584 153.27 183.405 149.219H171.779V149.22Z" fill="#031C30"/>
<path d="M172.216 148.083L165.941 126.942L163.677 127.598L169.952 148.739L172.216 148.083Z" fill="#031C30"/>
<path d="M126.31 149.097L124.039 148.464C124.109 148.219 125.797 142.383 129.052 137.199C132.923 131.034 137.544 126.894 137.74 126.721L139.318 128.454C139.273 128.494 134.743 132.557 131.058 138.428C127.977 143.335 126.326 149.04 126.31 149.097Z" fill="#031C30"/>
<path d="M129.412 145.367V148.881L138.6 148.416C140.243 148.333 141.532 146.992 141.532 145.367H129.412Z" fill="#031C30"/>
<path d="M141.531 145.331C141.512 143.721 140.23 142.4 138.6 142.317L131.621 141.964C130.42 141.904 129.412 142.85 129.412 144.038V145.33H141.531V145.331Z" fill="#FFCE00"/>
<g opacity="0.5">
<path opacity="0.5" d="M177.758 155.827C176.47 155.827 175.425 154.795 175.425 153.523V153.284H180.091V153.523C180.091 154.795 179.047 155.827 177.758 155.827Z" fill="black"/>
</g>
<path d="M179.93 154.45H175.64C175.107 154.45 174.675 154.023 174.675 153.496C174.675 152.969 175.107 152.542 175.64 152.542H179.93C180.464 152.542 180.896 152.97 180.896 153.496C180.896 154.023 180.464 154.45 179.93 154.45Z" fill="#051423"/>
<g opacity="0.5">
<path opacity="0.5" d="M170.679 164.41H125.899C124.462 164.41 123.298 163.26 123.298 161.841C123.298 160.421 124.462 159.271 125.899 159.271H170.679C172.116 159.271 173.28 160.421 173.28 161.841C173.28 163.26 172.116 164.41 170.679 164.41Z" fill="white"/>
</g>
</g>
<path d="M150.894 210.271V218.792H169.617C169.617 218.792 169.617 212.61 160.255 212.61V210.271H150.894Z" fill="#112356"/>
<path d="M133.831 208.934L131.142 214.53C131.142 214.53 125.304 217.705 125.304 220.336H142.804V210.27L133.831 208.934Z" fill="#112356"/>
<path d="M130.486 184.098C131.214 176.248 136.011 150.731 136.011 150.731H159.353C162.554 171.616 164.367 193.586 161.551 214.531L148.983 213.228L146.682 167.929L146.074 167.912L144.235 185.232L143.037 214.636L128.799 213.657C128.799 213.657 129.758 191.947 130.486 184.098Z" fill="#BF7006"/>
<path d="M159.353 150.731H150.985C150.973 150.91 150.958 151.088 150.958 151.269C150.958 155.956 154.778 159.756 159.492 159.756C159.874 159.756 160.248 159.722 160.617 159.673C160.228 156.675 159.806 153.692 159.353 150.731Z" fill="#B05300"/>
<path d="M134.437 159.323C134.685 159.358 134.937 159.382 135.196 159.382C138.162 159.382 140.567 156.991 140.567 154.042C140.567 152.791 140.131 151.642 139.405 150.731H136.011C136.011 150.731 135.327 154.371 134.437 159.323Z" fill="#B05300"/>
<path d="M149.392 167.449C149.235 164.103 149.078 160.757 148.92 157.411C148.899 156.952 148.178 156.95 148.199 157.411C148.298 159.511 148.397 161.611 148.496 163.712H145.793C145.33 163.712 145.329 164.429 145.793 164.429H148.529C148.576 165.42 148.622 166.411 148.669 167.402C147.881 167.589 146.679 167.88 146.681 167.928L148.983 213.228L152.992 213.643C153.037 211.37 153.109 206.568 153.168 197.175C153.256 183.248 149.849 169.264 149.392 167.449Z" fill="#B05300"/>
<path d="M164.452 126.276C164.435 126.226 164.418 126.177 164.401 126.128C163.424 123.278 162.397 120.29 160.467 117.919C158.399 115.377 155.17 114.559 152.031 114.172C148.392 113.724 144.696 113.751 141.065 114.25C137.226 114.779 134.358 115.992 132.31 119.376C130.576 122.243 129.068 125.282 128.052 128.477C126.737 132.613 124.037 139.963 128.399 143.295C129.055 143.796 130.407 144.292 132.539 144.394C132.966 145.569 134.362 147.168 134.362 147.168L134.81 151.053C134.892 151.761 135.417 152.29 136.038 152.29H154.865C155.653 153.166 156.913 153.715 158.064 153.963C158.794 154.12 159.517 153.688 159.761 152.986C160.001 152.296 160.542 150.916 160.542 150.915C160.761 150.36 161.898 150.058 162.364 149.772C163.181 149.27 163.805 148.64 164.369 147.854C166.42 144.999 166.376 141.325 166.342 137.956C166.302 133.999 165.72 130.032 164.452 126.276Z" fill="#5DADC8"/>
<path d="M156.158 116.614C150.384 114.797 144.294 114.762 138.499 116.509C138.056 116.642 138.245 117.335 138.69 117.2C144.371 115.487 150.308 115.523 155.967 117.304C156.41 117.444 156.599 116.752 156.158 116.614Z" fill="#2591B5"/>
<path d="M138.713 147.662C138.671 147.376 138.634 147.085 138.36 146.915C138.01 146.698 137.394 146.806 137.013 146.804C136.242 146.801 135.47 146.798 134.699 146.795C134.235 146.793 134.235 147.51 134.699 147.512C135.027 147.513 135.363 147.503 135.701 147.493L135.742 149.658C135.75 150.119 136.471 150.12 136.462 149.658C136.449 148.932 136.435 148.206 136.421 147.479C136.816 147.475 137.21 147.48 137.592 147.523C137.794 147.545 137.869 147.483 137.993 147.661C138.061 147.759 138.032 148.191 138.042 148.331L138.151 149.806C138.185 150.264 138.906 150.267 138.872 149.806C138.819 149.098 138.816 148.365 138.713 147.662Z" fill="#2591B5"/>
<path d="M144.282 138.071L146.936 135.983C146.536 132.756 143.327 130.668 143.327 130.668L140.966 131.691C138.896 130.836 136.264 132.946 136.264 132.946C136.264 132.946 138.357 129.129 138.357 123.071C138.357 120.172 136.959 117.148 135.942 115.785C134.522 116.576 133.316 117.712 132.31 119.375C130.576 122.242 129.068 125.281 128.052 128.477C126.737 132.612 124.037 139.962 128.399 143.294C129.055 143.795 130.407 144.291 132.539 144.394C144.659 143.123 144.282 138.071 144.282 138.071Z" fill="#B3EFFF"/>
<path d="M136.196 117.832C135.981 117.423 135.359 117.785 135.574 118.194C137.801 122.432 137.434 127.507 134.67 131.409C134.403 131.787 135.027 132.145 135.292 131.771C138.208 127.654 138.538 122.287 136.196 117.832Z" fill="#5DADC8"/>
<path d="M164.37 147.852C166.42 144.997 166.376 141.323 166.342 137.954C166.301 133.998 165.72 130.031 164.451 126.275C164.435 126.226 164.418 126.176 164.401 126.127C163.423 123.277 162.396 120.29 160.467 117.918C160.169 117.552 159.842 117.231 159.499 116.933C153.681 121.768 158.393 133.692 158.078 135.58C157.75 137.551 154.398 140.918 154.018 143.385C153.638 145.852 154.674 147.181 154.674 147.181C153.041 149.174 153.394 150.709 153.394 150.709C153.823 151.358 154.866 152.288 154.866 152.288C155.653 153.164 156.914 153.713 158.065 153.961C158.795 154.118 159.518 153.686 159.762 152.985C160.002 152.294 160.543 150.914 160.543 150.913C160.762 150.358 161.899 150.056 162.365 149.77C163.18 149.268 163.805 148.638 164.37 147.852Z" fill="#B3EFFF"/>
<path d="M159.044 118.751C156.17 122.226 157.39 127.913 158.183 131.95C158.271 132.403 158.966 132.211 158.877 131.76C158.156 128.083 156.918 122.444 159.554 119.258C159.845 118.905 159.339 118.394 159.044 118.751Z" fill="#5DADC8"/>
<path d="M157.352 148.457C157.344 148.45 157.34 148.442 157.332 148.435C156.729 148.006 156.127 147.577 155.525 147.147C155.147 146.878 154.787 147.499 155.161 147.766C155.328 147.885 155.495 148.004 155.662 148.123C155.422 148.592 155.183 149.061 154.943 149.53C154.733 149.94 155.355 150.304 155.565 149.892C155.794 149.443 156.024 148.994 156.254 148.545C156.425 148.668 156.597 148.789 156.768 148.912C156.471 149.485 156.172 150.059 155.874 150.633C155.662 151.042 156.284 151.405 156.497 150.995C156.849 150.317 157.201 149.641 157.552 148.964C157.668 148.739 157.532 148.534 157.352 148.457Z" fill="#5DADC8"/>
<path d="M145.188 134.997C144.721 135.199 144.253 135.401 143.786 135.602C143.771 135.609 143.763 135.619 143.75 135.627C143.636 135.351 143.521 135.076 143.407 134.8C143.974 134.555 144.542 134.309 145.109 134.064C145.534 133.881 145.167 133.263 144.745 133.445C144.207 133.677 143.67 133.909 143.133 134.142C143.084 134.024 143.035 133.906 142.986 133.787C142.811 133.367 142.114 133.552 142.291 133.978L143.882 137.81C144.057 138.23 144.754 138.045 144.577 137.619C144.388 137.163 144.199 136.707 144.009 136.251C144.055 136.249 144.101 136.242 144.15 136.221C144.617 136.02 145.084 135.818 145.552 135.616C145.976 135.433 145.609 134.815 145.188 134.997Z" fill="#5DADC8"/>
<path d="M158.066 153.962C158.154 153.992 157.791 155.081 157.752 155.167C156.871 157.191 155.889 157.881 155.889 157.881C152.196 156.714 151.13 153.36 151.13 153.36C151.13 153.36 151.867 151.989 152.362 151.58C152.448 151.509 153.436 150.762 153.395 150.708C154.728 152.388 155.884 153.271 158.066 153.962Z" fill="#EDBF88"/>
<path d="M157.884 154.763C157.993 154.419 158.12 153.981 158.065 153.962C155.883 153.271 154.727 152.388 153.394 150.708C153.394 150.709 154.169 153.631 157.884 154.763Z" fill="#E39B60"/>
<path d="M150.845 134.328H147.179C146.603 134.328 146.136 133.864 146.136 133.29V125.482C146.136 124.909 146.603 124.444 147.179 124.444H150.845C151.421 124.444 151.888 124.909 151.888 125.482V133.29C151.888 133.863 151.421 134.328 150.845 134.328Z" fill="#112356"/>
<path d="M147.53 126.497C147.831 126.497 148.075 126.254 148.075 125.955C148.075 125.655 147.831 125.412 147.53 125.412C147.228 125.412 146.984 125.655 146.984 125.955C146.984 126.254 147.228 126.497 147.53 126.497Z" fill="#C7E5FD"/>
<path d="M144.19 131.222C144.407 130.19 144.844 129.204 145.462 128.347C145.684 128.039 146.029 127.835 146.41 127.82C148.079 127.754 149.763 127.861 151.412 128.133C151.865 128.208 152.231 128.553 152.355 128.992C153.828 134.225 148.149 134.835 148.149 134.835L146.709 135.581C146.826 134.056 144.19 131.222 144.19 131.222Z" fill="#EDBF88"/>
<path d="M144.196 131.227C144.254 131.289 146.824 134.071 146.71 135.58L148.076 134.873C147.953 134.563 147.812 134.24 147.646 133.904C146.885 132.373 145.315 131.599 144.196 131.227Z" fill="#E39B60"/>
<path d="M146.987 118.914C145.237 118.914 143.818 117.503 143.818 115.763V108.994H150.156V115.763C150.155 117.503 148.737 118.914 146.987 118.914Z" fill="#EDBF88"/>
<path d="M143.818 112.889C144.161 113.132 145.997 114.282 150.156 114.282V108.993H143.818V112.889Z" fill="#E39B60"/>
<path d="M155.016 101.719H154.128V100.269C154.128 96.319 150.908 93.1167 146.936 93.1167C142.964 93.1167 139.743 96.3183 139.743 100.269V101.621H138.855C137.547 101.621 136.487 102.676 136.487 103.976C136.487 105.277 137.547 106.332 138.855 106.332H139.743V106.429C139.743 110.379 144.402 113.581 146.936 113.581C149.469 113.581 154.128 110.38 154.128 106.429H155.016C156.324 106.429 157.384 105.375 157.384 104.074C157.384 102.773 156.324 101.719 155.016 101.719Z" fill="#EDBF88"/>
<path d="M146.936 90.2952C146.936 90.2952 146.798 90.283 146.541 90.2816C140.842 90.2515 136.634 95.5811 137.883 101.111L138.005 101.652L138.226 104.381H139.744V100.981C143.18 100.986 146.583 100.314 149.756 99.0034L152.662 97.8036L154.128 100.98V104.38H155.646L155.866 101.652L155.989 101.111C157.238 95.5803 153.03 90.2508 147.33 90.2809C147.073 90.283 146.936 90.2952 146.936 90.2952Z" fill="#454A5C"/>
<path d="M151.299 93.9308C148.305 96.4723 144.432 96.9998 140.654 97.4349C140.177 97.4901 140.172 98.2412 140.654 98.186C144.654 97.7252 148.67 97.1467 151.833 94.4619C152.203 94.1473 151.667 93.6183 151.299 93.9308Z" fill="#272C42"/>
<path d="M149.316 91.9564C146.645 93.0615 143.891 93.7367 141.006 93.9718C140.525 94.0112 140.521 94.7623 141.006 94.7229C143.958 94.4821 146.78 93.8127 149.517 92.6802C149.959 92.4975 149.765 91.7707 149.316 91.9564Z" fill="#272C42"/>
<path d="M155.768 99.2319C154.816 98.2213 154.119 97.0516 153.686 95.7357C153.536 95.2784 152.806 95.4741 152.958 95.9357C153.431 97.3741 154.194 98.6578 155.234 99.763C155.566 100.116 156.099 99.5845 155.768 99.2319Z" fill="#272C42"/>
<path d="M148.008 107.322C148.008 107.911 147.528 108.389 146.935 108.389C146.343 108.389 145.863 107.994 145.863 107.322C145.863 106.651 146.288 104.718 146.935 104.718C147.583 104.718 148.008 106.734 148.008 107.322Z" fill="#E39B60"/>
<path d="M143.523 105.544C143.872 105.544 144.155 105.175 144.155 104.719C144.155 104.264 143.872 103.895 143.523 103.895C143.174 103.895 142.891 104.264 142.891 104.719C142.891 105.175 143.174 105.544 143.523 105.544Z" fill="#005BC9"/>
<path d="M150.348 105.544C150.697 105.544 150.98 105.175 150.98 104.719C150.98 104.264 150.697 103.895 150.348 103.895C149.999 103.895 149.716 104.264 149.716 104.719C149.716 105.175 149.999 105.544 150.348 105.544Z" fill="#005BC9"/>
<path d="M147.593 109.937C146.566 110.334 145.458 110.028 145.076 108.923C144.627 107.622 142.538 108.181 142.991 109.495C143.726 111.622 145.991 112.852 148.167 112.01C149.45 111.514 148.892 109.434 147.593 109.937Z" fill="#454A5C"/>
<path d="M144.121 111.226C145.174 112.196 146.69 112.582 148.168 112.01C148.417 111.914 148.595 111.757 148.713 111.571C147.206 110.95 145.656 110.841 144.121 111.226Z" fill="#D61C0D"/>
<path d="M145.127 102.661C144.396 102.018 143.365 101.899 142.513 102.382C142.11 102.61 142.474 103.23 142.877 103C143.437 102.682 144.131 102.739 144.618 103.167C144.963 103.472 145.475 102.967 145.127 102.661Z" fill="#BF7006"/>
<path d="M152.022 103.126C151.506 102.399 150.555 102.063 149.707 102.403C149.283 102.574 149.468 103.268 149.899 103.094C150.432 102.88 151.057 103.004 151.4 103.487C151.666 103.861 152.291 103.504 152.022 103.126Z" fill="#BF7006"/>
<defs>
<clipPath id="clip0_860_9306">
<rect width="163.027" height="85.4591" fill="white" transform="translate(49.5034 115.99)"/>
</clipPath>
</defs>
</svg>
