<svg width="350" height="255" viewBox="0 0 350 255" fill="none" xmlns="http://www.w3.org/2000/svg">
<path d="M325.471 59.0527H288.755V188.724H325.471V59.0527Z" fill="#9EA097"/>
<path d="M305.133 106.638H268.417L277.088 59.0527H313.803L305.133 106.638Z" fill="white"/>
<path d="M288.701 100.403C292.366 100.403 295.338 97.401 295.338 93.6977C295.338 89.9943 292.366 86.9922 288.701 86.9922C285.035 86.9922 282.064 89.9943 282.064 93.6977C282.064 97.401 285.035 100.403 288.701 100.403Z" fill="#F9F3EF"/>
<path d="M297.801 78.4425H284.528C284.23 78.4425 283.989 78.1984 283.989 77.8975C283.989 77.5967 284.23 77.3525 284.528 77.3525H297.801C298.099 77.3525 298.341 77.5967 298.341 77.8975C298.341 78.1984 298.099 78.4425 297.801 78.4425Z" fill="#011833"/>
<path d="M297.082 82.3898H283.809C283.511 82.3898 283.27 82.1456 283.27 81.8448C283.27 81.544 283.511 81.2998 283.809 81.2998H297.082C297.38 81.2998 297.621 81.544 297.621 81.8448C297.621 82.1456 297.38 82.3898 297.082 82.3898Z" fill="#011833"/>
<path d="M305.133 106.639H268.417V188.725H305.133V106.639Z" fill="#F9F3EF"/>
<path d="M316.158 131.513C313.911 131.513 312.09 129.673 312.09 127.403V110.748C312.09 108.478 313.911 106.638 316.158 106.638C318.405 106.638 320.226 108.478 320.226 110.748V127.403C320.226 129.673 318.405 131.513 316.158 131.513Z" fill="#051423"/>
<path d="M293.16 125.35H287.444L289.56 113.222L278.2 129.767H283.916L281.799 141.895L293.16 125.35Z" fill="#81C433"/>
<path d="M284.462 93.6977C284.462 90.4081 286.807 87.6738 289.9 87.1034C289.511 87.0314 289.111 86.9922 288.701 86.9922C285.036 86.9922 282.064 89.994 282.064 93.6977C282.064 97.4006 285.035 100.403 288.701 100.403C289.11 100.403 289.511 100.364 289.9 100.292C286.807 99.7215 284.462 96.9872 284.462 93.6977Z" fill="#9EA097"/>
<path d="M316.158 106.639C315.934 106.639 315.714 106.658 315.499 106.693C317.432 107.011 318.907 108.705 318.907 110.749V127.404C318.907 129.447 317.431 131.141 315.499 131.459C315.714 131.495 315.933 131.514 316.158 131.514C318.405 131.514 320.226 129.674 320.226 127.404V110.749C320.226 108.479 318.405 106.639 316.158 106.639Z" fill="black"/>
<path d="M272.452 171.467H104.337V132.943H265.431L275.147 147.46V166.435L272.452 171.467Z" fill="black"/>
<path d="M144.245 188.044C152.317 188.05 158.868 177.271 158.878 163.967C158.888 150.664 152.353 139.874 144.282 139.868C136.21 139.861 129.658 150.641 129.648 163.945C129.638 177.248 136.173 188.038 144.245 188.044Z" fill="#031C30"/>
<path d="M156.577 180.954H144.248V188.048H156.577V180.954Z" fill="#031C30"/>
<path d="M156.608 139.873H144.279V146.967H156.608V139.873Z" fill="#031C30"/>
<path d="M156.575 188.053C164.646 188.06 171.198 177.28 171.208 163.976C171.218 150.673 164.683 139.883 156.611 139.877C148.539 139.871 141.988 150.65 141.978 163.954C141.968 177.258 148.503 188.047 156.575 188.053Z" fill="#051423"/>
<path d="M156.582 178.484C161.46 178.488 165.421 171.972 165.427 163.931C165.433 155.89 161.483 149.368 156.604 149.364C151.725 149.36 147.765 155.876 147.759 163.917C147.752 171.958 151.703 178.48 156.582 178.484Z" fill="#FFD00B"/>
<path d="M155.297 149.522C151.036 150.56 147.764 156.607 147.758 163.918C147.753 171.227 151.016 177.28 155.275 178.325C159.535 177.287 162.809 171.239 162.814 163.929C162.819 156.62 159.556 150.566 155.297 149.522Z" fill="#D8D8D8"/>
<path d="M155.731 158.832C154.225 159.198 153.068 161.337 153.065 163.922C153.063 166.506 154.218 168.646 155.723 169.015C157.229 168.648 158.386 166.51 158.388 163.925C158.39 161.341 157.237 159.201 155.731 158.832Z" fill="#051423"/>
<path d="M160.653 128.323L160.43 107.04H110.95V130.386H121.075V163.96C125.479 163.869 134.271 164.416 134.271 164.002C134.271 148.17 142.058 135.336 151.665 135.336H167.451V128.323H160.653Z" fill="#FFCE00"/>
<path d="M220.361 100.771H142.304V107.041H220.361V100.771Z" fill="#031C30"/>
<path d="M218.57 107.057H254C249.456 91.7674 237.997 68.6246 213.122 67.2788H186.721C186.721 89.2474 200.98 107.057 218.57 107.057Z" fill="#051423"/>
<path d="M204.386 67.2788H131.18C107.537 67.2788 85.3858 79.2234 72.4644 99.2286C70.839 101.746 69.3769 104.359 68.0967 107.057H148.102C168.727 107.057 177.679 98.3501 181.469 85.3875C186.745 98.252 197.466 107.057 209.834 107.057H245.264H247.305C242.814 89.7016 226.484 67.2788 204.386 67.2788Z" fill="#031C30"/>
<path d="M235.139 104.483C235.139 104.483 224.034 74.8682 208.929 74.8682H112.01C106.351 74.8682 100.819 76.6121 96.1918 79.9053C86.9658 86.4712 79.4594 94.7593 74.5781 104.169L235.139 104.483Z" fill="#8ABF4D"/>
<path d="M246.488 100.276H189.171L185.924 86.755C184.833 82.2135 188.238 77.8384 192.864 77.8384H231.939L246.488 100.276Z" fill="#B5FF4D"/>
<path d="M196.658 141.853H180.316C176.099 141.853 173.001 137.856 174.011 133.72L183.624 94.3761C184.34 91.4463 186.942 89.3877 189.929 89.3877H206.271C210.488 89.3877 213.586 93.385 212.576 97.521L202.963 136.864C202.247 139.794 199.646 141.853 196.658 141.853Z" fill="#73A632"/>
<path d="M158.773 141.853H142.431C138.214 141.853 135.115 137.856 136.126 133.72L145.739 94.3761C146.455 91.4463 149.057 89.3877 152.044 89.3877H168.386C172.603 89.3877 175.701 93.385 174.691 97.521L165.078 136.864C164.362 139.794 161.76 141.853 158.773 141.853Z" fill="#73A632"/>
<path d="M86.6194 104.483L87.4371 92.6167C97.3155 80.5595 104.397 77.7293 121.446 72.9879C120.591 71.2389 112.105 68.4449 110.323 69.1985C91.8754 77.0019 80.6579 86.074 72.4121 104.483C72.4128 104.483 87.1473 105.037 86.6194 104.483Z" fill="#73A632"/>
<g opacity="0.25">
<path opacity="0.25" d="M232.652 62.0672L221.19 55.0029L175.993 129.857L187.454 136.921L232.652 62.0672Z" fill="white"/>
</g>
<path d="M161.152 108.521C160.226 108.521 159.289 108.493 158.336 108.439L158.581 104.062C169.938 104.708 178.762 101.255 189.03 92.1309L191.896 95.4226C181.675 104.505 172.331 108.521 161.152 108.521Z" fill="white"/>
<path d="M165.655 105.803H89.6406C89.6406 103.072 91.8321 100.858 94.5348 100.858H165.655V105.803Z" fill="#73A632"/>
<g opacity="0.25">
<path opacity="0.25" d="M126.418 62.0643L114.957 55L69.7594 129.854L81.2208 136.918L126.418 62.0643Z" fill="white"/>
</g>
<g opacity="0.25">
<path opacity="0.25" d="M153.918 63.034L142.457 55.9697L97.259 130.824L108.72 137.888L153.918 63.034Z" fill="white"/>
</g>
<path d="M242.469 188.044C250.541 188.05 257.092 177.271 257.102 163.967C257.113 150.664 250.577 139.874 242.506 139.868C234.434 139.861 227.882 150.641 227.872 163.945C227.862 177.248 234.397 188.038 242.469 188.044Z" fill="#031C30"/>
<path d="M254.802 180.954H242.472V188.048H254.802V180.954Z" fill="#031C30"/>
<path d="M254.832 139.873H242.503V146.967H254.832V139.873Z" fill="#031C30"/>
<path d="M254.799 188.053C262.87 188.06 269.422 177.28 269.432 163.976C269.442 150.673 262.907 139.883 254.835 139.877C246.764 139.871 240.212 150.65 240.202 163.954C240.192 177.258 246.727 188.047 254.799 188.053Z" fill="#051423"/>
<path d="M254.806 178.484C259.685 178.488 263.645 171.972 263.651 163.931C263.657 155.89 259.707 149.368 254.828 149.364C249.949 149.36 245.989 155.876 245.983 163.917C245.977 171.958 249.927 178.48 254.806 178.484Z" fill="#FFD00B"/>
<path d="M253.521 149.522C249.261 150.56 245.988 156.607 245.982 163.918C245.976 171.227 249.24 177.28 253.499 178.325C257.759 177.287 261.032 171.239 261.038 163.929C261.044 156.62 257.78 150.566 253.521 149.522Z" fill="#D8D8D8"/>
<path d="M253.955 158.832C252.449 159.198 251.292 161.337 251.29 163.922C251.287 166.506 252.442 168.646 253.947 169.015C255.453 168.648 256.61 166.51 256.612 163.925C256.615 161.341 255.461 159.201 253.955 158.832Z" fill="#051423"/>
<path d="M230.562 171.467C233.193 171.467 235.211 169.139 234.901 166.499C234.735 165.095 234.65 163.655 234.65 162.187C234.65 147.357 241.508 135.335 254.164 135.335C266.329 135.335 273.678 147.357 273.678 162.187C273.678 165.449 273.253 168.575 272.479 171.467C272.479 171.467 278.659 171.55 279.639 163.136C279.639 163.136 283.721 143.42 268.045 132.857C268.019 118.595 261.023 107.041 254.001 107.041H160.431L160.932 131.057L173.02 140.802L196.99 171.468H230.562V171.467Z" fill="#FFCE00"/>
<path d="M140.282 107.536H147.356L147.366 107.041H65.604C51.8311 107.041 38.9155 118.618 38.9155 132.899V136.409H109.272C109.972 120.356 124.652 107.536 140.282 107.536Z" fill="#FFDA40"/>
<path d="M189.724 188.044C197.795 188.05 204.347 177.271 204.357 163.967C204.367 150.664 197.832 139.874 189.76 139.868C181.688 139.861 175.137 150.641 175.127 163.945C175.117 177.248 181.652 188.038 189.724 188.044Z" fill="#031C30"/>
<path d="M202.055 180.954H189.727V188.048H202.055V180.954Z" fill="#031C30"/>
<path d="M202.086 139.873H189.757V146.967H202.086V139.873Z" fill="#031C30"/>
<path d="M202.053 188.053C210.125 188.06 216.676 177.28 216.686 163.976C216.697 150.673 210.161 139.883 202.09 139.877C194.018 139.871 187.466 150.65 187.456 163.954C187.446 177.258 193.981 188.047 202.053 188.053Z" fill="#051423"/>
<path d="M202.06 178.484C206.939 178.488 210.899 171.972 210.905 163.931C210.911 155.89 206.961 149.368 202.082 149.364C197.203 149.36 193.243 155.876 193.237 163.917C193.231 171.958 197.181 178.48 202.06 178.484Z" fill="black"/>
<path d="M200.776 149.522C196.516 150.56 193.243 156.607 193.237 163.918C193.231 171.227 196.495 177.28 200.754 178.325C205.014 177.287 208.287 171.239 208.293 163.929C208.298 156.62 205.034 150.566 200.776 149.522Z" fill="#9EA097"/>
<path d="M201.209 158.832C199.703 159.198 198.546 161.337 198.544 163.922C198.542 166.506 199.696 168.646 201.201 169.015C202.707 168.648 203.865 166.51 203.867 163.925C203.869 161.341 202.715 159.201 201.209 158.832Z" fill="#051423"/>
<path d="M230.14 104.797C230.14 104.797 195.867 139.861 186.641 161.321H176.107V171.468H204.358C204.358 171.468 207.578 171.395 209.189 171.433C214.731 171.563 220.756 171.52 225.136 167.622C228.206 164.89 229.951 160.683 231.498 156.593C237.442 140.872 242.058 124.491 245.264 107.753C245.609 105.952 244.644 104.676 244.644 104.676L230.14 104.797Z" fill="#031C30"/>
<path d="M53.7132 188.053C61.5784 188.053 67.9543 177.269 67.9543 163.965C67.9543 150.662 61.5784 139.877 53.7132 139.877C45.8481 139.877 39.4722 150.662 39.4722 163.965C39.4722 177.269 45.8481 188.053 53.7132 188.053Z" fill="#031C30"/>
<path d="M65.7263 180.958H53.7134V188.053H65.7263V180.958Z" fill="#031C30"/>
<path d="M65.7263 139.877H53.7134V146.972H65.7263V139.877Z" fill="#031C30"/>
<path d="M65.7269 188.053C73.5921 188.053 79.968 177.269 79.968 163.965C79.968 150.662 73.5921 139.877 65.7269 139.877C57.8618 139.877 51.4858 150.662 51.4858 163.965C51.4858 177.269 57.8618 188.053 65.7269 188.053Z" fill="#051423"/>
<path d="M65.7269 178.483C70.4811 178.483 74.3351 171.965 74.3351 163.924C74.3351 155.882 70.4811 149.364 65.7269 149.364C60.9727 149.364 57.1187 155.882 57.1187 163.924C57.1187 171.965 60.9727 178.483 65.7269 178.483Z" fill="black"/>
<path d="M64.4539 149.523C60.3033 150.564 57.1187 156.614 57.1187 163.924C57.1187 171.234 60.3033 177.285 64.4539 178.326C68.6044 177.285 71.7891 171.234 71.7891 163.924C71.7891 156.614 68.6044 150.564 64.4539 149.523Z" fill="#9EA097"/>
<path d="M64.8835 158.832C63.4163 159.2 62.29 161.34 62.29 163.924C62.29 166.508 63.4163 168.648 64.8835 169.015C66.3507 168.648 67.477 166.508 67.477 163.924C67.477 161.34 66.3514 159.2 64.8835 158.832Z" fill="#051423"/>
<g opacity="0.5">
<g opacity="0.5">
<path opacity="0.5" d="M111.791 132.009H54.0321C53.3373 132.009 52.7734 131.439 52.7734 130.737C52.7734 130.035 53.3373 129.466 54.0321 129.466H111.791C112.487 129.466 113.05 130.035 113.05 130.737C113.05 131.439 112.487 132.009 111.791 132.009Z" fill="white"/>
</g>
</g>
<path d="M121.808 132.026H108.338C108.338 122.959 115.613 115.608 124.588 115.608H138.058C138.058 124.675 130.783 132.026 121.808 132.026Z" fill="white"/>
<path d="M122.431 128.313H114.994C114.994 123.307 119.011 119.249 123.966 119.249H131.402C131.401 124.255 127.385 128.313 122.431 128.313Z" fill="#D8D8D8"/>
<path d="M121.497 141.383V132.036H38.9156V141.972C34.724 144.799 31.9141 149.991 31.9141 155.929V157.639C31.9141 166.597 38.3078 173.86 46.1947 173.86H115.172C123.059 173.86 129.453 173.91 129.453 164.951V155.929C129.453 149.55 126.211 144.032 121.497 141.383Z" fill="#FFDA40"/>
<path d="M99.5695 147.132H62.9121C57.3929 147.132 52.918 142.611 52.918 137.034V136.903H109.564V137.034C109.564 142.611 105.089 147.132 99.5695 147.132Z" fill="#031C30"/>
<path d="M116.177 163.961C115.743 161.111 113.305 158.929 110.362 158.929H51.0844C48.1421 158.929 45.7047 161.111 45.2696 163.961H31.9146C31.9462 163.961 31.7937 174.025 38.5349 174.025H124.744C131.486 174.025 134.545 170.396 134.545 163.961H116.177Z" fill="#031C30"/>
<path d="M38.7271 131.858C39.465 131.967 40.2187 132.026 40.9854 132.026H54.111C54.111 125.422 50.3502 119.729 44.9281 117.124C41.4061 121.195 39.0903 126.29 38.7271 131.858Z" fill="white"/>
<path d="M40.2997 128.323H47.5458C47.5458 124.722 45.5205 121.611 42.5861 120.149C40.9959 122.613 39.8157 125.342 39.167 128.248C39.5374 128.298 39.9157 128.323 40.2997 128.323Z" fill="#D8D8D8"/>
<path d="M264.179 119.58H260.803C259.3 119.58 258.083 118.349 258.083 116.831V115.152C258.083 113.634 259.301 112.403 260.803 112.403H264.179C265.682 112.403 266.9 113.634 266.9 115.152V116.831C266.9 118.349 265.682 119.58 264.179 119.58Z" fill="#CD4D4C"/>
<path d="M267.119 129.561H263.743C262.24 129.561 261.021 128.33 261.021 126.811V125.133C261.021 123.614 262.24 122.383 263.743 122.383H267.119C268.621 122.383 269.84 123.614 269.84 125.133V126.811C269.84 128.33 268.621 129.561 267.119 129.561Z" fill="#CD4D4C"/>
<path d="M147.366 107.059L151.746 135.315L155.286 135.354C166.881 135.354 175.157 146.326 175.157 165.093C175.157 165.507 175.151 165.919 175.141 166.33C183.36 166.5 189.864 166.093 198.084 166.263C203.626 166.378 209.651 166.339 214.031 162.907C217.101 160.501 218.846 156.795 220.393 153.193C226.977 137.857 232.17 123.375 235.384 106.977L147.366 107.059Z" fill="#FFDA40"/>
<path d="M218.074 106.734V108.613C218.074 116.596 223.739 123.254 231.265 124.78C233.02 118.984 234.525 113.041 235.774 106.733H218.074V106.734Z" fill="#031C30"/>
<path d="M218.741 104.965L209.188 72.0498L205.74 73.0712L215.294 105.986L218.741 104.965Z" fill="#031C30"/>
<path d="M148.851 106.544L145.393 105.558C145.5 105.176 148.069 96.0905 153.025 88.0182C158.917 78.4193 165.954 71.9747 166.251 71.7051L168.655 74.4024C168.586 74.4649 161.689 80.791 156.079 89.9315C151.386 97.5729 148.875 106.455 148.851 106.544Z" fill="#031C30"/>
<path d="M153.571 100.735V106.207L167.56 105.483C170.061 105.353 172.024 103.266 172.024 100.735H153.571Z" fill="#031C30"/>
<path d="M172.023 100.679C171.994 98.1737 170.043 96.1166 167.56 95.988L156.936 95.4379C155.106 95.3434 153.571 96.8163 153.571 98.6671V100.679H172.023Z" fill="#FFCE00"/>
<g opacity="0.5">
<path opacity="0.5" d="M227.178 117.022C225.217 117.022 223.627 115.415 223.627 113.434V113.062H230.731V113.434C230.73 115.415 229.14 117.022 227.178 117.022Z" fill="black"/>
</g>
<path d="M230.485 114.878H223.953C223.141 114.878 222.484 114.213 222.484 113.392C222.484 112.572 223.142 111.908 223.953 111.908H230.485C231.297 111.908 231.955 112.573 231.955 113.392C231.954 114.213 231.296 114.878 230.485 114.878Z" fill="#051423"/>
<g opacity="0.5">
<path opacity="0.5" d="M216.401 130.386H148.224C146.037 130.386 144.264 128.594 144.264 126.385C144.264 124.175 146.037 122.384 148.224 122.384H216.401C218.588 122.384 220.361 124.175 220.361 126.385C220.361 128.594 218.588 130.386 216.401 130.386Z" fill="white"/>
</g>
<path d="M205.447 104.434L183.968 104.435L186.112 96.0634C187.01 92.6336 190.433 90.5874 193.827 91.4942L201.7 93.5979C205.157 94.5214 207.217 98.1009 206.303 101.592L205.447 104.434Z" fill="white"/>
<path d="M196.54 94.9133L196.576 94.9235C198.023 95.3341 199.525 94.4817 199.931 93.0204L200.963 89.3087C201.37 87.8467 200.526 86.3288 199.079 85.9189L199.043 85.9088C197.596 85.4982 196.093 86.3506 195.688 87.8118L194.656 91.5235C194.249 92.9848 195.093 94.5028 196.54 94.9133Z" fill="#6E4039"/>
<path d="M206.864 70.346L205.34 70.1055L202.828 86.3481C204.262 86.5828 204.766 86.3416 206.685 81.476L208.983 75.6759C210.522 71.7455 208.649 70.6272 206.864 70.346Z" fill="#051423"/>
<path d="M199.727 69.1311C203.456 69.7197 205.988 73.2679 205.405 77.0356L205.14 78.773L205.899 78.8929C206.949 79.0585 207.669 80.054 207.505 81.1164L207.363 82.0342C207.199 83.0958 206.214 83.8224 205.162 83.6567L204.413 83.5383L204.224 84.775C203.641 88.542 200.146 91.1187 196.417 90.5301L193.423 90.0578C190.215 89.2061 190.126 85.9747 190.45 83.8784L192.143 73.3697C192.726 69.6013 195.999 68.5426 199.727 69.1311Z" fill="#965B4E"/>
<path d="M191.626 76.7051L190.909 81.3396C190.125 80.9945 189.637 80.1501 189.776 79.2571L189.918 78.3393C190.056 77.4455 190.776 76.7923 191.626 76.7051Z" fill="#6E4039"/>
<path d="M193.665 80.1936C194.041 80.1936 194.347 79.8852 194.347 79.5048C194.347 79.1243 194.041 78.8159 193.665 78.8159C193.288 78.8159 192.983 79.1243 192.983 79.5048C192.983 79.8852 193.288 80.1936 193.665 80.1936Z" fill="#051423"/>
<path d="M198.976 81.032C199.353 81.032 199.658 80.7236 199.658 80.3432C199.658 79.9627 199.353 79.6543 198.976 79.6543C198.6 79.6543 198.294 79.9627 198.294 80.3432C198.294 80.7236 198.6 81.032 198.976 81.032Z" fill="#051423"/>
<path d="M198.26 76.6954L200.782 77.0936C200.956 77.1212 201.12 77.0006 201.146 76.8255C201.174 76.6496 201.054 76.4854 200.881 76.4578L198.359 76.0596C198.184 76.032 198.021 76.1526 197.995 76.3285C197.967 76.5036 198.086 76.6678 198.26 76.6954Z" fill="#051423"/>
<path d="M192.991 76.2848L195.513 76.683C195.687 76.7106 195.851 76.59 195.877 76.4148C195.905 76.239 195.785 76.074 195.611 76.0472L193.089 75.649C192.915 75.6213 192.752 75.742 192.725 75.9171C192.698 76.0922 192.817 76.2572 192.991 76.2848Z" fill="#051423"/>
<path d="M199.554 83.5034C199.03 84.7009 197.5 85.7735 195.161 85.4043C192.821 85.0352 192.305 83.6393 192.168 82.3379L199.554 83.5034Z" fill="#EFF4DF"/>
<path d="M204.044 82.2834C201.72 82.0509 204.408 75.2197 204.408 75.2197L206.68 74.4546C206.68 74.4553 205.856 82.0742 204.044 82.2834Z" fill="#051423"/>
<path d="M196.31 81.6744C195.71 81.6744 195.268 81.4811 195.093 81.1302C194.932 80.8075 194.93 80.2211 195.831 79.2642C195.902 79.1893 196.019 79.1864 196.093 79.2576C196.167 79.3288 196.17 79.4473 196.1 79.5221C195.52 80.1369 195.275 80.6622 195.424 80.9623C195.56 81.2341 196.033 81.3554 196.655 81.2784C196.763 81.2617 196.848 81.3394 196.861 81.4412C196.874 81.5436 196.801 81.6374 196.7 81.6497C196.564 81.6664 196.433 81.6744 196.31 81.6744Z" fill="#6E4039"/>
<path d="M205.344 68.4851C203.904 67.7388 202.357 67.204 200.766 66.9068C198.485 66.4803 196.625 65.8677 194.653 67.1793C192.603 68.5432 193.854 71.266 195.335 72.0267C197.576 73.1778 199.896 74.1558 202.216 75.1281C204.077 75.9078 206.357 76.5988 208.203 75.3969C210.635 73.8143 209.404 71.2303 207.546 69.857C206.849 69.3418 206.112 68.8833 205.344 68.4851Z" fill="#051423"/>
<path d="M224.328 66.6234C224.316 66.6234 224.305 66.6234 224.293 66.6234C223.324 66.6045 222.556 65.7958 222.575 64.8184C222.595 63.7641 222.61 60.3074 222.587 59.3345C222.564 58.3571 223.329 57.5455 224.296 57.5222C224.311 57.5222 224.325 57.5215 224.339 57.5215C225.287 57.5215 226.068 58.2866 226.09 59.2494C226.116 60.3416 226.098 63.8898 226.078 64.8875C226.06 65.8539 225.279 66.6234 224.328 66.6234Z" fill="#6E4039"/>
<path d="M205.954 99.9502L204.555 95.8004C215.189 92.1424 220.617 82.1743 222.155 63.4785L226.479 63.8418C224.778 84.5156 218.448 95.6521 205.954 99.9502Z" fill="white"/>
<path d="M349.289 189.443H0.712018C0.319329 189.443 0 189.122 0 188.725C0 188.327 0.31861 188.006 0.712018 188.006H349.289C349.683 188.006 350.001 188.327 350.001 188.725C350 189.122 349.682 189.443 349.289 189.443Z" fill="#17721A"/>
<path d="M325.249 200.11H106.835C106.442 200.11 106.123 199.788 106.123 199.391C106.123 198.994 106.442 198.672 106.835 198.672H325.249C325.643 198.672 325.96 198.994 325.96 199.391C325.961 199.788 325.643 200.11 325.249 200.11Z" fill="#17721A"/>
<path d="M98.2944 200.11H81.754C81.3613 200.11 81.042 199.788 81.042 199.391C81.042 198.994 81.3606 198.672 81.754 198.672H98.2944C98.6871 198.672 99.0064 198.994 99.0064 199.391C99.0064 199.788 98.6878 200.11 98.2944 200.11Z" fill="#17721A"/>
<path d="M60.0554 200.11H24.7516C24.3589 200.11 24.0396 199.788 24.0396 199.391C24.0396 198.994 24.3582 198.672 24.7516 198.672H60.0554C60.4481 198.672 60.7675 198.994 60.7675 199.391C60.7675 199.788 60.4488 200.11 60.0554 200.11Z" fill="#17721A"/>
<path d="M284.854 195.505H279.711C261.764 195.505 247.163 180.753 247.163 162.62V116.605C247.163 115.836 247.779 115.213 248.54 115.213C249.301 115.213 249.917 115.836 249.917 116.605V162.62C249.917 179.218 263.283 192.722 279.711 192.722H284.854C301.282 192.722 314.648 179.218 314.648 162.62V116.605C314.648 115.836 315.265 115.213 316.026 115.213C316.786 115.213 317.403 115.836 317.403 116.605V162.62C317.403 180.753 302.802 195.505 284.854 195.505Z" fill="#708E49"/>
<path d="M248.582 125.293C246.495 125.293 244.804 123.585 244.804 121.477V116.243C244.804 114.135 246.495 112.427 248.582 112.427C250.668 112.427 252.359 114.135 252.359 116.243V121.477C252.359 123.584 250.668 125.293 248.582 125.293Z" fill="#031C30"/>
<path d="M248.582 130.373C247.391 130.373 246.427 129.398 246.427 128.196V116.584C246.427 115.381 247.391 114.407 248.582 114.407C249.772 114.407 250.736 115.381 250.736 116.584V128.196C250.736 129.398 249.772 130.373 248.582 130.373Z" fill="#F9F3EF"/>
</svg>
