<svg width="77" height="77" viewBox="0 0 77 77" fill="none" xmlns="http://www.w3.org/2000/svg">
<circle cx="38.5" cy="38.5" r="38.5" fill="#17871B"/>
<path d="M38.4609 56.4903C38.1071 56.0764 37.642 55.5227 37.099 54.8537C35.8289 53.2887 34.137 51.0981 32.4471 48.5935C30.7553 46.086 29.0778 43.2818 27.8264 40.4883C26.569 37.6817 25.7754 34.9594 25.7754 32.5957C25.7754 25.5916 31.4568 19.9102 38.4609 19.9102C45.465 19.9102 51.1465 25.5916 51.1465 32.5957C51.1465 34.9594 50.3529 37.6817 49.0955 40.4883C47.844 43.2818 46.1666 46.086 44.4747 48.5935C42.7849 51.0981 41.093 53.2887 39.8228 54.8537C39.2799 55.5227 38.8148 56.0764 38.4609 56.4903ZM32.5732 32.5957C32.5732 35.846 35.2106 38.4834 38.4609 38.4834C41.7112 38.4834 44.3486 35.846 44.3486 32.5957C44.3486 29.3454 41.7112 26.708 38.4609 26.708C35.2106 26.708 32.5732 29.3454 32.5732 32.5957Z" stroke="white" stroke-width="2"/>
</svg>
