<svg width="34" height="34" viewBox="0 0 34 34" fill="none" xmlns="http://www.w3.org/2000/svg">
<path d="M24.5 7C29.746 7 34 11.253 34 16.5C34 21.747 29.746 26 24.5 26C21.451 26 18.7369 24.564 17 22.331C18.254 20.721 19 18.6981 19 16.5C19 14.302 18.254 12.279 17 10.669C18.7369 8.436 21.451 7 24.5 7Z" fill="#F79F1A"/>
<path d="M17 10.6689C18.254 12.2789 19 14.3019 19 16.4999C19 18.6979 18.254 20.7209 17 22.3309C15.746 20.7209 15 18.698 15 16.4999C15 14.3019 15.746 12.2789 17 10.6689Z" fill="#FF5F01"/>
<path d="M9.5 7C12.549 7 15.263 8.436 17 10.669C15.746 12.279 15 14.302 15 16.5C15 18.698 15.746 20.721 17 22.331C15.263 24.564 12.549 26 9.5 26C4.253 26 0 21.747 0 16.5C0 11.253 4.253 7 9.5 7Z" fill="#EA001B"/>
<path d="M16.968 16.3482V16.7156H17.0321V16.3482H17.1836V16.2844H16.8164V16.3482H16.968Z" fill="black"/>
<path d="M31.8938 15.9361C31.2389 15.0657 29.5059 15.5288 29.5059 17.0462C29.5059 18.5956 31.3028 19.0108 31.8938 18.1563V18.5237H32.5247V14.395H31.8938V15.9361ZM31.0472 17.9805C30.5042 17.9805 30.1528 17.5653 30.1528 17.0462C30.1528 16.527 30.5043 16.1119 31.0472 16.1119C31.5744 16.1119 31.9417 16.5269 31.9417 17.0462C31.9417 17.5894 31.5744 17.9805 31.0472 17.9805Z" fill="black"/>
<path d="M7.96739 15.9362C7.75179 15.6726 7.44839 15.5049 7.03299 15.5049C6.21039 15.5049 5.57959 16.1598 5.57959 17.0462C5.57959 17.9407 6.21049 18.5876 7.03299 18.5876C7.44839 18.5876 7.75179 18.4358 7.96739 18.1563V18.5237H8.59839V15.5847H7.96739V15.9362ZM7.12089 17.9806C6.55379 17.9806 6.22649 17.5654 6.22649 17.0463C6.22649 16.5271 6.55379 16.112 7.12089 16.112C7.63989 16.112 7.98339 16.527 7.99129 17.0463C7.99129 17.5895 7.63999 17.9806 7.12089 17.9806Z" fill="black"/>
<path d="M16.5286 15.4968C15.6823 15.4968 15.0752 16.1279 15.0752 17.0382C15.0752 18.6754 16.8801 18.947 17.7745 18.1723L17.4711 17.6931C16.8482 18.2043 15.9057 18.1563 15.7222 17.3018H17.9183C17.9183 16.008 17.3273 15.4968 16.5286 15.4968ZM15.7461 16.7827C15.81 16.3674 16.0734 16.088 16.5047 16.088C16.9198 16.088 17.1996 16.3275 17.2714 16.7827H15.7461Z" fill="black"/>
<path d="M25.9603 15.936C25.2974 15.0575 23.5723 15.5526 23.5723 17.0461C23.5723 18.5794 25.3614 19.0186 25.9603 18.1562V18.5236H26.6152V15.5846H25.9603V15.936ZM25.1137 17.9804C24.5707 17.9804 24.2433 17.5652 24.2433 17.0461C24.2433 16.5269 24.5707 16.1118 25.1137 16.1118C25.6567 16.1118 26.0081 16.5268 26.0081 17.0461C26.0081 17.5893 25.6566 17.9804 25.1137 17.9804Z" fill="black"/>
<path d="M3.83882 15.5049C3.47142 15.5049 3.08022 15.6167 2.81652 16.0238C2.62482 15.6966 2.29752 15.5049 1.84222 15.5049C1.53872 15.5049 1.23532 15.6167 0.99582 15.9362V15.5847H0.34082V18.5157H0.99572C0.99572 17.0063 0.79602 16.104 1.71442 16.104C2.52902 16.104 2.36932 16.9185 2.36932 18.5157H3.00022C3.00022 17.0544 2.80052 16.104 3.71892 16.104C4.53352 16.104 4.37382 16.9025 4.37382 18.5157H5.02862V16.6789H5.01262C5.01262 15.9838 4.55762 15.5288 3.83882 15.5049Z" fill="black"/>
<path d="M10.0042 16.4152C10.0042 15.9599 10.9545 16.0319 11.4815 16.3274L11.7451 15.8083C10.9944 15.3212 9.33329 15.3292 9.33329 16.4633C9.33329 17.6052 11.1621 17.1261 11.1621 17.6612C11.1621 18.1643 10.084 18.1243 9.50909 17.7251L9.22949 18.2283C10.1239 18.835 11.8328 18.7075 11.8328 17.6292C11.8329 16.4314 10.0042 16.9742 10.0042 16.4152Z" fill="black"/>
<path d="M13.5099 17.5012V16.1756H14.556V15.5846H13.5099V14.6904H12.855V15.5846H12.248V16.1675H12.855V17.5012C12.855 18.907 14.2365 18.6512 14.6597 18.3718L14.484 17.8287C14.1807 17.9963 13.5099 18.18 13.5099 17.5012Z" fill="black"/>
<path d="M19.2279 15.9361V15.5846H18.5728V18.5156H19.2279V16.8625C19.2279 15.9361 19.9866 16.0559 20.2501 16.1917L20.4416 15.5847C20.0744 15.4251 19.5154 15.4409 19.2279 15.9361Z" fill="black"/>
<path d="M22.9416 16.3755L23.2449 15.8564C22.3187 15.1297 20.6338 15.529 20.6338 17.0544C20.6338 18.6356 22.4225 18.955 23.2449 18.2522L22.9416 17.7332C22.2068 18.2522 21.2884 17.9409 21.2884 17.0464C21.2884 16.1359 22.2148 15.8402 22.9416 16.3755Z" fill="black"/>
<path d="M28.0923 15.9361V15.5846H27.4614V18.5156H28.0923V16.8625C28.0923 15.9838 28.8111 16.0399 29.1146 16.1917L29.3063 15.5847C29.1145 15.4889 28.4277 15.3531 28.0923 15.9361Z" fill="black"/>
<path d="M33.635 18.1563C33.611 18.1324 33.595 18.0923 33.571 18.0684C33.547 18.0445 33.507 18.0287 33.4832 18.0045C33.4433 18.0045 33.3953 17.9805 33.3553 17.9805C33.3315 17.9805 33.2914 18.0045 33.2437 18.0045C33.2036 18.0286 33.1796 18.0444 33.1558 18.0684C33.1159 18.0923 33.0919 18.1324 33.0919 18.1563C33.0679 18.1962 33.0679 18.2443 33.0679 18.2841C33.0679 18.308 33.0679 18.348 33.0919 18.3957C33.0919 18.4197 33.1158 18.4598 33.1558 18.4837C33.1796 18.5076 33.1958 18.5236 33.2437 18.5476C33.2835 18.5715 33.3315 18.5715 33.3553 18.5715C33.3953 18.5715 33.4433 18.5715 33.4832 18.5476C33.507 18.5237 33.5471 18.5077 33.571 18.4837C33.5949 18.4597 33.6109 18.4197 33.635 18.3957C33.6589 18.3479 33.6589 18.308 33.6589 18.2841C33.6589 18.2442 33.6589 18.1962 33.635 18.1563Z" fill="black"/>
<path d="M17.2395 16.2844H17.1278L16.9998 16.5639L16.8721 16.2844H16.7603V16.7156H16.8243V16.3881L16.952 16.6678H17.0397L17.1517 16.3881V16.7156H17.2395V16.2844Z" fill="black"/>
</svg>
