<svg width="109" height="115" viewBox="0 0 109 115" fill="none" xmlns="http://www.w3.org/2000/svg">
<path d="M74.0353 11.305V10.1064C74.0353 4.53371 69.5016 0 63.929 0H52.6997C50.8392 0 49.3309 1.50832 49.3309 3.36879V3.59337H45.513C43.6525 3.59337 42.1442 5.10169 42.1442 6.96216C42.1442 8.82262 43.6525 10.3309 45.513 10.3309H49.3309V18.1914H45.513C43.6525 18.1914 42.1442 19.6998 42.1442 21.5602C42.1442 23.4207 43.6525 24.929 45.513 24.929H49.3309C49.3309 26.7895 50.8392 28.2978 52.6997 28.2978H63.929C69.3606 28.2978 73.8031 23.9902 74.0246 18.6121C90.5972 26.1822 101.435 42.789 101.435 61.3119C101.435 87.1938 80.3783 108.25 54.4964 108.25C28.6145 108.25 7.55798 87.1938 7.55798 61.3119C7.55798 44.607 16.5517 29.027 31.0297 20.6516C32.6402 19.72 33.1904 17.6592 32.259 16.0487C31.3275 14.4382 29.266 13.8879 27.6562 14.8195C-2.75814 32.4133 -8.49496 74.2298 16.5419 99.2664C37.5188 120.244 71.4721 120.245 92.4509 99.2664C102.589 89.1284 108.172 75.6492 108.172 61.3119C108.172 39.1085 94.5524 19.3132 74.0353 11.305Z" fill="#CFCFCF"/>
<path d="M28.3833 51.3766L25.802 48.9673C24.4423 47.6977 22.3101 47.7711 21.0407 49.1315C19.7714 50.4915 19.8448 52.6233 21.2049 53.8929L24.8304 57.2767L22.9823 58.5088C22.0451 59.1336 21.482 60.1856 21.482 61.3119V72.9903C21.482 74.8508 22.9904 76.3591 24.8508 76.3591H84.1415C86.0019 76.3591 87.5102 74.8508 87.5102 72.9903V61.3119C87.5102 60.1856 86.9472 59.1336 86.01 58.5088L84.101 57.2361L87.6043 53.8536C88.9429 52.5613 88.9802 50.4287 87.6879 49.0901C86.3956 47.7518 84.2627 47.7143 82.9244 49.0066L80.5816 51.2686L77.9202 40.8449C76.7768 36.3665 72.7503 33.2386 68.1281 33.2386H40.8647C36.2427 33.2386 32.2159 36.3665 31.0723 40.8449L28.3833 51.3766ZM37.6008 42.5116C37.9817 41.0187 39.324 39.9762 40.8647 39.9762H68.1283C69.6689 39.9762 71.0113 41.0187 71.3922 42.5118L74.4149 54.3497H34.5781L37.6008 42.5116Z" fill="#CFCFCF"/>
<path d="M34.7329 92.5293C38.7013 92.5293 41.9196 89.311 41.9196 85.3425V83.0967H27.5461V85.3425C27.5461 89.311 30.7645 92.5293 34.7329 92.5293Z" fill="#CFCFCF"/>
<path d="M74.26 92.5293C78.2284 92.5293 81.4467 89.311 81.4467 85.3425V83.0967H67.0732V85.3425C67.0732 89.311 70.2916 92.5293 74.26 92.5293Z" fill="#CFCFCF"/>
</svg>
