<svg width="34" height="34" viewBox="0 0 34 34" fill="none" xmlns="http://www.w3.org/2000/svg">
<path d="M22.2612 7.65963C21.3797 6.57576 19.7427 6.10156 17.6964 6.10156H11.6834C11.2741 6.10156 10.8964 6.44027 10.8334 6.88059L8.31489 23.9516C8.25193 24.2903 8.50378 24.5951 8.81859 24.5951H12.5334L13.4779 18.2274L13.4464 18.4306C13.5093 17.9903 13.8556 17.6516 14.2964 17.6516H16.0593C19.5223 17.6516 22.2297 16.1274 23.0167 11.758C23.0482 11.6225 23.0482 11.487 23.0797 11.3854C22.9853 11.3177 22.9853 11.3177 23.0797 11.3854C23.3001 9.75963 23.0797 8.67576 22.2612 7.65963Z" fill="#263B80"/>
<path d="M23.0799 11.3855C23.0484 11.521 23.0484 11.6226 23.0169 11.7581C22.2299 16.1274 19.5225 17.6516 16.0595 17.6516H14.2966C13.8873 17.6516 13.5095 17.9903 13.4466 18.4307L12.2817 26.3226C12.2503 26.6274 12.4391 26.8984 12.7225 26.8984H15.8391C16.2169 26.8984 16.5317 26.5936 16.5947 26.221L16.6262 26.0516L17.2243 22.0549L17.2558 21.8178C17.3188 21.4113 17.6336 21.1403 18.0114 21.1403H18.4836C21.5058 21.1403 23.8669 19.8194 24.5595 15.992C24.8429 14.4 24.6854 13.0452 23.9299 12.1307C23.678 11.8258 23.3947 11.5887 23.0799 11.3855Z" fill="#139AD6"/>
<path d="M22.2296 11.0468C22.1037 11.0129 21.9778 10.979 21.8518 10.9452C21.7259 10.9113 21.6 10.8774 21.4426 10.8774C20.9704 10.7758 20.4352 10.7419 19.9 10.7419H15.2093C15.0833 10.7419 14.9889 10.7758 14.8944 10.8097C14.6741 10.9113 14.5167 11.1484 14.4852 11.4194L13.4778 18.2274L13.4463 18.4307C13.5093 17.9903 13.8555 17.6516 14.2963 17.6516H16.0593C19.5222 17.6516 22.2296 16.1274 23.0167 11.7581C23.0481 11.6226 23.0481 11.4871 23.0796 11.3855C22.8907 11.2839 22.6704 11.1823 22.4185 11.0807C22.3555 11.0807 22.2926 11.0468 22.2296 11.0468Z" fill="#232C65"/>
<path d="M17.6649 6.10156H11.6834C11.2741 6.10156 10.8964 6.44027 10.8334 6.88059L9.38525 16.6354L19.0816 6.20318C18.6408 6.13543 18.1686 6.10156 17.6649 6.10156Z" fill="#2A4DAD"/>
<path d="M24.213 12.6049C24.1186 12.4355 24.0556 12.2661 23.9297 12.0968C23.7093 11.8258 23.3945 11.5887 23.0797 11.3855C23.0482 11.521 23.0482 11.6226 23.0167 11.7581C22.2297 16.1274 19.5223 17.6516 16.0593 17.6516H14.2964C13.8871 17.6516 13.5093 17.9903 13.4464 18.4307L12.439 25.2726L24.213 12.6049Z" fill="#0D7DBC"/>
<path d="M8.81871 24.5952H12.5335L13.4465 18.4307C13.4465 18.3291 13.478 18.2613 13.5094 18.1936L8.34648 23.7484L8.315 23.9517C8.28352 24.2904 8.50389 24.5952 8.81871 24.5952Z" fill="#232C65"/>
<path d="M16.5318 6.10156H11.6836C11.5577 6.10156 11.4632 6.13543 11.3688 6.1693L10.8966 6.67737C10.8651 6.74511 10.8336 6.81285 10.8336 6.88059L9.88916 13.2483L16.5318 6.10156Z" fill="#436BC4"/>
<path d="M24.5593 15.9579C24.6538 15.4499 24.6853 14.9757 24.6853 14.5015L18.5464 21.1063C21.5371 21.0724 23.8668 19.7515 24.5593 15.9579Z" fill="#0CB2ED"/>
<path d="M16.6258 26.0514L17.1295 22.6643L13.1943 26.8982H15.8703C16.248 26.8982 16.5629 26.5933 16.6258 26.2208V26.0514Z" fill="#0CB2ED"/>
<g opacity="0.6">
<path d="M22.8911 12.2999L24.6856 14.2305C24.6856 13.9934 24.6226 13.7563 24.5911 13.5192L23.017 11.8257C22.9541 11.995 22.9226 12.1305 22.8911 12.2999Z" fill="#33E2FF"/>
<path d="M22.4501 13.7224C22.3872 13.8579 22.3242 13.9934 22.2612 14.1289L24.4335 16.466C24.4649 16.2966 24.4964 16.1273 24.5279 15.9579L22.4501 13.7224Z" fill="#33E2FF"/>
<path d="M23.8042 18.2612C23.8672 18.1257 23.9301 17.9902 23.9931 17.8547L21.6005 15.2805C21.506 15.3821 21.4431 15.5176 21.3486 15.6192L23.8042 18.2612Z" fill="#33E2FF"/>
<path d="M20.0264 16.7032L22.7653 19.6499C22.8597 19.5483 22.9541 19.4467 23.0486 19.3451L20.3727 16.4661C20.2467 16.5338 20.1523 16.6015 20.0264 16.7032Z" fill="#33E2FF"/>
<path d="M18.3579 17.3806L21.3487 20.5983C21.4746 20.5306 21.6005 20.4629 21.7264 20.3951L18.7987 17.2451C18.6412 17.279 18.5153 17.3467 18.3579 17.3806Z" fill="#33E2FF"/>
<path d="M19.4594 21.0725C19.6168 21.0386 19.8057 21.0386 19.9631 21.0048L16.815 17.6177C16.6261 17.6177 16.4687 17.6515 16.2798 17.6515L19.4594 21.0725Z" fill="#33E2FF"/>
<path d="M14.5486 17.6516H14.2968C14.2023 17.6516 14.1079 17.6855 14.0449 17.6855L17.4449 21.3774C17.5394 21.2758 17.6653 21.1742 17.7912 21.1403L14.5486 17.6516Z" fill="#33E2FF"/>
<path d="M13.2891 19.4128L17.0039 23.4096L17.0983 22.8676L13.3835 18.8708L13.2891 19.4128Z" fill="#33E2FF"/>
<path d="M12.9741 21.5466L16.6889 25.5434L16.7834 25.0353L13.0686 21.0386L12.9741 21.5466Z" fill="#33E2FF"/>
<path d="M12.7539 23.1724L12.6909 23.7143L15.6502 26.8982H15.8705C15.965 26.8982 16.0594 26.8643 16.1539 26.8304L12.7539 23.1724Z" fill="#33E2FF"/>
<path d="M12.3447 25.8482L13.3207 26.8982H13.8873L12.4392 25.3401L12.3447 25.8482Z" fill="#33E2FF"/>
</g>
</svg>
