<svg width="34" height="34" viewBox="0 0 34 34" fill="none" xmlns="http://www.w3.org/2000/svg">
<path fill-rule="evenodd" clip-rule="evenodd" d="M0 22.5201H3.66984V19.2801C4.47936 19.2801 5.23492 19.2801 6.04444 19.2801C6.15238 19.2801 6.26032 19.2801 6.42222 19.2801C6.90794 19.2201 7.39365 19.1601 7.77143 18.9801C8.20317 18.8601 8.52698 18.6201 8.79682 18.3801C9.06667 18.1401 9.33651 17.8401 9.49841 17.5401C9.71428 17.2401 9.82222 16.8201 9.93016 16.4001C10.0381 15.9801 10.0921 15.5001 10.0381 15.0201C10.0381 14.5401 9.98413 14.1201 9.82222 13.7601C9.71429 13.4001 9.55238 13.0401 9.33651 12.7401C9.1746 12.4401 8.90476 12.2001 8.63492 12.0201C8.31111 11.8401 7.9873 11.6601 7.55556 11.5401C7.12381 11.4201 6.63809 11.3601 6.09841 11.3601H0V22.5201ZM3.66984 13.8801C4.26349 13.8801 4.80317 13.8201 5.39682 13.9401C5.50476 13.9401 5.66667 14.0001 5.7746 14.0601C5.88254 14.1201 5.99048 14.1801 6.04444 14.2401C6.42222 14.6601 6.53016 15.0801 6.42222 15.5601C6.36825 15.8001 6.31429 15.9801 6.15238 16.1601C6.09841 16.2201 5.99048 16.3401 5.88254 16.4001C5.50476 16.6401 5.01905 16.7001 4.53333 16.7001H3.66984V13.8801Z" fill="#6E7A8E"/>
<path fill-rule="evenodd" clip-rule="evenodd" d="M0 22.5201H3.66984V19.2801C4.47936 19.2801 5.23492 19.2801 6.04444 19.2801C6.15238 19.2801 6.26032 19.2801 6.42222 19.2801C6.90794 19.2201 7.39365 19.1601 7.77143 18.9801C8.20317 18.8601 8.52698 18.6201 8.79682 18.3801C9.06667 18.1401 9.33651 17.8401 9.49841 17.5401C9.71428 17.2401 9.82222 16.8201 9.93016 16.4001C10.0381 15.9801 10.0921 15.5001 10.0381 15.0201C10.0381 14.5401 9.98413 14.1201 9.82222 13.7601C9.71429 13.4001 9.55238 13.0401 9.33651 12.7401C9.1746 12.4401 8.90476 12.2001 8.63492 12.0201C8.31111 11.8401 7.9873 11.6601 7.55556 11.5401C7.12381 11.4201 6.63809 11.3601 6.09841 11.3601L0 15.4401V22.5201ZM3.66984 13.8801C4.26349 13.8801 4.80317 13.8201 5.39682 13.9401C5.50476 13.9401 5.66667 14.0001 5.7746 14.0601C5.88254 14.1201 5.99048 14.1801 6.04444 14.2401C6.42222 14.6601 6.53016 15.0801 6.42222 15.5601C6.36825 15.8001 6.31429 15.9801 6.15238 16.1601C6.09841 16.2201 5.99048 16.3401 5.88254 16.4001C5.50476 16.6401 5.01905 16.7001 4.53333 16.7001H3.66984V13.8801Z" fill="#505F7C"/>
<path fill-rule="evenodd" clip-rule="evenodd" d="M7.01611 22.5202H10.686V19.2802C11.4955 19.2802 12.251 19.2802 13.0606 19.2802C13.1685 19.2802 13.2764 19.2802 13.4383 19.2802C13.924 19.2202 14.4098 19.1602 14.7875 18.9802C15.2193 18.8602 15.5431 18.6202 15.8129 18.3802C16.0828 18.1402 16.3526 17.8402 16.5145 17.5402C16.7304 17.2402 16.8383 16.8202 16.9463 16.4002C17.0542 15.9802 17.1082 15.5002 17.0542 15.0202C17.0542 14.5402 17.0002 14.1202 16.8383 13.7002C16.7304 13.4002 16.5685 13.1002 16.4066 12.8002C16.1907 12.5002 15.9209 12.2602 15.651 12.0802C15.3272 11.9002 15.0034 11.7202 14.5717 11.6002C14.1399 11.4802 13.6542 11.4202 13.1145 11.4202H7.01611V22.5202ZM10.686 13.9402C11.2796 13.9402 11.8193 13.8802 12.4129 14.0002C12.5209 14.0002 12.6828 14.0602 12.7907 14.1202C12.8987 14.1802 13.0066 14.2402 13.0606 14.3002C13.4383 14.7202 13.5463 15.1402 13.4383 15.6202C13.3844 15.8602 13.3304 16.0402 13.1685 16.2202C13.1145 16.2802 13.0066 16.4002 12.8987 16.4602C12.5209 16.7002 12.0352 16.7602 11.5494 16.7602H10.632V13.9402H10.686Z" fill="#6E7A8E"/>
<path fill-rule="evenodd" clip-rule="evenodd" d="M7.01611 22.5202H10.686V19.2802C11.4955 19.2802 12.251 19.2802 13.0606 19.2802C13.1685 19.2802 13.2764 19.2802 13.4383 19.2802C13.924 19.2202 14.4098 19.1602 14.7875 18.9802C15.2193 18.8602 15.5431 18.6202 15.8129 18.3802C16.0828 18.1402 16.3526 17.8402 16.5145 17.5402C16.7304 17.2402 16.8383 16.8202 16.9463 16.4002C17.0542 15.9802 17.1082 15.5002 17.0542 15.0202C17.0542 14.5402 17.0002 14.1202 16.8383 13.7002C16.7304 13.4002 16.5685 13.1002 16.4066 12.8002C16.1907 12.5002 15.9209 12.2602 15.651 12.0802C15.3272 11.9002 15.0034 11.7202 14.5717 11.6002C14.1399 11.4802 13.6542 11.4202 13.1145 11.4202L7.01611 15.4402V22.5202ZM10.686 13.9402C11.2796 13.9402 11.8193 13.8802 12.4129 14.0002C12.5209 14.0002 12.6828 14.0602 12.7907 14.1202C12.8987 14.1802 13.0066 14.2402 13.0606 14.3002C13.4383 14.7202 13.5463 15.1402 13.4383 15.6202C13.3844 15.8602 13.3304 16.0402 13.1685 16.2202C13.1145 16.2802 13.0066 16.4002 12.8987 16.4602C12.5209 16.7002 12.0352 16.7602 11.5494 16.7602H10.632V13.9402H10.686Z" fill="#505F7C"/>
<path fill-rule="evenodd" clip-rule="evenodd" d="M7.01611 19.1602C7.17802 19.1002 7.33992 19.1002 7.50183 19.0402C7.87961 18.9202 8.20341 18.8002 8.52722 18.5602C8.85103 18.3802 9.06691 18.1402 9.28278 17.8402C9.49865 17.5402 9.66056 17.2402 9.82246 16.8802C9.9304 16.5202 10.0383 16.1002 10.0383 15.6202C10.0923 15.2002 10.0383 14.7202 9.98437 14.3002C9.9304 13.8802 9.82246 13.5202 9.66056 13.2202C9.49865 12.9202 9.28278 12.6202 9.06691 12.3802C8.79707 12.1402 8.52722 11.9602 8.20342 11.7802C7.82564 11.6002 7.44786 11.4802 7.01611 11.4802V19.1602Z" fill="#F4C82E"/>
<path fill-rule="evenodd" clip-rule="evenodd" d="M17.6475 12.02H19.9141C20.3998 12.02 20.7776 12.14 20.9935 12.38C21.1014 12.5 21.2094 12.68 21.2633 12.86C21.3173 13.04 21.3713 13.28 21.3713 13.52C21.3713 14 21.2633 14.42 20.9935 14.66C20.8856 14.78 20.6697 14.9 20.5078 14.96C20.13 15.08 19.5903 15.08 19.0506 15.08V16.88H17.7014V12.02H17.6475ZM19.0506 14.12H19.3744C19.6443 14.12 19.8062 14.06 19.9141 14C20.0221 13.88 20.076 13.76 20.076 13.64C20.076 13.46 20.0221 13.34 19.9141 13.28C19.8602 13.22 19.8062 13.16 19.6983 13.16C19.5363 13.1 19.2665 13.1 18.9967 13.1V14.12H19.0506Z" fill="#505F7C"/>
<path fill-rule="evenodd" clip-rule="evenodd" d="M21.4253 14.3602C21.4793 14.1202 21.5333 13.9402 21.5872 13.8202C21.6412 13.7602 21.6952 13.7002 21.7491 13.6402C21.8031 13.5802 21.8571 13.5202 21.965 13.4602C22.1809 13.3402 22.6666 13.2202 23.0444 13.2202C23.4221 13.2202 23.692 13.2202 23.9079 13.2802C24.0158 13.2802 24.1237 13.3402 24.2317 13.4002C24.3396 13.4602 24.3936 13.5202 24.5015 13.5802C24.7174 13.7602 24.8253 14.1802 24.8253 14.5402V16.1002C24.8253 16.4002 24.8253 16.5202 24.8793 16.6402C24.8793 16.7002 24.9333 16.7602 24.9333 16.8202H23.7999C23.692 16.6402 23.692 16.5802 23.692 16.5202C23.692 16.4602 23.692 16.4602 23.692 16.4002C23.5301 16.5802 23.3682 16.7002 23.2063 16.7602C22.9904 16.8802 22.7206 16.8802 22.4507 16.8802C22.0729 16.8802 21.8031 16.7602 21.5872 16.5802C21.4793 16.4602 21.4253 16.4002 21.3714 16.2802C21.3174 16.1602 21.3174 16.0402 21.3174 15.8602C21.3174 15.7402 21.3174 15.6202 21.3714 15.5002C21.4253 15.3802 21.4793 15.3202 21.5333 15.2002C21.5872 15.1402 21.6952 15.0202 21.8571 14.9602C21.965 14.9002 22.1269 14.8402 22.3428 14.7802C22.7745 14.6602 23.0983 14.6002 23.2063 14.5402C23.3682 14.4802 23.4761 14.4202 23.638 14.3602C23.638 14.1802 23.584 14.0602 23.5301 14.0002C23.4221 13.9402 23.3142 13.8802 23.2063 13.8802C23.0983 13.8802 23.0444 13.8802 22.9364 13.8802C22.8285 13.9402 22.7206 13.9402 22.6666 14.0602C22.6126 14.1202 22.6126 14.1802 22.5587 14.2402L21.4253 14.3602ZM23.638 15.2602C23.4761 15.3202 23.3142 15.3802 23.0983 15.4402C22.9904 15.5002 22.8825 15.5002 22.7745 15.5602C22.7206 15.6202 22.6666 15.6202 22.6126 15.6802C22.5587 15.7402 22.5047 15.8602 22.5047 15.9202C22.5047 16.0402 22.5587 16.1002 22.6126 16.1602C22.7206 16.2202 22.7745 16.2802 22.8825 16.2802C23.0444 16.2802 23.1523 16.2202 23.2602 16.1602C23.4761 16.0402 23.5301 15.8602 23.584 15.7402C23.638 15.5602 23.584 15.3802 23.638 15.2602Z" fill="#505F7C"/>
<path fill-rule="evenodd" clip-rule="evenodd" d="M24.8252 13.4001H26.1204L26.7681 15.7401L27.3617 13.4001H28.549L27.3077 17.1801C27.2538 17.4201 27.1458 17.6001 27.0919 17.7201C27.0379 17.8401 26.93 17.9601 26.876 18.0201C26.7681 18.1401 26.6601 18.2001 26.4982 18.2601C26.3363 18.3201 26.1744 18.3201 25.9585 18.3201C25.8506 18.3201 25.7427 18.3201 25.6347 18.3201C25.5268 18.3201 25.3649 18.2601 25.149 18.2601L25.0411 17.3001C25.203 17.3601 25.4188 17.4201 25.6347 17.4201C25.7966 17.4201 25.9046 17.3601 25.9585 17.3001C26.0125 17.2401 26.0665 17.2401 26.0665 17.1201C26.1204 17.0601 26.1204 17.0001 26.1744 16.8801L24.8252 13.4001Z" fill="#505F7C"/>
<path fill-rule="evenodd" clip-rule="evenodd" d="M17.6475 17.7202H19.9141C20.3998 17.7202 20.7776 17.8402 20.9935 18.0802C21.1014 18.2002 21.2094 18.3802 21.2633 18.5602C21.3173 18.7402 21.3713 18.9802 21.3713 19.2202C21.3713 19.7002 21.2633 20.1202 20.9935 20.3602C20.8856 20.4802 20.6697 20.6002 20.5078 20.6602C20.13 20.7802 19.5903 20.7802 19.0506 20.7802V22.5802H17.7014V17.7202H17.6475ZM19.0506 19.7602H19.3744C19.6443 19.7602 19.8062 19.7002 19.9141 19.6402C20.0221 19.5202 20.076 19.4002 20.076 19.2802C20.076 19.1002 20.0221 18.9802 19.9141 18.9202C19.8602 18.8602 19.8062 18.8002 19.6983 18.8002C19.5363 18.7402 19.2665 18.7402 18.9967 18.7402V19.7602H19.0506Z" fill="#F4C82E"/>
<path fill-rule="evenodd" clip-rule="evenodd" d="M21.8571 19.4602C22.019 19.2802 22.2348 19.1602 22.4507 19.0402C22.6666 18.9202 22.9364 18.9202 23.2063 18.9202C23.5301 18.9202 23.7999 18.9802 24.0158 19.1002C24.2317 19.2202 24.4475 19.3402 24.6094 19.5802C24.7174 19.7602 24.8253 19.9402 24.8793 20.1202C24.9333 20.3002 24.9872 20.5402 24.9872 20.7802C24.9872 21.3202 24.8253 21.7402 24.5015 22.1002C24.3396 22.2802 24.1237 22.4002 23.9079 22.4602C23.692 22.5202 23.4221 22.5802 23.1523 22.5802C22.8825 22.5802 22.6666 22.5202 22.4507 22.4602C22.2348 22.4002 22.0729 22.2802 21.911 22.1602C21.6952 21.9802 21.5872 21.8002 21.4793 21.5602C21.3714 21.3202 21.3174 21.0802 21.3174 20.7802C21.3714 20.3002 21.5333 19.8202 21.8571 19.4602ZM22.7745 21.5002C22.8825 21.6802 23.0444 21.7402 23.2063 21.7402C23.3682 21.7402 23.5301 21.6802 23.638 21.5002C23.692 21.4402 23.746 21.3202 23.746 21.2002C23.7999 21.0802 23.7999 20.9602 23.7999 20.7802C23.7999 20.4802 23.746 20.2402 23.638 20.1202C23.5301 19.9402 23.3682 19.8802 23.2063 19.8802C23.0444 19.8802 22.8825 19.9402 22.7745 20.1202C22.7206 20.1802 22.6666 20.3002 22.6666 20.4202C22.6126 20.5402 22.6126 20.6602 22.6126 20.8402C22.5587 21.1402 22.6666 21.3802 22.7745 21.5002Z" fill="#F4C82E"/>
<path fill-rule="evenodd" clip-rule="evenodd" d="M27.3621 19.04H28.4954V19.64C28.6573 19.4 28.8192 19.22 28.9811 19.16C29.197 19.04 29.4129 19.04 29.6287 19.04C29.9526 19.04 30.2224 19.16 30.4383 19.4C30.5462 19.52 30.6002 19.64 30.6541 19.82C30.7081 20 30.7081 20.18 30.7081 20.42V22.64H29.4668V20.6C29.4668 20.36 29.4129 20.24 29.3589 20.12C29.251 20 29.143 20 29.0351 20C28.8732 20 28.7652 20.06 28.6573 20.18C28.6033 20.24 28.6033 20.3 28.5494 20.42C28.5494 20.54 28.4954 20.66 28.4954 20.84V22.52H27.3081V19.04H27.3621Z" fill="#F7AE0D"/>
<path fill-rule="evenodd" clip-rule="evenodd" d="M32.7589 17.7202V19.0402H33.4065V20.0002H32.7589V21.2602C32.7589 21.3202 32.7589 21.3802 32.7589 21.4402C32.7589 21.5002 32.7589 21.5002 32.8129 21.5602C32.9208 21.7402 33.0288 21.6802 33.1907 21.6802C33.2446 21.6802 33.2986 21.6202 33.4065 21.6202L33.5145 22.5802C33.2446 22.6402 32.9748 22.7002 32.651 22.7002C32.3272 22.7002 32.1113 22.6402 32.0034 22.5802C31.8415 22.5202 31.7335 22.3402 31.6796 22.1602C31.6256 22.1002 31.6256 21.9802 31.6256 21.8002C31.6256 21.6802 31.6256 21.5002 31.6256 21.3202V20.0602H31.1938V19.1002H31.6256V18.4402L32.7589 17.7202Z" fill="#F7AE0D"/>
<path d="M26.6604 19.04H25.4731V22.58H26.6604V19.04Z" fill="#F4C82E"/>
<path fill-rule="evenodd" clip-rule="evenodd" d="M9.76849 13.5801L7.01611 15.4401V19.1601C7.17802 19.1001 7.33992 19.1001 7.50183 19.0401C7.87961 18.9201 8.20341 18.8001 8.52722 18.5601C8.85103 18.3801 9.06691 18.1401 9.28278 17.8401C9.49865 17.5401 9.66056 17.2401 9.82246 16.8801C9.9304 16.5201 10.0383 16.1001 10.0383 15.6201C10.0923 15.2001 10.0383 14.7201 9.98437 14.3001C9.9304 14.0001 9.87643 13.7601 9.76849 13.5801Z" fill="#F7AE0D"/>
<path fill-rule="evenodd" clip-rule="evenodd" d="M26.7144 19.1001L25.4731 19.8801V22.5801H26.7144V19.1001Z" fill="#F7AE0D"/>
<path fill-rule="evenodd" clip-rule="evenodd" d="M22.5048 22.52C22.7206 22.58 22.9365 22.64 23.2063 22.64C23.4762 22.64 23.746 22.58 23.9619 22.52C24.1778 22.46 24.3936 22.28 24.5556 22.16C24.8794 21.8 25.0413 21.38 25.0413 20.84C25.0413 20.66 25.0413 20.48 24.9873 20.3L23.746 21.08C23.746 21.14 23.746 21.2 23.746 21.26C23.6921 21.38 23.6921 21.5 23.6381 21.56C23.5302 21.68 23.3682 21.8 23.2063 21.8C23.0984 21.8 22.9905 21.8 22.9365 21.74L22.019 22.34C22.127 22.4 22.2889 22.46 22.5048 22.52Z" fill="#F7AE0D"/>
</svg>
