<svg width="19" height="19" viewBox="0 0 19 19" fill="none" xmlns="http://www.w3.org/2000/svg">
<g clip-path="url(#clip0_860_10617)">
<path d="M9.5 0C7.62108 0 5.78435 0.557165 4.22209 1.60104C2.65982 2.64491 1.44218 4.12861 0.723149 5.86451C0.00411622 7.60041 -0.184015 9.51054 0.182544 11.3534C0.549104 13.1962 1.45389 14.8889 2.78249 16.2175C4.11109 17.5461 5.80383 18.4509 7.64665 18.8175C9.48947 19.184 11.3996 18.9959 13.1355 18.2769C14.8714 17.5578 16.3551 16.3402 17.399 14.7779C18.4428 13.2157 19 11.3789 19 9.5C18.9972 6.9813 17.9954 4.56657 16.2144 2.78558C14.4334 1.00459 12.0187 0.00280282 9.5 0V0ZM8.23334 12.0333C8.23334 12.2013 8.16661 12.3624 8.04784 12.4812C7.92907 12.5999 7.76797 12.6667 7.6 12.6667C7.43203 12.6667 7.27094 12.5999 7.15217 12.4812C7.0334 12.3624 6.96667 12.2013 6.96667 12.0333V6.96667C6.96667 6.7987 7.0334 6.63761 7.15217 6.51883C7.27094 6.40006 7.43203 6.33333 7.6 6.33333C7.76797 6.33333 7.92907 6.40006 8.04784 6.51883C8.16661 6.63761 8.23334 6.7987 8.23334 6.96667V12.0333ZM12.0333 12.0333C12.0333 12.2013 11.9666 12.3624 11.8478 12.4812C11.7291 12.5999 11.568 12.6667 11.4 12.6667C11.232 12.6667 11.0709 12.5999 10.9522 12.4812C10.8334 12.3624 10.7667 12.2013 10.7667 12.0333V6.96667C10.7667 6.7987 10.8334 6.63761 10.9522 6.51883C11.0709 6.40006 11.232 6.33333 11.4 6.33333C11.568 6.33333 11.7291 6.40006 11.8478 6.51883C11.9666 6.63761 12.0333 6.7987 12.0333 6.96667V12.0333Z" fill="#9B9B9B"/>
</g>
<defs>
<clipPath id="clip0_860_10617">
<rect width="19" height="19" fill="white"/>
</clipPath>
</defs>
</svg>
