<svg width="22" height="22" viewBox="0 0 22 22" fill="none" xmlns="http://www.w3.org/2000/svg">
<path d="M11.8969 15.0266H9.68238C8.4423 15.0209 7.25463 14.5257 6.37775 13.6488C5.50086 12.7719 5.00571 11.5843 5 10.3442V7.42765C5 7.33168 5.03812 7.23964 5.10598 7.17178C5.17384 7.10392 5.26588 7.0658 5.36185 7.0658H16.2175C16.3134 7.0658 16.4055 7.10392 16.4733 7.17178C16.5412 7.23964 16.5793 7.33168 16.5793 7.42765V10.3442C16.5736 11.5843 16.0784 12.7719 15.2016 13.6488C14.3247 14.5257 13.137 15.0209 11.8969 15.0266ZM5.72371 7.7895V10.3442C5.72941 11.3923 6.14831 12.3959 6.88948 13.1371C7.63064 13.8783 8.63423 14.2972 9.68238 14.3029H11.8969C12.9451 14.2972 13.9487 13.8783 14.6898 13.1371C15.431 12.3959 15.8499 11.3923 15.8556 10.3442V7.7895H5.72371Z" fill="#9B9B9B"/>
<path d="M16.217 19.731C16.1785 19.736 16.1396 19.736 16.1012 19.731C16.056 19.7159 16.0142 19.692 15.9782 19.6607C15.9423 19.6294 15.9129 19.5913 15.8917 19.5486C15.8705 19.5059 15.858 19.4595 15.8548 19.4119C15.8516 19.3643 15.8579 19.3166 15.8732 19.2715C16.0726 18.5075 16.0726 17.7051 15.8732 16.9411C15.8732 16.8832 15.8406 16.876 15.8262 16.8688C15.4643 16.6987 14.2268 17.2596 13.4054 17.6323C12.0846 18.2257 11.0425 18.6961 10.5395 18.1968C9.70723 17.3645 10.3188 15.0414 10.449 14.5782C10.4593 14.5312 10.4788 14.4866 10.5064 14.4472C10.5341 14.4078 10.5694 14.3743 10.6101 14.3487C10.6509 14.3231 10.6964 14.3059 10.7439 14.2981C10.7914 14.2903 10.84 14.292 10.8869 14.3032C10.9353 14.3144 10.981 14.3355 11.0209 14.3651C11.0609 14.3948 11.0943 14.4323 11.1191 14.4754C11.1439 14.5186 11.1595 14.5663 11.165 14.6158C11.1705 14.6652 11.1657 14.7153 11.151 14.7628C10.876 15.7325 10.6661 17.2704 11.0606 17.6576C11.2958 17.7662 12.432 17.2523 13.1123 16.9339C14.3896 16.3585 15.4933 15.8483 16.1482 16.1812C16.2589 16.2364 16.3553 16.3164 16.43 16.4149C16.5047 16.5135 16.5556 16.6279 16.5788 16.7493C16.8187 17.6454 16.8187 18.5889 16.5788 19.485C16.5536 19.5599 16.5046 19.6245 16.4393 19.6689C16.374 19.7133 16.2959 19.7351 16.217 19.731Z" fill="#9B9B9B"/>
<path d="M6.80961 7.78965C6.71364 7.78965 6.6216 7.75153 6.55374 7.68367C6.48588 7.61581 6.44775 7.52377 6.44775 7.4278V2.36185C6.44775 2.26588 6.48588 2.17385 6.55374 2.10598C6.6216 2.03812 6.71364 2 6.80961 2C6.90558 2 6.99762 2.03812 7.06548 2.10598C7.13334 2.17385 7.17146 2.26588 7.17146 2.36185V7.4278C7.17146 7.52377 7.13334 7.61581 7.06548 7.68367C6.99762 7.75153 6.90558 7.78965 6.80961 7.78965Z" fill="#9B9B9B"/>
<path d="M7.89457 7.78965C7.7986 7.78965 7.70656 7.75153 7.6387 7.68367C7.57084 7.61581 7.53271 7.52377 7.53271 7.4278V2.36185C7.53271 2.26588 7.57084 2.17385 7.6387 2.10598C7.70656 2.03812 7.7986 2 7.89457 2C7.99054 2 8.08258 2.03812 8.15044 2.10598C8.2183 2.17385 8.25642 2.26588 8.25642 2.36185V7.4278C8.25642 7.52377 8.2183 7.61581 8.15044 7.68367C8.08258 7.75153 7.99054 7.78965 7.89457 7.78965Z" fill="#9B9B9B"/>
<path d="M14.7701 7.78965C14.6741 7.78965 14.582 7.75153 14.5142 7.68367C14.4463 7.61581 14.4082 7.52377 14.4082 7.4278V2.36185C14.4082 2.26588 14.4463 2.17385 14.5142 2.10598C14.582 2.03812 14.6741 2 14.7701 2C14.866 2 14.9581 2.03812 15.0259 2.10598C15.0938 2.17385 15.1319 2.26588 15.1319 2.36185V7.4278C15.1319 7.52377 15.0938 7.61581 15.0259 7.68367C14.9581 7.75153 14.866 7.78965 14.7701 7.78965Z" fill="#9B9B9B"/>
<path d="M13.6846 7.78965C13.5886 7.78965 13.4966 7.75153 13.4287 7.68367C13.3609 7.61581 13.3228 7.52377 13.3228 7.4278V2.36185C13.3228 2.26588 13.3609 2.17385 13.4287 2.10598C13.4966 2.03812 13.5886 2 13.6846 2C13.7806 2 13.8726 2.03812 13.9405 2.10598C14.0083 2.17385 14.0465 2.26588 14.0465 2.36185V7.4278C14.0465 7.52377 14.0083 7.61581 13.9405 7.68367C13.8726 7.75153 13.7806 7.78965 13.6846 7.78965Z" fill="#9B9B9B"/>
<path d="M15.1318 8.87495H6.4473C6.35133 8.87495 6.25929 8.83683 6.19143 8.76897C6.12357 8.70111 6.08545 8.60907 6.08545 8.5131C6.08545 8.41713 6.12357 8.32509 6.19143 8.25723C6.25929 8.18937 6.35133 8.15125 6.4473 8.15125H15.1318C15.2278 8.15125 15.3198 8.18937 15.3877 8.25723C15.4555 8.32509 15.4936 8.41713 15.4936 8.5131C15.4936 8.60907 15.4555 8.70111 15.3877 8.76897C15.3198 8.83683 15.2278 8.87495 15.1318 8.87495Z" fill="#9B9B9B"/>
<path d="M12.9604 13.9417H8.98002C8.88405 13.9417 8.79201 13.9035 8.72415 13.8357C8.65629 13.7678 8.61816 13.6758 8.61816 13.5798C8.61816 13.4838 8.65629 13.3918 8.72415 13.3239C8.79201 13.2561 8.88405 13.218 8.98002 13.218H12.9604C13.0564 13.218 13.1484 13.2561 13.2163 13.3239C13.2841 13.3918 13.3223 13.4838 13.3223 13.5798C13.3223 13.6758 13.2841 13.7678 13.2163 13.8357C13.1484 13.9035 13.0564 13.9417 12.9604 13.9417Z" fill="#9B9B9B"/>
</svg>
