<svg width="22" height="22" viewBox="0 0 22 22" fill="none" xmlns="http://www.w3.org/2000/svg">
<path d="M11.8969 15.0267H9.68238C8.4423 15.021 7.25463 14.5258 6.37775 13.6489C5.50086 12.7721 5.00571 11.5844 5 10.3443V7.42777C5 7.3318 5.03812 7.23976 5.10598 7.1719C5.17384 7.10404 5.26588 7.06592 5.36185 7.06592H16.2175C16.3134 7.06592 16.4055 7.10404 16.4733 7.1719C16.5412 7.23976 16.5793 7.3318 16.5793 7.42777V10.3443C16.5736 11.5844 16.0784 12.7721 15.2016 13.6489C14.3247 14.5258 13.137 15.021 11.8969 15.0267ZM5.72371 7.78962V10.3443C5.72941 11.3925 6.14831 12.3961 6.88948 13.1372C7.63064 13.8784 8.63423 14.2973 9.68238 14.303H11.8969C12.9451 14.2973 13.9487 13.8784 14.6898 13.1372C15.431 12.3961 15.8499 11.3925 15.8556 10.3443V7.78962H5.72371Z" fill="#17871B"/>
<path d="M16.217 19.7312C16.1785 19.7362 16.1396 19.7362 16.1012 19.7312C16.056 19.7161 16.0142 19.6922 15.9782 19.6609C15.9423 19.6296 15.9129 19.5915 15.8917 19.5488C15.8705 19.5061 15.858 19.4596 15.8548 19.4121C15.8516 19.3645 15.8579 19.3168 15.8732 19.2716C16.0726 18.5077 16.0726 17.7053 15.8732 16.9413C15.8732 16.8834 15.8406 16.8762 15.8262 16.8689C15.4643 16.6989 14.2268 17.2597 13.4054 17.6325C12.0846 18.2259 11.0425 18.6963 10.5395 18.1969C9.70723 17.3647 10.3188 15.0416 10.449 14.5784C10.4593 14.5314 10.4788 14.4868 10.5064 14.4474C10.5341 14.408 10.5694 14.3745 10.6101 14.3489C10.6509 14.3233 10.6964 14.3061 10.7439 14.2982C10.7914 14.2904 10.84 14.2922 10.8869 14.3034C10.9353 14.3146 10.981 14.3357 11.0209 14.3653C11.0609 14.395 11.0943 14.4325 11.1191 14.4756C11.1439 14.5188 11.1595 14.5665 11.165 14.616C11.1705 14.6654 11.1657 14.7154 11.151 14.763C10.876 15.7327 10.6661 17.2706 11.0606 17.6578C11.2958 17.7663 12.432 17.2525 13.1123 16.9341C14.3896 16.3587 15.4933 15.8485 16.1482 16.1814C16.2589 16.2366 16.3553 16.3166 16.43 16.4151C16.5047 16.5136 16.5556 16.6281 16.5788 16.7495C16.8187 17.6456 16.8187 18.589 16.5788 19.4851C16.5536 19.56 16.5046 19.6246 16.4393 19.6691C16.374 19.7135 16.2959 19.7353 16.217 19.7312Z" fill="#17871B"/>
<path d="M6.80961 7.78965C6.71364 7.78965 6.6216 7.75153 6.55374 7.68367C6.48588 7.61581 6.44775 7.52377 6.44775 7.4278V2.36185C6.44775 2.26588 6.48588 2.17385 6.55374 2.10598C6.6216 2.03812 6.71364 2 6.80961 2C6.90558 2 6.99762 2.03812 7.06548 2.10598C7.13334 2.17385 7.17146 2.26588 7.17146 2.36185V7.4278C7.17146 7.52377 7.13334 7.61581 7.06548 7.68367C6.99762 7.75153 6.90558 7.78965 6.80961 7.78965Z" fill="#17871B"/>
<path d="M7.89457 7.78965C7.7986 7.78965 7.70656 7.75153 7.6387 7.68367C7.57084 7.61581 7.53271 7.52377 7.53271 7.4278V2.36185C7.53271 2.26588 7.57084 2.17385 7.6387 2.10598C7.70656 2.03812 7.7986 2 7.89457 2C7.99054 2 8.08258 2.03812 8.15044 2.10598C8.2183 2.17385 8.25642 2.26588 8.25642 2.36185V7.4278C8.25642 7.52377 8.2183 7.61581 8.15044 7.68367C8.08258 7.75153 7.99054 7.78965 7.89457 7.78965Z" fill="#17871B"/>
<path d="M14.7701 7.78965C14.6741 7.78965 14.582 7.75153 14.5142 7.68367C14.4463 7.61581 14.4082 7.52377 14.4082 7.4278V2.36185C14.4082 2.26588 14.4463 2.17385 14.5142 2.10598C14.582 2.03812 14.6741 2 14.7701 2C14.866 2 14.9581 2.03812 15.0259 2.10598C15.0938 2.17385 15.1319 2.26588 15.1319 2.36185V7.4278C15.1319 7.52377 15.0938 7.61581 15.0259 7.68367C14.9581 7.75153 14.866 7.78965 14.7701 7.78965Z" fill="#17871B"/>
<path d="M13.6846 7.78965C13.5886 7.78965 13.4966 7.75153 13.4287 7.68367C13.3609 7.61581 13.3228 7.52377 13.3228 7.4278V2.36185C13.3228 2.26588 13.3609 2.17385 13.4287 2.10598C13.4966 2.03812 13.5886 2 13.6846 2C13.7806 2 13.8726 2.03812 13.9405 2.10598C14.0083 2.17385 14.0465 2.26588 14.0465 2.36185V7.4278C14.0465 7.52377 14.0083 7.61581 13.9405 7.68367C13.8726 7.75153 13.7806 7.78965 13.6846 7.78965Z" fill="#17871B"/>
<path d="M15.1318 8.87507H6.4473C6.35133 8.87507 6.25929 8.83695 6.19143 8.76909C6.12357 8.70123 6.08545 8.60919 6.08545 8.51322C6.08545 8.41725 6.12357 8.32521 6.19143 8.25735C6.25929 8.18949 6.35133 8.15137 6.4473 8.15137H15.1318C15.2278 8.15137 15.3198 8.18949 15.3877 8.25735C15.4555 8.32521 15.4936 8.41725 15.4936 8.51322C15.4936 8.60919 15.4555 8.70123 15.3877 8.76909C15.3198 8.83695 15.2278 8.87507 15.1318 8.87507Z" fill="#17871B"/>
<path d="M12.9604 13.9415H8.98002C8.88405 13.9415 8.79201 13.9034 8.72415 13.8355C8.65629 13.7676 8.61816 13.6756 8.61816 13.5796C8.61816 13.4837 8.65629 13.3916 8.72415 13.3238C8.79201 13.2559 8.88405 13.2178 8.98002 13.2178H12.9604C13.0564 13.2178 13.1484 13.2559 13.2163 13.3238C13.2841 13.3916 13.3223 13.4837 13.3223 13.5796C13.3223 13.6756 13.2841 13.7676 13.2163 13.8355C13.1484 13.9034 13.0564 13.9415 12.9604 13.9415Z" fill="#17871B"/>
</svg>
