<svg width="22" height="22" viewBox="0 0 22 22" fill="none" xmlns="http://www.w3.org/2000/svg">
<path d="M11.4375 16.7273V18.6364H17.0625V20.5455H11.4375C10.9402 20.5455 10.4633 20.3444 10.1117 19.9863C9.76004 19.6283 9.5625 19.1427 9.5625 18.6364V16.7273H6.75C5.75544 16.7273 4.80161 16.325 4.09835 15.609C3.39509 14.8929 3 13.9218 3 12.9091V9.09095H18V12.9091C18 13.9218 17.6049 14.8929 16.9016 15.609C16.1984 16.325 15.2446 16.7273 14.25 16.7273H11.4375ZM14.25 5.27277H17.0625C17.3111 5.27277 17.5496 5.37334 17.7254 5.55235C17.9012 5.73136 18 5.97416 18 6.22732V8.13641H3V6.22732C3 5.97416 3.09877 5.73136 3.27459 5.55235C3.4504 5.37334 3.68886 5.27277 3.9375 5.27277H6.75V1.45459H8.625V5.27277H12.375V1.45459H14.25V5.27277ZM10.5 13.3864C10.7486 13.3864 10.9871 13.2858 11.1629 13.1068C11.3387 12.9278 11.4375 12.685 11.4375 12.4319C11.4375 12.1787 11.3387 11.9359 11.1629 11.7569C10.9871 11.5779 10.7486 11.4773 10.5 11.4773C10.2514 11.4773 10.0129 11.5779 9.83709 11.7569C9.66127 11.9359 9.5625 12.1787 9.5625 12.4319C9.5625 12.685 9.66127 12.9278 9.83709 13.1068C10.0129 13.2858 10.2514 13.3864 10.5 13.3864Z" fill="#17871B"/>
</svg>
