<svg width="22" height="22" viewBox="0 0 22 22" fill="none" xmlns="http://www.w3.org/2000/svg">
<path d="M10.8165 9.99167C8.73566 9.45083 8.06649 8.89625 8.06649 8.02542C8.06649 7.02625 8.98774 6.325 10.5415 6.325C12.1732 6.325 12.7782 7.10417 12.8332 8.25H14.859C14.7994 6.66875 13.8323 5.22958 11.9165 4.7575V2.75H9.16649V4.73C7.38816 5.11958 5.95816 6.26542 5.95816 8.03917C5.95816 10.1567 7.71357 11.2108 10.2665 11.825C12.5627 12.375 13.0165 13.1771 13.0165 14.0387C13.0165 14.6667 12.5719 15.675 10.5415 15.675C8.65316 15.675 7.90607 14.8271 7.80982 13.75H5.78857C5.90316 15.7575 7.40191 16.8804 9.16649 17.2608V19.25H11.9165V17.2792C13.6994 16.9354 15.1248 15.9042 15.1248 14.0204C15.1248 11.4263 12.8973 10.5371 10.8165 9.99167Z" fill="#17871B"/>
</svg>
