<svg width="24" height="24" viewBox="0 0 24 24" fill="none" xmlns="http://www.w3.org/2000/svg">
<path d="M16.054 20.2737L15.6735 20.92L16.054 20.2737ZM13.0947 18.5317L13.4751 17.8854L13.0947 18.5317ZM10.9053 18.5317L11.2858 19.178L10.9053 18.5317ZM7.94601 20.2737L7.56555 19.6273L7.56555 19.6273L7.94601 20.2737ZM8.99225 3.7977L8.84524 3.06225L8.99225 3.7977ZM15.0077 3.7977L14.8607 4.53315L15.0077 3.7977ZM17.75 8.07579V18.8637H19.25V8.07579H17.75ZM6.25 18.8637V8.07579H4.75V18.8637H6.25ZM16.4345 19.6273L13.4751 17.8854L12.7142 19.178L15.6735 20.92L16.4345 19.6273ZM10.5249 17.8854L7.56555 19.6273L8.32646 20.92L11.2858 19.178L10.5249 17.8854ZM9.13927 4.53315C11.028 4.15562 12.9721 4.15562 14.8607 4.53315L15.1548 3.06225C13.072 2.64592 10.928 2.64592 8.84524 3.06225L9.13927 4.53315ZM13.4751 17.8854C12.5642 17.3492 11.4358 17.3492 10.5249 17.8854L11.2858 19.178C11.7271 18.9183 12.2729 18.9183 12.7142 19.178L13.4751 17.8854ZM4.75 18.8637C4.75 20.6989 6.73706 21.8556 8.32646 20.92L7.56555 19.6273C6.98834 19.9671 6.25 19.5528 6.25 18.8637H4.75ZM17.75 18.8637C17.75 19.5528 17.0117 19.9671 16.4345 19.6273L15.6735 20.92C17.2629 21.8556 19.25 20.6989 19.25 18.8637H17.75ZM19.25 8.07579C19.25 5.63996 17.5381 3.53868 15.1548 3.06225L14.8607 4.53315C16.5375 4.86833 17.75 6.34949 17.75 8.07579H19.25ZM6.25 8.07579C6.25 6.34949 7.46252 4.86833 9.13927 4.53315L8.84524 3.06225C6.46186 3.53868 4.75 5.63996 4.75 8.07579H6.25Z" fill="#17871B"/>
<path d="M6.25 18.8637C6.25 18.4495 5.91421 18.1137 5.5 18.1137C5.08579 18.1137 4.75 18.4495 4.75 18.8637H6.25ZM16.054 20.2737L15.6735 20.92L16.054 20.2737ZM13.0947 18.5317L13.4751 17.8854L13.0947 18.5317ZM10.9053 18.5317L11.2858 19.178L10.9053 18.5317ZM7.94601 20.2737L7.56555 19.6273L7.56555 19.6273L7.94601 20.2737ZM8.84524 3.06225C8.43906 3.14345 8.17561 3.53854 8.2568 3.94472C8.338 4.3509 8.73309 4.61435 9.13927 4.53315L8.84524 3.06225ZM15.0077 3.7977L14.8607 4.53315L15.0077 3.7977ZM17.75 8.07579V18.8637H19.25V8.07579H17.75ZM16.4345 19.6273L13.4751 17.8854L12.7142 19.178L15.6735 20.92L16.4345 19.6273ZM10.5249 17.8854L7.56555 19.6273L8.32646 20.92L11.2858 19.178L10.5249 17.8854ZM9.13927 4.53315C11.028 4.15562 12.9721 4.15562 14.8607 4.53315L15.1548 3.06225C13.072 2.64592 10.928 2.64592 8.84524 3.06225L9.13927 4.53315ZM13.4751 17.8854C12.5642 17.3492 11.4358 17.3492 10.5249 17.8854L11.2858 19.178C11.7271 18.9183 12.2729 18.9183 12.7142 19.178L13.4751 17.8854ZM4.75 18.8637C4.75 20.6989 6.73706 21.8556 8.32646 20.92L7.56555 19.6273C6.98834 19.9671 6.25 19.5528 6.25 18.8637H4.75ZM17.75 18.8637C17.75 19.5528 17.0117 19.9671 16.4345 19.6273L15.6735 20.92C17.2629 21.8556 19.25 20.6989 19.25 18.8637H17.75ZM19.25 8.07579C19.25 5.63996 17.5381 3.53868 15.1548 3.06225L14.8607 4.53315C16.5375 4.86833 17.75 6.34949 17.75 8.07579H19.25Z" fill="black"/>
<path opacity="0.8" d="M8.63723 12.6859L9.12402 12.5718L8.63723 12.6859ZM8.63723 10.3141L8.15044 10.1999L8.63723 10.3141ZM15.3628 10.3141L15.8496 10.1999L15.3628 10.3141ZM15.3628 12.6859L14.876 12.5718L15.3628 12.6859ZM13.1859 14.8628L13.0718 14.376L13.1859 14.8628ZM10.8141 14.8628L10.9282 14.376L10.8141 14.8628ZM10.8141 8.13723L10.6999 7.65044L10.8141 8.13723ZM13.1859 8.13723L13.3001 7.65044L13.1859 8.13723ZM9.12402 12.5718C8.95866 11.8668 8.95866 11.1332 9.12402 10.4282L8.15044 10.1999C7.94985 11.055 7.94985 11.945 8.15044 12.8001L9.12402 12.5718ZM14.876 10.4282C15.0413 11.1332 15.0413 11.8668 14.876 12.5718L15.8496 12.8001C16.0501 11.945 16.0501 11.055 15.8496 10.1999L14.876 10.4282ZM13.0718 14.376C12.3668 14.5413 11.6332 14.5413 10.9282 14.376L10.6999 15.3496C11.555 15.5501 12.445 15.5501 13.3001 15.3496L13.0718 14.376ZM10.9282 8.62402C11.6332 8.45866 12.3668 8.45866 13.0718 8.62402L13.3001 7.65044C12.445 7.44985 11.555 7.44985 10.6999 7.65044L10.9282 8.62402ZM10.9282 14.376C10.033 14.166 9.33401 13.467 9.12402 12.5718L8.15044 12.8001C8.44717 14.0651 9.43489 15.0528 10.6999 15.3496L10.9282 14.376ZM13.3001 15.3496C14.5651 15.0528 15.5528 14.0651 15.8496 12.8001L14.876 12.5718C14.666 13.467 13.967 14.166 13.0718 14.376L13.3001 15.3496ZM13.0718 8.62402C13.967 8.83401 14.666 9.53301 14.876 10.4282L15.8496 10.1999C15.5528 8.93488 14.5651 7.94717 13.3001 7.65044L13.0718 8.62402ZM10.6999 7.65044C9.43488 7.94717 8.44717 8.93488 8.15044 10.1999L9.12402 10.4282C9.33401 9.53301 10.033 8.83401 10.9282 8.62402L10.6999 7.65044Z" fill="#17871B"/>
<path opacity="0.8" d="M8.63723 12.6397L8.14995 12.7517L8.63723 12.6397ZM9.12451 10.3324C9.1864 10.0633 9.01841 9.79496 8.74929 9.73307C8.48017 9.67119 8.21184 9.83918 8.14995 10.1083L9.12451 10.3324ZM15.3628 10.2204L15.8501 10.1083L15.3628 10.2204ZM15.3628 12.6397L14.8755 12.5276L15.3628 12.6397ZM13.1859 14.86L13.0696 14.3738L13.0696 14.3738L13.1859 14.86ZM10.8141 14.86L10.6977 15.3463L10.8141 14.86ZM13.3023 7.51372C13.0337 7.44947 12.7639 7.61509 12.6997 7.88365C12.6354 8.15222 12.801 8.42202 13.0696 8.48627L13.3023 7.51372ZM9.12451 12.5276C8.9585 11.8057 8.9585 11.0543 9.12451 10.3324L8.14995 10.1083C7.95002 10.9777 7.95002 11.8823 8.14995 12.7517L9.12451 12.5276ZM14.8755 10.3324C15.0415 11.0543 15.0415 11.8057 14.8755 12.5276L15.8501 12.7517C16.05 11.8823 16.05 10.9777 15.8501 10.1083L14.8755 10.3324ZM13.0696 14.3738C12.366 14.5421 11.634 14.5421 10.9304 14.3738L10.6977 15.3463C11.5542 15.5512 12.4458 15.5512 13.3023 15.3463L13.0696 14.3738ZM10.9304 14.3738C10.0391 14.1605 9.33628 13.4485 9.12451 12.5276L8.14995 12.7517C8.4449 14.0343 9.42876 15.0427 10.6977 15.3463L10.9304 14.3738ZM13.3023 15.3463C14.5712 15.0427 15.5551 14.0343 15.8501 12.7517L14.8755 12.5276C14.6637 13.4485 13.9609 14.1605 13.0696 14.3738L13.3023 15.3463ZM13.0696 8.48627C13.9609 8.69952 14.6637 9.41154 14.8755 10.3324L15.8501 10.1083C15.5551 8.82575 14.5712 7.81733 13.3023 7.51372L13.0696 8.48627Z" fill="black"/>
<path d="M12.6432 13.0433C12.9432 13.2404 13.3462 13.1569 13.5433 12.8568C13.7404 12.5568 13.6569 12.1538 13.3568 11.9567L12.6432 13.0433ZM12 11.8432H11.35C11.35 12.0622 11.4602 12.2664 11.6432 12.3865L12 11.8432ZM12.65 10.5C12.65 10.141 12.359 9.85 12 9.85C11.641 9.85 11.35 10.141 11.35 10.5H12.65ZM13.3568 11.9567L12.3568 11.2999L11.6432 12.3865L12.6432 13.0433L13.3568 11.9567ZM12.65 11.8432V10.5H11.35V11.8432H12.65Z" fill="#17871B"/>
</svg>
