<svg width="24" height="24" viewBox="0 0 24 24" fill="none" xmlns="http://www.w3.org/2000/svg">
<g clip-path="url(#clip0_882_16701)">
<path d="M16.054 20.2737L15.6735 20.92L16.054 20.2737ZM13.0947 18.5317L13.4751 17.8854L13.0947 18.5317ZM10.9053 18.5317L11.2858 19.178L10.9053 18.5317ZM7.94601 20.2737L7.56555 19.6273L7.56555 19.6273L7.94601 20.2737ZM8.99225 3.7977L8.84524 3.06225L8.99225 3.7977ZM15.0077 3.7977L14.8607 4.53315L15.0077 3.7977ZM17.75 8.07579V18.8637H19.25V8.07579H17.75ZM6.25 18.8637V8.07579H4.75V18.8637H6.25ZM16.4345 19.6273L13.4751 17.8854L12.7142 19.178L15.6735 20.92L16.4345 19.6273ZM10.5249 17.8854L7.56555 19.6273L8.32646 20.92L11.2858 19.178L10.5249 17.8854ZM9.13927 4.53315C11.028 4.15562 12.9721 4.15562 14.8607 4.53315L15.1548 3.06225C13.072 2.64592 10.928 2.64592 8.84524 3.06225L9.13927 4.53315ZM13.4751 17.8854C12.5642 17.3492 11.4358 17.3492 10.5249 17.8854L11.2858 19.178C11.7271 18.9183 12.2729 18.9183 12.7142 19.178L13.4751 17.8854ZM4.75 18.8637C4.75 20.6989 6.73706 21.8556 8.32646 20.92L7.56555 19.6273C6.98834 19.9671 6.25 19.5528 6.25 18.8637H4.75ZM17.75 18.8637C17.75 19.5528 17.0117 19.9671 16.4345 19.6273L15.6735 20.92C17.2629 21.8556 19.25 20.6989 19.25 18.8637H17.75ZM19.25 8.07579C19.25 5.63996 17.5381 3.53868 15.1548 3.06225L14.8607 4.53315C16.5375 4.86833 17.75 6.34949 17.75 8.07579H19.25ZM6.25 8.07579C6.25 6.34949 7.46252 4.86833 9.13927 4.53315L8.84524 3.06225C6.46186 3.53868 4.75 5.63996 4.75 8.07579H6.25Z" fill="#17871B"/>
<g filter="url(#filter0_d_882_16701)">
<path d="M6.25 18.8637C6.25 18.4495 5.91421 18.1137 5.5 18.1137C5.08579 18.1137 4.75 18.4495 4.75 18.8637H6.25ZM16.054 20.2737L15.6735 20.92L16.054 20.2737ZM13.0947 18.5317L13.4751 17.8854L13.0947 18.5317ZM10.9053 18.5317L11.2858 19.178L10.9053 18.5317ZM7.94601 20.2737L7.56555 19.6273L7.56555 19.6273L7.94601 20.2737ZM8.84524 3.06225C8.43906 3.14345 8.17561 3.53854 8.2568 3.94472C8.338 4.3509 8.73309 4.61435 9.13927 4.53315L8.84524 3.06225ZM15.0077 3.7977L14.8607 4.53315L15.0077 3.7977ZM17.75 8.07579V18.8637H19.25V8.07579H17.75ZM16.4345 19.6273L13.4751 17.8854L12.7142 19.178L15.6735 20.92L16.4345 19.6273ZM10.5249 17.8854L7.56555 19.6273L8.32646 20.92L11.2858 19.178L10.5249 17.8854ZM9.13927 4.53315C11.028 4.15562 12.9721 4.15562 14.8607 4.53315L15.1548 3.06225C13.072 2.64592 10.928 2.64592 8.84524 3.06225L9.13927 4.53315ZM13.4751 17.8854C12.5642 17.3492 11.4358 17.3492 10.5249 17.8854L11.2858 19.178C11.7271 18.9183 12.2729 18.9183 12.7142 19.178L13.4751 17.8854ZM4.75 18.8637C4.75 20.6989 6.73706 21.8556 8.32646 20.92L7.56555 19.6273C6.98834 19.9671 6.25 19.5528 6.25 18.8637H4.75ZM17.75 18.8637C17.75 19.5528 17.0117 19.9671 16.4345 19.6273L15.6735 20.92C17.2629 21.8556 19.25 20.6989 19.25 18.8637H17.75ZM19.25 8.07579C19.25 5.63996 17.5381 3.53868 15.1548 3.06225L14.8607 4.53315C16.5375 4.86833 17.75 6.34949 17.75 8.07579H19.25Z" fill="black"/>
</g>
</g>
<defs>
<filter id="filter0_d_882_16701" x="0.75" y="2.75" width="22.5" height="26.5015" filterUnits="userSpaceOnUse" color-interpolation-filters="sRGB">
<feFlood flood-opacity="0" result="BackgroundImageFix"/>
<feColorMatrix in="SourceAlpha" type="matrix" values="0 0 0 0 0 0 0 0 0 0 0 0 0 0 0 0 0 0 127 0" result="hardAlpha"/>
<feOffset dy="4"/>
<feGaussianBlur stdDeviation="2"/>
<feComposite in2="hardAlpha" operator="out"/>
<feColorMatrix type="matrix" values="0 0 0 0 0 0 0 0 0 0 0 0 0 0 0 0 0 0 0.25 0"/>
<feBlend mode="normal" in2="BackgroundImageFix" result="effect1_dropShadow_882_16701"/>
<feBlend mode="normal" in="SourceGraphic" in2="effect1_dropShadow_882_16701" result="shape"/>
</filter>
<clipPath id="clip0_882_16701">
<rect width="24" height="24" fill="white"/>
</clipPath>
</defs>
</svg>
