<svg width="22" height="22" viewBox="0 0 22 22" fill="none" xmlns="http://www.w3.org/2000/svg">
<path d="M12.2471 10.9584C12.2471 11.7112 11.6362 12.3217 10.8838 12.3217C10.3551 12.3217 9.90201 12.0178 9.67582 11.5782L9.67204 11.5816L7.18329 7.09155L11.5524 9.77074L11.5482 9.77487C11.9631 10.009 12.2471 10.4483 12.2471 10.9584Z" fill="#17871B"/>
<path d="M5.39172 4.46225C6.78872 3.24125 8.59375 2.46162 10.6562 2.34509V4.41687C8.9375 4.52619 7.92481 5.07206 6.908 5.92387L5.39172 4.46225Z" fill="#17871B"/>
<path d="M4.41829 10.3126H2.34892C2.48779 8.25006 3.29457 6.55538 4.5472 5.16663L6.01123 6.62172C5.12917 7.63234 4.54892 8.93756 4.41829 10.3126Z" fill="#17871B"/>
<path d="M4.40871 11.3438C4.62768 14.7813 7.47565 17.5076 10.9544 17.5076C14.5758 17.5076 17.6304 14.5706 17.6304 10.9495C17.6304 7.5024 14.781 4.68193 11.6873 4.41724V2.34546C16.156 2.61324 19.6929 6.37318 19.6929 10.9585C19.6929 15.717 15.7672 19.5701 11.0087 19.5701C6.39146 19.5701 2.5559 15.8126 2.33556 11.3438H4.40871Z" fill="#17871B"/>
</svg>
