<svg width="135" height="135" viewBox="0 0 135 135" fill="none" xmlns="http://www.w3.org/2000/svg">
<circle cx="67.5" cy="67.5" r="67.5" fill="#C2ECC4"/>
<path d="M92.4535 39.2302C92.3882 41.5707 92.3774 45.2055 93.8126 47.0715C94.8455 48.4197 96.5635 49.207 98.2706 49.1423C99.9776 49.0776 101.619 48.1932 102.62 46.8126C103.99 44.9251 104.077 41.3118 103.664 39.0252C99.9341 38.9929 96.694 39.0145 92.4535 39.2302Z" fill="#17721A"/>
<path d="M55.9635 28.8652C50.2008 29.0486 43.5791 29.6526 40.2193 34.312C37.9795 37.4183 37.8599 41.5062 37.8381 45.3243C37.6968 62.0855 37.5554 78.8574 37.4141 95.6185L72.371 94.8635C72.6211 77.9514 72.8711 61.0285 73.1212 44.1163C73.1756 40.2658 73.1212 36.0809 70.7183 33.0501C67.4346 28.8976 61.2804 28.6926 55.9635 28.8652ZM65.1404 71.4152C64.912 75.503 64.3575 80.0007 61.2696 82.7079C58.1164 85.4799 52.9517 85.3181 49.6136 82.7619C45.4493 79.58 45.3297 74.4676 45.4166 69.6463C45.5689 61.4707 45.8624 56.3582 46.0255 49.7897C46.1234 45.54 46.3952 40.859 49.3744 37.7958C51.1141 36.0162 53.6584 35.0347 56.1484 35.1965C58.6383 35.3583 61.0412 36.6526 62.52 38.6479C64.3793 41.1394 64.7381 44.386 64.9555 47.4815C65.5209 55.4522 65.5862 63.4553 65.1404 71.4152Z" fill="#17721A"/>
<path d="M61.2371 58.44C59.2582 58.4616 58.4862 58.5371 56.5073 58.4292C56.4095 58.4292 57.1271 54.5032 57.6599 51.6773C57.7795 51.0409 56.9422 50.7066 56.5726 51.2351C54.7133 53.9855 51.7123 58.4184 50.027 60.7589C49.7443 61.158 50.027 61.6973 50.5163 61.6973C51.9189 61.6757 52.9083 61.6002 54.735 61.6649C53.8978 63.5201 52.9844 66.1087 51.8754 68.8699C51.6362 69.4846 52.419 69.97 52.8757 69.4846C56.0398 66.044 58.2144 63.5309 61.7046 59.4107C62.0308 59.0224 61.7481 58.4292 61.2371 58.44Z" fill="#17721A"/>
<path d="M81.7326 66.6693C81.7869 65.0838 81.8522 63.4551 81.9283 60.7479C81.9392 60.4459 81.95 60.1331 81.9609 59.8203C82.0805 56.8542 82.2219 53.489 79.6993 51.5044C77.7748 49.9836 76.0786 49.4767 73.0124 49.5198C72.5666 49.5198 72.1969 49.8866 72.2078 50.3396C72.2078 50.7818 72.5774 51.1377 73.0232 51.1377H73.0341C75.7306 51.1054 77.0571 51.4936 78.6881 52.7772C80.5583 54.2548 80.4495 57.0483 80.3299 59.7664C80.3191 60.0899 80.3082 60.4027 80.2973 60.7155C80.2103 63.4227 80.156 65.0514 80.1016 66.6369C80.0472 68.2009 79.9929 69.8079 79.9059 72.4505C79.7972 76.0421 79.6667 80.1084 81.2215 83.7432C82.7329 87.2701 86.0927 89.5352 89.6373 89.5352C89.9961 89.5352 90.3549 89.5136 90.7246 89.4597C94.03 89.0282 96.7374 86.8387 97.9552 83.6138C99.1077 80.5614 99.1077 77.1962 99.1077 74.2301C99.1077 69.0421 99.1077 65.7417 99.1077 62.6677C99.1077 58.8711 99.1077 55.4089 99.1077 49.1639C99.1077 48.7217 98.738 48.355 98.2922 48.355C97.8464 48.355 97.4768 48.7217 97.4768 49.1639C97.4768 55.4089 97.4768 58.8711 97.4768 62.6677C97.4768 65.7417 97.4768 69.0421 97.4768 74.2301C97.4768 77.1962 97.4768 80.2702 96.4221 83.0421C95.4109 85.6954 93.2036 87.4967 90.5071 87.8526C87.2996 88.2732 84.1029 86.321 82.722 83.1068C81.3085 79.8064 81.4281 75.9235 81.5368 72.5044C81.613 69.8403 81.6673 68.2332 81.7326 66.6693Z" fill="black"/>
<path d="M95.5852 39.9097H95.5961C96.0419 39.8989 96.4007 39.5322 96.4007 39.09L96.3028 34.1717C96.292 33.7295 95.9223 33.3735 95.4765 33.3735C95.0307 33.3843 94.6719 33.751 94.6719 34.1933L94.7697 39.1116C94.7806 39.5538 95.1394 39.9097 95.5852 39.9097Z" fill="black"/>
<path d="M100.597 39.8234C100.608 39.8234 100.608 39.8234 100.619 39.8234C101.065 39.8127 101.424 39.4459 101.413 38.9929L101.293 33.8589C101.282 33.4167 100.913 33.0607 100.456 33.0715C100.01 33.0823 99.6515 33.449 99.6624 33.902L99.782 39.0361C99.7928 39.4675 100.163 39.8234 100.597 39.8234Z" fill="black"/>
<path d="M30.3575 106.199C30.3793 106.631 30.7272 106.976 31.1621 106.976C32.456 106.987 33.7717 106.987 35.0982 106.987C41.6003 106.987 48.4503 106.89 55.1155 106.803C63.129 106.695 71.4251 106.577 79.0362 106.631C79.0362 106.631 79.0363 106.631 79.0471 106.631C79.2646 106.631 79.4712 106.544 79.6234 106.393C79.7756 106.242 79.8626 106.038 79.8626 105.822C79.8626 105.509 79.8626 105.196 79.8626 104.905C79.8626 99.771 79.8735 96.9451 76.318 95.09C74.0129 93.8819 71.2729 93.9467 69.0765 93.9898C64.9013 94.0761 60.6608 94.0761 56.5507 94.0653C52.4299 94.0653 48.1785 94.0545 43.9815 94.1408C40.6761 94.2055 36.5769 94.2918 33.402 96.5245C30.0857 98.865 30.227 102.759 30.3575 106.199ZM34.3479 97.8403C37.1097 95.8989 40.937 95.8126 44.0141 95.7587C48.1894 95.6724 52.4407 95.6724 56.5399 95.6832C60.6608 95.6832 64.9121 95.694 69.0983 95.6077C71.2185 95.5645 73.6215 95.5106 75.546 96.5245C78.2208 97.9266 78.2208 99.8249 78.2208 104.905C78.2208 104.937 78.2208 104.97 78.2208 105.013C70.8162 104.97 62.8245 105.088 55.0938 105.196C47.3521 105.304 39.3604 105.412 31.9559 105.38C31.8689 101.874 32.0863 99.4366 34.3479 97.8403Z" fill="black"/>
<path d="M48.7766 37.2458C45.6669 40.4384 45.3081 45.1842 45.1993 49.7789C45.1341 52.6156 45.0362 55.1394 44.9384 57.8251C44.8079 61.3413 44.6774 64.9869 44.5904 69.6463C44.4926 75.0069 44.7644 80.0978 49.1028 83.4198C50.9729 84.8435 53.278 85.5554 55.5287 85.5554C57.8447 85.5554 60.1063 84.8112 61.7916 83.3227C65.0209 80.4861 65.6842 75.9453 65.9343 71.4691C66.3692 63.4877 66.3039 55.4091 65.7385 47.4384C65.5102 44.2026 65.1188 40.8267 63.1508 38.1842C61.5198 35.9947 58.9103 34.5817 56.1702 34.4091C53.4629 34.2258 50.6902 35.2828 48.7766 37.2458ZM55.594 36.0054C55.7571 36.0054 55.9202 36.0054 56.0833 36.0162C58.3449 36.1672 60.5086 37.3321 61.8569 39.1441C63.5639 41.4415 63.9227 44.5586 64.1293 47.5462C64.6947 55.4522 64.76 63.4661 64.325 71.3721C64.0967 75.503 63.4987 79.6664 60.7261 82.1039C59.3887 83.2796 57.562 83.9267 55.5722 83.9267C55.5505 83.9267 55.5287 83.9267 55.5179 83.9267C53.539 83.916 51.6144 83.2796 50.1139 82.1255C46.3627 79.2565 46.1344 74.7912 46.2323 69.6571C46.3192 65.0192 46.4497 61.3844 46.5802 57.8683C46.6781 55.1826 46.7759 52.6479 46.8412 49.8005C46.9499 45.3459 47.2652 41.1287 49.9617 38.3567C51.4187 36.8683 53.4955 36.0054 55.594 36.0054Z" fill="black"/>
</svg>
