<svg width="194" height="21" viewBox="0 0 194 21" fill="none" xmlns="http://www.w3.org/2000/svg">
<path d="M15.89 13.4H16.97V20H0.0200001V19.04C0.56 18.86 1.08 18.71 1.58 18.59C2.1 18.47 2.61 18.37 3.11 18.29L3.38 2.24L0.0200001 1.58V0.499999H16.7V6.5H15.59L14.51 2.45H4.97L6.23 1.19V9.05H11.39L12.32 6.56H13.31V13.46H12.32L11.36 10.97H6.23V19.31L4.97 18.05H14.75L15.89 13.4ZM28.2678 20L21.3078 0.799999H24.6678L30.6678 18.59H30.0978L36.3378 0.799999H38.7678L31.6578 20H28.2678ZM23.7078 2.6C23.0278 2.5 22.3478 2.36 21.6678 2.18C20.9878 2 20.3178 1.77 19.6578 1.49V0.499999H27.9978V1.49L23.7078 2.6ZM37.5378 2.6C36.6978 2.5 35.8478 2.36 34.9878 2.18C34.1478 2 33.3178 1.77 32.4978 1.49V0.499999H40.2678V1.49L37.5378 2.6ZM57.7988 20.24C54.7388 20.24 52.3788 19.39 50.7188 17.69C49.0788 15.99 48.2588 13.54 48.2588 10.34C48.2588 8.22 48.6588 6.41 49.4588 4.91C50.2588 3.39 51.4088 2.23 52.9088 1.43C54.4288 0.609999 56.2288 0.199999 58.3088 0.199999C59.0888 0.199999 59.9288 0.259999 60.8288 0.379999C61.7288 0.479999 62.6488 0.649999 63.5888 0.889999L62.8988 3.23C62.0588 2.97 61.2088 2.77 60.3488 2.63C59.4888 2.49 58.6188 2.42 57.7388 2.42C56.8188 2.42 55.9188 2.51 55.0388 2.69C54.1588 2.87 53.2888 3.15 52.4288 3.53L53.5988 2.66C52.8588 3.8 52.2988 5.01 51.9188 6.29C51.5388 7.55 51.3488 8.92 51.3488 10.4C51.3488 12.9 51.9288 14.81 53.0888 16.13C54.2688 17.45 55.9388 18.11 58.0988 18.11C58.7788 18.11 59.4988 18.04 60.2588 17.9C61.0388 17.76 61.8788 17.53 62.7788 17.21L63.5888 19.43C61.4288 19.97 59.4988 20.24 57.7988 20.24ZM60.5288 19.49L62.4188 13.46H63.5888V19.43L60.5288 19.49ZM62.4188 6.86L60.5588 0.86L63.5888 0.889999V6.86H62.4188ZM79.5913 20V19.07C80.1113 18.89 80.6113 18.74 81.0913 18.62C81.5713 18.48 82.0613 18.37 82.5612 18.29L82.8613 2.24L79.5913 1.58V0.499999H88.7713V1.46C88.3113 1.62 87.8213 1.77 87.3013 1.91C86.7813 2.03 86.2413 2.13 85.6813 2.21V18.32L88.7713 18.92V20H79.5913ZM66.9613 20V19.04C67.5013 18.86 68.0213 18.71 68.5213 18.59C69.0413 18.47 69.5513 18.37 70.0513 18.29L70.3513 2.24L66.9613 1.58V0.499999H76.1713V1.46C75.7313 1.62 75.2513 1.77 74.7313 1.91C74.2313 2.03 73.7113 2.13 73.1713 2.21V18.32L76.1713 18.92V20H66.9613ZM71.7313 11.06V9.14H84.2413V11.06H71.7313ZM108.511 18.41C108.851 18.49 109.191 18.58 109.531 18.68C109.891 18.78 110.231 18.88 110.551 18.98V20H102.241V18.98L105.181 18.38L99.481 1.55H100.231L94.321 18.26C94.901 18.36 95.471 18.47 96.031 18.59C96.611 18.71 97.181 18.84 97.741 18.98V20H89.941V18.98L91.981 18.26L98.581 0.499999H101.971L108.511 18.41ZM95.011 13.76V11.99H105.271V13.76H95.011ZM128.588 18.29L131.408 18.92V20H125.768L124.838 14.6C124.638 13.5 124.288 12.73 123.788 12.29C123.308 11.85 122.558 11.63 121.538 11.63H116.618V9.71H122.858C123.878 9.21 124.618 8.65 125.078 8.03C125.558 7.41 125.798 6.69 125.798 5.87C125.798 4.79 125.458 3.95 124.778 3.35C124.098 2.75 123.158 2.45 121.958 2.45H117.968V18.32L121.058 18.92V20H111.758V19.04C112.078 18.88 112.488 18.74 112.988 18.62C113.508 18.48 114.128 18.37 114.848 18.29L115.148 2.24L111.758 1.58V0.499999H122.558C124.458 0.499999 125.978 0.939999 127.118 1.82C128.278 2.7 128.858 3.86 128.858 5.3C128.858 6.52 128.448 7.61 127.628 8.57C126.828 9.53 125.778 10.2 124.478 10.58C125.438 10.82 126.188 11.27 126.728 11.93C127.288 12.59 127.678 13.51 127.898 14.69L128.588 18.29ZM142.683 20.24C139.463 20.24 136.973 19.39 135.213 17.69C133.473 15.99 132.603 13.54 132.603 10.34C132.603 8.22 133.023 6.41 133.863 4.91C134.723 3.39 135.943 2.23 137.523 1.43C139.123 0.609999 141.033 0.199999 143.253 0.199999C144.053 0.199999 144.913 0.259999 145.833 0.379999C146.753 0.479999 147.693 0.649999 148.653 0.889999L147.753 3.23C146.873 2.97 145.973 2.78 145.053 2.66C144.133 2.52 143.213 2.45 142.293 2.45C141.273 2.45 140.243 2.55 139.203 2.75C138.183 2.93 137.193 3.22 136.233 3.62L138.183 2.66C137.383 3.8 136.773 5.01 136.353 6.29C135.933 7.57 135.723 8.94 135.723 10.4C135.723 12.92 136.353 14.85 137.613 16.19C138.873 17.53 140.643 18.2 142.923 18.2C143.663 18.2 144.433 18.13 145.233 17.99C146.053 17.85 146.923 17.63 147.843 17.33L148.653 19.43C147.533 19.71 146.473 19.91 145.473 20.03C144.473 20.17 143.543 20.24 142.683 20.24ZM145.623 19.43L145.743 11.9L141.813 11.21V10.13H151.173V11.09C150.813 11.25 150.423 11.4 150.003 11.54C149.583 11.66 149.133 11.76 148.653 11.84V19.43H145.623ZM147.513 6.8L145.593 0.86L148.653 0.889999V6.8H147.513ZM169.113 13.4H170.193V20H153.243V19.04C153.783 18.86 154.303 18.71 154.803 18.59C155.323 18.47 155.833 18.37 156.333 18.29L156.603 2.24L153.243 1.58V0.499999H169.923V6.5H168.813L167.733 2.45H158.193L159.453 1.19V9.05H164.613L165.543 6.56H166.533V13.46H165.543L164.583 10.97H159.453V19.31L158.193 18.05H167.973L169.113 13.4ZM190.58 18.29L193.4 18.92V20H187.76L186.83 14.6C186.63 13.5 186.28 12.73 185.78 12.29C185.3 11.85 184.55 11.63 183.53 11.63H178.61V9.71H184.85C185.87 9.21 186.61 8.65 187.07 8.03C187.55 7.41 187.79 6.69 187.79 5.87C187.79 4.79 187.45 3.95 186.77 3.35C186.09 2.75 185.15 2.45 183.95 2.45H179.96V18.32L183.05 18.92V20H173.75V19.04C174.07 18.88 174.48 18.74 174.98 18.62C175.5 18.48 176.12 18.37 176.84 18.29L177.14 2.24L173.75 1.58V0.499999H184.55C186.45 0.499999 187.97 0.939999 189.11 1.82C190.27 2.7 190.85 3.86 190.85 5.3C190.85 6.52 190.44 7.61 189.62 8.57C188.82 9.53 187.77 10.2 186.47 10.58C187.43 10.82 188.18 11.27 188.72 11.93C189.28 12.59 189.67 13.51 189.89 14.69L190.58 18.29Z" fill="black"/>
</svg>
