<svg width="18" height="19" viewBox="0 0 18 19" fill="none" xmlns="http://www.w3.org/2000/svg">
<path d="M5.88191 4.34576L6.56892 4.64661H6.56892L5.88191 4.34576ZM6.61351 3.31005L6.09812 2.76519L6.09812 2.76519L6.61351 3.31005ZM7.70844 2.61801L7.98205 3.31632V3.31632L7.70844 2.61801ZM10.2916 2.61801L10.5652 1.9197V1.9197L10.2916 2.61801ZM12.1181 4.34576L12.8051 4.04492V4.04492L12.1181 4.34576ZM6.375 5.56747C6.375 5.25269 6.44049 4.93992 6.56892 4.64661L5.19489 4.04492C4.98411 4.52627 4.875 5.04376 4.875 5.56747H6.375ZM6.56892 4.64661C6.69742 4.35318 6.88697 4.08377 7.12891 3.85491L6.09812 2.76519C5.71327 3.12923 5.40562 3.56369 5.19489 4.04492L6.56892 4.64661ZM7.12891 3.85491C7.37093 3.62597 7.66049 3.44231 7.98205 3.31632L7.43484 1.9197C6.93745 2.11458 6.48289 2.40123 6.09812 2.76519L7.12891 3.85491ZM7.98205 3.31632C8.30365 3.19032 8.64967 3.125 9 3.125V1.625C8.46391 1.625 7.93218 1.72484 7.43484 1.9197L7.98205 3.31632ZM9 3.125C9.35033 3.125 9.69635 3.19032 10.018 3.31632L10.5652 1.9197C10.0678 1.72484 9.53609 1.625 9 1.625V3.125ZM10.018 3.31632C10.3395 3.44231 10.6291 3.62597 10.8711 3.85491L11.9019 2.76519C11.5171 2.40124 11.0626 2.11458 10.5652 1.9197L10.018 3.31632ZM10.8711 3.85491C11.113 4.08377 11.3026 4.35318 11.4311 4.64661L12.8051 4.04492C12.5944 3.56369 12.2867 3.12923 11.9019 2.76519L10.8711 3.85491ZM11.4311 4.64661C11.5595 4.93992 11.625 5.25269 11.625 5.56747H13.125C13.125 5.04376 13.0159 4.52627 12.8051 4.04492L11.4311 4.64661Z" fill="#17871B"/>
<path d="M2.25 4.81738C1.83579 4.81738 1.5 5.15317 1.5 5.56738C1.5 5.9816 1.83579 6.31738 2.25 6.31738V4.81738ZM15.75 6.31738C16.1642 6.31738 16.5 5.9816 16.5 5.56738C16.5 5.15317 16.1642 4.81738 15.75 4.81738V6.31738ZM3.75 5.56738V4.81738H3V5.56738H3.75ZM14.25 5.56738H15V4.81738H14.25V5.56738ZM13.7564 13.3239L14.4798 13.5217L13.7564 13.3239ZM10.293 16.5104L10.4247 17.2487H10.4247L10.293 16.5104ZM7.70701 16.5104L7.83871 15.772L7.8387 15.772L7.70701 16.5104ZM7.5887 16.4893L7.457 17.2276L7.457 17.2276L7.5887 16.4893ZM4.24361 13.3239L3.52018 13.5217L4.24361 13.3239ZM10.4113 16.4893L10.2796 15.7509H10.2796L10.4113 16.4893ZM2.25 6.31738H15.75V4.81738H2.25V6.31738ZM10.2796 15.7509L10.1613 15.772L10.4247 17.2487L10.543 17.2276L10.2796 15.7509ZM7.8387 15.772L7.7204 15.7509L7.457 17.2276L7.57531 17.2487L7.8387 15.772ZM13.5 5.56738V9.63911H15V5.56738H13.5ZM4.5 9.63913V5.56738H3V9.63913H4.5ZM13.5 9.63911C13.5 10.8195 13.3427 11.9936 13.0329 13.1261L14.4798 13.5217C14.8249 12.2597 15 10.9526 15 9.63911H13.5ZM10.1613 15.772C9.39236 15.9092 8.60761 15.9092 7.83871 15.772L7.5753 17.2487C8.51843 17.417 9.48154 17.417 10.4247 17.2487L10.1613 15.772ZM7.7204 15.7509C6.43207 15.5211 5.34776 14.5182 4.96705 13.126L3.52018 13.5217C4.0425 15.4316 5.5581 16.8889 7.457 17.2276L7.7204 15.7509ZM4.96705 13.126C4.65734 11.9936 4.5 10.8195 4.5 9.63913H3C3 10.9526 3.17504 12.2597 3.52018 13.5217L4.96705 13.126ZM10.543 17.2276C12.4419 16.8889 13.9575 15.4316 14.4798 13.5217L13.0329 13.1261C12.6522 14.5182 11.5679 15.5211 10.2796 15.7509L10.543 17.2276ZM3.75 6.31738H14.25V4.81738H3.75V6.31738Z" fill="black"/>
<path d="M8.25 9.5C8.25 9.08579 7.91421 8.75 7.5 8.75C7.08579 8.75 6.75 9.08579 6.75 9.5H8.25ZM6.75 12.6667C6.75 13.0809 7.08579 13.4167 7.5 13.4167C7.91421 13.4167 8.25 13.0809 8.25 12.6667H6.75ZM11.25 9.5C11.25 9.08579 10.9142 8.75 10.5 8.75C10.0858 8.75 9.75 9.08579 9.75 9.5H11.25ZM9.75 12.6667C9.75 13.0809 10.0858 13.4167 10.5 13.4167C10.9142 13.4167 11.25 13.0809 11.25 12.6667H9.75ZM6.75 9.5V12.6667H8.25V9.5H6.75ZM9.75 9.5V12.6667H11.25V9.5H9.75Z" fill="#17871B"/>
</svg>
