<svg width="11" height="15" viewBox="0 0 11 15" fill="none" xmlns="http://www.w3.org/2000/svg">
<path d="M8.48006 0.0627383C8.56978 0.114748 8.6392 0.195646 8.677 0.292214C8.71479 0.388783 8.71872 0.495314 8.68814 0.594405L7.03723 5.95874H10.0833C10.1728 5.9587 10.2604 5.98488 10.3352 6.03404C10.41 6.08321 10.4688 6.1532 10.5043 6.23538C10.5398 6.31756 10.5504 6.40834 10.5349 6.4965C10.5194 6.58467 10.4784 6.66636 10.417 6.73149L3.08365 14.5232C3.01269 14.5986 2.91827 14.6478 2.81577 14.6627C2.71327 14.6776 2.60875 14.6574 2.51923 14.6053C2.42971 14.5532 2.36047 14.4723 2.3228 14.3758C2.28514 14.2794 2.28126 14.173 2.31181 14.074L3.96273 8.70874H0.916646C0.827129 8.70877 0.739561 8.68259 0.664751 8.63343C0.589942 8.58427 0.531167 8.51428 0.495681 8.4321C0.460195 8.34991 0.449552 8.25914 0.465066 8.17097C0.480579 8.08281 0.521571 8.00112 0.582979 7.93599L7.91631 0.144322C7.98718 0.0689708 8.08146 0.0198095 8.18381 0.0048311C8.28616 -0.0101473 8.39057 0.00993814 8.48006 0.0618216V0.0627383Z" fill="#9B9B9B"/>
</svg>
