<svg width="34" height="34" viewBox="0 0 34 34" fill="none" xmlns="http://www.w3.org/2000/svg">
<path fill-rule="evenodd" clip-rule="evenodd" d="M13.7122 12.2281L11.9854 21.7783H14.7482L16.4753 12.2281H13.7122ZM9.6608 12.2281L7.02661 18.7966L6.71502 17.3822L6.71524 17.3826L6.64658 17.0656C6.32777 16.4473 5.58941 15.2722 4.19519 14.2694C3.783 13.973 3.36749 13.72 2.96582 13.5039L5.35988 21.7783H8.23854L12.6345 12.2281H9.6608ZM20.4437 14.8794C20.4437 13.7996 23.1345 13.9384 24.3169 14.5247L24.7111 12.4736C24.7111 12.4736 23.4943 12.0571 22.226 12.0571C20.8548 12.0571 17.5988 12.5967 17.5988 15.2187C17.5988 17.6862 21.4204 17.7169 21.4204 19.0124C21.4204 20.3079 17.9929 20.0763 16.8617 19.2591L16.4506 21.403C16.4506 21.403 17.6843 21.9426 19.5697 21.9426C21.4548 21.9426 24.2996 21.0638 24.2996 18.6731C24.2996 16.1901 20.4437 15.9588 20.4437 14.8794ZM31.7182 12.2281H29.4968C28.471 12.2281 28.2213 12.9398 28.2213 12.9398L24.1009 21.7783H26.9807L27.5568 20.3598H31.0693L31.3933 21.7783H33.9302L31.7182 12.2281ZM28.353 18.4L29.8048 14.8261L30.6216 18.4H28.353Z" fill="#005BAC"/>
<path fill-rule="evenodd" clip-rule="evenodd" d="M5.82339 13.1273C5.82339 13.1273 5.70903 12.2654 4.48812 12.2654H0.0524449L0.000488281 12.4274C0.000488281 12.4274 2.13263 12.8185 4.17815 14.2839C6.13293 15.6844 6.77061 17.4302 6.77061 17.4302L5.82339 13.1273Z" fill="#F6AC1D"/>
</svg>
