<svg width="77" height="77" viewBox="0 0 77 77" fill="none" xmlns="http://www.w3.org/2000/svg">
<circle cx="38.5" cy="38.5" r="38.5" fill="#17871B"/>
<path fill-rule="evenodd" clip-rule="evenodd" d="M60.9443 54.1015C60.9443 56.8015 58.7566 58.9892 56.0566 58.9892H20.8652C18.1653 58.9892 15.9775 56.8015 15.9775 54.1015V25.7529C15.9775 23.5935 17.7283 21.8428 19.8877 21.8428H39.6056L47.5227 18.9747C48.0242 18.7919 48.5794 19.0509 48.7622 19.5504L49.5961 21.8428H53.124C55.2834 21.8428 57.0342 23.5935 57.0342 25.7529V27.708C59.1936 27.708 60.9443 29.4588 60.9443 31.6181V54.1015ZM19.8877 23.7978C18.8085 23.7978 17.9326 24.6737 17.9326 25.7529C17.9326 26.8321 18.8085 27.708 19.8877 27.708H23.2553H23.4401C23.4528 27.7031 23.4606 27.6924 23.4733 27.6875L34.2086 23.7978H19.8877ZM48.3126 23.9748L47.2744 21.1164H47.2735L45.2685 21.8428H45.2715L39.8813 23.7978H39.8715L29.0805 27.708H49.6694L48.3126 23.9748ZM55.0791 25.7529C55.0791 24.6737 54.2032 23.7978 53.124 23.7978H50.3058L51.7271 27.708H55.0791V25.7529ZM57.0342 29.6631H19.8877C19.1721 29.6631 18.5094 29.4568 17.9326 29.1205V54.1015C17.9326 55.7213 19.2464 57.0342 20.8652 57.0342H56.0566C57.6764 57.0342 58.9893 55.7213 58.9893 54.1015V47.2588H55.0791C52.9197 47.2588 51.1689 45.508 51.1689 43.3486C51.1689 41.1892 52.9197 39.4385 55.0791 39.4385H58.9893V31.6181C58.9893 30.5389 58.1134 29.6631 57.0342 29.6631ZM58.9893 45.3037V41.3935H55.0791C53.9999 41.3935 53.124 42.2694 53.124 43.3486C53.124 44.4278 53.9999 45.3037 55.0791 45.3037H58.9893ZM55.0791 42.3711H57.0342V44.3262H55.0791V42.3711Z" fill="white"/>
</svg>
